<svg width="32" height="32" viewBox="0 0 32 32" fill="none" xmlns="http://www.w3.org/2000/svg">
<path d="M0 16C0 7.16344 7.16344 0 16 0C24.8366 0 32 7.16344 32 16C32 24.8366 24.8366 32 16 32C7.16344 32 0 24.8366 0 16Z" fill="#2C3B47"/>
<path fill-rule="evenodd" clip-rule="evenodd" d="M15.9975 11.8958C13.7293 11.8958 11.8906 13.7345 11.8906 16.0026C11.8906 18.2708 13.7293 20.1094 15.9975 20.1094C18.2656 20.1094 20.1042 18.2708 20.1042 16.0026C20.1042 13.7345 18.2656 11.8958 15.9975 11.8958ZM15.9974 18.6684C14.5251 18.6684 13.3316 17.4749 13.3316 16.0026C13.3316 14.5303 14.5251 13.3368 15.9974 13.3368C17.4697 13.3368 18.6633 14.5303 18.6633 16.0026C18.6633 17.4749 17.4697 18.6684 15.9974 18.6684Z" fill="white"/>
<path d="M20.2663 12.6932C20.7964 12.6932 21.226 12.2635 21.226 11.7335C21.226 11.2035 20.7964 10.7738 20.2663 10.7738C19.7363 10.7738 19.3066 11.2035 19.3066 11.7335C19.3066 12.2635 19.7363 12.6932 20.2663 12.6932Z" fill="white"/>
<path fill-rule="evenodd" clip-rule="evenodd" d="M15.9975 8.00513C13.8255 8.00513 13.5531 8.01433 12.7001 8.05325C11.8489 8.09208 11.2675 8.22729 10.7588 8.425C10.2329 8.62935 9.78692 8.90281 9.34229 9.34741C8.89768 9.79205 8.62422 10.238 8.41987 10.764C8.22216 11.2727 8.08695 11.854 8.04813 12.7053C8.00921 13.5583 8 13.8306 8 16.0026C8 18.1746 8.00921 18.4469 8.04813 19.3C8.08695 20.1512 8.22216 20.7326 8.41987 21.2413C8.62422 21.7672 8.89768 22.2132 9.34229 22.6578C9.78692 23.1024 10.2329 23.3759 10.7588 23.5802C11.2675 23.7779 11.8489 23.9131 12.7001 23.952C13.5531 23.9909 13.8255 24.0001 15.9975 24.0001C18.1695 24.0001 18.4418 23.9909 19.2948 23.952C20.1461 23.9131 20.7274 23.7779 21.2361 23.5802C21.762 23.3759 22.208 23.1024 22.6527 22.6578C23.0973 22.2132 23.3707 21.7672 23.5751 21.2413C23.7728 20.7326 23.908 20.1512 23.9468 19.3C23.9857 18.4469 23.995 18.1746 23.995 16.0026C23.995 13.8306 23.9857 13.5583 23.9468 12.7053C23.908 11.854 23.7728 11.2727 23.5751 10.764C23.3707 10.238 23.0973 9.79205 22.6527 9.34741C22.208 8.90281 21.762 8.62935 21.2361 8.425C20.7274 8.22729 20.1461 8.09208 19.2948 8.05325C18.4418 8.01433 18.1695 8.00513 15.9975 8.00513ZM15.9975 9.44611C18.1329 9.44611 18.3858 9.45427 19.2291 9.49275C20.0089 9.5283 20.4323 9.65859 20.7142 9.76811C21.0875 9.91319 21.3539 10.0865 21.6337 10.3664C21.9136 10.6462 22.0869 10.9126 22.232 11.2859C22.3415 11.5677 22.4718 11.9912 22.5073 12.7709C22.5458 13.6142 22.554 13.8672 22.554 16.0026C22.554 18.138 22.5458 18.391 22.5073 19.2343C22.4718 20.014 22.3415 20.4375 22.232 20.7193C22.0869 21.0926 21.9136 21.359 21.6337 21.6388C21.3539 21.9187 21.0875 22.092 20.7142 22.2371C20.4323 22.3466 20.0089 22.4769 19.2291 22.5125C18.386 22.5509 18.133 22.5591 15.9975 22.5591C13.8619 22.5591 13.609 22.5509 12.7658 22.5125C11.9861 22.4769 11.5626 22.3466 11.2808 22.2371C10.9075 22.092 10.6411 21.9187 10.3612 21.6388C10.0814 21.359 9.90806 21.0926 9.76298 20.7193C9.65346 20.4375 9.52317 20.014 9.48762 19.2343C9.44914 18.391 9.44098 18.138 9.44098 16.0026C9.44098 13.8672 9.44914 13.6142 9.48762 12.7709C9.52317 11.9912 9.65346 11.5677 9.76298 11.2859C9.90806 10.9126 10.0814 10.6462 10.3612 10.3664C10.6411 10.0865 10.9075 9.91319 11.2808 9.76811C11.5626 9.65859 11.9861 9.5283 12.7658 9.49275C13.6091 9.45427 13.8621 9.44611 15.9975 9.44611Z" fill="white"/>
</svg>
