<svg width="32" height="32" viewBox="0 0 32 32" fill="none" xmlns="http://www.w3.org/2000/svg">
<path d="M0 16C0 7.16344 7.16344 0 16 0C24.8366 0 32 7.16344 32 16C32 24.8366 24.8366 32 16 32C7.16344 32 0 24.8366 0 16Z" fill="#2C3B47"/>
<path fill-rule="evenodd" clip-rule="evenodd" d="M21.456 11.0004C22.415 11.054 22.886 11.1948 23.32 11.9604C23.772 12.725 24 14.0421 24 16.3617V16.3647V16.3697C24 18.6784 23.772 20.0054 23.321 20.7621C22.887 21.5277 22.416 21.6665 21.457 21.731C20.498 21.7855 18.089 21.8183 16.002 21.8183C13.911 21.8183 11.501 21.7855 10.543 21.73C9.586 21.6655 9.115 21.5267 8.677 20.7611C8.23 20.0044 8 18.6774 8 16.3687V16.3667V16.3637V16.3608C8 14.0421 8.23 12.725 8.677 11.9604C9.115 11.1938 9.587 11.054 10.544 10.9994C11.501 10.936 13.911 10.9092 16.002 10.9092C18.089 10.9092 20.498 10.936 21.456 11.0004ZM18.9091 16.7274L13.8182 13.8183V19.6365L18.9091 16.7274Z" fill="white"/>
</svg>
