<?xml version="1.0" encoding="UTF-8"?>
<svg width="100px" height="100px" viewBox="0 0 100 100" version="1.1" xmlns="http://www.w3.org/2000/svg" xmlns:xlink="http://www.w3.org/1999/xlink">
    <!-- Generator: sketchtool 57.1 (101010) - https://sketch.com -->
    <title>8FAC33B4-9843-487F-ACB0-B65F96FE15A9</title>
    <desc>Created with sketchtool.</desc>
    <g id="Website-2.0" stroke="none" stroke-width="1" fill="none" fill-rule="evenodd">
        <g id="Meet-the-team" transform="translate(-220.000000, -2820.000000)">
            <g id="like-minded-people" transform="translate(140.000000, 2720.000000)">
                <g id="img_team_idea" transform="translate(80.000000, 100.000000)">
                    <g>
                        <circle id="Oval" fill="#F7F7F7" cx="50" cy="50" r="50"></circle>
                        <g id="Group-7" transform="translate(24.000000, 22.000000)" fill-rule="nonzero">
                            <g id="Page-1" transform="translate(13.000000, 12.000000)">
                                <path d="M18.5920813,22.2791818 C20.5940445,18.861766 21.9993917,15.4833568 21.9993917,13.4455565 L21.9995776,12.8972001 C21.9999365,12.8561884 21.9999365,12.8561884 22,12.808282 C22,10.153028 21.0135143,7.68810937 19.2234091,5.84324283 C17.4395507,4.00475138 15.0639014,3 12.500076,3 C7.37728643,3 3.14169634,7.23300768 3.00437878,12.4755627 L3,13.4309101 C3,15.4753069 4.40541403,18.8585673 6.40709734,22.2790775 C7.11155666,23.4815013 7.75530035,25.6468765 8.23427031,27.8333333 L16.826398,27.8333333 C17.2689689,25.6469134 17.88239,23.4912617 18.5920813,22.2791818 Z M5.57647274,29.8208616 C5.34594447,28.5860449 4.58076093,25.0964608 3.81861866,23.7955795 C2.39226301,21.3581994 0,16.7713813 0,13.4309101 L0.00440984155,12.4619101 C0.184300964,5.55909012 5.72062893,0 12.500076,0 C15.8751255,0 19.0275539,1.33329038 21.3764788,3.75415431 C23.7130866,6.16224158 25,9.37775094 25,12.808282 C25,12.8489491 24.9998479,12.8896163 24.9993917,12.9305951 L24.9993917,13.4455565 C24.9993917,16.779172 22.6068246,21.361004 21.180621,23.7955795 C20.4225845,25.0902283 19.7202032,28.567659 19.5133968,29.7981129 L5.57647274,29.8208616 Z" id="Fill-5" fill="#0680FC"></path>
                                <path d="M17.5,27 C17.6152181,27 17.7373454,26.9910831 17.975057,26.9668603 C18.3017285,26.9335725 18.3887137,26.925853 18.5584339,26.9203387 C18.8672024,26.9103068 19.1419306,26.9334548 19.4264689,27.0184487 C20.3456934,27.2930286 20.8548387,28.0864918 20.8548387,29.0581479 L20.8548387,33.0535996 C20.8548387,37.7230635 17.1568302,41.5 12.5,41.5 C7.92578644,41.5 4.14516129,37.6850316 4.14516129,33.0535996 L4.14516129,29.0581479 C4.14516129,28.18609 4.36286628,27.5230784 5.15540204,27.1192179 C5.4934405,26.9469602 5.80926875,26.9047342 6.15504551,26.9212573 C6.24316847,26.9254683 6.3270436,26.9333902 6.42653804,26.9453788 C6.47386482,26.9510814 6.53504944,26.9590536 6.62755833,26.9711102 C6.78774268,26.9914752 6.89181296,27 7,27 L17.5,27 Z M7.14516129,33.0535996 C7.14516129,36.0342199 9.5887439,38.5 12.5,38.5 C15.4856298,38.5 17.8548387,36.0802241 17.8548387,33.0535996 L17.8548387,29.9885655 C17.7331412,29.9963866 17.6222418,30 17.5,30 L7.14516129,30 L7.14516129,33.0535996 Z" id="Fill-7" fill="#252525"></path>
                            </g>
                            <g id="Group-6" transform="translate(0.000000, 23.000000)" fill="#0680FC">
                                <path d="M44.25,3 L49.5892857,3 C50.4177128,3 51.0892857,2.32842712 51.0892857,1.5 C51.0892857,0.671572875 50.4177128,0 49.5892857,0 L44.25,0 C43.4215729,0 42.75,0.671572875 42.75,1.5 C42.75,2.32842712 43.4215729,3 44.25,3 Z" id="Path-2"></path>
                                <path d="M2,3 L7.33928571,3 C8.16771284,3 8.83928571,2.32842712 8.83928571,1.5 C8.83928571,0.671572875 8.16771284,0 7.33928571,0 L2,0 C1.17157288,0 0.5,0.671572875 0.5,1.5 C0.5,2.32842712 1.17157288,3 2,3 Z" id="Path-2"></path>
                            </g>
                            <g id="Group-6" transform="translate(41.707107, 10.792893) rotate(-45.000000) translate(-41.707107, -10.792893) translate(36.707107, 9.292893)" fill="#0680FC">
                                <path d="M2.41421356,3 L7.98564213,3 C8.81406926,3 9.48564213,2.32842712 9.48564213,1.5 C9.48564213,0.671572875 8.81406926,-4.33431069e-13 7.98564213,-4.33431069e-13 L2.41421356,-4.33431069e-13 C1.58578644,-4.33431069e-13 0.914213562,0.671572875 0.914213562,1.5 C0.914213562,2.32842712 1.58578644,3 2.41421356,3 Z" id="Path-2"></path>
                            </g>
                            <g id="Group-6" transform="translate(10.000000, 10.500000) rotate(-315.000000) translate(-10.000000, -10.500000) translate(5.000000, 9.000000)" fill="#0680FC">
                                <path d="M2,3 L7.57142857,3 C8.3998557,3 9.07142857,2.32842712 9.07142857,1.5 C9.07142857,0.671572875 8.3998557,2.57571742e-14 7.57142857,2.57571742e-14 L2,2.57571742e-14 C1.17157288,2.57571742e-14 0.5,0.671572875 0.5,1.5 C0.5,2.32842712 1.17157288,3 2,3 Z" id="Path-2"></path>
                            </g>
                            <path d="M27.5,7 L27.5,2 C27.5,1.17157288 26.8284271,0.5 26,0.5 C25.1715729,0.5 24.5,1.17157288 24.5,2 L24.5,7 C24.5,7.82842712 25.1715729,8.5 26,8.5 C26.8284271,8.5 27.5,7.82842712 27.5,7 Z" id="Path-12" fill="#0680FC"></path>
                        </g>
                    </g>
                </g>
            </g>
        </g>
    </g>
</svg>