<svg width="40" height="40" viewBox="0 0 40 40" fill="none" xmlns="http://www.w3.org/2000/svg">
<path d="M20 38C29.9411 38 38 29.9411 38 20C38 10.0589 29.9411 2 20 2C10.0589 2 2 10.0589 2 20C2 29.9411 10.0589 38 20 38ZM20 40C8.9543 40 0 31.0457 0 20C0 8.9543 8.9543 0 20 0C31.0457 0 40 8.9543 40 20C40 31.0457 31.0457 40 20 40Z" fill="#0680FC"/>
<path fill-rule="evenodd" clip-rule="evenodd" d="M25.5169 8L23.0337 10.5388H24.6138V14.231H26.4199V10.5388H28L25.5169 8ZM22.8078 17.6926L25.0653 15.3853H23.7108V11.4616H21.9047V15.3853H20.5506L22.8078 17.6926ZM15.3583 20.693H24.3883V19.7698H15.3583V20.693ZM15.3583 22.5391H24.3883V21.6159H15.3583V22.5391ZM15.3583 24.3853H24.3883V23.462H15.3583V24.3853ZM15.3583 26.2318H24.3883V25.3085H15.3583V26.2318ZM15.3583 18.8465H19.8731V17.9236H15.3583V18.8465ZM18.9701 14.6926H21.2276V13.3081H14.6809C14.3331 13.3081 14.0038 13.6445 14.0038 14.0004L14 28.6181C14 28.9739 14.4409 29 14.7891 29H25.2561C25.6043 29 25.7424 28.664 25.7424 28.3085V15.8609L22.8078 18.8465L18.9701 14.6926ZM25.7424 15.8609L25.7704 15.8329L25.7424 15.8465V15.8609Z" fill="#0680FC"/>
</svg>
