<svg width="40" height="40" viewBox="0 0 40 40" fill="none" xmlns="http://www.w3.org/2000/svg">
<path d="M20 0C31.0457 0 40 8.9543 40 20C40 31.0457 31.0457 40 20 40C8.9543 40 0 31.0457 0 20C0 8.9543 8.9543 0 20 0ZM20 2C10.0589 2 2 10.0589 2 20C2 29.9411 10.0589 38 20 38C29.9411 38 38 29.9411 38 20C38 10.0589 29.9411 2 20 2ZM21.0487 22C22.2479 23.182 23 26.1442 23 28H11C11 26.2382 11.6779 23.3538 12.7726 22.1834C14 22.9197 15.3509 23.5547 17 23.5547C18.5603 23.5547 20 22.9197 21.0487 22ZM26.0487 19C27.2479 20.182 28 23.1442 28 25L23.233 24.9993C22.7234 23.6007 22.0243 22.2296 21.3386 21.378C21.541 21.1212 21.72 20.8443 21.8734 20.5518L22 20.5547C23.5603 20.5547 25 19.9197 26.0487 19ZM17 13C19.7614 13 22 15.2386 22 18C22 20.7614 19.7614 23 17 23C14.2386 23 12 20.7614 12 18C12 15.2386 14.2386 13 17 13ZM22 10C24.7614 10 27 12.2386 27 15C27 17.7614 24.7614 20 22 20L22.1259 19.9979C22.3674 19.3786 22.5 18.7048 22.5 18C22.5 15.182 20.3806 12.8589 17.6488 12.5379C18.507 11.022 20.1341 10 22 10Z" fill="#0680FC"/>
</svg>
