<svg width="40" height="40" viewBox="0 0 40 40" fill="none" xmlns="http://www.w3.org/2000/svg">
<path d="M20 0C31.0457 0 40 8.9543 40 20C40 31.0457 31.0457 40 20 40C8.9543 40 0 31.0457 0 20C0 8.9543 8.9543 0 20 0ZM20 2C10.0589 2 2 10.0589 2 20C2 29.9411 10.0589 38 20 38C29.9411 38 38 29.9411 38 20C38 10.0589 29.9411 2 20 2ZM24.9932 12C25.5492 12 26 12.4446 26 13.0009V26.9991C26 27.5519 25.5501 28 24.9932 28H13.0068C12.4508 28 12 27.5554 12 26.9991V13.0009C12 12.4481 12.4499 12 13.0068 12H24.9932ZM27 10C27.5523 10 28 10.4477 28 11V25C28 25.5128 27.614 25.9355 27.1166 25.9933L27 26V13.0073C27 11.9028 26.1046 11.0073 25 11.0073H14V11C14 10.4477 14.4477 10 15 10H27ZM19 24H15V25H19V24ZM23 21H15V22H23V21ZM23 18H15V19H23V18ZM23 15H15V16H23V15Z" fill="#0680FC"/>
</svg>
