<svg width="112" height="112" viewBox="0 0 112 112" fill="none" xmlns="http://www.w3.org/2000/svg">
<rect width="112" height="112" rx="16" fill="white"/>
<path d="M35.0946 73.0695C28.4759 77.1142 23.8677 98.1323 23.5 98.5L79.5 97.5C77.5389 90.7587 75.91 76.7465 67.8204 71.9663C63.5151 69.4223 56.6667 68.7796 53.8476 68.657C49.8028 68.7796 40.3896 69.8336 35.0946 73.0695Z" fill="#EFE08A"/>
<path d="M69.7132 42.056L70 42C70 42 74.1993 32.6014 67.7093 30.5368C63.9125 29.2931 61.6183 33.4037 61.6183 33.4037C61.6183 33.4037 60.0659 27.8441 54.5485 29.2185C48.4014 30.711 49.667 36.7245 49.667 36.7245C49.667 36.7245 47.1732 33.7457 42.8091 35.6362C38.4451 37.5267 39.4737 42.284 40.6271 44.1745C37.8653 44.2926 35.5087 47.2154 36.0885 49.9641C36.8927 53.9752 41.6994 53.3471 43.3266 52.9429C40.7954 54.5535 39.187 58.5024 41.369 61.1391C44.5922 65.0383 51.344 61.5993 51.344 61.5993L51.1133 59.4228L49.3365 44.2926L69.7132 42.056Z" fill="#5C9CD0"/>
<path d="M49.6318 53.1073L48.9396 45.4927C48.8392 44.389 49.6555 43.4142 50.7596 43.319L69.6122 41.6939C69.9235 41.6671 70.2358 41.7122 70.5243 41.8321C72.4831 42.6458 75.8869 44.2403 76.7043 45.3301C77.8074 46.801 76.3366 48.2718 75.2335 49.0072C74.1304 49.7426 72.2918 49.3749 71.1887 50.8457C70.0856 52.3165 70.4533 54.1551 70.0856 56.729C69.7179 59.303 68.6148 61.5092 66.0408 63.3477C64.9649 64.1163 63.6413 64.3828 62.4477 64.4097C61.1083 64.4399 59.7898 65.4315 59.7898 66.7712V69.6315C59.7898 70.3002 59.4578 70.9321 58.8505 71.2119C57.8448 71.6753 56.318 72.1727 54.6419 72.1727C52.7819 72.1727 51.1056 71.2538 50.1215 70.5055C49.6993 70.1844 49.4941 69.6684 49.4941 69.138V63.5092C49.4941 62.4046 48.5966 61.4521 47.5216 61.1985C47.4452 61.1805 47.3669 61.1615 47.2868 61.1415C45.816 60.7738 45.816 58.1998 46.5514 56.729C46.7315 56.3688 47.0311 56.1143 47.3847 55.938C48.5401 55.3621 49.7487 54.3929 49.6318 53.1073Z" fill="#EDCFC5"/>
<path d="M56.9673 11.2339C56.9673 10.6816 56.5196 10.2339 55.9673 10.2339C55.4151 10.2339 54.9673 10.6816 54.9673 11.2339V19.3506C54.9673 19.9029 55.4151 20.3506 55.9673 20.3506C56.5196 20.3506 56.9673 19.9029 56.9673 19.3506V11.2339Z" fill="#2C3B47"/>
<path d="M60.4061 71.1964C60.3838 71.4286 60.276 71.6441 60.1037 71.8012C60.0548 71.7523 59.8486 71.8298 59.5035 71.9596C58.7811 72.2312 57.4502 72.7317 55.6799 72.7806C53.2938 72.7296 50.9881 71.9088 49.1066 70.4405C48.9343 70.2834 48.8265 70.0679 48.8042 69.8358C48.7845 69.2309 48.7697 68.5647 48.7599 67.8799L44.6292 68.6264C41.6349 69.2003 38.8607 70.6001 36.62 72.6677C34.3794 74.7353 32.7616 77.3882 31.9493 80.3269L27.8739 95.5046C27.8133 95.6344 27.718 95.7448 27.5985 95.8237C27.479 95.9026 27.34 95.9469 27.1969 95.9516H26.9734C26.8777 95.9305 26.7875 95.8898 26.7083 95.8321C26.6292 95.7744 26.5628 95.701 26.5134 95.6164C26.464 95.5318 26.4327 95.4379 26.4213 95.3406C26.41 95.2433 26.4189 95.1448 26.4475 95.0511L30.523 79.8733C31.3806 76.659 33.1331 73.7541 35.5767 71.4967C38.0204 69.2392 41.0547 67.7219 44.3269 67.1211L48.746 66.3166C48.7405 64.7704 48.76 63.2917 48.8042 62.3619C48.2005 62.4136 47.5954 62.2806 47.0689 61.9807C46.5591 61.5935 46.1489 61.0905 45.8723 60.5132C45.8038 60.3703 45.744 60.2238 45.693 60.0746C45.693 60.0746 45.4996 59 45.4818 57.9311C45.5526 56.845 45.928 55.9907 46.6153 55.4928C47.3658 54.9814 48.279 54.7659 49.1789 54.8881L48.3507 46.3428C48.3388 46.2452 48.3464 46.1461 48.3731 46.0514C48.3998 45.9568 48.445 45.8683 48.5062 45.7913C48.5673 45.7142 48.6432 45.6501 48.7293 45.6026C48.8155 45.5551 48.9102 45.5252 49.008 45.5146C49.1064 45.4978 49.2071 45.5019 49.3038 45.5266C49.4004 45.5514 49.4908 45.5963 49.5689 45.6583C49.6471 45.7203 49.7113 45.7981 49.7573 45.8866C49.8034 45.9751 49.8303 46.0723 49.8363 46.1719L50.7434 55.7623C50.7475 55.8879 50.7223 56.0126 50.6698 56.1267C50.6173 56.2408 50.539 56.3411 50.441 56.4197C50.3506 56.494 50.2442 56.5464 50.1301 56.5726C50.0161 56.5989 49.8974 56.5983 49.7837 56.5709C49.4183 56.4308 49.0268 56.3718 48.6364 56.3979C48.246 56.424 47.8659 56.5346 47.5224 56.722C47.0689 57.0244 46.9177 57.7015 46.99 58.6086C47.0689 59.3645 47.2398 60.4228 47.8971 60.7975C48.1186 60.9056 48.3595 60.9682 48.6056 60.9818C48.8517 60.9953 49.0981 60.9595 49.3301 60.8764C49.4371 60.833 49.5531 60.817 49.6679 60.8296C49.7826 60.8422 49.8924 60.8831 49.9874 60.9487C50.0906 61.0225 50.1728 61.1219 50.2258 61.2372C50.2788 61.3525 50.3009 61.4796 50.2898 61.606L50.2888 61.6482L50.2867 61.7242L50.2867 61.7255C50.2658 62.4757 50.1518 66.5689 50.2898 69.5334C54.5164 72.4782 57.9937 71.1176 58.9731 70.664L59.2499 64.9295C58.6016 64.8411 57.9583 64.7148 57.3235 64.5509C57.2196 64.5365 57.1198 64.501 57.0301 64.4465C56.9404 64.3921 56.8629 64.3199 56.8021 64.2343C56.7414 64.1488 56.6988 64.0517 56.677 63.9491C56.6552 63.8465 56.6546 63.7405 56.6752 63.6377C56.6959 63.5348 56.7374 63.4373 56.7971 63.3511C56.8569 63.2649 56.9336 63.1918 57.0227 63.1363C57.1117 63.0809 57.2112 63.0442 57.3149 63.0286C57.4187 63.013 57.5245 63.0188 57.6259 63.0456C61.5501 63.9593 64.5739 63.5715 66.6116 61.9873C69.4052 59.7195 69.4052 55.723 69.4052 55.723C69.4052 55.0393 69.4052 49.0051 72.8759 48.775C73.9501 48.7559 74.9759 48.3253 75.7419 47.5721C75.9196 47.3973 76.0534 47.1828 76.1322 46.9463C76.2111 46.7098 76.2327 46.4579 76.1954 46.2114C76.1231 45.3043 73.9342 44.3972 72.5736 44.0948C72.4697 44.0804 72.3698 44.0449 72.2801 43.9904C72.1905 43.936 72.1129 43.8638 72.0522 43.7782C71.9915 43.6927 71.9489 43.5956 71.927 43.493C71.9052 43.3904 71.9046 43.2844 71.9253 43.1816C71.9459 43.0787 71.9874 42.9812 72.0472 42.895C72.1069 42.8088 72.1837 42.7357 72.2727 42.6802C72.3618 42.6248 72.4612 42.5881 72.5649 42.5725C72.6687 42.5569 72.7745 42.5627 72.8759 42.5895C73.3295 42.6618 77.4772 43.6413 77.7073 46.0602C77.7611 46.5108 77.7148 46.9678 77.5716 47.3984C77.4285 47.8291 77.192 48.2228 76.8791 48.5515C76.372 49.091 75.7614 49.5227 75.0838 49.8208C74.4062 50.119 73.6754 50.2775 72.9351 50.2869C71.1998 50.4643 70.8251 54.3623 70.8974 55.723C70.8974 55.9662 70.8974 60.4755 67.5779 63.1968C65.799 64.4626 63.6607 65.1239 61.4779 65.0833C61.2123 65.0827 60.947 65.0758 60.6822 65.0626L60.628 66.2666L65.3217 67.1211C68.5939 67.7219 71.6282 69.2392 74.0719 71.4967C76.5155 73.7541 78.268 76.659 79.1256 79.8733L83.2011 95.0511C83.2297 95.1448 83.2386 95.2433 83.2273 95.3406C83.2159 95.4379 83.1846 95.5318 83.1352 95.6164C83.0858 95.701 83.0194 95.7744 82.9403 95.8321C82.8611 95.8898 82.7709 95.9305 82.6752 95.9516H82.4517C82.3086 95.9469 82.1696 95.9026 82.0501 95.8237C81.9306 95.7448 81.8353 95.6344 81.7747 95.5046L77.6993 80.3269C76.887 77.3882 75.2692 74.7353 73.0286 72.6677C70.7879 70.6001 68.0137 69.2003 65.0194 68.6264L60.5581 67.8201L60.4061 71.1964Z" fill="#2C3B47"/>
<path d="M62.8249 48.4003C62.284 48.4003 61.8455 47.9618 61.8455 47.4209C61.8455 46.8799 62.284 46.4414 62.8249 46.4414C63.3658 46.4414 63.8043 46.8799 63.8043 47.4209C63.8043 47.9618 63.3658 48.4003 62.8249 48.4003Z" fill="#2C3B47"/>
<path d="M65.9929 47.4931C65.9929 48.034 66.4314 48.4725 66.9723 48.4725C67.5132 48.4725 67.9517 48.034 67.9517 47.4931C67.9517 46.9522 67.5132 46.5137 66.9723 46.5137C66.4314 46.5137 65.9929 46.9522 65.9929 47.4931Z" fill="#2C3B47"/>
<path d="M73.5468 95.8793C73.6421 95.8675 73.7341 95.8362 73.8169 95.7875C73.8997 95.7388 73.9717 95.6736 74.0283 95.596C74.085 95.5184 74.1252 95.43 74.1464 95.3363C74.1675 95.2425 74.1693 95.1455 74.1515 95.051L71.6602 78.2891C71.6451 78.1951 71.6116 78.1049 71.5617 78.0237C71.5117 77.9426 71.4462 77.872 71.369 77.8162C71.2918 77.7603 71.2044 77.7202 71.1116 77.6982C71.0189 77.6761 70.9228 77.6726 70.8287 77.6877C70.7346 77.7028 70.6444 77.7363 70.5633 77.7862C70.4821 77.8362 70.4116 77.9017 70.3558 77.9789C70.2999 78.0561 70.2598 78.1435 70.2377 78.2363C70.2157 78.329 70.2121 78.4251 70.2272 78.5192L72.7185 95.2745C72.7512 95.4536 72.8438 95.6163 72.9812 95.7357C73.1186 95.8552 73.2925 95.9244 73.4744 95.9319C73.5468 95.9516 73.5468 95.9516 73.5468 95.8793Z" fill="#2C3B47"/>
<path d="M36.5559 95.8793C36.4606 95.8675 36.3686 95.8362 36.2858 95.7875C36.203 95.7388 36.131 95.6736 36.0744 95.596C36.0177 95.5184 35.9775 95.43 35.9563 95.3363C35.9352 95.2425 35.9334 95.1455 35.9512 95.051L38.4425 78.2891C38.4576 78.1951 38.4911 78.1049 38.541 78.0237C38.591 77.9426 38.6565 77.872 38.7337 77.8162C38.8109 77.7603 38.8983 77.7202 38.9911 77.6982C39.0838 77.6761 39.1799 77.6726 39.274 77.6877C39.3681 77.7028 39.4583 77.7363 39.5394 77.7862C39.6206 77.8362 39.6911 77.9017 39.7469 77.9789C39.8028 78.0561 39.8429 78.1435 39.865 78.2363C39.887 78.329 39.8906 78.4251 39.8755 78.5192L37.3842 95.2745C37.3515 95.4536 37.2589 95.6163 37.1215 95.7357C36.9841 95.8552 36.8102 95.9244 36.6283 95.9319C36.556 95.9516 36.5559 95.9516 36.5559 95.8793Z" fill="#2C3B47"/>
<path d="M93.1246 47.3906C93.1246 47.9429 92.6768 48.3906 92.1246 48.3906H84.0078C83.4555 48.3906 83.0078 47.9429 83.0078 47.3906C83.0078 46.8383 83.4555 46.3906 84.0078 46.3906H92.1246C92.6768 46.3906 93.1246 46.8383 93.1246 47.3906Z" fill="#2C3B47"/>
<path d="M27.9283 48.3906C28.4806 48.3906 28.9283 47.9429 28.9283 47.3906C28.9283 46.8383 28.4806 46.3906 27.9283 46.3906H19.8115C19.2592 46.3906 18.8115 46.8383 18.8115 47.3906C18.8115 47.9429 19.2592 48.3906 19.8115 48.3906H27.9283Z" fill="#2C3B47"/>
<path d="M37.39 15.2122C37.8683 14.936 38.4799 15.0999 38.756 15.5782L42.8144 22.6075C43.0906 23.0858 42.9267 23.6974 42.4484 23.9735C41.9701 24.2497 41.3585 24.0858 41.0824 23.6075L37.024 16.5782C36.7478 16.0999 36.9117 15.4883 37.39 15.2122Z" fill="#2C3B47"/>
<path d="M87.781 30.1781C88.2593 29.902 88.4232 29.2904 88.147 28.8121C87.8709 28.3338 87.2593 28.1699 86.781 28.446L79.7517 32.5044C79.2734 32.7806 79.1095 33.3922 79.3857 33.8704C79.6618 34.3487 80.2734 34.5126 80.7517 34.2365L87.781 30.1781Z" fill="#2C3B47"/>
<path d="M32.5503 60.9102C32.8265 61.3885 32.6626 62.0001 32.1843 62.2762L25.155 66.3346C24.6767 66.6108 24.0651 66.4469 23.789 65.9686C23.5128 65.4903 23.6767 64.8787 24.155 64.6026L31.1843 60.5442C31.6626 60.268 32.2742 60.4319 32.5503 60.9102Z" fill="#2C3B47"/>
<path d="M25.1556 28.4462C24.6773 28.17 24.0657 28.3339 23.7896 28.8122C23.5135 29.2905 23.6773 29.9021 24.1556 30.1782L31.1849 34.2366C31.6632 34.5127 32.2748 34.3489 32.551 33.8706C32.8271 33.3923 32.6632 32.7807 32.1849 32.5045L25.1556 28.4462Z" fill="#2C3B47"/>
<path d="M79.3863 60.9103C79.6624 60.432 80.274 60.2682 80.7523 60.5443L87.7816 64.6027C88.2599 64.8788 88.4238 65.4904 88.1477 65.9687C87.8715 66.447 87.2599 66.6109 86.7816 66.3347L79.7523 62.2764C79.274 62.0002 79.1101 61.3886 79.3863 60.9103Z" fill="#2C3B47"/>
<path d="M74.9133 16.5782C75.1894 16.0999 75.0255 15.4883 74.5472 15.2122C74.0689 14.936 73.4573 15.0999 73.1812 15.5782L69.1228 22.6075C68.8467 23.0858 69.0106 23.6974 69.4889 23.9735C69.9671 24.2497 70.5787 24.0858 70.8549 23.6075L74.9133 16.5782Z" fill="#2C3B47"/>
</svg>
