<svg width="728" height="397" viewBox="0 0 728 397" fill="none" xmlns="http://www.w3.org/2000/svg">
<path d="M614.021 34.5464L616.096 57.7887L668.193 1.68066L614.021 34.5464Z" fill="#5AB467"/>
<path d="M582.742 32.457L614.022 34.5464L668.193 1.68066L582.742 32.457Z" fill="white"/>
<path d="M614.16 36.0716H613.855L582.59 34.1195C582.256 34.1008 581.938 33.9654 581.693 33.737C581.448 33.5085 581.291 33.2014 581.248 32.8689C581.203 32.5345 581.269 32.1944 581.438 31.9018C581.606 31.6093 581.867 31.3808 582.179 31.2523L667.584 0.476002C667.938 0.341853 668.329 0.344037 668.681 0.482145C669.033 0.620253 669.322 0.884429 669.49 1.2233C669.584 1.3846 669.643 1.56365 669.664 1.74904C669.684 1.93444 669.666 2.12211 669.61 2.30005C669.554 2.478 669.462 2.64232 669.338 2.78253C669.215 2.92275 669.065 3.03577 668.895 3.1144L614.877 35.8276C614.602 35.8733 614.434 36.0411 614.16 36.0716ZM590.17 31.4963L613.565 32.9299L654.239 8.29972L590.17 31.4963Z" fill="#2C3B47"/>
<path d="M668.193 1.68066L641.153 50.3463L614.021 34.5464L668.193 1.68066Z" fill="white"/>
<path d="M641.291 51.8558C640.968 51.8579 640.65 51.7848 640.361 51.6423L613.199 35.6898C612.974 35.553 612.788 35.3603 612.66 35.1304C612.532 34.9006 612.465 34.6415 612.467 34.3783C612.428 34.1017 612.487 33.8202 612.635 33.5832C612.783 33.3462 613.009 33.1688 613.275 33.082L667.446 0.216255C667.726 0.0487956 668.052 -0.0244738 668.377 0.00721178C668.702 0.0388973 669.008 0.173872 669.25 0.392301C669.492 0.610729 669.658 0.901098 669.723 1.22077C669.788 1.54045 669.749 1.87257 669.612 2.16837L642.572 50.8187C642.463 51.0018 642.318 51.1602 642.145 51.2837C641.971 51.4071 641.774 51.4929 641.565 51.5355C641.443 51.8406 641.443 51.8406 641.291 51.8558ZM617.072 34.424L640.666 48.2414L664.121 5.87433L617.072 34.424Z" fill="#2C3B47"/>
<path fill-rule="evenodd" clip-rule="evenodd" d="M583.399 64.2707C583.611 64.3793 583.846 64.4368 584.084 64.4385C584.414 64.4385 584.735 64.3315 584.999 64.1335C587.378 62.3644 589.833 60.5801 592.365 58.7499C592.655 58.5017 592.841 58.1539 592.887 57.775C592.933 57.3962 592.835 57.0139 592.613 56.7036C592.391 56.3933 592.06 56.1776 591.687 56.0991C591.314 56.0205 590.924 56.0848 590.596 56.2793C588.044 58.1094 585.568 59.909 583.169 61.6781C582.845 61.9208 582.631 62.2821 582.574 62.6825C582.517 63.0829 582.621 63.4897 582.864 63.8132C583.004 64.0055 583.188 64.1621 583.399 64.2707ZM500.448 396.344C494.424 396.344 488.248 396.222 482.224 396.069C481.819 396.069 481.431 395.909 481.145 395.622C480.859 395.336 480.699 394.949 480.699 394.544C480.699 394.14 480.859 393.752 481.145 393.466C481.431 393.18 481.819 393.019 482.224 393.019C488.324 393.172 494.424 393.263 500.387 393.294C500.792 393.294 501.18 393.454 501.466 393.74C501.752 394.026 501.913 394.414 501.913 394.819C501.913 395.213 501.761 395.592 501.488 395.876C501.215 396.16 500.842 396.328 500.448 396.344ZM518.628 396.252C518.223 396.252 517.835 396.091 517.549 395.805C517.263 395.519 517.102 395.132 517.102 394.727C517.102 394.323 517.263 393.935 517.549 393.649C517.835 393.363 518.223 393.202 518.628 393.202C524.728 393.095 530.828 392.927 536.761 392.699C537.165 392.699 537.553 392.859 537.839 393.145C538.125 393.431 538.286 393.819 538.286 394.224C538.286 394.628 538.125 395.016 537.839 395.302C537.553 395.588 537.165 395.749 536.761 395.749C530.828 395.993 524.697 396.161 518.551 396.267L518.628 396.252ZM464.09 395.429C458.112 395.154 451.981 394.819 445.911 394.422C445.711 394.41 445.515 394.359 445.335 394.271C445.154 394.183 444.993 394.061 444.86 393.911C444.726 393.761 444.624 393.586 444.559 393.396C444.493 393.206 444.466 393.006 444.478 392.805C444.49 392.605 444.541 392.409 444.629 392.229C444.716 392.048 444.839 391.887 444.989 391.754C445.139 391.621 445.314 391.519 445.504 391.453C445.693 391.387 445.894 391.36 446.094 391.372C452.195 391.753 458.295 392.089 464.228 392.363C464.632 392.373 465.016 392.544 465.295 392.837C465.574 393.13 465.725 393.522 465.714 393.926C465.704 394.331 465.534 394.715 465.241 394.994C464.948 395.273 464.556 395.423 464.151 395.413L464.09 395.429ZM554.97 394.803C554.566 394.815 554.173 394.666 553.879 394.389C553.584 394.112 553.412 393.728 553.4 393.324C553.387 392.92 553.537 392.527 553.814 392.232C554.091 391.938 554.474 391.765 554.879 391.753C560.979 391.357 567.08 390.884 572.966 390.35C573.167 390.332 573.369 390.354 573.561 390.414C573.753 390.474 573.931 390.571 574.085 390.7C574.239 390.829 574.367 390.987 574.46 391.165C574.554 391.343 574.611 391.538 574.629 391.738C574.647 391.938 574.625 392.14 574.565 392.332C574.505 392.524 574.408 392.702 574.279 392.857C574.15 393.011 573.992 393.138 573.814 393.232C573.636 393.325 573.441 393.382 573.241 393.4C567.324 393.934 561.223 394.422 555.077 394.819L554.97 394.803ZM427.808 393.095H427.686C421.678 392.607 415.562 392.028 409.553 391.418C409.353 391.398 409.158 391.338 408.981 391.243C408.804 391.148 408.647 391.019 408.519 390.863C408.392 390.707 408.296 390.528 408.238 390.335C408.18 390.143 408.16 389.94 408.18 389.74C408.201 389.54 408.26 389.345 408.355 389.168C408.45 388.991 408.579 388.834 408.735 388.706C408.891 388.579 409.07 388.483 409.263 388.425C409.456 388.367 409.658 388.347 409.858 388.367C415.867 388.978 421.937 389.542 427.93 390.045C428.335 390.061 428.716 390.237 428.991 390.535C429.266 390.832 429.411 391.227 429.395 391.631C429.378 392.036 429.202 392.417 428.905 392.692C428.607 392.966 428.213 393.111 427.808 393.095ZM591.176 391.448C590.772 391.472 590.374 391.335 590.071 391.066C589.768 390.797 589.584 390.419 589.56 390.015C589.535 389.61 589.673 389.213 589.942 388.909C590.21 388.606 590.589 388.422 590.993 388.398C597.093 387.651 603.194 386.797 608.959 385.882C609.159 385.851 609.363 385.859 609.56 385.907C609.757 385.955 609.943 386.041 610.106 386.161C610.27 386.281 610.408 386.431 610.514 386.605C610.619 386.778 610.689 386.97 610.72 387.17C610.751 387.371 610.742 387.575 610.695 387.772C610.647 387.969 610.56 388.154 610.441 388.318C610.321 388.481 610.17 388.62 609.997 388.725C609.824 388.831 609.632 388.901 609.431 388.932C603.606 389.862 597.536 390.716 591.374 391.479L591.176 391.448ZM391.633 389.405H391.45C385.441 388.672 379.356 387.879 373.393 387.041C372.989 386.984 372.623 386.769 372.377 386.443C372.131 386.117 372.025 385.707 372.082 385.302C372.138 384.898 372.353 384.532 372.679 384.286C373.005 384.04 373.416 383.934 373.82 383.99C379.768 384.829 385.823 385.622 391.816 386.339C392.221 386.363 392.599 386.547 392.868 386.85C393.137 387.154 393.274 387.551 393.25 387.956C393.226 388.36 393.042 388.738 392.738 389.007C392.435 389.276 392.038 389.414 391.633 389.389V389.405ZM627.092 385.714C626.687 385.754 626.284 385.632 625.969 385.375C625.654 385.118 625.455 384.746 625.414 384.341C625.374 383.937 625.496 383.533 625.753 383.218C626.011 382.904 626.382 382.704 626.787 382.664C632.887 381.428 638.835 380.071 644.447 378.637C644.84 378.538 645.255 378.599 645.603 378.806C645.95 379.014 646.201 379.351 646.3 379.743C646.4 380.135 646.339 380.551 646.131 380.899C645.924 381.246 645.587 381.497 645.195 381.596C639.552 383.045 633.558 384.402 627.397 385.653L627.092 385.714ZM355.626 384.341H355.382C349.388 383.38 343.349 382.359 337.432 381.291C337.231 381.256 337.04 381.182 336.868 381.073C336.697 380.964 336.548 380.822 336.431 380.656C336.314 380.489 336.232 380.301 336.187 380.103C336.143 379.905 336.138 379.699 336.173 379.499C336.208 379.299 336.283 379.107 336.392 378.936C336.501 378.764 336.642 378.616 336.809 378.499C336.975 378.382 337.163 378.299 337.361 378.255C337.56 378.211 337.765 378.206 337.965 378.241C343.867 379.308 349.892 380.33 355.855 381.291C356.259 381.321 356.635 381.511 356.9 381.819C357.164 382.126 357.296 382.526 357.265 382.931C357.235 383.335 357.045 383.711 356.738 383.975C356.43 384.24 356.03 384.372 355.626 384.341ZM319.832 377.905H319.527C313.549 376.701 307.555 375.435 301.714 374.123C301.32 374.036 300.977 373.795 300.759 373.455C300.542 373.115 300.469 372.703 300.555 372.308C300.598 372.112 300.68 371.925 300.795 371.76C300.911 371.595 301.058 371.455 301.228 371.347C301.398 371.24 301.588 371.167 301.787 371.133C301.985 371.099 302.189 371.104 302.385 371.149C308.196 372.445 314.174 373.711 320.137 374.916C320.541 374.957 320.913 375.156 321.171 375.471C321.428 375.785 321.55 376.189 321.51 376.594C321.469 376.998 321.27 377.37 320.955 377.628C320.64 377.885 320.236 378.007 319.832 377.966V377.905ZM662.291 376.64C661.957 376.656 661.626 376.562 661.35 376.372C661.075 376.181 660.869 375.906 660.766 375.587C660.702 375.396 660.676 375.194 660.69 374.993C660.705 374.792 660.759 374.595 660.85 374.415C660.94 374.235 661.066 374.075 661.219 373.943C661.372 373.812 661.55 373.712 661.742 373.65C667.751 371.698 673.439 369.578 678.64 367.367C678.824 367.288 679.022 367.246 679.223 367.243C679.423 367.241 679.622 367.278 679.809 367.352C679.995 367.426 680.165 367.537 680.308 367.677C680.452 367.817 680.566 367.983 680.646 368.168C680.725 368.352 680.767 368.55 680.769 368.75C680.772 368.951 680.735 369.15 680.661 369.336C680.586 369.522 680.476 369.692 680.336 369.836C680.196 369.979 680.029 370.094 679.845 370.173C674.553 372.415 668.788 374.565 662.688 376.563C662.559 376.603 662.426 376.629 662.291 376.64ZM284.358 369.975C284.232 369.989 284.104 369.989 283.977 369.975L282.37 369.561C276.987 368.174 271.604 366.787 266.347 365.4C265.957 365.292 265.625 365.035 265.425 364.683C265.225 364.331 265.172 363.914 265.28 363.524C265.387 363.133 265.645 362.802 265.996 362.601C266.348 362.401 266.765 362.349 267.155 362.456C272.905 363.981 278.807 365.506 284.709 367.031C284.909 367.055 285.103 367.117 285.279 367.215C285.456 367.313 285.611 367.444 285.736 367.602C285.862 367.76 285.955 367.941 286.01 368.135C286.065 368.329 286.082 368.532 286.059 368.732C286.036 368.932 285.974 369.126 285.876 369.302C285.778 369.478 285.646 369.634 285.488 369.759C285.33 369.884 285.149 369.977 284.955 370.033C284.762 370.088 284.559 370.105 284.358 370.082V369.975ZM695.569 362.182C695.304 362.182 695.044 362.113 694.814 361.982C694.584 361.851 694.392 361.662 694.257 361.434C694.156 361.261 694.089 361.07 694.062 360.871C694.035 360.672 694.047 360.47 694.098 360.276C694.149 360.082 694.238 359.899 694.359 359.74C694.481 359.58 694.633 359.446 694.806 359.345C699.96 356.363 704.804 352.874 709.264 348.929C709.567 348.685 709.952 348.567 710.339 348.597C710.727 348.628 711.088 348.806 711.349 349.094C711.61 349.382 711.751 349.759 711.744 350.148C711.736 350.537 711.58 350.908 711.307 351.186C706.7 355.279 701.687 358.892 696.346 361.968C696.113 362.112 695.843 362.186 695.569 362.182ZM249.266 360.458C249.121 360.455 248.977 360.429 248.839 360.382C242.967 358.643 237.126 356.813 231.438 354.953C231.247 354.89 231.072 354.79 230.92 354.659C230.768 354.528 230.644 354.368 230.554 354.189C230.464 354.01 230.41 353.814 230.396 353.615C230.381 353.415 230.406 353.214 230.469 353.023C230.532 352.833 230.632 352.657 230.763 352.506C230.895 352.354 231.054 352.23 231.233 352.14C231.413 352.05 231.608 351.996 231.808 351.982C232.007 351.967 232.208 351.992 232.399 352.055C238.041 353.9 243.867 355.73 249.708 357.469C250.113 357.528 250.477 357.745 250.722 358.072C250.967 358.4 251.071 358.811 251.012 359.215C250.954 359.62 250.737 359.984 250.409 360.229C250.082 360.474 249.671 360.578 249.266 360.519V360.458ZM214.753 349.066C214.571 349.067 214.39 349.036 214.219 348.974C208.516 346.87 202.797 344.658 197.23 342.371C196.88 342.203 196.607 341.908 196.466 341.546C196.326 341.184 196.329 340.782 196.475 340.422C196.621 340.062 196.899 339.772 197.251 339.609C197.604 339.447 198.006 339.426 198.374 339.549C203.925 341.822 209.598 344.018 215.272 346.107C215.609 346.23 215.892 346.467 216.072 346.777C216.251 347.087 216.316 347.451 216.254 347.804C216.192 348.157 216.007 348.477 215.733 348.708C215.459 348.939 215.112 349.065 214.753 349.066ZM721.571 337.506C721.327 337.507 721.087 337.449 720.87 337.338C720.691 337.245 720.532 337.117 720.402 336.962C720.273 336.807 720.176 336.628 720.116 336.435C720.056 336.242 720.036 336.039 720.055 335.838C720.075 335.637 720.134 335.442 720.229 335.264C722.998 330.149 724.49 324.441 724.576 318.625C724.576 318.221 724.736 317.833 725.022 317.547C725.308 317.261 725.696 317.1 726.101 317.1C726.505 317.1 726.893 317.261 727.179 317.547C727.465 317.833 727.626 318.221 727.626 318.625C727.539 324.925 725.928 331.111 722.929 336.652C722.804 336.906 722.611 337.121 722.371 337.271C722.132 337.422 721.855 337.503 721.571 337.506ZM181.11 335.294C180.894 335.293 180.681 335.247 180.484 335.157C174.948 332.641 169.412 330.002 164.013 327.303C163.651 327.121 163.377 326.802 163.249 326.418C163.122 326.033 163.153 325.614 163.335 325.252C163.517 324.89 163.835 324.615 164.22 324.487C164.605 324.36 165.024 324.391 165.386 324.573C170.754 327.257 176.245 329.88 181.735 332.366C182.061 332.505 182.328 332.752 182.491 333.066C182.655 333.381 182.703 333.742 182.629 334.088C182.555 334.434 182.363 334.744 182.086 334.964C181.809 335.184 181.464 335.301 181.11 335.294ZM148.625 318.991C148.363 318.99 148.106 318.922 147.878 318.793C142.555 315.849 137.202 312.692 132.109 309.642C131.763 309.433 131.515 309.096 131.418 308.705C131.321 308.313 131.383 307.899 131.59 307.553C131.693 307.38 131.83 307.229 131.992 307.109C132.154 306.989 132.339 306.903 132.534 306.855C132.73 306.806 132.933 306.798 133.132 306.828C133.332 306.859 133.523 306.929 133.695 307.034C138.788 310.085 144.065 313.135 149.357 316.185C149.657 316.346 149.893 316.603 150.03 316.915C150.166 317.227 150.195 317.575 150.111 317.904C150.027 318.234 149.835 318.526 149.566 318.734C149.296 318.942 148.965 319.054 148.625 319.052V318.991ZM722.547 302.474C722.242 302.475 721.943 302.383 721.691 302.212C721.438 302.041 721.242 301.797 721.129 301.514C719.51 297.553 717.54 293.746 715.242 290.136C714.358 288.718 713.427 287.33 712.482 285.942C712.259 285.609 712.177 285.201 712.253 284.807C712.329 284.413 712.558 284.065 712.889 283.838C713.22 283.611 713.627 283.524 714.022 283.595C714.417 283.667 714.767 283.891 714.998 284.219C715.974 285.637 716.935 287.086 717.835 288.52C720.218 292.285 722.26 296.256 723.935 300.385C724.081 300.759 724.072 301.176 723.912 301.544C723.753 301.912 723.454 302.203 723.081 302.352C722.912 302.425 722.731 302.466 722.547 302.474ZM117.574 300.08C117.27 300.081 116.973 299.99 116.72 299.821C111.657 296.435 106.64 292.897 101.805 289.328C101.479 289.087 101.263 288.727 101.203 288.327C101.143 287.926 101.244 287.519 101.485 287.193C101.725 286.867 102.086 286.651 102.486 286.591C102.886 286.531 103.294 286.632 103.62 286.873C108.409 290.426 113.396 293.919 118.429 297.289C118.595 297.401 118.738 297.545 118.848 297.712C118.959 297.879 119.036 298.067 119.074 298.264C119.112 298.46 119.112 298.663 119.071 298.86C119.031 299.056 118.953 299.243 118.84 299.409C118.7 299.616 118.512 299.785 118.291 299.902C118.07 300.019 117.824 300.08 117.574 300.08ZM88.3538 278.485C87.9974 278.485 87.6521 278.361 87.3777 278.134C82.6194 274.26 77.9679 270.249 73.5451 266.238C73.2728 265.961 73.1168 265.59 73.109 265.201C73.1013 264.812 73.2423 264.435 73.5033 264.147C73.7643 263.858 74.1255 263.681 74.5131 263.65C74.9008 263.619 75.2855 263.738 75.5887 263.981C79.981 267.962 84.5868 271.927 89.3145 275.77C89.5613 275.968 89.7404 276.238 89.827 276.542C89.9136 276.846 89.9035 277.17 89.7979 277.468C89.6923 277.767 89.4966 278.025 89.2379 278.207C88.9791 278.389 88.6702 278.486 88.3538 278.485ZM702.492 272.384C702.28 272.384 702.069 272.339 701.875 272.252C701.681 272.165 701.506 272.039 701.364 271.881C697.34 267.42 693.079 263.18 688.599 259.177C688.298 258.906 688.116 258.526 688.095 258.122C688.073 257.717 688.213 257.32 688.484 257.019C688.755 256.718 689.135 256.536 689.54 256.515C689.944 256.493 690.341 256.634 690.642 256.905C695.199 260.984 699.536 265.301 703.636 269.837C703.835 270.057 703.965 270.33 704.011 270.622C704.057 270.915 704.017 271.214 703.895 271.484C703.774 271.754 703.577 271.983 703.328 272.143C703.079 272.303 702.788 272.387 702.492 272.384ZM61.4359 254.083C61.2315 254.084 61.029 254.045 60.8404 253.966C60.6518 253.887 60.4809 253.772 60.3378 253.626C56.0218 249.233 51.8278 244.734 47.9084 240.251C47.6618 239.945 47.543 239.555 47.5766 239.164C47.6101 238.772 47.7936 238.409 48.0886 238.149C48.3836 237.89 48.7674 237.754 49.16 237.77C49.5527 237.787 49.9238 237.954 50.196 238.238C54.085 242.691 58.2332 247.144 62.5187 251.475C62.6617 251.617 62.7751 251.786 62.8525 251.972C62.93 252.158 62.9698 252.357 62.9698 252.558C62.9698 252.76 62.93 252.959 62.8525 253.145C62.7751 253.331 62.6617 253.499 62.5187 253.641C62.2284 253.921 61.8391 254.074 61.4359 254.068V254.083ZM675.559 247.983C675.229 247.983 674.908 247.876 674.644 247.678C670.069 244.246 665.067 240.754 659.82 237.338C659.481 237.117 659.242 236.771 659.158 236.375C659.074 235.979 659.15 235.565 659.371 235.225C659.591 234.886 659.937 234.647 660.333 234.563C660.73 234.479 661.143 234.555 661.483 234.776C666.79 238.238 671.838 241.761 676.474 245.238C676.637 245.358 676.774 245.509 676.877 245.683C676.98 245.857 677.048 246.049 677.077 246.249C677.105 246.449 677.093 246.653 677.042 246.848C676.991 247.044 676.902 247.227 676.779 247.388C676.641 247.583 676.458 247.743 676.246 247.854C676.034 247.965 675.799 248.025 675.559 248.029V247.983ZM645.149 228.065C644.88 228.062 644.617 227.989 644.387 227.852C639.491 225 634.306 222.117 628.526 219.021C628.17 218.819 627.909 218.484 627.8 218.089C627.691 217.694 627.744 217.273 627.946 216.917C628.148 216.561 628.484 216.3 628.878 216.191C629.273 216.082 629.695 216.135 630.051 216.337C635.846 219.387 641.062 222.346 645.988 225.213C646.282 225.38 646.512 225.639 646.642 225.951C646.773 226.262 646.796 226.608 646.709 226.934C646.622 227.26 646.429 227.548 646.16 227.753C645.892 227.958 645.563 228.068 645.225 228.065H645.149ZM37.553 226.632C37.3162 226.632 37.0827 226.576 36.8709 226.471C36.6592 226.365 36.475 226.211 36.3329 226.022C32.5812 221.096 29.043 216.063 25.8098 211.076C25.5893 210.736 25.5129 210.323 25.5973 209.926C25.6816 209.53 25.9199 209.184 26.2597 208.963C26.5995 208.743 27.0129 208.667 27.409 208.751C27.8051 208.835 28.1515 209.074 28.3719 209.413C31.5594 214.339 35.0518 219.311 38.7578 224.176C39.0021 224.498 39.1088 224.903 39.0545 225.304C39.0002 225.704 38.7893 226.066 38.468 226.311C38.2119 226.531 37.8901 226.66 37.553 226.677V226.632ZM613.107 210.801C612.869 210.797 612.634 210.739 612.421 210.633C611.88 210.357 611.34 210.08 610.8 209.804C606.88 207.795 602.986 205.8 599.152 203.923L596.102 202.398C595.772 202.199 595.53 201.883 595.423 201.513C595.316 201.143 595.354 200.747 595.527 200.403C595.701 200.059 595.998 199.794 596.36 199.661C596.721 199.527 597.119 199.535 597.475 199.683L600.525 201.208C604.887 203.384 609.315 205.621 613.808 207.919C614.114 208.075 614.357 208.33 614.5 208.641C614.643 208.953 614.676 209.304 614.595 209.637C614.514 209.97 614.323 210.266 614.053 210.477C613.783 210.688 613.45 210.803 613.107 210.801ZM17.8793 196.099C17.6154 196.089 17.3586 196.011 17.134 195.872C16.9094 195.733 16.7248 195.538 16.5982 195.306C13.7375 189.898 11.1616 184.345 8.88129 178.668C8.73163 178.291 8.73753 177.871 8.8977 177.499C9.05786 177.128 9.35917 176.835 9.73534 176.685C10.1115 176.535 10.5317 176.541 10.9035 176.701C11.2753 176.861 11.5683 177.163 11.718 177.539C13.9739 183.117 16.5191 188.575 19.3434 193.888C19.5314 194.246 19.5695 194.664 19.4494 195.05C19.3293 195.436 19.0608 195.759 18.7029 195.947C18.4526 196.089 18.167 196.158 17.8793 196.145V196.099ZM580.638 194.33C580.394 194.331 580.153 194.274 579.936 194.162C573.729 190.929 568.498 188.062 563.892 185.439C563.54 185.237 563.283 184.903 563.177 184.511C563.071 184.119 563.126 183.701 563.328 183.35C563.53 182.998 563.864 182.741 564.256 182.635C564.648 182.529 565.065 182.583 565.417 182.785C569.993 185.408 575.178 188.245 581.339 191.463C581.636 191.623 581.872 191.878 582.009 192.186C582.146 192.495 582.177 192.84 582.097 193.168C582.016 193.496 581.83 193.788 581.566 193.998C581.302 194.208 580.975 194.325 580.638 194.33ZM549.267 175.953C548.95 175.955 548.641 175.859 548.382 175.678C543.305 172.191 538.576 168.223 534.26 163.828C533.981 163.535 533.829 163.143 533.839 162.738C533.849 162.334 534.02 161.95 534.313 161.67C534.606 161.391 534.998 161.24 535.403 161.25C535.808 161.26 536.192 161.431 536.471 161.724C540.662 165.98 545.259 169.816 550.197 173.177C550.526 173.41 550.749 173.764 550.817 174.162C550.886 174.559 550.794 174.967 550.563 175.297C550.425 175.512 550.236 175.689 550.012 175.811C549.788 175.934 549.537 175.998 549.282 175.999L549.267 175.953ZM4.58052 162.349C4.23419 162.36 3.89445 162.253 3.61724 162.045C3.34004 161.837 3.14189 161.541 3.05543 161.205C1.53532 155.251 0.515052 149.181 0.00525278 143.057C-0.0114253 142.856 0.0117073 142.655 0.0732973 142.463C0.134887 142.272 0.233733 142.094 0.364139 141.941C0.494545 141.788 0.653934 141.662 0.833143 141.571C1.01235 141.48 1.20782 141.425 1.40833 141.41C1.60874 141.393 1.81047 141.416 2.00191 141.478C2.19334 141.539 2.37072 141.638 2.52381 141.768C2.67689 141.899 2.80267 142.058 2.89391 142.237C2.98515 142.417 3.04004 142.612 3.05543 142.813C3.54702 148.768 4.5419 154.671 6.02938 160.458C6.12664 160.848 6.0658 161.261 5.86015 161.607C5.6545 161.952 5.32068 162.203 4.93131 162.303L4.58052 162.349ZM525.536 149.264C525.223 149.264 524.917 149.167 524.66 148.987C524.404 148.807 524.209 148.552 524.103 148.257C522.824 144.743 522.168 141.032 522.166 137.292C522.179 134.726 522.47 132.169 523.035 129.666C523.074 129.466 523.152 129.275 523.266 129.105C523.38 128.936 523.527 128.791 523.698 128.679C523.869 128.567 524.061 128.491 524.262 128.455C524.463 128.418 524.669 128.423 524.868 128.468C525.067 128.513 525.256 128.597 525.422 128.716C525.588 128.835 525.728 128.987 525.834 129.161C525.941 129.335 526.011 129.529 526.041 129.732C526.071 129.934 526.06 130.14 526.009 130.337C525.495 132.641 525.229 134.993 525.216 137.353C525.218 140.739 525.812 144.099 526.97 147.281C527.107 147.661 527.088 148.081 526.916 148.447C526.745 148.813 526.435 149.096 526.055 149.233C525.892 149.287 525.722 149.312 525.551 149.31L525.536 149.264ZM306.579 127.104C306.299 127.102 306.024 127.023 305.786 126.875C300.738 123.825 295.476 120.668 290.169 117.725C289.995 117.625 289.842 117.491 289.719 117.332C289.597 117.173 289.507 116.991 289.454 116.797C289.402 116.603 289.388 116.401 289.414 116.201C289.44 116.002 289.505 115.81 289.605 115.636C289.705 115.461 289.838 115.308 289.998 115.186C290.157 115.063 290.339 114.973 290.533 114.921C290.727 114.868 290.929 114.855 291.128 114.88C291.328 114.906 291.52 114.971 291.694 115.071C297.047 118.121 302.37 121.172 307.418 124.344C307.7 124.519 307.917 124.781 308.037 125.091C308.157 125.401 308.172 125.741 308.08 126.06C307.989 126.379 307.796 126.66 307.53 126.86C307.265 127.059 306.942 127.166 306.609 127.165L306.579 127.104ZM2.03363 126.387H1.82011C1.41971 126.331 1.05821 126.117 0.815108 125.794C0.572011 125.471 0.467237 125.064 0.523801 124.664C1.36201 118.514 3.04534 112.51 5.5261 106.821C5.60569 106.636 5.721 106.469 5.86543 106.329C6.00987 106.189 6.18057 106.079 6.36767 106.005C6.55477 105.931 6.7546 105.896 6.95566 105.899C7.15672 105.903 7.35504 105.947 7.5392 106.027C7.72254 106.108 7.88812 106.225 8.02645 106.37C8.16479 106.515 8.27317 106.686 8.3454 106.873C8.41764 107.06 8.45232 107.259 8.44745 107.46C8.44258 107.66 8.39826 107.857 8.31701 108.041C5.95345 113.474 4.34725 119.206 3.54347 125.076C3.49203 125.44 3.31096 125.773 3.03356 126.014C2.75616 126.255 2.40108 126.387 2.03363 126.387ZM531.743 114.934C531.458 114.935 531.178 114.856 530.935 114.705C530.766 114.598 530.619 114.459 530.504 114.295C530.389 114.131 530.307 113.946 530.263 113.751C530.219 113.555 530.214 113.353 530.248 113.156C530.282 112.959 530.355 112.77 530.462 112.601C533.783 107.425 537.533 102.538 541.672 97.9902C541.943 97.6889 542.322 97.5076 542.727 97.4861C543.132 97.4647 543.528 97.6049 543.83 97.8759C544.131 98.1469 544.312 98.5265 544.334 98.9312C544.355 99.3359 544.215 99.7325 543.944 100.034C539.92 104.449 536.273 109.194 533.04 114.217C532.902 114.437 532.711 114.618 532.484 114.744C532.258 114.869 532.003 114.935 531.743 114.934ZM274.888 109.261C274.644 109.262 274.403 109.204 274.186 109.093C268.833 106.348 263.358 103.679 257.898 101.162C257.53 100.993 257.244 100.683 257.104 100.303C256.964 99.9226 256.981 99.5021 257.151 99.1341C257.321 98.766 257.63 98.4805 258.01 98.3403C258.391 98.2002 258.811 98.2169 259.179 98.3868C264.669 100.934 270.19 103.618 275.589 106.378C275.894 106.535 276.138 106.789 276.28 107.101C276.423 107.412 276.457 107.763 276.376 108.096C276.295 108.429 276.104 108.725 275.834 108.937C275.564 109.148 275.23 109.262 274.888 109.261ZM241.885 94.0098C241.686 94.0122 241.489 93.9759 241.305 93.903C235.708 91.5849 230.019 89.3277 224.422 87.3146C224.229 87.2507 224.05 87.1486 223.896 87.0144C223.743 86.8802 223.618 86.7165 223.529 86.5331C223.44 86.3497 223.388 86.1503 223.377 85.9467C223.367 85.7431 223.397 85.5394 223.466 85.3476C223.536 85.1559 223.643 84.98 223.781 84.8303C223.92 84.6807 224.087 84.5604 224.273 84.4764C224.458 84.3925 224.659 84.3467 224.863 84.3417C225.067 84.3367 225.27 84.3727 225.459 84.4474C231.117 86.5216 236.837 88.7482 242.464 91.0816C242.786 91.2187 243.051 91.4624 243.215 91.7718C243.378 92.0812 243.431 92.4375 243.363 92.7809C243.295 93.1242 243.111 93.4338 242.842 93.6575C242.573 93.8813 242.235 94.0056 241.885 94.0098ZM16.5982 93.6742C16.2275 93.6737 15.8697 93.5382 15.5917 93.293C15.2865 93.0279 15.099 92.6525 15.0704 92.2493C15.0418 91.8461 15.1744 91.4481 15.4392 91.1426C19.5571 86.4945 24.2995 82.4399 29.531 79.0944C29.7002 78.9862 29.8891 78.9125 30.0869 78.8773C30.2846 78.8422 30.4873 78.8463 30.6835 78.8895C30.8796 78.9327 31.0653 79.0141 31.23 79.1291C31.3947 79.244 31.5351 79.3903 31.6433 79.5595C31.7514 79.7288 31.8252 79.9176 31.8603 80.1154C31.8955 80.3131 31.8913 80.5159 31.8481 80.712C31.805 80.9081 31.7236 81.0938 31.6086 81.2585C31.4936 81.4232 31.3473 81.5636 31.1781 81.6718C26.1856 84.8543 21.6631 88.7197 17.7421 93.1557C17.5991 93.3184 17.4232 93.4488 17.226 93.5382C17.0288 93.6276 16.8148 93.674 16.5982 93.6742ZM555.58 87.6654C555.272 87.6677 554.969 87.5762 554.714 87.403C554.458 87.2298 554.261 86.9831 554.149 86.6955C554.036 86.4079 554.014 86.0929 554.084 85.7922C554.155 85.4916 554.315 85.2194 554.543 85.0117C558.722 81.1837 563.374 77.1728 568.391 73.1008C568.547 72.9741 568.727 72.8795 568.919 72.8224C569.112 72.7653 569.314 72.7469 569.514 72.7681C569.714 72.7894 569.907 72.8499 570.084 72.9463C570.26 73.0426 570.416 73.1729 570.542 73.3295C570.793 73.6437 570.91 74.0443 570.867 74.4442C570.824 74.8441 570.625 75.2108 570.313 75.4647C565.356 79.5061 560.735 83.4714 556.587 87.2689C556.32 87.5042 555.982 87.6437 555.626 87.6654H555.58ZM207.677 81.565C207.525 81.588 207.371 81.588 207.219 81.565C201.424 79.7349 195.568 78.0421 189.818 76.5322C189.428 76.4284 189.095 76.1743 188.892 75.8256C188.689 75.4769 188.633 75.0619 188.735 74.6716C188.839 74.2817 189.093 73.9488 189.442 73.7459C189.791 73.5429 190.206 73.4865 190.596 73.5888C196.391 75.1139 202.293 76.8067 208.134 78.6521C208.539 78.7128 208.903 78.9316 209.146 79.2606C209.389 79.5895 209.491 80.0015 209.431 80.406C209.37 80.8104 209.151 81.1742 208.822 81.4173C208.493 81.6605 208.081 81.7629 207.677 81.7023V81.565ZM46.6273 73.9396C46.2688 73.9391 45.9219 73.8124 45.6475 73.5817C45.3731 73.3509 45.1888 73.0309 45.1269 72.6777C45.065 72.3246 45.1295 71.961 45.309 71.6507C45.4886 71.3403 45.7717 71.1032 46.1088 70.9809C51.8904 68.8832 57.8322 67.2562 63.876 66.1158C64.0763 66.0788 64.2819 66.0816 64.4811 66.124C64.6804 66.1664 64.8693 66.2476 65.0371 66.363C65.2049 66.4784 65.3484 66.6258 65.4592 66.7967C65.5701 66.9675 65.6462 67.1585 65.6833 67.3588C65.7203 67.5591 65.7176 67.7647 65.6752 67.9639C65.6327 68.1631 65.5515 68.352 65.4361 68.5198C65.3207 68.6877 65.1733 68.8311 65.0025 68.942C64.8316 69.0528 64.6406 69.129 64.4403 69.166C58.5677 70.2606 52.7939 71.8315 47.1763 73.8633C47.0119 73.9046 46.8421 73.92 46.673 73.9091L46.6273 73.9396ZM172.523 72.3382C172.417 72.353 172.309 72.353 172.203 72.3382C166.255 71.0876 160.262 70.0048 154.405 69.105C154.001 69.0444 153.637 68.8255 153.394 68.4966C153.151 68.1677 153.048 67.7557 153.109 67.3512C153.17 66.9467 153.389 66.5829 153.718 66.3398C154.046 66.0967 154.458 65.9942 154.863 66.0549C160.78 66.9699 166.835 68.068 172.829 69.3338C173.025 69.3738 173.211 69.4521 173.377 69.5642C173.543 69.6763 173.686 69.8201 173.796 69.9872C173.907 70.1543 173.983 70.3415 174.021 70.5382C174.059 70.7349 174.058 70.9371 174.018 71.1334C173.941 71.4619 173.756 71.7553 173.494 71.9678C173.232 72.1803 172.907 72.2999 172.569 72.3077L172.523 72.3382ZM136.608 66.8174H136.455C130.355 66.2379 124.361 65.8413 118.413 65.6431C118.009 65.6431 117.621 65.4824 117.335 65.1964C117.049 64.9104 116.888 64.5225 116.888 64.118C116.888 63.7135 117.049 63.3256 117.335 63.0396C117.621 62.7536 118.009 62.5929 118.413 62.5929C124.422 62.8064 130.614 63.2029 136.638 63.7825C137.043 63.8007 137.423 63.9788 137.696 64.2777C137.97 64.5766 138.113 64.9717 138.095 65.3762C138.076 65.7807 137.898 66.1614 137.599 66.4345C137.3 66.7076 136.905 66.8508 136.501 66.8326L136.608 66.8174ZM82.1771 66.6954C81.7977 66.6973 81.4313 66.5577 81.1493 66.3039C80.8672 66.0501 80.69 65.7003 80.652 65.3228C80.6136 64.9228 80.7347 64.5238 80.9888 64.2125C81.243 63.9012 81.6097 63.7028 82.0094 63.6605C88.003 63.0657 94.2101 62.6844 100.31 62.5014C100.715 62.5014 101.103 62.6621 101.389 62.9481C101.675 63.2341 101.836 63.622 101.836 64.0265C101.836 64.431 101.675 64.8189 101.389 65.1049C101.103 65.3909 100.715 65.5516 100.31 65.5516C94.2101 65.7193 88.2013 66.1159 82.2839 66.6954H82.1771ZM329.243 142.325C328.913 142.325 328.592 142.218 328.328 142.02C328.328 142.02 325.69 140.007 320.947 136.743C320.701 136.486 320.553 136.152 320.527 135.799C320.502 135.445 320.601 135.093 320.806 134.804C321.012 134.515 321.313 134.306 321.656 134.215C321.999 134.124 322.363 134.155 322.685 134.303C327.007 137.284 329.526 139.174 330.077 139.588C330.11 139.612 330.136 139.632 330.154 139.646C330.172 139.659 330.183 139.667 330.189 139.671C330.439 139.866 330.623 140.134 330.714 140.438C330.806 140.742 330.8 141.067 330.697 141.368C330.595 141.668 330.401 141.93 330.143 142.115C329.885 142.3 329.576 142.4 329.258 142.401L329.243 142.325Z" fill="#2C3B47"/>
</svg>
