<svg width="272" height="255" viewBox="0 0 272 255" fill="none" xmlns="http://www.w3.org/2000/svg">
<g clip-path="url(#clip0_1365_15679)">
<path d="M34.4336 136.162L34.2224 140.331L34.2097 140.582L34.4037 140.742L37.8488 143.582L33.6268 144.755L33.3841 144.822L33.2938 145.057L31.7161 149.17L29.287 145.455L29.1494 145.245L28.8986 145.23L24.4195 144.96L27.264 141.606L27.4308 141.409L27.3673 141.159L26.2839 136.892L30.5648 138.418L30.7964 138.501L31.0032 138.368L34.4336 136.162Z" fill="white" stroke="#2C3B47"/>
<path d="M244.772 40L242.613 46.959L235.59 49.2864L241.426 53.4839L241.536 60.7497L247.458 56.4423L254.458 58.7292L252.223 51.8338L256.345 45.8069L248.854 45.8764L244.772 40Z" fill="white"/>
<path d="M110.64 28.4787L121.929 47.891L122.682 48.7537L126.856 52.2506L135.569 47.1847L134.637 41.8525L134.278 40.7873L123 21.317L110.64 28.4787Z" fill="white"/>
<path d="M211.518 230.881C219.694 230.881 226.322 224.253 226.322 216.077C226.322 207.901 219.694 201.273 211.518 201.273C203.342 201.273 196.714 207.901 196.714 216.077C196.714 224.253 203.342 230.881 211.518 230.881Z" fill="white"/>
<path d="M128.57 124.799C159.417 106.331 185.539 100.646 185.539 100.646L194.704 112.375L208.79 130.45C208.79 130.45 190.6 166.797 151.381 197.377C136.328 209.107 123.829 216.303 114.091 220.686C97.1852 228.357 88.3908 227.686 88.3908 227.686L65.8869 198.796L64.2253 196.694L61.6895 193.429C61.6895 193.429 63.2121 184.744 74.768 170.3C76.5049 168.094 78.5312 165.714 80.8065 163.213L128.57 124.799Z" fill="white"/>
<path d="M73.1299 133.571C73.1299 133.571 77.6284 126.571 89.769 116.561C93.7233 113.591 94.2212 112.584 106.999 106.505C109.992 105.318 123.453 102.122 126.104 102.093C128.212 100.935 152.319 88.719 152.319 88.719C152.319 88.719 167.187 81.0305 168.964 80.3531C169.48 81.5111 175.055 93.368 175.055 93.368C175.055 93.368 156.569 102.168 153.819 103.575C151.069 104.982 141.661 109.608 136.334 113.464C134.459 114.876 131.124 117.157 130.371 118.228C130.14 119.346 129.584 123.96 127.216 126.334L140.352 126.635L138.963 141.641L119.325 140.333L118.196 142.371L99.1365 141.653L73.1299 133.571Z" fill="#EFE08A"/>
<path d="M217.306 99.8232L185.539 100.645L197.141 115.513L208.732 130.438L217.306 99.8232Z" fill="#E5E5E5"/>
<path d="M71.6996 236.856L48.7383 207.353L61.7011 193.423L88.3909 227.686L71.6996 236.856Z" fill="#E5E5E5"/>
<path d="M74.7794 170.271L51.1002 164.846L39.7295 173.675L61.6892 193.429C61.6892 193.429 63.2235 184.744 74.7794 170.271Z" fill="#E5E5E5"/>
<path d="M114.021 220.732C97.185 228.357 88.3906 227.68 88.3906 227.68L102.135 253.796L113.5 244.956L114.021 220.732Z" fill="#E5E5E5"/>
<path d="M88.2754 228.241C88.1376 228.211 88.0156 228.131 87.9324 228.017C87.8492 227.903 87.8106 227.762 87.8238 227.622C87.8268 227.545 87.8462 227.47 87.8806 227.401C87.9151 227.333 87.9638 227.272 88.0236 227.224C88.0834 227.176 88.1528 227.141 88.2272 227.121C88.3016 227.102 88.3792 227.099 88.4549 227.112C88.5649 227.112 97.336 227.633 113.848 220.165C125.427 214.954 137.898 207.098 151.017 196.885C189.674 166.78 208.067 130.525 208.264 130.161C208.348 130.064 208.462 129.998 208.588 129.974C208.714 129.949 208.845 129.967 208.96 130.025C209.074 130.082 209.167 130.176 209.222 130.292C209.277 130.408 209.292 130.539 209.265 130.664C209.074 131.029 190.571 167.503 151.706 197.788C138.517 208.053 125.954 215.933 114.276 221.219C97.4402 228.843 88.6807 228.293 88.3333 228.282L88.2754 228.241Z" fill="#2C3B47" stroke="#2C3B47"/>
<path d="M61.5846 194.008C61.4364 193.976 61.3066 193.887 61.2233 193.76C61.1399 193.633 61.1096 193.479 61.1388 193.33C61.2082 192.995 62.8467 184.345 74.3331 169.929C76.2263 167.584 78.2411 165.205 80.4295 162.86C80.5365 162.751 80.6793 162.684 80.8315 162.673C80.9838 162.661 81.1351 162.705 81.2574 162.796C81.366 162.905 81.4316 163.049 81.4423 163.202C81.4529 163.355 81.4078 163.507 81.3153 163.63C79.1906 165.986 77.1179 168.354 75.2884 170.658C64.0046 184.791 62.3372 193.429 62.314 193.55C62.261 193.696 62.1595 193.818 62.0266 193.897C61.8937 193.976 61.7376 194.007 61.5846 193.985V194.008Z" fill="#2C3B47" stroke="#2C3B47"/>
<path d="M128.454 125.361C128.38 125.348 128.31 125.318 128.248 125.276C128.186 125.233 128.134 125.177 128.095 125.112C128.051 125.049 128.022 124.977 128.009 124.902C127.996 124.826 128.001 124.748 128.022 124.675C128.043 124.601 128.08 124.533 128.131 124.475C128.182 124.418 128.245 124.372 128.315 124.342C158.89 106.041 185.175 100.165 185.481 100.107C185.611 100.112 185.735 100.159 185.834 100.242C185.933 100.326 186.001 100.44 186.028 100.566C186.055 100.693 186.038 100.825 185.981 100.941C185.924 101.057 185.829 101.151 185.713 101.207C185.47 101.277 159.307 107.124 128.923 125.344C128.768 125.369 128.611 125.374 128.454 125.361Z" fill="#2C3B47" stroke="#2C3B47"/>
<path d="M154.953 171.961C154.84 171.93 154.74 171.866 154.665 171.777C154.589 171.689 154.542 171.579 154.53 171.463C154.509 171.311 154.548 171.157 154.641 171.034C154.733 170.911 154.87 170.83 155.022 170.809C158.547 170.286 161.874 168.849 164.67 166.64C167.466 164.431 169.635 161.528 170.96 158.22C172.285 154.912 172.72 151.314 172.221 147.786C171.722 144.257 170.308 140.921 168.118 138.11C167.031 136.674 165.744 135.401 164.297 134.329C164.217 134.295 164.145 134.244 164.087 134.179C164.03 134.113 163.987 134.036 163.964 133.952C163.94 133.868 163.936 133.78 163.951 133.694C163.966 133.608 164.001 133.527 164.052 133.456C164.103 133.386 164.169 133.327 164.245 133.286C164.322 133.245 164.407 133.221 164.494 133.217C164.581 133.213 164.668 133.228 164.748 133.263C164.828 133.297 164.9 133.349 164.957 133.414C166.479 134.565 167.841 135.912 169.01 137.421C170.764 139.639 172.059 142.185 172.817 144.91C173.576 147.635 173.783 150.484 173.427 153.29C172.72 158.964 169.791 164.126 165.281 167.642C162.365 169.943 158.891 171.432 155.213 171.955C155.129 171.982 155.038 171.984 154.953 171.961Z" fill="#2C3B47" stroke="#2C3B47"/>
<path d="M147.525 171.747C144.639 171.145 141.908 169.956 139.502 168.252C137.097 166.549 135.067 164.369 133.541 161.847C132.015 159.325 131.024 156.516 130.631 153.594C130.238 150.673 130.451 147.702 131.256 144.866C131.271 144.789 131.303 144.716 131.35 144.654C131.397 144.591 131.458 144.54 131.528 144.504C131.597 144.468 131.674 144.449 131.753 144.447C131.831 144.446 131.909 144.462 131.98 144.496C132.057 144.509 132.129 144.541 132.192 144.587C132.255 144.634 132.306 144.694 132.342 144.763C132.378 144.833 132.397 144.909 132.399 144.987C132.4 145.065 132.384 145.143 132.35 145.213C131.498 148.285 131.373 151.513 131.985 154.641C132.597 157.77 133.929 160.712 135.876 163.236C137.538 165.391 139.618 167.187 141.992 168.517C144.366 169.846 146.985 170.681 149.69 170.971C149.842 170.989 149.981 171.065 150.076 171.185C150.171 171.304 150.216 171.456 150.2 171.608C150.173 171.755 150.095 171.887 149.979 171.98C149.863 172.074 149.717 172.123 149.569 172.117C148.88 171.973 148.196 171.892 147.525 171.747Z" fill="#2C3B47" stroke="#2C3B47"/>
<path d="M217.186 100.385C217.06 100.363 216.943 100.304 216.85 100.217C216.761 100.096 216.722 99.9444 216.743 99.7952C216.763 99.6461 216.841 99.5108 216.96 99.4181L236.152 84.4637C236.272 84.3756 236.422 84.3373 236.57 84.3567C236.717 84.3762 236.852 84.4518 236.945 84.5679C237.035 84.6885 237.074 84.8393 237.055 84.9885C237.035 85.1376 236.959 85.2733 236.841 85.3668L217.649 100.321C217.508 100.4 217.342 100.423 217.186 100.385Z" fill="#2C3B47" stroke="#2C3B47"/>
<path d="M119.932 194.465L119.069 208.065C119.069 208.065 151.311 202.443 154.426 201.806C157.541 201.169 158.282 199.288 154.611 198.402C150.941 197.516 137.509 196.978 135.506 197.319C135.477 194.396 135.158 190.881 135.158 190.881L119.932 194.465Z" fill="white"/>
<path d="M118.953 208.626C118.855 208.615 118.762 208.575 118.687 208.51C118.565 208.391 118.493 208.23 118.484 208.059L119.353 194.459C119.364 194.331 119.414 194.21 119.497 194.113C119.58 194.015 119.692 193.946 119.816 193.915L135.1 190.343C135.258 190.32 135.418 190.355 135.552 190.441C135.626 190.474 135.687 190.53 135.725 190.602C135.762 190.673 135.775 190.755 135.76 190.835C135.76 190.887 136.044 193.927 136.108 196.688C139.529 196.526 151.328 197.07 154.785 197.846C157.182 198.425 157.68 199.334 157.645 200.081C157.604 201.123 156.487 202.003 154.542 202.35C151.433 202.987 119.492 208.557 119.191 208.609C119.116 208.643 119.032 208.649 118.953 208.626ZM120.424 194.922L119.683 207.376C124.465 206.571 151.525 201.783 154.304 201.256C155.96 200.903 156.487 200.312 156.481 200.098C156.475 199.884 155.937 199.34 154.484 199.033C150.761 198.136 137.422 197.678 135.616 197.944C135.536 197.965 135.453 197.961 135.376 197.934C135.299 197.908 135.231 197.859 135.181 197.794C135.025 197.701 135.002 197.522 134.985 197.342C134.956 195.235 134.776 192.745 134.724 191.628L120.424 194.922Z" fill="#2C3B47" stroke="#2C3B47"/>
<path d="M185.303 76.1326C186.428 76.2073 187.542 76.4014 188.626 76.7115C189.882 77.1457 192.256 78.3442 191.613 80.3126C191.092 81.9569 189.668 81.7774 188.58 81.1347C187.491 80.4921 186.999 79.7568 186.015 79.7221C183.155 79.7221 182.541 77.7768 182.541 77.7768L185.303 76.1326Z" fill="#EDCFC5" stroke="#2C3B47"/>
<path d="M189.477 82.1421C189.055 82.0568 188.652 81.8939 188.29 81.6615C187.959 81.4829 187.653 81.2609 187.381 81.0015C186.996 80.6483 186.521 80.4079 186.009 80.3068C182.743 80.2663 182.037 78.072 182.002 77.9504C181.974 77.8293 181.983 77.7024 182.029 77.5866C182.074 77.4708 182.154 77.3715 182.257 77.302L185.007 75.5999C185.128 75.5571 185.252 75.5242 185.378 75.5015C186.553 75.5961 187.716 75.8035 188.851 76.121C190.918 76.8446 192.875 78.3615 192.209 80.4399C192.111 80.7899 191.936 81.1135 191.697 81.3869C191.457 81.6604 191.16 81.8769 190.826 82.0205C190.399 82.1996 189.928 82.2421 189.477 82.1421ZM186.518 79.2473C187.106 79.3979 187.647 79.6924 188.093 80.1042C188.348 80.272 188.597 80.4978 188.904 80.6831C189.116 80.8454 189.362 80.9578 189.623 81.012C189.885 81.0661 190.155 81.0605 190.415 80.9957C190.589 80.9227 190.74 80.805 190.854 80.6545C190.968 80.5041 191.04 80.3262 191.063 80.1389C191.584 78.4947 189.158 77.522 188.458 77.2441C187.483 76.9613 186.485 76.7675 185.476 76.6652L183.34 77.9678C183.647 78.4426 184.434 79.1257 186.072 79.1257C186.165 79.2299 186.35 79.2126 186.518 79.2473Z" fill="#2C3B47"/>
<path d="M129.323 87.7638C129.323 87.7638 131.685 87.6133 133.983 87.5149C136.282 87.4165 136.728 89.1997 136.045 90.5139C135.361 91.8281 132.102 92.3144 131.836 95.0066C131.257 101.479 130.452 104.114 126.469 105.85C125.114 106.429 123.29 106.238 121.791 105.85H121.681C121.681 105.85 121.345 107.182 121.073 108.745C119.952 109.23 118.708 109.351 117.515 109.09C116.323 108.829 115.242 108.2 114.426 107.292C114.426 107.292 116.401 104.849 116.69 100.472C115.688 100.785 112.365 101.317 112.788 98.1908C113.089 96.2108 115.15 94.7171 117.286 96.5061L117.483 88.6091L129.323 87.7638Z" fill="#EDCFC5"/>
<path d="M117.304 96.6333L117.507 88.6727L132.102 87.5843C132.102 87.5843 137.469 76.4452 122.839 77.5278C111.387 78.3963 112.093 85.6332 112.093 85.6332C112.093 85.6332 107.815 86.548 106.622 92.2507C105.43 97.9534 111.295 103.396 116.019 104.264C116.534 102.249 116.111 102.863 117.304 96.6333Z" fill="#F39129"/>
<path d="M117.303 96.6333C115.178 94.7865 113.158 96.3496 112.805 98.3181C112.382 101.439 115.699 100.912 116.707 100.593C116.429 104.976 114.455 107.425 114.455 107.425C115.275 108.327 116.355 108.951 117.547 109.211C118.738 109.47 119.98 109.352 121.101 108.872C121.373 107.298 121.709 105.978 121.709 105.978" fill="#EDCFC5"/>
<path d="M117.53 109.758C116.194 109.454 114.983 108.751 114.056 107.743C113.972 107.645 113.926 107.52 113.926 107.39C113.926 107.261 113.972 107.136 114.056 107.037C115.232 105.352 115.945 103.387 116.123 101.34C115.597 101.467 115.052 101.486 114.519 101.394C113.986 101.303 113.478 101.103 113.025 100.808C112.377 100.263 112.151 99.4007 112.261 98.3122C112.342 97.6932 112.584 97.1064 112.964 96.6113C113.345 96.1162 113.849 95.7303 114.426 95.4927C114.994 95.3164 115.599 95.2982 116.177 95.44C116.754 95.5818 117.282 95.8782 117.703 96.2975C117.762 96.348 117.81 96.4096 117.844 96.4787C117.879 96.5479 117.9 96.6231 117.906 96.7003C117.911 96.7774 117.902 96.8549 117.877 96.9284C117.853 97.0018 117.815 97.0697 117.764 97.1283C117.713 97.1868 117.652 97.2348 117.583 97.2696C117.514 97.3043 117.438 97.3251 117.361 97.3307C117.284 97.3364 117.207 97.3268 117.133 97.3025C117.06 97.2782 116.992 97.2396 116.933 97.1891C116.186 96.5638 115.474 96.3554 114.832 96.6101C114.453 96.7826 114.125 97.0504 113.881 97.3872C113.636 97.7241 113.483 98.1186 113.436 98.5322C113.377 98.7877 113.377 99.0532 113.435 99.3089C113.493 99.5646 113.608 99.8038 113.772 100.009C114.473 100.588 115.92 100.339 116.603 100.13C116.688 100.091 116.783 100.081 116.873 100.101C116.964 100.121 117.046 100.17 117.107 100.24C117.188 100.293 117.25 100.37 117.284 100.461C117.317 100.552 117.32 100.651 117.292 100.744C117.198 103.12 116.472 105.428 115.191 107.431C115.904 108.105 116.794 108.563 117.756 108.754C118.719 108.944 119.716 108.859 120.633 108.508C120.882 107.043 121.171 105.937 121.183 105.879C121.233 105.752 121.327 105.646 121.447 105.581C121.568 105.516 121.708 105.496 121.842 105.524C121.976 105.553 122.096 105.628 122.18 105.736C122.264 105.845 122.306 105.98 122.3 106.117C122.3 106.117 121.964 107.442 121.721 108.965C121.666 109.15 121.55 109.312 121.391 109.422C120.162 109.898 118.823 110.015 117.53 109.758Z" fill="#2C3B47" stroke="#2C3B47"/>
<path d="M119.209 105.092C119.209 105.092 123.875 107.06 126.51 105.92C130.493 104.183 131.28 101.543 131.877 95.0701C132.137 92.4416 135.449 91.9669 136.086 90.5832C136.722 89.1995 136.329 87.48 134.03 87.5784C131.732 87.6768 129.399 87.8389 129.399 87.8389" fill="#EDCFC5"/>
<path d="M122.057 106.586C120.991 106.346 119.944 106.029 118.925 105.636C118.783 105.575 118.671 105.461 118.613 105.318C118.556 105.174 118.557 105.014 118.618 104.872C118.679 104.73 118.793 104.618 118.937 104.56C119.08 104.503 119.24 104.504 119.382 104.565C119.44 104.565 123.84 106.435 126.278 105.37C129.948 103.743 130.707 101.508 131.32 94.9486C131.482 93.0554 133.011 92.1522 134.163 91.3996C134.699 91.1258 135.176 90.7479 135.564 90.288C135.715 90.0425 135.795 89.7599 135.795 89.4717C135.795 89.1834 135.715 88.9008 135.564 88.6553C135.363 88.4447 135.117 88.2829 134.844 88.1825C134.571 88.0821 134.279 88.0458 133.989 88.0764C131.674 88.1806 129.358 88.3369 129.358 88.3369C129.233 88.3097 129.121 88.2422 129.039 88.1448C128.956 88.0474 128.909 87.9256 128.903 87.7982C128.897 87.6709 128.933 87.5451 129.006 87.4405C129.079 87.3358 129.184 87.2582 129.306 87.2195C129.306 87.2195 131.679 87.0169 133.978 86.9127C134.462 86.8194 134.963 86.8691 135.42 87.0556C135.876 87.2421 136.269 87.5574 136.549 87.963C136.83 88.3687 136.986 88.8472 136.999 89.3402C137.012 89.8332 136.882 90.3194 136.624 90.7396C136.305 91.4285 135.57 91.857 134.829 92.3433C133.758 92.9975 132.617 93.6922 132.513 95.0123C131.963 101.265 131.181 104.432 126.804 106.371C125.374 107.02 123.638 106.887 122.057 106.586Z" fill="#2C3B47" stroke="#2C3B47"/>
<path d="M122.857 92.7137C123.33 92.7137 123.714 92.3301 123.714 91.8569C123.714 91.3836 123.33 91 122.857 91C122.384 91 122 91.3836 122 91.8569C122 92.3301 122.384 92.7137 122.857 92.7137Z" fill="#2C3B47" stroke="#2C3B47"/>
<path d="M127.441 92.019C127.914 92.019 128.298 91.6354 128.298 91.1621C128.298 90.6889 127.914 90.3053 127.441 90.3053C126.968 90.3053 126.584 90.6889 126.584 91.1621C126.584 91.6354 126.968 92.019 127.441 92.019Z" fill="#2C3B47" stroke="#2C3B47"/>
<path d="M112.015 85.673L112.005 85.6708L111.996 85.6689C111.993 85.6685 111.991 85.6676 111.99 85.6663C111.988 85.665 111.986 85.6633 111.985 85.6614L111.971 85.6354L111.953 85.6113C111.893 85.529 111.639 85.2069 111.082 84.9416C110.525 84.6759 109.695 84.4818 108.508 84.6092L108.499 84.6102L108.491 84.6114C108.47 84.6143 108.449 84.609 108.432 84.5966L108.432 84.5966C108.416 84.5842 108.404 84.5656 108.401 84.5451L108.401 84.5445C108.4 84.5343 108.4 84.5238 108.403 84.5137C108.405 84.5036 108.41 84.4941 108.416 84.4857C108.422 84.4774 108.43 84.4703 108.439 84.465C108.445 84.4608 108.453 84.4578 108.461 84.4559C109.874 84.322 110.778 84.6183 111.32 84.9245C111.783 85.1855 112.008 85.4667 112.076 85.5605C112.083 85.5762 112.086 85.5939 112.082 85.6111C112.078 85.6309 112.066 85.6484 112.049 85.6598L112.043 85.6641L112.037 85.6686C112.033 85.6708 112.03 85.6724 112.026 85.6732L112.125 86.1632L112.026 85.6732C112.022 85.6739 112.018 85.6739 112.015 85.673Z" fill="#2C3B47" stroke="#2C3B47"/>
<path d="M72.6906 134.375C72.6103 134.367 72.5349 134.332 72.4764 134.277C72.3583 134.187 72.2792 134.055 72.2555 133.909C72.2318 133.762 72.2653 133.612 72.349 133.489C94.413 105.121 115.719 103.743 115.898 103.72C115.982 103.694 116.071 103.689 116.157 103.703C116.244 103.717 116.326 103.75 116.398 103.801C116.47 103.851 116.529 103.918 116.571 103.994C116.614 104.071 116.638 104.157 116.643 104.244C116.647 104.332 116.632 104.419 116.597 104.5C116.563 104.581 116.511 104.653 116.445 104.711C116.379 104.768 116.3 104.81 116.216 104.833C116.131 104.856 116.042 104.859 115.956 104.843C115.724 104.843 94.9398 106.221 73.2638 134.149C73.2028 134.241 73.1151 134.312 73.0127 134.352C72.9102 134.393 72.7978 134.401 72.6906 134.375Z" fill="#2C3B47" stroke="#2C3B47"/>
<path d="M130.215 118.9C130.117 118.889 130.024 118.848 129.949 118.784C129.889 118.735 129.84 118.674 129.805 118.605C129.769 118.536 129.748 118.461 129.742 118.384C129.736 118.306 129.746 118.229 129.77 118.155C129.795 118.082 129.834 118.014 129.885 117.956C136.879 109.955 169.584 95.1454 174.343 93.0612C173.411 91.1101 170.203 84.1337 168.669 81.1232C163.03 83.7979 131.882 99.8118 131.552 99.9797C131.419 100.043 131.268 100.055 131.126 100.014C130.984 99.974 130.862 99.8835 130.782 99.7597C130.713 99.6278 130.697 99.474 130.738 99.3305C130.779 99.1871 130.874 99.065 131.002 98.9897C132.375 98.2834 164.709 81.6211 168.692 79.8842C168.831 79.8321 168.984 79.8316 169.123 79.8825C169.262 79.9335 169.379 80.0327 169.451 80.1621C171.083 83.2479 175.565 93.0612 175.611 93.1307C175.672 93.281 175.672 93.4494 175.611 93.5996C175.586 93.6756 175.547 93.7456 175.494 93.8054C175.441 93.8651 175.376 93.9134 175.304 93.947C174.922 94.0975 137.95 110.592 130.725 118.842C130.562 118.903 130.387 118.923 130.215 118.9Z" fill="#2C3B47" stroke="#2C3B47"/>
<path d="M108.584 139.765C107.154 139.463 105.806 138.856 104.632 137.985C103.459 137.113 102.487 135.999 101.783 134.718C101.079 133.437 100.661 132.018 100.556 130.56C100.45 129.102 100.661 127.639 101.174 126.27L103.895 119.132C103.915 119.058 103.951 118.99 104 118.931C104.048 118.872 104.108 118.823 104.176 118.789C104.245 118.755 104.319 118.735 104.395 118.731C104.472 118.727 104.548 118.739 104.619 118.766C104.691 118.793 104.756 118.834 104.81 118.888C104.864 118.941 104.907 119.005 104.935 119.076C104.964 119.147 104.977 119.223 104.974 119.3C104.971 119.376 104.953 119.451 104.92 119.519L102.216 126.635C101.721 127.937 101.534 129.335 101.67 130.721C101.805 132.107 102.26 133.443 102.997 134.624C103.735 135.814 104.746 136.809 105.947 137.528C107.147 138.247 108.502 138.669 109.899 138.758L138.435 141.074L139.755 126.982L114.895 126.913C114.798 126.923 114.7 126.903 114.616 126.854C114.531 126.805 114.465 126.73 114.426 126.641C114.384 126.559 114.363 126.469 114.363 126.377C114.363 126.286 114.384 126.195 114.426 126.114L118.201 118.674C118.27 118.544 118.387 118.445 118.527 118.397C118.666 118.35 118.819 118.358 118.953 118.419C119.084 118.489 119.183 118.605 119.23 118.745C119.278 118.885 119.27 119.038 119.208 119.172L115.885 125.836L140.398 125.888C140.481 125.88 140.564 125.896 140.639 125.933C140.713 125.969 140.776 126.026 140.821 126.096C140.874 126.156 140.914 126.225 140.939 126.301C140.964 126.377 140.973 126.457 140.965 126.536L139.57 141.832C139.553 141.983 139.477 142.121 139.359 142.216C139.241 142.311 139.09 142.356 138.939 142.342L109.823 139.985C109.406 139.94 108.992 139.866 108.584 139.765Z" fill="#2C3B47" stroke="#2C3B47"/>
<path d="M127.239 126.976C127.208 126.974 127.178 126.964 127.151 126.948C127.123 126.932 127.1 126.91 127.083 126.884C127.018 126.843 126.962 126.791 126.918 126.729C126.873 126.667 126.842 126.597 126.825 126.523C126.807 126.448 126.805 126.372 126.818 126.296C126.83 126.221 126.857 126.149 126.898 126.085C129.37 122.107 130.325 118.101 129.706 114.355C129.683 114.202 129.723 114.045 129.816 113.921C129.909 113.797 130.047 113.714 130.201 113.692C130.354 113.67 130.51 113.71 130.635 113.802C130.759 113.895 130.841 114.034 130.864 114.187C131.535 118.24 130.51 122.576 127.934 126.768C127.844 126.856 127.733 126.921 127.612 126.958C127.491 126.994 127.363 127 127.239 126.976Z" fill="#2C3B47" stroke="#2C3B47"/>
<path d="M129.508 112.503C129.41 112.476 129.319 112.427 129.243 112.36C129.166 112.293 129.106 112.209 129.068 112.115C128.747 111.188 128.301 110.309 127.742 109.504C127.677 109.447 127.625 109.377 127.591 109.298C127.556 109.219 127.539 109.133 127.542 109.047C127.545 108.96 127.567 108.876 127.607 108.799C127.647 108.723 127.703 108.656 127.772 108.604C127.84 108.552 127.92 108.516 128.005 108.499C128.089 108.481 128.176 108.483 128.26 108.504C128.344 108.524 128.422 108.564 128.489 108.618C128.555 108.673 128.609 108.742 128.645 108.82C129.272 109.727 129.773 110.714 130.133 111.756C130.188 111.898 130.184 112.057 130.122 112.197C130.061 112.337 129.946 112.447 129.803 112.503C129.708 112.538 129.603 112.538 129.508 112.503Z" fill="#2C3B47" stroke="#2C3B47"/>
<path d="M183.658 78.4136C183.658 78.4136 186.332 77.632 186.981 79.282C187.629 80.9321 186.697 84.539 185.586 85.94C184.474 87.3411 180.728 86.27 180.728 86.27C180.728 86.27 179.727 82.9642 180.433 80.7179C181.139 78.4715 183.658 78.4136 183.658 78.4136Z" fill="#EDCFC5"/>
<path d="M181.168 86.9416L180.555 86.8142C180.462 86.7946 180.376 86.7496 180.308 86.6841C180.239 86.6187 180.19 86.5354 180.167 86.4437C180.132 86.3163 179.142 82.97 179.883 80.5441C180.624 78.1183 183.125 77.8925 183.594 77.8752C184.752 77.5394 186.894 77.4583 187.543 79.1083C188.208 80.9436 187.276 84.8342 186.031 86.3279C184.955 87.5611 182.401 87.2021 181.168 86.9416ZM181.128 85.7837C182.355 86.0442 184.462 86.3047 185.082 85.5637C186.037 84.3595 186.929 80.932 186.361 79.4673C185.945 78.3846 183.791 78.9231 183.721 78.9694C183.676 78.9669 183.632 78.979 183.594 79.0041C183.484 79.0041 181.423 79.0736 180.867 80.8857C180.404 82.5184 180.954 84.9152 181.128 85.7432V85.7837Z" fill="#2C3B47" stroke="#2C3B47"/>
<path d="M182.691 84.6953C182.037 80.5847 185.869 77.0646 187.647 76.0978C188.382 75.6636 191.589 74.002 192.562 72.9772C193.535 71.9525 192.371 70.5456 190.877 70.7019C184.989 71.5125 169.769 81.9857 169.769 81.9857L174.215 91.4401C174.215 91.4401 178.464 92.3317 182.123 90.7627C183.976 89.9869 189.546 86.5363 189.586 84.6779C189.586 82.9873 188.191 82.6921 187.114 82.8194C186.217 82.9179 184.873 84.041 182.818 84.6605L182.691 84.6953Z" fill="#EDCFC5"/>
<path d="M174.162 91.9553C174.074 91.9426 173.991 91.9071 173.921 91.8523C173.851 91.7974 173.796 91.7252 173.763 91.6427L169.322 82.1826C169.258 82.0601 169.243 81.9172 169.282 81.7843C169.321 81.6513 169.41 81.5387 169.531 81.4705C170.15 81.0131 184.937 70.9161 190.883 70.1172C191.376 70.0642 191.873 70.1572 192.314 70.3847C192.754 70.6121 193.118 70.964 193.361 71.3966C193.512 71.7211 193.559 72.0844 193.496 72.4368C193.433 72.7892 193.262 73.1134 193.007 73.3651C192.104 74.3435 189.401 75.8199 188.283 76.4046L187.959 76.5725C186.367 77.4641 183.113 80.4573 183.206 83.9252C183.931 83.6468 184.641 83.3279 185.33 82.97C185.88 82.6242 186.485 82.3755 187.119 82.2347C187.698 82.1826 188.781 82.1131 189.516 82.8136C189.77 83.0441 189.967 83.3303 190.092 83.6498C190.216 83.9692 190.265 84.3132 190.234 84.6547C190.194 87.0979 183.715 90.7048 182.43 91.2548C178.586 92.8817 174.33 91.9958 174.162 91.9553ZM170.486 82.1941L174.585 90.9537C175.552 91.0985 178.962 91.5327 181.915 90.2706C184.149 89.3385 189.047 86.0384 189.036 84.6952C189.05 84.3354 188.939 83.9817 188.723 83.6936C188.504 83.5448 188.258 83.4406 187.999 83.3869C187.739 83.3333 187.472 83.3313 187.212 83.381C186.736 83.511 186.28 83.7058 185.857 83.96C184.956 84.4507 184.012 84.8595 183.038 85.1816L182.91 85.2105C182.838 85.2444 182.757 85.259 182.677 85.2529C182.597 85.2468 182.52 85.2202 182.453 85.1758C182.379 85.1336 182.316 85.0742 182.27 85.0027C182.224 84.9311 182.195 84.8495 182.187 84.7647C181.463 80.411 185.4 76.6593 187.438 75.5883L187.762 75.4262C188.758 74.8472 191.392 73.4404 192.208 72.6182C192.309 72.5421 192.378 72.432 192.404 72.3085C192.43 72.185 192.409 72.0565 192.347 71.9467C192.203 71.731 192.003 71.5584 191.769 71.4473C191.534 71.3361 191.274 71.2906 191.016 71.3156C185.765 71.964 172.935 80.5325 170.486 82.1941Z" fill="#2C3B47" stroke="#2C3B47"/>
<path d="M180.283 85.882C180.172 85.8664 180.07 85.8149 179.991 85.7353C179.913 85.6558 179.862 85.5528 179.848 85.442C179.837 85.3663 179.841 85.289 179.859 85.2148C179.878 85.1405 179.911 85.0706 179.957 85.0093C180.002 84.9479 180.06 84.8962 180.126 84.8572C180.192 84.8181 180.265 84.7926 180.34 84.782C180.641 84.7299 181.823 84.3941 182.564 84.203C182.713 84.1569 182.874 84.1719 183.012 84.2447C183.149 84.3174 183.253 84.442 183.299 84.5909C183.345 84.7398 183.33 84.901 183.257 85.0389C183.184 85.1768 183.06 85.2801 182.911 85.3262C182.138 85.5719 181.354 85.7787 180.56 85.9457L180.283 85.882Z" fill="#2C3B47" stroke="#2C3B47"/>
<path d="M162.642 131.353C162.642 131.353 165.074 131.747 164.622 133.345C164.17 134.943 160.112 135.493 158.144 135.533C156.175 135.574 152.574 135.36 152.574 135.36C152.574 135.36 158.323 136.911 160.795 137.097C161.658 137.166 162.711 137.444 162.625 138.417C162.538 139.389 161.467 140.043 159.498 139.69C157.53 139.337 150.588 138.173 150.588 138.173C150.588 138.173 142.853 139.412 139.519 136.379C139.605 135.111 140.439 126.409 140.439 126.409C140.439 126.409 144.081 126.299 145.765 124.956C147.45 123.613 149.025 121.088 150.073 120.84C151.121 120.591 152.134 121.036 151.752 122.299C151.358 123.499 150.748 124.618 149.951 125.599C151.289 125.355 159.371 123.862 161.473 122.993C162.63 122.588 163.979 122.466 164.518 123.514C165.056 124.562 163.84 125.651 162.445 126.172C159.851 127.13 157.205 127.942 154.519 128.603C156.378 128.933 163.412 127.955 163.412 127.955C163.412 127.955 165.253 127.816 165.485 129.205C165.716 130.595 164.408 131.023 162.416 131.307C159.693 131.724 156.948 131.987 154.195 132.094" fill="#EDCFC5"/>
<path d="M162.642 131.353C162.642 131.353 165.074 131.747 164.622 133.345C164.17 134.943 160.112 135.493 158.144 135.533C156.175 135.574 152.574 135.36 152.574 135.36C152.574 135.36 158.323 136.911 160.795 137.097C161.658 137.166 162.711 137.444 162.625 138.417C162.538 139.389 161.467 140.043 159.498 139.69C157.53 139.337 150.588 138.173 150.588 138.173C150.588 138.173 142.853 139.412 139.519 136.379C139.605 135.111 140.439 126.409 140.439 126.409C140.439 126.409 144.081 126.299 145.765 124.956C147.45 123.613 149.025 121.088 150.073 120.84C151.121 120.591 152.134 121.036 151.752 122.299C151.358 123.499 150.748 124.618 149.951 125.599C151.289 125.355 159.371 123.862 161.473 122.993C162.63 122.588 163.979 122.466 164.518 123.514C165.056 124.562 163.84 125.651 162.445 126.172C159.851 127.13 157.205 127.942 154.519 128.603C156.378 128.933 163.412 127.955 163.412 127.955C163.412 127.955 165.253 127.816 165.485 129.205C165.716 130.595 164.408 131.023 162.416 131.307C159.693 131.724 156.948 131.987 154.195 132.094" stroke="#2C3B47"/>
<path d="M143.114 138.712C141.641 138.475 140.26 137.843 139.119 136.882C138.999 136.762 138.928 136.601 138.922 136.431L139.848 126.461C139.863 126.318 139.93 126.185 140.037 126.089C140.144 125.992 140.283 125.939 140.427 125.94C140.479 125.94 143.901 125.795 145.377 124.585C146.116 123.957 146.791 123.257 147.392 122.495C148.382 121.418 149.094 120.515 149.893 120.33C150.247 120.233 150.62 120.222 150.979 120.298C151.338 120.373 151.675 120.533 151.96 120.764C152.171 121.001 152.313 121.29 152.371 121.601C152.429 121.912 152.401 122.234 152.29 122.53C152.039 123.336 151.701 124.113 151.283 124.846C154.079 124.325 159.683 123.219 161.281 122.559C163.105 121.951 164.448 122.229 165.033 123.346C165.155 123.56 165.224 123.8 165.233 124.046C165.242 124.292 165.191 124.537 165.085 124.759C164.795 125.575 163.881 126.316 162.665 126.82C162.028 127.098 160.644 127.567 159.145 128.013C160.766 127.822 162.433 127.648 163.331 127.544C164.228 127.44 165.809 127.712 166.075 129.229C166.157 129.632 166.108 130.051 165.935 130.425C165.762 130.799 165.474 131.108 165.114 131.307C164.927 131.397 164.733 131.473 164.535 131.533C164.753 131.681 164.932 131.879 165.056 132.112C165.189 132.323 165.273 132.562 165.302 132.811C165.331 133.059 165.305 133.311 165.224 133.548C164.483 135.962 158.317 136.13 158.247 136.176C159.255 136.384 160.222 136.529 160.905 136.616C161.414 136.662 162.393 136.749 162.902 137.38C163.032 137.541 163.129 137.727 163.186 137.925C163.244 138.124 163.261 138.332 163.238 138.538C163.215 138.81 163.131 139.073 162.99 139.307C162.85 139.541 162.657 139.74 162.427 139.887C161.947 140.252 161.055 140.593 159.423 140.31C157.564 139.98 151.41 138.984 150.623 138.816C148.129 139.17 145.596 139.135 143.114 138.712ZM140.091 136.147C143.281 138.747 150.403 137.664 150.466 137.623C150.53 137.583 150.594 137.589 150.646 137.623C150.698 137.658 157.593 138.781 159.556 139.14C160.253 139.337 160.999 139.264 161.646 138.938C161.74 138.87 161.819 138.783 161.879 138.684C161.939 138.584 161.978 138.474 161.993 138.359C162.011 138.308 162.016 138.254 162.006 138.201C161.997 138.149 161.975 138.099 161.941 138.058C161.603 137.783 161.171 137.65 160.737 137.687C158.201 137.508 152.632 135.991 152.4 135.95C152.273 135.912 152.163 135.829 152.092 135.717C152.021 135.604 151.994 135.47 152.014 135.339C152.035 135.207 152.102 135.088 152.204 135.002C152.306 134.917 152.435 134.871 152.568 134.873C152.62 134.873 156.262 135.064 158.137 135.047C160.592 135.047 163.747 134.179 164.06 133.252C164.091 133.163 164.101 133.069 164.09 132.976C164.079 132.883 164.047 132.793 163.996 132.714C163.634 132.326 163.157 132.062 162.636 131.961C162.578 131.961 162.514 131.996 162.456 131.961C159.715 132.387 156.95 132.648 154.177 132.743C154.024 132.743 153.877 132.682 153.768 132.573C153.659 132.465 153.598 132.317 153.598 132.164C153.598 132.01 153.659 131.863 153.768 131.754C153.877 131.646 154.024 131.585 154.177 131.585C156.892 131.505 159.599 131.254 162.283 130.832C162.341 130.832 162.462 130.832 162.52 130.832H162.572C163.218 130.742 163.848 130.558 164.442 130.288C164.614 130.219 164.753 130.088 164.832 129.92C164.91 129.752 164.922 129.561 164.865 129.385C164.749 128.545 163.446 128.621 163.389 128.609C163.145 128.673 156.227 129.622 154.328 129.223C154.194 129.197 154.074 129.125 153.988 129.019C153.902 128.913 153.856 128.78 153.859 128.644C153.854 128.511 153.899 128.38 153.986 128.279C154.073 128.178 154.195 128.114 154.328 128.1C156.348 127.648 160.801 126.189 162.126 125.708C162.871 125.475 163.511 124.987 163.933 124.331C163.977 124.26 164 124.179 164 124.096C164 124.013 163.977 123.932 163.933 123.862C163.516 123.074 162.288 123.341 161.617 123.607C159.301 124.58 150.09 126.212 149.968 126.247C149.844 126.265 149.716 126.246 149.603 126.191C149.489 126.136 149.395 126.049 149.331 125.94C149.269 125.83 149.249 125.702 149.275 125.578C149.3 125.455 149.37 125.345 149.47 125.268C150.208 124.391 150.759 123.372 151.092 122.275C151.138 122.055 151.196 121.772 151.051 121.627C150.911 121.535 150.752 121.474 150.586 121.449C150.42 121.424 150.251 121.435 150.09 121.482C149.661 121.569 148.88 122.513 148.203 123.219C147.537 124.017 146.814 124.764 146.037 125.454C144.63 126.612 141.985 126.942 140.925 127.011L140.091 136.147Z" fill="#2C3B47" stroke="#2C3B47"/>
<path d="M75.8099 134.422L99.1186 141.641L133.346 142.973C135.564 143.017 137.694 143.848 139.355 145.318C141.016 146.788 142.1 148.801 142.413 150.997L144.202 192.103L114.061 199.108L119.753 162.75L86.4395 164.823C83.8196 165.103 81.1723 164.682 78.7686 163.603C76.3648 162.524 74.291 160.825 72.7596 158.681C71.2281 156.537 70.2939 154.024 70.0527 151.401C69.8115 148.777 70.2718 146.136 71.3867 143.749L75.8099 134.422Z" fill="#5C9CD0"/>
<path d="M116.922 144.727C116.891 144.725 116.86 144.715 116.833 144.699C116.806 144.683 116.783 144.661 116.766 144.635C116.701 144.594 116.645 144.542 116.6 144.48C116.556 144.418 116.524 144.348 116.507 144.274C116.49 144.199 116.488 144.122 116.5 144.047C116.513 143.972 116.54 143.9 116.58 143.836L118.937 139.835C119.018 139.704 119.148 139.612 119.298 139.577C119.448 139.542 119.605 139.568 119.736 139.65C119.866 139.731 119.959 139.861 119.994 140.011C120.029 140.161 120.002 140.318 119.921 140.449L117.565 144.455C117.502 144.564 117.405 144.65 117.289 144.699C117.173 144.748 117.044 144.758 116.922 144.727Z" fill="#2C3B47"/>
<path d="M102.36 164.336C102.244 164.3 102.139 164.233 102.056 164.144C101.973 164.055 101.914 163.946 101.886 163.827C101.885 163.681 101.94 163.54 102.039 163.433C102.137 163.326 102.273 163.26 102.418 163.248L128.159 161.633C128.305 161.632 128.445 161.687 128.553 161.785C128.66 161.884 128.726 162.02 128.738 162.165C128.738 162.311 128.684 162.452 128.585 162.559C128.486 162.666 128.35 162.733 128.205 162.744L102.47 164.359L102.36 164.336Z" fill="#2C3B47" stroke="#2C3B47"/>
<path d="M8.42563 254.665C8.39504 254.662 8.36539 254.652 8.33851 254.637C8.31163 254.623 8.28808 254.602 8.26931 254.578C8.20506 254.537 8.14946 254.484 8.10566 254.422C8.06187 254.36 8.03074 254.29 8.01408 254.216C7.99741 254.141 7.99552 254.065 8.00852 253.99C8.02152 253.915 8.04915 253.843 8.08984 253.779C11.6157 248.094 17.1852 248.267 22.6448 248.418C24.4561 248.504 26.2708 248.494 28.0811 248.389C29.5169 248.221 30.4722 247.839 30.9296 247.057C31.9312 245.32 30.5822 242.02 29.4475 239.334C29.0538 238.431 28.718 237.545 28.4227 236.723C28.0541 235.635 27.9886 234.468 28.2335 233.346C28.4783 232.224 29.024 231.19 29.8122 230.354C31.1612 228.942 34.5191 226.84 41.3913 228.809C48.2635 230.777 53.5494 225.578 53.6536 225.48C53.762 225.372 53.9088 225.311 54.0617 225.311C54.2147 225.311 54.3614 225.372 54.4699 225.48C54.5242 225.533 54.5672 225.597 54.5966 225.668C54.626 225.739 54.6412 225.814 54.6412 225.891C54.6412 225.967 54.626 226.043 54.5966 226.113C54.5672 226.184 54.5242 226.248 54.4699 226.302C54.2441 226.545 48.6803 232.091 41.096 229.92C34.8144 228.137 31.8733 229.92 30.6749 231.182C30.0171 231.858 29.5605 232.703 29.356 233.623C29.1515 234.543 29.2072 235.503 29.5169 236.393C29.7659 237.146 30.0959 237.979 30.5127 238.877C31.798 241.951 33.2338 245.407 31.8907 247.636C31.2538 248.725 30.0149 249.344 28.1622 249.541C26.3124 249.673 24.4564 249.692 22.6042 249.599C17.2663 249.419 12.2699 249.304 9.09722 254.422C9.01624 254.517 8.91163 254.59 8.79382 254.633C8.676 254.675 8.54906 254.686 8.42563 254.665Z" fill="#2C3B47" stroke="#2C3B47"/>
<path d="M208.356 231.182C204.35 230.341 200.843 227.943 198.603 224.518C196.364 221.092 195.576 216.917 196.412 212.911C197.08 209.703 198.765 206.798 201.217 204.626C203.176 202.858 205.556 201.623 208.129 201.037C210.702 200.452 213.383 200.536 215.914 201.282C218.445 202.028 220.743 203.411 222.587 205.298C224.431 207.185 225.761 209.514 226.448 212.061C227.136 214.609 227.159 217.291 226.514 219.849C225.87 222.408 224.58 224.759 222.768 226.677C220.956 228.596 218.682 230.017 216.164 230.806C213.646 231.594 210.967 231.724 208.385 231.182H208.356ZM214.435 202.148C211.673 201.581 208.805 201.846 206.194 202.909C203.583 203.972 201.345 205.785 199.764 208.119C198.183 210.453 197.329 213.203 197.31 216.022C197.291 218.841 198.109 221.603 199.659 223.957C201.209 226.312 203.423 228.155 206.019 229.252C208.616 230.349 211.48 230.652 214.249 230.122C217.018 229.592 219.568 228.254 221.576 226.275C223.585 224.297 224.962 221.768 225.533 219.007C225.916 217.171 225.932 215.277 225.58 213.435C225.229 211.593 224.517 209.838 223.486 208.272C222.455 206.705 221.124 205.358 219.571 204.307C218.018 203.256 216.272 202.522 214.435 202.148Z" fill="#2C3B47" stroke="#2C3B47"/>
<path d="M206.289 209.553C202.989 208.858 200.632 206.148 200.499 205.998C200.41 205.88 200.367 205.733 200.376 205.586C200.386 205.438 200.448 205.299 200.551 205.193C200.67 205.104 200.818 205.06 200.966 205.07C201.115 205.079 201.255 205.141 201.362 205.245C201.402 205.315 204.986 209.391 209.108 208.389C210.955 207.955 211.922 206.409 212.877 204.915C214 203.178 215.297 201.158 218.088 202.09C218.215 202.15 218.316 202.253 218.373 202.382C218.429 202.511 218.437 202.655 218.394 202.789C218.351 202.923 218.262 203.037 218.141 203.11C218.021 203.182 217.879 203.209 217.74 203.184C215.882 202.565 215.158 203.52 213.919 205.541C212.883 207.133 211.748 208.939 209.467 209.512C208.426 209.777 207.336 209.791 206.289 209.553Z" fill="#2C3B47" stroke="#2C3B47"/>
<path d="M213.445 227.222C211.934 226.91 210.799 225.914 209.653 224.97C208.506 224.026 207.429 223.048 205.889 222.608C205.175 222.405 204.42 222.397 203.702 222.585C202.984 222.774 202.33 223.151 201.808 223.679C201.699 223.788 201.552 223.85 201.399 223.85C201.245 223.851 201.098 223.79 200.988 223.682C200.879 223.574 200.818 223.427 200.817 223.273C200.817 223.119 200.877 222.972 200.986 222.863C201.661 222.202 202.496 221.728 203.41 221.489C204.323 221.249 205.284 221.252 206.196 221.496C207.796 222.008 209.25 222.893 210.44 224.079C211.633 225.092 212.669 226.006 214.099 226.134C215.761 226.302 216.617 225.555 217.532 224.808C218.122 224.162 218.91 223.73 219.773 223.581C220.467 223.495 221.171 223.57 221.832 223.8C222.492 224.03 223.091 224.409 223.582 224.906C223.678 225.017 223.729 225.159 223.724 225.304C223.719 225.45 223.66 225.589 223.558 225.693C223.455 225.797 223.317 225.858 223.172 225.865C223.026 225.871 222.883 225.823 222.772 225.729C222.401 225.366 221.956 225.088 221.467 224.915C220.978 224.742 220.457 224.678 219.941 224.727C219.31 224.913 218.736 225.256 218.273 225.723C217.347 226.522 216.137 227.552 213.966 227.332L213.445 227.222Z" fill="#2C3B47" stroke="#2C3B47"/>
<path d="M224.625 222.093C223.508 221.855 222.738 221.346 222.419 220.64C222.156 220.041 222.111 219.369 222.292 218.741C220.85 218.908 219.038 218.642 218.239 216.9C216.994 214.184 218.859 212.847 221.012 211.174L221.348 210.954C223.71 209.17 221.609 206.102 221.522 205.969C221.459 205.909 221.411 205.835 221.38 205.753C221.35 205.672 221.338 205.585 221.346 205.498C221.354 205.411 221.382 205.328 221.427 205.253C221.471 205.179 221.532 205.115 221.605 205.067C221.678 205.02 221.76 204.989 221.847 204.977C221.933 204.966 222.021 204.974 222.103 205.001C222.186 205.028 222.261 205.074 222.324 205.134C222.387 205.194 222.435 205.268 222.465 205.349C223.45 206.779 224.602 209.94 222.025 211.915L221.69 212.135C219.409 213.819 218.471 214.671 219.258 216.471C220.138 218.411 223.015 217.49 223.015 217.49C223.123 217.45 223.241 217.446 223.351 217.479C223.461 217.513 223.557 217.582 223.623 217.675C223.687 217.771 223.723 217.883 223.729 217.998C223.735 218.113 223.711 218.227 223.658 218.33C223.479 218.642 223.079 219.545 223.386 220.2C223.629 220.713 224.266 221.02 225.297 221.12C225.448 221.138 225.587 221.214 225.682 221.334C225.778 221.453 225.822 221.605 225.806 221.757C225.769 221.899 225.687 222.025 225.572 222.117C225.457 222.209 225.316 222.261 225.169 222.266C224.999 222.179 224.815 222.12 224.625 222.093Z" fill="#2C3B47" stroke="#2C3B47"/>
<path d="M237.922 167.466C238.531 164.562 236.669 161.715 233.765 161.106C230.861 160.498 228.013 162.359 227.405 165.263C226.797 168.168 228.658 171.015 231.562 171.623C234.467 172.232 237.314 170.371 237.922 167.466Z" fill="#F190B7"/>
<path d="M31.6365 150.922C31.5626 150.908 31.4924 150.878 31.4306 150.835C31.3688 150.793 31.3166 150.737 31.2775 150.673L28.5275 146.244L23.3169 146.03C23.2085 146.026 23.1033 145.992 23.0132 145.932C22.9231 145.872 22.8518 145.787 22.8074 145.688C22.7749 145.584 22.7643 145.474 22.7762 145.365C22.7882 145.257 22.8225 145.152 22.8769 145.057L26.2232 141.085L24.8222 136.066C24.8013 135.962 24.8073 135.854 24.8397 135.752C24.8721 135.651 24.9299 135.56 25.0074 135.487C25.0824 135.414 25.1773 135.364 25.2803 135.345C25.3833 135.325 25.4898 135.336 25.5864 135.377L30.438 137.328L34.7802 134.433C34.8614 134.365 34.9639 134.328 35.0697 134.328C35.1755 134.328 35.2779 134.365 35.3591 134.433C35.4541 134.485 35.5326 134.562 35.5858 134.657C35.639 134.751 35.6648 134.858 35.6602 134.966L35.2723 140.142L39.325 143.384C39.4087 143.453 39.4738 143.543 39.5142 143.644C39.5546 143.745 39.5692 143.855 39.5566 143.963C39.5317 144.069 39.4772 144.167 39.3994 144.244C39.3215 144.32 39.2234 144.374 39.1166 144.397L34.0565 145.671L32.2212 150.54C32.1828 150.641 32.1169 150.729 32.031 150.794C31.945 150.86 31.8424 150.9 31.7349 150.91C31.7465 150.945 31.6944 150.933 31.6365 150.922ZM28.9849 145.173C29.0594 145.185 29.1303 145.214 29.1924 145.257C29.2544 145.3 29.3062 145.356 29.3438 145.422L31.6596 149.121L33.2054 145.069C33.237 144.98 33.2938 144.903 33.369 144.846C33.4441 144.789 33.5342 144.756 33.6281 144.75L37.8718 143.708L34.4791 141.004C34.3977 140.952 34.3356 140.874 34.3022 140.784C34.2688 140.693 34.2659 140.593 34.2939 140.501L34.6239 136.13L30.9707 138.521C30.8038 138.603 30.6137 138.626 30.4322 138.584L26.3796 136.975L27.5375 141.19C27.5601 141.276 27.5624 141.366 27.5444 141.454C27.5263 141.541 27.4883 141.623 27.4333 141.693L24.6369 145.022L28.9733 145.225C28.8749 145.15 28.9327 145.161 28.9849 145.173Z" fill="#2C3B47" stroke="#2C3B47"/>
<path d="M69.9275 84.3247L70.8365 91.7006L77.396 95.2322L70.6222 98.3123L69.308 105.682L64.2711 100.194L56.8721 101.213L60.5658 94.7459L57.2368 88.03L64.578 89.5121L69.9275 84.3247Z" fill="#5AB467"/>
<path d="M241.373 61.5313L241.205 61.4966C241.108 61.4486 241.028 61.3729 240.974 61.279C240.921 61.1852 240.896 61.0775 240.904 60.9697L240.95 53.7965L235.034 49.6975C234.935 49.6418 234.858 49.554 234.816 49.4488C234.774 49.3435 234.769 49.227 234.802 49.1185C234.821 49.0163 234.866 48.9209 234.935 48.8424C235.003 48.764 235.091 48.7054 235.19 48.6727L242.01 46.4785L244.094 39.6179C244.117 39.5181 244.17 39.4279 244.247 39.3604C244.324 39.2928 244.421 39.2512 244.523 39.2416C244.76 39.2416 244.98 39.2763 245.055 39.4674L249.264 45.3148L256.414 45.1759C256.521 45.1624 256.629 45.1825 256.723 45.2334C256.818 45.2842 256.894 45.3633 256.941 45.4595C256.989 45.5516 257.008 45.6557 256.997 45.7586C256.985 45.8616 256.944 45.959 256.877 46.0385L252.634 51.828L255.019 58.5323C255.054 58.6368 255.06 58.7485 255.038 58.8563C255.015 58.9641 254.965 59.064 254.892 59.146C254.808 59.2195 254.709 59.2725 254.601 59.3007C254.494 59.3288 254.381 59.3314 254.272 59.3081L247.441 57.0618L241.744 61.4271C241.744 61.5487 241.541 61.5719 241.373 61.5313ZM236.66 49.4543L241.871 53.0554C241.945 53.1069 242.007 53.1751 242.05 53.2546C242.093 53.334 242.117 53.4224 242.12 53.5128L242.085 59.8118L247.087 56.0139C247.164 55.9571 247.254 55.9214 247.348 55.9102C247.443 55.8991 247.538 55.9128 247.626 55.9502L253.641 57.9129L251.586 51.9323C251.554 51.8482 251.542 51.7579 251.551 51.6685C251.56 51.579 251.59 51.4929 251.638 51.417L255.395 46.3048L249.062 46.438C248.97 46.4421 248.878 46.4243 248.795 46.386C248.711 46.3478 248.638 46.2902 248.581 46.218L244.858 41.1174L243.069 47.1675C243.043 47.2579 242.995 47.3404 242.929 47.408C242.864 47.4756 242.783 47.5262 242.693 47.5554L236.66 49.4543Z" fill="#2C3B47" stroke="#2C3B47"/>
<path d="M121.594 49.2227C121.52 49.2086 121.45 49.1791 121.388 49.1362C121.326 49.0934 121.274 49.038 121.235 48.9737L109.395 28.5656C109.316 28.4379 109.285 28.2857 109.308 28.1371C109.322 28.0638 109.351 27.9942 109.394 27.9332C109.437 27.8722 109.493 27.8213 109.557 27.784L122.914 20.0665C123.046 19.9969 123.2 19.9809 123.343 20.0219C123.487 20.0629 123.609 20.1577 123.684 20.2865L135.524 40.6947C135.607 40.8206 135.639 40.9744 135.61 41.1231C135.596 41.197 135.567 41.2671 135.524 41.329C135.481 41.3908 135.426 41.4429 135.361 41.482L122.011 49.1937C121.948 49.2288 121.878 49.2496 121.806 49.2546C121.734 49.2596 121.661 49.2487 121.594 49.2227ZM110.64 28.4787L121.93 47.8911L134.29 40.7294L123.001 21.3113L110.64 28.4787Z" fill="#2C3B47"/>
<path d="M126.654 53.4955C126.556 53.4842 126.463 53.4439 126.388 53.3797L121.322 49.1649C121.246 49.1072 121.188 49.0294 121.154 48.9404C121.12 48.8513 121.112 48.7546 121.131 48.6612C121.176 48.4811 121.272 48.318 121.409 48.1922L134.759 40.4748C134.841 40.4331 134.931 40.4114 135.023 40.4114C135.114 40.4114 135.205 40.4331 135.286 40.4748C135.368 40.5157 135.439 40.5744 135.495 40.6465C135.551 40.7187 135.591 40.8024 135.61 40.8916L136.768 47.3817C136.805 47.4977 136.794 47.6233 136.739 47.7317C136.684 47.84 136.588 47.9222 136.473 47.9607L127.042 53.4028C126.995 53.4562 126.932 53.4938 126.862 53.5104C126.793 53.5269 126.72 53.5217 126.654 53.4955ZM122.682 48.7538L126.81 52.187L135.495 47.1212L134.568 41.789L122.682 48.7538Z" fill="#2C3B47"/>
<path d="M83.1226 69.2545L113.495 47.4685L106.837 36.0283L72.8809 51.5154L83.1226 69.2545Z" fill="#E5E5E5"/>
<path d="M77.8999 60.9234C77.826 60.9092 77.7558 60.8798 77.694 60.8369C77.6322 60.794 77.58 60.7387 77.5409 60.6744C77.4695 60.5419 77.4526 60.3867 77.4936 60.2419C77.5347 60.0971 77.6306 59.9739 77.7609 59.8986L117.639 36.7809C117.704 36.7297 117.78 36.693 117.86 36.6733C117.94 36.6537 118.024 36.6514 118.105 36.6668C118.187 36.6822 118.264 36.7149 118.331 36.7626C118.399 36.8103 118.456 36.872 118.497 36.9434C118.539 37.0149 118.565 37.0945 118.574 37.1768C118.582 37.2591 118.573 37.3423 118.546 37.4207C118.52 37.4992 118.477 37.571 118.42 37.6314C118.364 37.6918 118.295 37.7394 118.218 37.771L78.3399 60.8944C78.2028 60.9617 78.0446 60.9721 77.8999 60.9234Z" fill="#2C3B47" stroke="#2C3B47"/>
<path d="M93.3694 61.9999C93.2973 61.9872 93.2288 61.9595 93.1685 61.9188C93.1083 61.8782 93.0577 61.8254 93.0202 61.764L84.1208 46.888C84.071 46.8264 84.0353 46.7551 84.0162 46.679C83.997 46.6028 83.9949 46.5235 84.0098 46.4465C84.0248 46.3694 84.0566 46.2964 84.103 46.2323C84.1494 46.1682 84.2094 46.1146 84.2789 46.075C84.3484 46.0354 84.4258 46.0108 84.5059 46.0028C84.586 45.9949 84.667 46.0037 84.7433 46.0288C84.8196 46.0538 84.8895 46.0945 84.9482 46.1481C85.007 46.2017 85.0533 46.267 85.084 46.3395L93.9326 61.199C94.0021 61.3246 94.0186 61.4716 93.9786 61.6088C93.9387 61.746 93.8454 61.8627 93.7186 61.934C93.6082 61.9796 93.4893 62.002 93.3694 61.9999Z" fill="#2C3B47" stroke="#2C3B47"/>
<path d="M102.997 55.487C102.922 55.4747 102.852 55.446 102.789 55.4029C102.727 55.3599 102.676 55.3036 102.638 55.238L94.7932 41.6847C94.7419 41.6197 94.7052 41.5445 94.6856 41.4641C94.6659 41.3837 94.6637 41.3 94.6791 41.2187C94.6945 41.1374 94.7271 41.0603 94.7748 40.9927C94.8225 40.925 94.8842 40.8684 94.9557 40.8266C95.0271 40.7848 95.1067 40.7589 95.189 40.7504C95.2713 40.742 95.3545 40.7514 95.433 40.7778C95.5114 40.8043 95.5832 40.8472 95.6436 40.9038C95.7041 40.9604 95.7516 41.0292 95.7832 41.1058L103.628 54.6649C103.698 54.7968 103.714 54.9506 103.673 55.0941C103.632 55.2375 103.537 55.3596 103.408 55.4349C103.276 55.4807 103.136 55.4985 102.997 55.487Z" fill="#2C3B47" stroke="#2C3B47"/>
<path d="M161.745 0L131.425 21.7919L138.025 33.2204L172.05 17.6929L161.745 0Z" fill="#E5E5E5"/>
<path d="M126.903 32.5256C126.829 32.5122 126.759 32.4831 126.697 32.4401C126.635 32.3972 126.583 32.3414 126.544 32.2767C126.475 32.1447 126.459 31.991 126.5 31.8475C126.541 31.7041 126.636 31.582 126.764 31.5067L166.643 8.38324C166.708 8.33201 166.783 8.29533 166.863 8.27564C166.944 8.25596 167.028 8.25374 167.109 8.26914C167.19 8.28454 167.267 8.3172 167.335 8.36491C167.403 8.41262 167.459 8.47428 167.501 8.54572C167.543 8.61717 167.569 8.69675 167.577 8.77908C167.586 8.86142 167.576 8.94461 167.55 9.02303C167.523 9.10146 167.48 9.1733 167.424 9.23371C167.367 9.29413 167.298 9.34171 167.222 9.37325L127.314 32.4793C127.189 32.5483 127.041 32.5649 126.903 32.5256Z" fill="#2C3B47"/>
<path d="M160.894 23.2972C160.82 23.2831 160.749 23.253 160.687 23.2091C160.625 23.1651 160.573 23.1083 160.535 23.0424L151.428 7.35855C151.375 7.22936 151.37 7.08527 151.415 6.95287C151.46 6.82047 151.551 6.70868 151.671 6.63814C151.792 6.56761 151.934 6.54307 152.071 6.56907C152.209 6.59507 152.332 6.66984 152.418 6.7796L161.514 22.4635C161.583 22.5954 161.599 22.7492 161.558 22.8927C161.517 23.0361 161.423 23.1582 161.294 23.2335C161.166 23.2805 161.03 23.3021 160.894 23.2972Z" fill="#2C3B47"/>
<path d="M149.534 28.4266C149.461 28.4132 149.391 28.384 149.331 28.341C149.27 28.298 149.219 28.2423 149.181 28.1777L141.331 14.6417C141.272 14.5111 141.263 14.3633 141.307 14.2268C141.351 14.0903 141.443 13.9748 141.567 13.9028C141.691 13.8307 141.837 13.8072 141.978 13.8368C142.118 13.8663 142.242 13.9469 142.326 14.0628L150.171 27.6161C150.243 27.7486 150.26 27.9038 150.219 28.0486C150.178 28.1934 150.082 28.3166 149.951 28.3919C149.817 28.4368 149.674 28.4487 149.534 28.4266Z" fill="#2C3B47"/>
<path d="M102.841 236.202L89.4443 245.245" stroke="#2C3B47" stroke-width="2" stroke-linecap="round" stroke-linejoin="round"/>
</g>
<defs>
<clipPath id="clip0_1365_15679">
<rect width="272" height="255" fill="white"/>
</clipPath>
</defs>
</svg>
