<svg width="640" height="560" viewBox="0 0 640 560" fill="none" xmlns="http://www.w3.org/2000/svg">
<path d="M506.105 280.497L508.673 278.25H216C212.272 278.25 209.25 281.272 209.25 285V337C209.25 340.728 212.272 343.75 216 343.75H488C491.728 343.75 494.75 340.728 494.75 337V305.521C494.75 295.933 498.889 286.811 506.105 280.497Z" fill="#FFDFD9" stroke="#2C3B47" stroke-width="2.5"/>
<rect x="222" y="293" width="174" height="4" rx="2" fill="#2C3B47"/>
<rect x="222" y="313" width="233" height="4" rx="2" fill="#2C3B47"/>
<rect x="222" y="323" width="249" height="4" rx="2" fill="#2C3B47"/>
<path d="M494.75 369C494.75 365.272 491.728 362.25 488 362.25H152C148.272 362.25 145.25 365.272 145.25 369V418C145.25 421.728 148.272 424.75 152 424.75H488C491.728 424.75 494.75 421.728 494.75 418V369Z" fill="white" stroke="#2C3B47" stroke-width="2.5"/>
<rect x="208" y="376" width="174" height="4" rx="2" fill="#2C3B47"/>
<rect x="208" y="397" width="233" height="4" rx="2" fill="#2C3B47"/>
<rect x="208" y="407" width="249" height="4" rx="2" fill="#2C3B47"/>
<g clip-path="url(#clip0_1413_12136)">
<rect x="505" y="277" width="53" height="54" rx="26.5" fill="white"/>
<path d="M523.423 324.15C519.997 326.107 519.548 330.675 519.752 332.714C523.83 334.549 533.943 337.975 541.773 336.996C551.561 335.773 562.572 324.762 561.348 322.926C560.37 321.458 557.27 319.052 555.843 318.033L544.22 320.48C540.958 321.295 533.943 322.804 531.986 322.315C529.539 321.703 527.705 321.703 523.423 324.15Z" fill="#5C9CD0"/>
<path d="M538.544 300.219L517.682 297.141C517.682 297.141 513.977 296.628 513.407 298.395C512.836 300.162 513.806 301.188 516.941 303.183C517.967 303.924 518.993 304.38 519.05 306.603C519.107 308.826 518.423 310.993 518.993 313.216C519.563 315.439 520.874 317.89 523.952 318.688C525.377 319.144 529.196 318.688 530.45 318.46C530.507 319.372 530.621 322.222 530.621 322.222C530.621 322.222 534.725 323.077 538.43 321.709C538.772 317.719 538.772 302.727 538.544 300.219Z" fill="#F8E1B8"/>
<path d="M524.349 303.126C524.821 303.126 525.204 302.744 525.204 302.271C525.204 301.799 524.821 301.416 524.349 301.416C523.877 301.416 523.494 301.799 523.494 302.271C523.494 302.744 523.877 303.126 524.349 303.126Z" fill="#2C3B47"/>
<path d="M528.054 303.981C528.526 303.981 528.909 303.598 528.909 303.126C528.909 302.654 528.526 302.271 528.054 302.271C527.582 302.271 527.199 302.654 527.199 303.126C527.199 303.598 527.582 303.981 528.054 303.981Z" fill="#2C3B47"/>
<path d="M538.543 300.219C538.543 300.219 538.828 317.89 537.916 324.103C544.984 323.305 558.551 319.999 558.551 319.999C558.551 319.999 553.991 292.524 546.409 289.446C542.875 288.306 540.196 290.871 540.196 290.871C540.196 290.871 536.377 282.72 526.744 285.627C517.11 288.534 517.68 297.141 517.68 297.141L538.543 300.219Z" fill="#E9D519"/>
<path d="M533.471 322.906C532.459 322.939 531.446 322.862 530.45 322.678C530.319 322.652 530.202 322.58 530.119 322.476C530.035 322.372 529.991 322.242 529.994 322.108L529.937 318.232C529.932 318.156 529.943 318.08 529.97 318.008C529.997 317.937 530.039 317.872 530.092 317.818C530.146 317.764 530.211 317.722 530.283 317.695C530.354 317.668 530.431 317.657 530.507 317.662C530.658 317.662 530.803 317.722 530.91 317.829C531.017 317.936 531.077 318.081 531.077 318.232L531.134 321.595C533.363 321.857 535.621 321.722 537.803 321.196C537.947 321.161 538.098 321.183 538.226 321.258C538.353 321.332 538.447 321.453 538.487 321.595C538.514 321.666 538.525 321.742 538.519 321.818C538.513 321.894 538.49 321.967 538.452 322.033C538.413 322.099 538.361 322.155 538.298 322.198C538.235 322.24 538.163 322.268 538.088 322.279C536.59 322.724 535.033 322.936 533.471 322.906Z" fill="#2C3B47"/>
<path d="M526.176 319.429C524.277 319.521 522.411 318.913 520.932 317.719C517.455 314.755 518.31 309.054 518.367 308.826C518.538 307.743 518.652 304.779 517.398 303.924C517.012 303.657 516.612 303.409 516.201 303.183C514.206 301.986 512.324 300.789 512.894 298.395C512.956 298.121 513.074 297.863 513.241 297.637C513.408 297.412 513.62 297.223 513.864 297.084C515.745 295.944 519.621 296.856 520.077 296.913C520.16 296.919 520.242 296.943 520.315 296.984C520.388 297.025 520.452 297.081 520.501 297.149C520.549 297.217 520.583 297.296 520.598 297.378C520.613 297.461 520.61 297.545 520.589 297.627C520.567 297.708 520.528 297.783 520.474 297.847C520.421 297.912 520.353 297.963 520.277 297.999C520.201 298.034 520.118 298.052 520.034 298.052C519.95 298.051 519.867 298.032 519.792 297.996C518.709 297.768 515.688 297.255 514.491 297.996C514.277 298.127 514.116 298.329 514.035 298.566C513.692 300.105 514.719 300.846 516.828 302.157C517.227 302.385 517.626 302.67 518.082 302.955C520.191 304.38 519.621 308.541 519.564 308.997C519.564 309.054 518.766 314.299 521.73 316.864C523.782 318.631 527.145 318.745 531.762 317.263C531.833 317.236 531.909 317.225 531.985 317.228C532.06 317.231 532.135 317.248 532.204 317.28C532.272 317.312 532.334 317.357 532.386 317.413C532.437 317.468 532.477 317.534 532.503 317.605C532.529 317.676 532.541 317.751 532.538 317.827C532.535 317.903 532.517 317.977 532.486 318.046C532.454 318.115 532.409 318.177 532.353 318.228C532.298 318.28 532.232 318.319 532.161 318.346C530.233 319.011 528.215 319.376 526.176 319.429Z" fill="#2C3B47"/>
<path d="M540.197 291.384H540.083C539.941 291.344 539.82 291.25 539.746 291.123C539.671 290.995 539.649 290.843 539.684 290.7C539.741 290.529 540.653 287.052 542.933 286.881C543.085 286.866 543.236 286.911 543.353 287.007C543.471 287.104 543.545 287.243 543.56 287.394C543.576 287.545 543.53 287.696 543.434 287.814C543.338 287.931 543.199 288.006 543.047 288.021C541.85 288.135 541.052 290.187 540.824 290.985C540.756 291.094 540.665 291.187 540.556 291.256C540.448 291.325 540.325 291.369 540.197 291.384Z" fill="#2C3B47"/>
<path d="M562.598 364.689C562.255 364.698 561.911 364.679 561.572 364.632C546.238 363.264 524.634 359.558 524.406 359.558C524.334 359.549 524.265 359.525 524.203 359.488C524.141 359.45 524.087 359.401 524.044 359.342C524.001 359.284 523.971 359.217 523.955 359.147C523.939 359.076 523.937 359.003 523.95 358.931L525.489 339.266C525.491 339.185 525.512 339.107 525.552 339.037C525.592 338.967 525.649 338.909 525.717 338.867C525.781 338.816 525.857 338.785 525.937 338.775C526.018 338.765 526.099 338.777 526.173 338.81L556.555 346.961C556.639 346.967 556.72 346.991 556.794 347.032C556.867 347.073 556.93 347.129 556.979 347.197C557.028 347.266 557.061 347.344 557.076 347.426C557.092 347.509 557.089 347.594 557.067 347.675C557.046 347.756 557.007 347.831 556.953 347.896C556.899 347.96 556.832 348.011 556.756 348.047C556.68 348.082 556.597 348.1 556.513 348.1C556.429 348.099 556.346 348.08 556.27 348.044L526.515 340.064L525.09 358.532C528.453 359.102 547.72 362.238 561.686 363.492C563.174 363.625 564.674 363.416 566.07 362.881C567.465 362.346 568.72 361.499 569.738 360.404C570.755 359.309 571.509 357.996 571.941 356.565C572.374 355.134 572.473 353.623 572.231 352.148C568.868 332.653 558.208 320.455 558.151 320.341C558.074 320.225 558.041 320.086 558.06 319.948C558.078 319.81 558.146 319.683 558.251 319.592C558.356 319.501 558.491 319.452 558.63 319.453C558.769 319.455 558.903 319.507 559.006 319.6C559.12 319.714 570.008 332.197 573.371 351.977C573.663 353.614 573.567 355.297 573.092 356.891C572.617 358.484 571.775 359.944 570.635 361.154C569.612 362.267 568.37 363.156 566.987 363.764C565.603 364.373 564.109 364.687 562.598 364.689Z" fill="#2C3B47"/>
<path d="M516.768 345.821L491.516 343.313C491.441 343.306 491.368 343.284 491.302 343.248C491.235 343.213 491.177 343.165 491.129 343.106C491.081 343.048 491.045 342.981 491.024 342.909C491.002 342.837 490.995 342.761 491.003 342.686C491.029 342.539 491.106 342.407 491.222 342.313C491.337 342.219 491.482 342.169 491.63 342.173L516.312 344.624L519.903 329.176C520.466 326.846 521.844 324.794 523.789 323.393C525.734 321.992 528.117 321.334 530.506 321.538C530.657 321.553 530.796 321.628 530.892 321.745C530.988 321.863 531.034 322.014 531.019 322.165C531.004 322.316 530.929 322.455 530.811 322.551C530.694 322.648 530.543 322.693 530.392 322.678C528.277 322.478 526.161 323.049 524.433 324.284C522.705 325.52 521.481 327.338 520.986 329.404L517.281 345.308C517.281 345.444 517.227 345.574 517.131 345.671C517.035 345.767 516.904 345.821 516.768 345.821Z" fill="#2C3B47"/>
</g>
<rect x="506.25" y="278.25" width="50.5" height="51.5" rx="25.25" stroke="#2C3B47" stroke-width="2.5"/>
<g clip-path="url(#clip1_1413_12136)">
<rect x="152" y="369" width="40" height="40" rx="20" fill="white"/>
<path d="M186.741 410.633C186.741 410.633 185.346 404.287 178.955 404.917C170.405 405.768 164.779 400.057 157.399 402.442C152.764 407.073 148.534 417.468 148.534 417.468C148.534 417.468 145.023 426.784 145.473 431.149C145.923 435.514 150.694 437.449 150.694 437.449L149.299 446L200.826 438.53L207.487 421.294L189.666 422.963L186.741 410.633Z" fill="#DA7AB1"/>
<path d="M147.183 435.609C146.283 434.654 145.618 433.501 145.243 432.243C144.868 430.984 144.793 429.656 145.023 428.364C147.678 412.748 156.274 402.892 156.364 402.802C156.399 402.749 156.446 402.704 156.5 402.671C156.554 402.637 156.615 402.615 156.678 402.607C156.741 402.599 156.805 402.604 156.866 402.622C156.927 402.64 156.984 402.671 157.032 402.713C157.08 402.755 157.119 402.806 157.146 402.864C157.173 402.922 157.187 402.985 157.187 403.049C157.188 403.112 157.175 403.175 157.149 403.234C157.124 403.292 157.086 403.345 157.039 403.387C156.994 403.473 148.578 413.103 145.923 428.494C145.732 429.659 145.811 430.851 146.152 431.981C146.493 433.111 147.088 434.147 147.892 435.012C148.695 435.876 149.686 436.545 150.787 436.968C151.889 437.39 153.073 437.555 154.249 437.45C165.274 436.459 180.485 433.984 183.14 433.534L182.015 418.954L158.524 425.254C158.464 425.282 158.399 425.297 158.332 425.298C158.266 425.298 158.201 425.284 158.141 425.256C158.081 425.228 158.027 425.187 157.985 425.137C157.942 425.086 157.912 425.026 157.895 424.962C157.878 424.898 157.875 424.831 157.887 424.766C157.899 424.701 157.926 424.639 157.964 424.586C158.003 424.532 158.053 424.487 158.111 424.455C158.168 424.423 158.233 424.403 158.299 424.399L182.285 417.963C182.343 417.937 182.408 417.928 182.471 417.936C182.535 417.944 182.595 417.969 182.645 418.008C182.699 418.042 182.743 418.089 182.774 418.144C182.806 418.199 182.823 418.26 182.825 418.324L184.04 433.849C184.05 433.906 184.049 433.963 184.036 434.019C184.024 434.075 184 434.128 183.966 434.174C183.932 434.22 183.89 434.259 183.841 434.288C183.791 434.318 183.737 434.337 183.68 434.344C183.5 434.344 166.444 437.269 154.339 438.35C154.07 438.387 153.799 438.402 153.529 438.395C152.336 438.393 151.156 438.145 150.064 437.666C148.972 437.186 147.991 436.486 147.183 435.609Z" fill="#2C3B47"/>
<path d="M189.305 423.094L186.38 410.538C185.989 408.907 185.023 407.472 183.659 406.496C182.295 405.52 180.624 405.07 178.954 405.228C178.835 405.24 178.716 405.204 178.623 405.128C178.53 405.052 178.471 404.942 178.459 404.823C178.447 404.703 178.483 404.584 178.559 404.491C178.635 404.399 178.745 404.34 178.864 404.328C180.75 404.166 182.631 404.686 184.167 405.792C185.702 406.898 186.791 408.518 187.235 410.358L190.07 422.554L209.556 420.619C209.673 420.616 209.788 420.655 209.879 420.729C209.969 420.804 210.031 420.908 210.051 421.024C210.057 421.083 210.052 421.143 210.035 421.2C210.018 421.256 209.989 421.31 209.952 421.356C209.914 421.402 209.868 421.44 209.815 421.468C209.763 421.496 209.705 421.513 209.646 421.519L189.71 423.499C189.657 423.499 189.604 423.488 189.555 423.468C189.506 423.448 189.461 423.418 189.423 423.38C189.386 423.342 189.356 423.298 189.336 423.249C189.315 423.2 189.305 423.147 189.305 423.094Z" fill="#2C3B47"/>
<path d="M182.865 382.56C182.865 382.56 185.745 371.58 173.64 373.155C167.474 374.055 160.139 378.465 161.669 382.92C159.734 384.09 156.269 389.49 157.574 394.801C158.834 400.021 162.344 401.686 166.799 401.146C166.709 399.346 165.179 384.675 165.179 384.675L182.865 382.56Z" fill="#2C3B47"/>
<path d="M174.134 401.416V403.981C174.134 403.981 171.614 405.691 167.024 404.026C166.889 402.541 166.709 397.951 166.709 397.951C166.483 398.388 166.114 398.735 165.663 398.931C165.212 399.128 164.707 399.163 164.233 399.031C162.388 398.671 161.938 397.096 161.803 395.746C161.668 394.396 162.613 391.921 165.989 394.126L165.224 384.675L181.919 382.65C181.919 382.65 186.06 382.02 186.15 384.09C186.24 386.16 184.935 386.835 182.189 387.466C182.144 388.726 183.269 402.136 175.709 401.596L174.134 401.416Z" fill="#915A12"/>
<path d="M173.909 388.591C174.282 388.591 174.584 388.288 174.584 387.916C174.584 387.543 174.282 387.24 173.909 387.24C173.537 387.24 173.234 387.543 173.234 387.916C173.234 388.288 173.537 388.591 173.909 388.591Z" fill="#2C3B47"/>
<path d="M176.878 388.41C177.251 388.41 177.553 388.108 177.553 387.735C177.553 387.363 177.251 387.06 176.878 387.06C176.505 387.06 176.203 387.363 176.203 387.735C176.203 388.108 176.505 388.41 176.878 388.41Z" fill="#2C3B47"/>
<path d="M170.808 405.241C169.452 405.231 168.11 404.972 166.848 404.476C166.763 404.443 166.69 404.389 166.634 404.317C166.579 404.246 166.544 404.161 166.533 404.071C166.443 403.036 166.308 400.516 166.263 399.076C165.951 399.291 165.598 399.438 165.226 399.508C164.853 399.578 164.471 399.569 164.102 399.481C162.437 399.166 161.492 397.906 161.312 395.791C161.253 395.278 161.33 394.758 161.536 394.284C161.741 393.81 162.068 393.398 162.482 393.091C163.427 392.551 164.642 392.731 166.173 393.721C166.274 393.786 166.345 393.889 166.371 394.008C166.396 394.126 166.373 394.249 166.308 394.351C166.242 394.452 166.139 394.523 166.02 394.549C165.902 394.574 165.779 394.551 165.678 394.486C164.462 393.721 163.517 393.496 162.932 393.856C162.347 394.216 162.167 395.161 162.212 395.701C162.347 397.456 163.022 398.356 164.237 398.581C165.723 398.851 166.218 397.771 166.218 397.771C166.257 397.676 166.327 397.598 166.418 397.549C166.508 397.5 166.612 397.483 166.713 397.501C166.808 397.52 166.895 397.57 166.96 397.643C167.025 397.716 167.065 397.808 167.073 397.906C167.073 397.951 167.253 402.001 167.388 403.666C170.853 404.836 172.968 403.981 173.643 403.666V401.416C173.643 401.297 173.69 401.182 173.775 401.098C173.859 401.013 173.974 400.966 174.093 400.966C174.212 400.966 174.327 401.013 174.411 401.098C174.496 401.182 174.543 401.297 174.543 401.416V403.981C174.53 404.119 174.466 404.248 174.363 404.341C174.273 404.431 173.058 405.241 170.808 405.241Z" fill="#2C3B47"/>
<path d="M176.07 402.046H175.575L172.514 401.731C172.402 401.705 172.301 401.642 172.228 401.552C172.155 401.463 172.113 401.352 172.109 401.236C172.13 401.121 172.191 401.016 172.282 400.942C172.373 400.867 172.487 400.828 172.604 400.831L175.665 401.146C176.268 401.213 176.879 401.148 177.455 400.953C178.03 400.759 178.556 400.441 178.995 400.021C181.875 397.276 181.695 390.436 181.65 388.185V387.465C181.658 387.368 181.697 387.276 181.762 387.203C181.827 387.13 181.914 387.08 182.01 387.06C184.845 386.43 185.655 385.755 185.61 384.135C185.618 384.023 185.597 383.91 185.55 383.808C185.503 383.706 185.431 383.617 185.34 383.55C184.575 382.92 182.64 383.055 181.92 383.145C181.857 383.174 181.788 383.189 181.718 383.187C181.648 383.185 181.58 383.167 181.519 383.134C181.457 383.101 181.404 383.055 181.364 382.998C181.324 382.941 181.297 382.876 181.286 382.807C181.275 382.738 181.281 382.668 181.301 382.602C181.322 382.535 181.358 382.474 181.407 382.424C181.455 382.374 181.514 382.336 181.58 382.313C181.646 382.289 181.716 382.282 181.785 382.29C182.1 382.245 184.71 381.885 185.88 382.875C186.068 383.029 186.222 383.22 186.33 383.438C186.439 383.655 186.5 383.893 186.51 384.135C186.6 386.655 184.8 387.375 182.55 387.915V388.23C182.595 390.571 182.775 397.771 179.625 400.741C178.643 401.603 177.376 402.069 176.07 402.046Z" fill="#2C3B47"/>
<path d="M161.67 383.37C161.589 383.371 161.509 383.35 161.438 383.311C161.367 383.271 161.308 383.214 161.265 383.145C161.22 383.01 159.735 380.4 157.125 381.345C157.069 381.366 157.009 381.375 156.949 381.373C156.889 381.371 156.831 381.356 156.776 381.331C156.722 381.306 156.673 381.271 156.633 381.227C156.592 381.183 156.561 381.131 156.54 381.075C156.519 381.019 156.51 380.959 156.512 380.9C156.514 380.84 156.529 380.781 156.554 380.727C156.579 380.672 156.614 380.624 156.658 380.583C156.702 380.542 156.754 380.511 156.81 380.49C159.465 379.5 161.4 381.48 162.03 382.695C162.062 382.748 162.082 382.807 162.09 382.868C162.098 382.928 162.093 382.99 162.076 383.049C162.059 383.108 162.031 383.163 161.992 383.211C161.953 383.258 161.905 383.297 161.85 383.325C161.805 383.325 161.76 383.37 161.67 383.37Z" fill="#2C3B47"/>
</g>
<rect x="153.25" y="370.25" width="37.5" height="37.5" rx="18.75" stroke="#2C3B47" stroke-width="2.5"/>
<path d="M133.895 176.497L131.327 174.25H424C427.728 174.25 430.75 177.272 430.75 181V253C430.75 256.728 427.728 259.75 424 259.75H152C148.272 259.75 145.25 256.728 145.25 253V201.521C145.25 191.933 141.111 182.811 133.895 176.497Z" fill="#E0F5E3" stroke="#2C3B47" stroke-width="2.5"/>
<rect x="164" y="189" width="104" height="4" rx="2" fill="#2C3B47"/>
<rect x="164" y="209" width="235" height="4" rx="2" fill="#2C3B47"/>
<rect x="164" y="229" width="244" height="4" rx="2" fill="#2C3B47"/>
<rect x="164" y="239" width="226" height="4" rx="2" fill="#2C3B47"/>
<rect x="164" y="219" width="251" height="4" rx="2" fill="#2C3B47"/>
<g clip-path="url(#clip2_1413_12136)">
<rect x="83" y="173" width="53" height="54" rx="26.5" fill="white"/>
<path d="M96.043 215.142C89.4675 216.659 88.0344 224.415 87.1914 227.787C91.828 231.791 102.871 239.8 109.953 239.8C118.804 239.8 129.553 232.845 128.92 227.787C128.288 222.729 124.495 215.774 121.333 215.142C118.172 214.51 104.262 213.245 96.043 215.142Z" fill="#E3A8CC"/>
<path d="M110.051 215.642C112.528 216.473 116.545 215.867 116.545 215.867L116.8 212.469L117.038 212.516C117.987 212.727 118.97 212.734 119.922 212.535C120.874 212.337 121.773 211.939 122.56 211.367C123.346 210.795 124.002 210.063 124.484 209.218C124.966 208.374 125.263 207.436 125.355 206.468C125.355 204.508 125.629 202.232 126.936 200.985C127.619 200.295 131.522 199.755 131.178 197.568C130.833 195.382 126.615 195.346 126.615 195.346L125.694 193.487L103.765 193.873L107.33 215.113L110.051 215.642Z" fill="#CB8529"/>
<path d="M120.131 198.269C120.111 197.843 120.44 197.481 120.866 197.461C121.293 197.44 121.654 197.769 121.674 198.196C121.695 198.622 121.366 198.983 120.939 199.004C120.513 199.024 120.152 198.695 120.131 198.269Z" fill="#2C3B47"/>
<path d="M116.881 198.783C116.861 198.357 117.19 197.996 117.616 197.975C118.043 197.955 118.404 198.284 118.424 198.71C118.445 199.137 118.116 199.498 117.689 199.518C117.263 199.539 116.902 199.21 116.881 198.783Z" fill="#2C3B47"/>
<path d="M114.575 216.616C115.289 216.613 116.002 216.54 116.702 216.396C116.999 216.396 117.165 216.135 117.213 215.838L117.468 212.433C117.472 212.353 117.46 212.273 117.432 212.197C117.404 212.121 117.36 212.052 117.305 211.994C117.249 211.936 117.182 211.889 117.108 211.858C117.034 211.826 116.954 211.81 116.874 211.81C116.793 211.805 116.712 211.817 116.636 211.844C116.559 211.872 116.49 211.915 116.431 211.971C116.372 212.026 116.325 212.093 116.292 212.168C116.26 212.242 116.244 212.323 116.244 212.404L116.024 215.327C114.901 215.44 112.121 215.689 110.244 215.065C110.091 215.017 109.927 215.032 109.785 215.105C109.644 215.179 109.537 215.306 109.489 215.458C109.441 215.61 109.455 215.775 109.529 215.916C109.602 216.058 109.729 216.164 109.881 216.212C111.41 216.619 112.999 216.755 114.575 216.616Z" fill="#2C3B47"/>
<path d="M126.617 193.445L107.605 194.342C107.605 194.342 109.982 197.444 108.936 199.874C107.89 202.303 106.494 204.745 107.777 206.765C108.644 208.081 109.126 209.612 109.169 211.187C109.212 212.761 108.815 214.316 108.021 215.677C106.833 217.935 107.867 221.214 107.867 221.214L86.2941 215.273C86.2941 215.273 91.4808 209.255 91.0471 205.827C90.6134 202.399 87.7557 200.278 91.0471 196.968C94.3385 193.659 90.5064 191.877 92.4729 188.217C93.8454 185.71 96.9645 185.026 100.072 186.547C101.016 183.886 101.682 181.711 105.763 182.389C107.92 182.763 109.708 182.799 111.919 181.741C114.129 180.683 120.171 180.161 124.235 184.426C127.479 187.694 126.617 193.445 126.617 193.445Z" fill="#2C3B47"/>
<path d="M100.091 187.089H100.21C100.36 187.039 100.487 186.938 100.568 186.802C100.649 186.667 100.678 186.507 100.65 186.352C100.584 186.18 99.4616 182.128 95.3028 181.373C95.2238 181.358 95.1425 181.359 95.0638 181.376C94.9852 181.393 94.9108 181.426 94.8453 181.472C94.7797 181.519 94.7243 181.579 94.6825 181.647C94.6406 181.716 94.6131 181.793 94.6017 181.872C94.5882 181.951 94.5909 182.032 94.6095 182.11C94.6282 182.188 94.6624 182.261 94.7101 182.326C94.7579 182.39 94.8181 182.444 94.8873 182.485C94.9565 182.525 95.0331 182.551 95.1126 182.561C98.5288 183.156 99.5269 186.631 99.5329 186.72C99.5507 186.934 99.8537 187.1 100.091 187.089Z" fill="#2C3B47"/>
<path d="M118.962 213.194C120.259 213.147 121.518 212.735 122.592 212.006C123.523 211.383 124.303 210.56 124.876 209.597C125.449 208.633 125.799 207.554 125.901 206.439C125.942 204.829 126.067 202.506 127.267 201.377C127.591 201.171 127.943 201.015 128.313 200.913C129.774 200.319 131.996 199.487 131.664 197.479C131.183 194.889 127.012 194.788 126.537 194.812C126.385 194.83 126.245 194.899 126.137 195.007C126.03 195.114 125.961 195.255 125.942 195.406C125.952 195.56 126.018 195.706 126.127 195.815C126.237 195.924 126.382 195.99 126.537 196C127.487 196 130.238 196.362 130.481 197.717C130.648 198.662 129.424 199.256 127.85 199.868C127.334 200.041 126.845 200.283 126.394 200.587C124.855 202.03 124.677 204.537 124.653 206.528C124.564 207.45 124.27 208.341 123.793 209.135C123.316 209.929 122.668 210.608 121.896 211.12C120.049 212.338 117.553 212.398 114.826 211.275C114.752 211.231 114.669 211.203 114.583 211.195C114.497 211.186 114.41 211.196 114.329 211.225C114.247 211.253 114.173 211.299 114.111 211.359C114.049 211.419 114 211.491 113.969 211.572C113.938 211.653 113.925 211.739 113.931 211.825C113.936 211.911 113.961 211.995 114.002 212.071C114.044 212.147 114.101 212.213 114.171 212.264C114.24 212.315 114.32 212.351 114.405 212.368C115.854 212.941 117.403 213.221 118.962 213.194Z" fill="#2C3B47"/>
<path d="M114.068 259.999C114.187 259.999 114.246 259.999 114.3 259.933C114.369 259.893 114.43 259.839 114.478 259.775C114.526 259.71 114.56 259.637 114.579 259.559L118.643 243.607C118.661 243.526 118.663 243.442 118.649 243.361C118.635 243.279 118.604 243.201 118.559 243.132C118.452 242.994 118.301 242.898 118.132 242.858L97.1058 239.692C97.0272 239.678 96.9467 239.681 96.8691 239.699C96.7915 239.717 96.7184 239.751 96.6541 239.798C96.5898 239.845 96.5356 239.905 96.4948 239.973C96.454 240.042 96.4274 240.118 96.4166 240.197C96.4031 240.275 96.4056 240.356 96.4239 240.433C96.4421 240.511 96.4758 240.584 96.5229 240.648C96.5701 240.713 96.6296 240.767 96.6981 240.808C96.7666 240.848 96.8426 240.875 96.9216 240.886L117.288 243.91L113.527 258.656L90.2913 251.491C88.0078 250.775 86.0974 249.19 84.9724 247.078C83.8475 244.966 83.5984 242.497 84.2788 240.202C87.5702 229.277 89.6258 222.7 90.2794 221.191C91.5092 218.22 95.0739 216.919 95.1333 216.919C95.2208 216.91 95.305 216.881 95.38 216.835C95.455 216.789 95.5188 216.727 95.5669 216.653C95.615 216.58 95.6462 216.496 95.6582 216.409C95.6701 216.322 95.6627 216.233 95.6362 216.149C95.6097 216.066 95.565 215.989 95.5052 215.924C95.4454 215.86 95.372 215.809 95.2904 215.777C95.2087 215.744 95.1209 215.73 95.0331 215.735C94.9453 215.741 94.8598 215.765 94.7828 215.808C94.6105 215.873 90.6893 217.246 89.2456 220.709C88.4435 222.646 85.5086 232.182 83.1915 239.787C82.4209 242.383 82.7009 245.177 83.971 247.569C85.2412 249.96 87.4 251.757 89.9823 252.572L113.824 259.945C113.899 259.986 113.983 260.005 114.068 259.999Z" fill="#2C3B47"/>
<path d="M129.463 228.403C129.529 228.406 129.593 228.383 129.642 228.338C129.715 228.308 129.781 228.263 129.837 228.206C129.892 228.15 129.936 228.083 129.966 228.009C129.995 227.936 130.009 227.857 130.008 227.778C130.006 227.698 129.989 227.62 129.956 227.548L127.14 220.781C125.465 216.759 122.922 214.555 119.577 214.299L116.714 214.079C116.635 214.074 116.556 214.085 116.482 214.111C116.408 214.137 116.339 214.177 116.281 214.23C116.222 214.282 116.175 214.346 116.141 214.417C116.107 214.488 116.088 214.565 116.084 214.644C116.08 214.724 116.092 214.805 116.12 214.88C116.148 214.956 116.191 215.025 116.247 215.083C116.303 215.141 116.369 215.188 116.443 215.22C116.518 215.251 116.597 215.268 116.678 215.267L119.548 215.493C122.352 215.713 124.586 217.632 126.083 221.25L128.899 228.017C128.942 228.132 129.019 228.231 129.12 228.3C129.221 228.369 129.341 228.405 129.463 228.403Z" fill="#2C3B47"/>
</g>
<rect x="84.25" y="174.25" width="50.5" height="51.5" rx="25.25" stroke="#2C3B47" stroke-width="2.5"/>
<path d="M133.895 92.4974L131.327 90.25H424C427.728 90.25 430.75 93.2721 430.75 97V149C430.75 152.728 427.728 155.75 424 155.75H152C148.272 155.75 145.25 152.728 145.25 149V117.521C145.25 107.933 141.111 98.8112 133.895 92.4974Z" fill="#E0F5E3" stroke="#2C3B47" stroke-width="2.5"/>
<rect x="164" y="105" width="166" height="4" rx="2" fill="#2C3B47"/>
<rect x="164" y="125" width="238" height="4" rx="2" fill="#2C3B47"/>
<rect x="164" y="135" width="224" height="4" rx="2" fill="#2C3B47"/>
<g clip-path="url(#clip3_1413_12136)">
<rect x="83" y="89" width="53" height="54" rx="26.5" fill="white"/>
<path d="M79.6407 200.998C79.5393 201.007 79.4375 200.987 79.3474 200.941C79.2197 200.856 79.1183 200.739 79.0541 200.602L72.4492 176.763C71.8127 174.463 71.8533 172.038 72.5665 169.759L79.3708 148.123C80.2157 145.468 81.819 143.097 83.9973 141.279C86.1756 139.461 88.841 138.269 91.6891 137.841L101.778 136.372C101.905 136.387 102.023 136.441 102.115 136.527C102.207 136.612 102.267 136.724 102.287 136.845C102.307 136.966 102.285 137.091 102.225 137.199C102.165 137.308 102.07 137.394 101.954 137.446L91.865 138.915C89.2368 139.314 86.7775 140.415 84.7661 142.093C82.7547 143.77 81.2717 145.957 80.4854 148.405L73.681 170.041C73.0269 172.117 72.9863 174.327 73.5637 176.424L80.0161 199.699L97.1443 194.953L87.759 169.984C87.7302 169.932 87.7152 169.874 87.7152 169.815C87.7152 169.756 87.7302 169.698 87.759 169.646L89.4014 163.149C89.4602 163.03 89.5602 162.935 89.6841 162.88C89.8079 162.825 89.948 162.813 90.08 162.846C90.212 162.88 90.3278 162.956 90.4074 163.063C90.4869 163.17 90.5253 163.3 90.5159 163.432L88.9321 169.759L98.4347 195.123C98.4936 195.268 98.4936 195.429 98.4347 195.575C98.3988 195.642 98.3491 195.702 98.2886 195.75C98.2281 195.799 98.1581 195.835 98.0828 195.857L79.7815 200.941C79.758 200.998 79.6993 200.998 79.6407 200.998Z" fill="#2C3B47"/>
<path d="M141.171 181.814L117.433 179.922C117.359 179.914 117.288 179.892 117.222 179.856C117.157 179.821 117.099 179.772 117.052 179.713C117.005 179.655 116.97 179.588 116.948 179.515C116.927 179.443 116.92 179.367 116.927 179.291C116.934 179.216 116.956 179.143 116.991 179.076C117.026 179.01 117.074 178.951 117.131 178.903C117.189 178.855 117.255 178.819 117.326 178.797C117.397 178.775 117.472 178.768 117.546 178.775L140.608 180.61L139.877 165.247L123.789 167.31C123.631 167.327 123.471 167.287 123.339 167.196C123.232 167.083 123.155 166.945 123.114 166.794L121.708 148.278C121.601 146.48 121.016 144.746 120.015 143.261C119.014 141.776 117.636 140.598 116.027 139.851L108.602 136.412C108.492 136.336 108.412 136.224 108.375 136.095C108.339 135.965 108.348 135.826 108.402 135.703C108.456 135.58 108.55 135.48 108.669 135.421C108.788 135.362 108.924 135.347 109.052 135.38L116.477 138.819C118.277 139.646 119.821 140.959 120.942 142.617C122.062 144.274 122.716 146.212 122.833 148.221L124.183 166.106L140.271 164.043C140.43 164.019 140.591 164.06 140.721 164.157C140.828 164.269 140.905 164.408 140.946 164.559L141.677 181.183C141.681 181.352 141.621 181.517 141.508 181.642C141.47 181.696 141.419 181.741 141.361 181.771C141.302 181.801 141.236 181.816 141.171 181.814Z" fill="#2C3B47"/>
<path d="M121.48 111.632C121.48 111.632 127.034 111.215 127.034 114.157C127.034 116.137 122.774 117.234 121.48 118.196C120.186 119.158 120.678 125.572 117.302 129.137C115.614 130.891 112.125 132.079 108.693 131.4L108.412 131.343L107.624 135.417C107.624 135.417 104.192 137.171 101.604 135.926C101.379 133.154 100.31 124.76 100.31 124.76C100.31 124.76 96.5745 126.078 95.7306 122.74C94.8866 119.402 98.7905 117.142 101.266 118.783L100.31 109.447L119.834 109.108L121.48 111.632Z" fill="#EDCFC5"/>
<path d="M101.339 119.244L101.681 110.195L120.221 109.456C120.221 109.456 127.124 100.919 116.856 98.5853C113.775 98.0162 112.463 101.659 112.463 101.659C112.463 101.659 107.386 96.0812 100.483 98.6991C93.5804 101.317 94.7213 108.26 94.7213 108.26C94.7213 108.26 89.7012 109.74 90.2146 113.952C90.728 118.163 93.5804 119.757 93.5804 119.757C93.5804 119.757 88.5032 123.171 91.5837 127.269C94.6643 131.367 101.168 128.009 101.168 128.009L100.997 124.651C100.997 124.651 98.8858 125.391 97.8019 124.651C97.0686 124.097 96.5781 123.281 96.4327 122.375C96.3095 121.8 96.3395 121.203 96.5197 120.644C96.6999 120.085 97.024 119.583 97.4596 119.187C99.2395 117.822 101.339 119.244 101.339 119.244Z" fill="#5AB467"/>
<path d="M111.021 132.333C109.561 132.326 108.116 132.052 106.764 131.526C106.684 131.507 106.609 131.472 106.545 131.422C106.48 131.373 106.428 131.311 106.392 131.24C106.355 131.17 106.336 131.092 106.334 131.014C106.333 130.935 106.349 130.857 106.383 130.786C106.417 130.714 106.466 130.65 106.529 130.598C106.591 130.547 106.665 130.509 106.745 130.487C106.824 130.465 106.908 130.46 106.99 130.473C107.072 130.485 107.15 130.514 107.218 130.558C111.021 132.118 115.392 130.988 117.265 129.105C119.251 127.114 119.762 123.778 120.159 121.303C120.443 119.419 120.67 118.182 121.351 117.697C121.882 117.335 122.453 117.028 123.054 116.783C124.416 116.137 126.346 115.222 126.346 114.254C126.349 114.063 126.31 113.873 126.232 113.697C126.154 113.521 126.038 113.362 125.892 113.231C124.813 112.263 122.259 112.155 121.351 112.209C121.201 112.209 121.056 112.152 120.95 112.051C120.843 111.95 120.784 111.813 120.784 111.671C120.779 111.599 120.79 111.527 120.817 111.459C120.843 111.392 120.885 111.331 120.939 111.28C120.992 111.229 121.057 111.189 121.128 111.164C121.199 111.138 121.275 111.128 121.351 111.133C121.521 111.133 125.097 110.971 126.743 112.478C127.006 112.699 127.214 112.974 127.351 113.281C127.489 113.588 127.553 113.92 127.538 114.254C127.538 115.922 125.381 116.944 123.622 117.751C123.09 117.983 122.577 118.253 122.089 118.558C121.748 118.774 121.521 120.28 121.351 121.464C120.954 124.047 120.33 127.598 118.116 129.804C116.64 131.284 113.916 132.333 111.021 132.333Z" fill="#2C3B47"/>
<path d="M112.393 114.157C112.95 114.157 113.402 113.705 113.402 113.147C113.402 112.59 112.95 112.137 112.393 112.137C111.835 112.137 111.383 112.59 111.383 113.147C111.383 113.705 111.835 114.157 112.393 114.157Z" fill="#2C3B47"/>
<path d="M115.42 114.157C115.978 114.157 116.43 113.705 116.43 113.147C116.43 112.59 115.978 112.137 115.42 112.137C114.862 112.137 114.41 112.59 114.41 113.147C114.41 113.705 114.862 114.157 115.42 114.157Z" fill="#2C3B47"/>
<path d="M103.129 137.382C102.308 137.377 101.497 137.205 100.743 136.876C100.664 136.83 100.597 136.764 100.549 136.686C100.501 136.607 100.472 136.518 100.466 136.425C100.3 134.174 99.9112 127.588 99.8003 125.45C98.8595 125.704 97.8614 125.624 96.9712 125.224C96.5507 125 96.1868 124.68 95.9079 124.289C95.6289 123.899 95.4423 123.448 95.3625 122.973C94.9742 121.284 95.4179 119.765 96.6938 118.864C97.3429 118.419 98.1105 118.186 98.8937 118.196C99.6768 118.206 100.438 118.459 101.076 118.92C101.138 118.961 101.191 119.014 101.233 119.075C101.275 119.137 101.305 119.206 101.32 119.279C101.336 119.352 101.337 119.428 101.323 119.502C101.31 119.575 101.283 119.645 101.243 119.708C101.202 119.771 101.151 119.825 101.09 119.868C101.029 119.91 100.961 119.94 100.889 119.956C100.817 119.972 100.742 119.973 100.67 119.959C100.597 119.946 100.528 119.918 100.466 119.877C100.013 119.554 99.4748 119.376 98.9212 119.366C98.3676 119.356 97.8237 119.515 97.3595 119.821C96.9383 120.161 96.6282 120.623 96.4698 121.145C96.3114 121.667 96.3122 122.226 96.4719 122.748C96.5197 123.067 96.6397 123.37 96.8226 123.634C97.0055 123.897 97.2463 124.114 97.5259 124.267C98.6353 124.83 100.133 124.211 100.189 124.211C100.27 124.18 100.358 124.169 100.445 124.179C100.532 124.189 100.615 124.219 100.688 124.267C100.83 124.38 100.928 124.539 100.965 124.718C100.965 124.83 101.409 133.048 101.631 136.088C103.461 136.819 105.791 135.919 106.512 135.581L107.234 131.81C107.248 131.736 107.277 131.666 107.318 131.603C107.36 131.54 107.413 131.487 107.475 131.445C107.536 131.403 107.606 131.374 107.679 131.359C107.751 131.345 107.826 131.345 107.899 131.36C107.972 131.374 108.041 131.404 108.103 131.446C108.165 131.488 108.218 131.541 108.259 131.604C108.3 131.667 108.329 131.737 108.343 131.811C108.358 131.885 108.358 131.961 108.343 132.035L107.566 136.088C107.522 136.248 107.424 136.387 107.289 136.482C107.067 136.425 105.181 137.382 103.129 137.382Z" fill="#2C3B47"/>
</g>
<rect x="84.25" y="90.25" width="50.5" height="51.5" rx="25.25" stroke="#2C3B47" stroke-width="2.5"/>
<circle cx="147.117" cy="307.447" r="26.6113" fill="white"/>
<circle cx="141.611" cy="311.117" r="26.6113" fill="#5C9CD0"/>
<path fill-rule="evenodd" clip-rule="evenodd" d="M148.035 331.558C161.858 331.558 173.064 320.352 173.064 306.529C173.064 292.706 161.858 281.5 148.035 281.5C134.212 281.5 123.006 292.706 123.006 306.529C123.006 320.352 134.212 331.558 148.035 331.558ZM148.035 334.058C163.239 334.058 175.564 321.733 175.564 306.529C175.564 291.325 163.239 279 148.035 279C132.831 279 120.506 291.325 120.506 306.529C120.506 321.733 132.831 334.058 148.035 334.058Z" fill="#2C3B47"/>
<path fill-rule="evenodd" clip-rule="evenodd" d="M176.416 285.427C176.921 285.899 176.948 286.69 176.477 287.194L148.154 317.536L134.275 302.709C133.803 302.205 133.829 301.414 134.333 300.943C134.837 300.471 135.628 300.497 136.1 301.001L148.151 313.875L174.649 285.488C175.121 284.984 175.912 284.956 176.416 285.427Z" fill="#2C3B47"/>
<path fill-rule="evenodd" clip-rule="evenodd" d="M215.205 317.468C215.775 317.858 215.921 318.636 215.531 319.206C208.732 329.142 192.695 335.082 180.236 325.49C179.689 325.069 179.587 324.285 180.008 323.737C180.429 323.19 181.214 323.088 181.761 323.51C192.804 332.011 207.266 326.857 213.467 317.794C213.857 317.224 214.635 317.078 215.205 317.468Z" fill="#2C3B47"/>
<circle cx="501.611" cy="114.447" r="26.6113" fill="white"/>
<circle cx="505.867" cy="109.611" r="26.6113" fill="#5C9CD0"/>
<path fill-rule="evenodd" clip-rule="evenodd" d="M502.529 138.558C516.352 138.558 527.558 127.352 527.558 113.529C527.558 99.7058 516.352 88.5 502.529 88.5C488.706 88.5 477.5 99.7058 477.5 113.529C477.5 127.352 488.706 138.558 502.529 138.558ZM502.529 141.058C517.733 141.058 530.058 128.733 530.058 113.529C530.058 98.3251 517.733 86 502.529 86C487.325 86 475 98.3251 475 113.529C475 128.733 487.325 141.058 502.529 141.058Z" fill="#2C3B47"/>
<path fill-rule="evenodd" clip-rule="evenodd" d="M516.361 99.099C516.858 99.5775 516.874 100.369 516.395 100.866L491.395 126.866C490.917 127.364 490.125 127.38 489.628 126.901C489.13 126.423 489.115 125.631 489.593 125.134L514.593 99.1336C515.072 98.636 515.863 98.6205 516.361 99.099Z" fill="#2C3B47"/>
<path fill-rule="evenodd" clip-rule="evenodd" d="M489.628 99.099C489.13 99.5775 489.115 100.369 489.593 100.866L514.593 126.866C515.072 127.364 515.863 127.38 516.361 126.901C516.858 126.423 516.874 125.631 516.395 125.134L491.395 99.1336C490.917 98.636 490.125 98.6205 489.628 99.099Z" fill="#2C3B47"/>
<path fill-rule="evenodd" clip-rule="evenodd" d="M465.558 136.026C465.907 136.622 465.706 137.388 465.11 137.736C456.144 142.975 434.892 150.199 417.013 135.354C416.482 134.913 416.409 134.125 416.85 133.594C417.291 133.063 418.079 132.99 418.61 133.431C435.26 147.255 455.204 140.629 463.849 135.578C464.445 135.229 465.21 135.43 465.558 136.026Z" fill="#2C3B47"/>
<rect width="80.0199" height="30.4838" rx="15.2419" transform="matrix(-1 0 0 1 516.27 446.727)" fill="#5C9CD0"/>
<path fill-rule="evenodd" clip-rule="evenodd" d="M447.68 443.511H500.074C508.69 443.511 515.674 450.495 515.674 459.111C515.674 467.726 508.69 474.711 500.074 474.711H447.68C439.065 474.711 432.08 467.726 432.08 459.111C432.08 450.495 439.065 443.511 447.68 443.511ZM500.074 441.011C510.07 441.011 518.174 449.115 518.174 459.111C518.174 469.107 510.07 477.211 500.074 477.211H447.68C437.684 477.211 429.58 469.107 429.58 459.111C429.58 449.115 437.684 441.011 447.68 441.011H500.074Z" fill="#2C3B47"/>
<path fill-rule="evenodd" clip-rule="evenodd" d="M425.259 453.568C425.438 454.235 425.042 454.92 424.375 455.099C421.616 455.839 418.295 455.184 415.208 453.661C412.093 452.125 409.059 449.635 406.833 446.455C404.601 443.268 403.161 439.36 403.306 435.016C403.452 430.665 405.185 425.99 409.111 421.272C409.553 420.742 410.341 420.669 410.871 421.111C411.402 421.553 411.474 422.341 411.033 422.871C407.405 427.231 405.929 431.388 405.805 435.1C405.68 438.82 406.909 442.206 408.881 445.021C410.857 447.844 413.562 450.062 416.313 451.419C419.093 452.789 421.767 453.21 423.728 452.684C424.395 452.506 425.08 452.901 425.259 453.568Z" fill="#2C3B47"/>
<path fill-rule="evenodd" clip-rule="evenodd" d="M457.506 455.301C457.506 455.991 456.946 456.551 456.256 456.551H444.824C444.134 456.551 443.574 455.991 443.574 455.301C443.574 454.61 444.134 454.051 444.824 454.051H456.256C456.946 454.051 457.506 454.61 457.506 455.301Z" fill="#2C3B47"/>
<path fill-rule="evenodd" clip-rule="evenodd" d="M465.125 462.921C465.125 463.612 464.565 464.171 463.875 464.171H444.823C444.132 464.171 443.573 463.612 443.573 462.921C443.573 462.231 444.132 461.671 444.823 461.671H463.875C464.565 461.671 465.125 462.231 465.125 462.921Z" fill="#2C3B47"/>
<path fill-rule="evenodd" clip-rule="evenodd" d="M468.936 455.301C468.936 455.991 468.376 456.551 467.686 456.551H461.017C460.327 456.551 459.767 455.991 459.767 455.301C459.767 454.61 460.327 454.051 461.017 454.051H467.686C468.376 454.051 468.936 454.61 468.936 455.301Z" fill="#2C3B47"/>
<path fill-rule="evenodd" clip-rule="evenodd" d="M476.557 462.921C476.557 463.612 475.997 464.171 475.307 464.171H468.638C467.948 464.171 467.388 463.612 467.388 462.921C467.388 462.231 467.948 461.671 468.638 461.671H475.307C475.997 461.671 476.557 462.231 476.557 462.921Z" fill="#2C3B47"/>
<path fill-rule="evenodd" clip-rule="evenodd" d="M484.178 455.301C484.178 455.991 483.618 456.551 482.928 456.551H472.449C471.759 456.551 471.199 455.991 471.199 455.301C471.199 454.61 471.759 454.051 472.449 454.051H482.928C483.618 454.051 484.178 454.61 484.178 455.301Z" fill="#2C3B47"/>
<path fill-rule="evenodd" clip-rule="evenodd" d="M504.182 455.301C504.182 455.991 503.622 456.551 502.932 456.551H486.737C486.047 456.551 485.487 455.991 485.487 455.301C485.487 454.61 486.047 454.051 486.737 454.051H502.932C503.622 454.051 504.182 454.61 504.182 455.301Z" fill="#2C3B47"/>
<path fill-rule="evenodd" clip-rule="evenodd" d="M501.326 462.921C501.326 463.612 500.767 464.171 500.076 464.171H480.071C479.381 464.171 478.821 463.612 478.821 462.921C478.821 462.231 479.381 461.671 480.071 461.671H500.076C500.767 461.671 501.326 462.231 501.326 462.921Z" fill="#2C3B47"/>
<defs>
<clipPath id="clip0_1413_12136">
<rect x="505" y="277" width="53" height="54" rx="26.5" fill="white"/>
</clipPath>
<clipPath id="clip1_1413_12136">
<rect x="152" y="369" width="40" height="40" rx="20" fill="white"/>
</clipPath>
<clipPath id="clip2_1413_12136">
<rect x="83" y="173" width="53" height="54" rx="26.5" fill="white"/>
</clipPath>
<clipPath id="clip3_1413_12136">
<rect x="83" y="89" width="53" height="54" rx="26.5" fill="white"/>
</clipPath>
</defs>
</svg>
