<svg width="582" height="560" viewBox="0 0 582 560" fill="none" xmlns="http://www.w3.org/2000/svg">
<g clip-path="url(#clip0_1365_8490)">
<g clip-path="url(#clip1_1365_8490)">
<rect x="97" y="55" width="112" height="113" rx="56" fill="white"/>
<path d="M130.5 118C123.3 119.6 117.834 123.333 116 125C115.167 125.5 113 127.9 111 133.5C108.5 140.5 108 140 111 147C122.5 160 136 166.5 152.5 167C165.7 167.4 175.667 162.833 179 160.5C177.834 153.167 174.3 136.5 169.5 128.5C163.5 118.5 139.5 116 130.5 118Z" fill="#5C9CD0"/>
<path d="M139.998 127.5C143.498 119.5 146.185 87.8338 146.185 87.8338L173.157 89.0882C173.157 89.0882 172.408 95.0219 177.566 95.1376C182.724 95.2532 184.523 97.0325 177.469 101.481C170.415 105.929 174.189 115.634 170.098 118.383C167.282 120.186 164.281 121.678 161.148 122.831C161.148 122.831 169.198 126.15 171.57 130.758C161.998 123.211 146.998 133.617 139.998 127.5Z" fill="#EDCFC5"/>
<path d="M239.994 106.462L242.719 83.9461L208.384 82.1224L211.223 108.98L239.659 109.211L239.994 106.462Z" fill="white"/>
<path d="M161.148 124.184C163.169 124.204 165.159 123.692 166.924 122.698C169.735 121.077 171.808 118.411 172.699 115.27C174.515 108.295 176.103 104.06 176.782 103.491C177.117 103.269 177.663 103.037 178.369 102.69C180.52 101.667 183.236 100.404 183.58 98.2423C183.688 97.676 183.664 97.0922 183.511 96.5366C183.358 95.981 183.08 95.4686 182.698 95.0396C180.661 92.6466 176.014 92.6466 175.45 92.6466C175.293 92.6326 175.135 92.6517 174.985 92.7028C174.836 92.7539 174.698 92.8358 174.582 92.9433C174.466 93.0508 174.373 93.1816 174.309 93.3273C174.245 93.473 174.213 93.6305 174.213 93.7897C174.213 93.9489 174.245 94.1064 174.309 94.2521C174.373 94.3979 174.466 94.5286 174.582 94.6361C174.698 94.7437 174.836 94.8256 174.985 94.8767C175.135 94.9277 175.293 94.9469 175.45 94.9329C176.464 94.9329 179.859 95.2709 180.996 96.5342C181.168 96.7116 181.291 96.9318 181.351 97.1724C181.412 97.4131 181.408 97.6656 181.34 97.9042C181.226 98.9273 178.845 99.9592 177.372 100.644C176.579 100.991 176.014 101.329 175.45 101.534C174.886 101.738 173.405 102.904 170.345 114.674C170.019 115.933 169.438 117.111 168.64 118.133C167.842 119.156 166.844 120.001 165.707 120.616C164.451 121.308 163.062 121.718 161.634 121.818C160.207 121.918 158.775 121.705 157.436 121.194C157.136 121.104 156.812 121.137 156.535 121.287C156.259 121.437 156.054 121.692 155.964 121.995C155.874 122.298 155.907 122.625 156.055 122.904C156.204 123.182 156.457 123.39 156.757 123.481C158.178 123.933 159.658 124.17 161.148 124.184Z" fill="#2C3B47"/>
<path d="M167.373 100.52C166.56 100.52 165.901 99.8545 165.901 99.034C165.901 98.2135 166.56 97.5483 167.373 97.5483C168.186 97.5483 168.846 98.2135 168.846 99.034C168.846 99.8545 168.186 100.52 167.373 100.52Z" fill="#2C3B47"/>
<path d="M161.15 101.552C160.336 101.552 159.677 100.887 159.677 100.066C159.677 99.2455 160.336 98.5804 161.15 98.5804C161.963 98.5804 162.622 99.2455 162.622 100.066C162.622 100.887 161.963 101.552 161.15 101.552Z" fill="#2C3B47"/>
<path d="M167.499 127.5C173.099 130.3 175.499 137.667 175.999 141L162.499 143.5L159.999 140C158.832 139.667 156.399 139 155.999 139C155.599 139 155.833 138.333 155.999 138C157.499 133.333 161.899 124.7 167.499 127.5Z" fill="#EDCFC5"/>
<path d="M175.646 91.837H147.324L142.792 136.754L109.938 122.467C109.938 122.467 120.519 84.6311 138.259 86.8018C140.191 80.8591 142.906 72.9771 158.205 73.1995C175.646 73.4308 175.646 91.837 175.646 91.837Z" fill="#2C3B47"/>
<path d="M138.154 87.8338C138.349 87.8505 138.545 87.8104 138.718 87.7181C138.854 87.6448 138.973 87.5446 139.07 87.4236C139.166 87.3026 139.238 87.1632 139.28 87.0138C139.322 86.8643 139.333 86.7079 139.314 86.5538C139.295 86.3997 139.245 86.2511 139.168 86.1168C139.053 86.0012 137.245 82.6918 134.071 82.6918C133.788 82.717 133.524 82.8484 133.332 83.06C133.14 83.2716 133.034 83.548 133.034 83.8349C133.034 84.1218 133.14 84.3983 133.332 84.6099C133.524 84.8215 133.788 84.9529 134.071 84.9781C135.993 84.9781 137.131 87.1488 137.245 87.2644C137.314 87.4466 137.44 87.601 137.604 87.7038C137.768 87.8067 137.961 87.8523 138.154 87.8338Z" fill="#2C3B47"/>
<path d="M147.208 124.869C147.208 124.869 152.085 120.421 153.328 118.579C154.571 116.738 156.617 115.839 157.86 117.778C158.194 118.567 158.338 119.424 158.279 120.279C158.221 121.134 157.963 121.963 157.525 122.698C156.529 123.837 149.933 126.239 147.208 124.869Z" fill="#EDCFC5"/>
<path d="M149.369 126.47C152.896 126.47 157.411 124.637 158.425 123.383C159.562 121.782 159.791 118.579 158.769 117.093C158.491 116.613 158.095 116.213 157.619 115.933C157.143 115.652 156.604 115.5 156.053 115.492C155.295 115.55 154.565 115.801 153.93 116.221C153.295 116.641 152.775 117.217 152.42 117.894C151.406 119.38 147.782 122.814 146.53 124.068C146.395 124.2 146.294 124.362 146.236 124.542C146.178 124.722 146.164 124.913 146.195 125.1C146.32 125.463 146.558 125.775 146.874 125.989C147.669 126.304 148.515 126.467 149.369 126.47ZM156.053 117.805C156.159 117.805 156.502 117.805 156.846 118.383C157.034 118.985 157.101 119.619 157.042 120.247C156.983 120.875 156.799 121.484 156.502 122.04C155.938 122.725 152.314 124.095 149.59 124.21C151.26 122.691 152.813 121.047 154.236 119.291C154.801 118.401 155.48 117.805 156.053 117.805Z" fill="#2C3B47"/>
<path d="M160.938 136.87C159.364 136.937 157.799 136.581 156.406 135.838C155.942 138.155 155.354 140.444 154.643 142.697L141.725 133.098C141.725 133.098 144.106 125.981 148.294 124.406C152.482 122.831 160.303 121.666 166.079 124.406C168.01 125.554 168.724 128.071 166.079 128.854C167.666 129.993 169.482 132.964 165.744 134.192C167.331 135.455 167.216 136.941 166.193 138.079C163.478 141.166 157.693 139.565 155.657 139.565" fill="#EDCFC5"/>
<path d="M154.581 143.844H154.916C155.091 143.787 155.248 143.682 155.367 143.541C155.487 143.399 155.566 143.227 155.595 143.043C155.595 142.928 155.938 142.011 156.273 140.757C156.503 140.757 156.732 140.873 157.067 140.873C159.792 141.211 164.43 141.762 166.925 138.809C167.476 138.247 167.829 137.518 167.931 136.734C168.033 135.95 167.878 135.154 167.489 134.468C167.876 134.235 168.208 133.921 168.462 133.546C168.717 133.171 168.887 132.745 168.962 132.297C169.067 131.1 168.703 129.908 167.948 128.979C168.219 128.759 168.439 128.482 168.591 128.166C168.744 127.851 168.825 127.506 168.83 127.155C168.863 126.356 168.667 125.563 168.265 124.874C167.863 124.184 167.272 123.626 166.563 123.267C160.673 120.412 152.747 121.212 147.765 123.152C143.118 124.984 140.623 132.297 140.508 132.528C140.435 132.759 140.44 133.008 140.523 133.235C140.606 133.462 140.762 133.655 140.966 133.782L153.884 143.381C153.949 143.514 154.048 143.626 154.17 143.708C154.293 143.789 154.434 143.836 154.581 143.844ZM154.466 139.271C154.351 139.841 154.122 140.294 154.007 140.757L143.021 132.644C143.903 130.464 145.966 126.47 148.576 125.438C152.314 123.952 159.897 122.698 165.452 125.438C166.131 125.892 166.581 126.585 166.475 127.039C166.369 127.493 165.902 127.609 165.594 127.724C165.39 127.78 165.208 127.893 165.067 128.051C164.926 128.209 164.833 128.404 164.8 128.614C164.752 128.827 164.77 129.05 164.85 129.253C164.931 129.457 165.07 129.631 165.25 129.753C165.633 130.002 165.954 130.339 166.185 130.736C166.416 131.133 166.552 131.579 166.581 132.039C166.475 132.617 165.796 132.928 165.109 133.186C164.917 133.26 164.745 133.38 164.608 133.534C164.472 133.689 164.374 133.875 164.324 134.076C164.286 134.289 164.307 134.509 164.387 134.71C164.466 134.912 164.6 135.087 164.774 135.215C164.98 135.337 165.158 135.503 165.295 135.701C165.432 135.899 165.525 136.125 165.567 136.362C165.553 136.785 165.391 137.189 165.109 137.501C163.416 139.556 159.677 139.102 157.296 138.755H156.847C156.971 138.388 157.045 138.005 157.067 137.617C158.245 137.955 159.467 138.108 160.691 138.07C160.848 138.084 161.007 138.065 161.156 138.014C161.306 137.963 161.443 137.881 161.559 137.774C161.676 137.666 161.769 137.535 161.832 137.39C161.896 137.244 161.929 137.087 161.929 136.927C161.929 136.768 161.896 136.611 161.832 136.465C161.769 136.319 161.676 136.188 161.559 136.081C161.443 135.973 161.306 135.891 161.156 135.84C161.007 135.789 160.848 135.77 160.691 135.784C159.36 135.899 158.024 135.621 156.847 134.983C156.697 134.886 156.526 134.824 156.349 134.804C156.171 134.784 155.992 134.806 155.824 134.868C155.658 134.942 155.512 135.052 155.394 135.19C155.277 135.329 155.191 135.492 155.145 135.668C155.05 136.876 154.823 138.07 154.466 139.227V139.271Z" fill="#2C3B47"/>
<path d="M166.015 130.01C166.22 130.011 166.421 129.96 166.6 129.86C166.779 129.76 166.93 129.616 167.038 129.441C167.115 129.306 167.164 129.157 167.183 129.003C167.202 128.848 167.189 128.692 167.146 128.542C167.104 128.393 167.031 128.253 166.934 128.133C166.836 128.012 166.716 127.912 166.579 127.84C164.889 126.854 162.984 126.304 161.033 126.239C160.876 126.225 160.718 126.244 160.568 126.295C160.419 126.346 160.281 126.428 160.165 126.535C160.049 126.643 159.956 126.774 159.892 126.919C159.829 127.065 159.796 127.222 159.796 127.382C159.796 127.541 159.829 127.698 159.892 127.844C159.956 127.99 160.049 128.121 160.165 128.228C160.281 128.336 160.419 128.418 160.568 128.469C160.718 128.52 160.876 128.539 161.033 128.525C162.561 128.597 164.044 129.069 165.336 129.895C165.554 129.973 165.784 130.012 166.015 130.01Z" fill="#2C3B47"/>
<path d="M165.681 135.384C165.884 135.385 166.084 135.333 166.262 135.233C166.44 135.134 166.589 134.989 166.695 134.814C166.772 134.68 166.822 134.532 166.842 134.377C166.861 134.223 166.849 134.067 166.807 133.917C166.765 133.768 166.694 133.629 166.597 133.508C166.501 133.387 166.381 133.286 166.245 133.213C164.523 132.278 162.636 131.695 160.69 131.496C160.541 131.496 160.394 131.526 160.256 131.584C160.119 131.641 159.994 131.726 159.889 131.833C159.784 131.939 159.701 132.066 159.645 132.205C159.589 132.344 159.561 132.493 159.562 132.644C159.553 132.796 159.576 132.948 159.629 133.09C159.683 133.232 159.766 133.361 159.872 133.469C159.979 133.577 160.107 133.66 160.248 133.714C160.389 133.768 160.54 133.792 160.69 133.782C162.274 133.942 163.813 134.407 165.222 135.152C165.277 135.223 165.347 135.28 165.426 135.32C165.505 135.36 165.592 135.382 165.681 135.384Z" fill="#2C3B47"/>
<path d="M118.781 154.929L135.887 128.979L157.631 144.867L123.648 176.191C121.467 178.165 118.643 179.264 115.713 179.278C113.983 179.278 112.275 178.893 110.71 178.151C109.145 177.409 107.761 176.328 106.658 174.985C105.554 173.642 104.757 172.07 104.324 170.381C103.891 168.692 103.833 166.927 104.153 165.213C107.098 149.324 110.158 128.872 116.048 124.637" fill="#5C9CD0"/>
<path d="M115.607 180.416C118.831 180.391 121.934 179.172 124.327 176.991L158.292 145.668C158.51 145.424 158.63 145.107 158.627 144.778C158.589 144.436 158.429 144.12 158.177 143.889L136.425 128C136.171 127.811 135.855 127.728 135.543 127.769C135.387 127.788 135.237 127.837 135.101 127.915C134.965 127.993 134.845 128.098 134.749 128.222L117.643 154.173C117.562 154.301 117.506 154.443 117.479 154.593C117.452 154.743 117.455 154.896 117.487 155.045C117.519 155.194 117.579 155.335 117.665 155.46C117.751 155.585 117.86 155.692 117.987 155.774C118.114 155.856 118.256 155.913 118.404 155.94C118.552 155.967 118.705 155.964 118.852 155.932C118.999 155.9 119.139 155.839 119.263 155.752C119.387 155.665 119.493 155.555 119.574 155.427L135.992 130.518L155.594 144.921L122.625 175.212C121.559 176.176 120.311 176.912 118.957 177.378C117.602 177.844 116.168 178.029 114.74 177.923C113.313 177.816 111.922 177.421 110.649 176.759C109.377 176.098 108.25 175.184 107.336 174.073C106.345 172.86 105.629 171.444 105.238 169.923C104.846 168.401 104.789 166.812 105.07 165.266C105.405 163.442 105.749 161.494 106.092 159.555C108.579 145.953 111.639 128.925 116.4 125.376C116.64 125.194 116.798 124.924 116.84 124.624C116.882 124.325 116.805 124.021 116.625 123.779C116.445 123.537 116.177 123.377 115.88 123.335C115.583 123.292 115.282 123.37 115.042 123.552C109.602 127.546 106.657 143.666 103.826 159.137C103.483 161.085 103.147 163.024 102.804 164.857C102.458 166.759 102.528 168.714 103.01 170.586C103.492 172.457 104.374 174.2 105.593 175.692C106.813 177.183 108.341 178.388 110.071 179.221C111.801 180.054 113.69 180.495 115.607 180.514V180.416Z" fill="#2C3B47"/>
<path d="M168.961 166.814L157.498 144.983L180.723 137.439L188.306 165.56C188.754 167.18 188.824 168.884 188.51 170.536C188.197 172.188 187.508 173.745 186.499 175.084C185.489 176.423 184.186 177.508 182.692 178.254C181.197 179 179.552 179.387 177.884 179.384C175.226 179.347 172.664 178.378 170.636 176.644L164.182 170.817" fill="#5C9CD0"/>
<path d="M177.911 180.416C179.754 180.406 181.571 179.968 183.22 179.138C184.87 178.307 186.309 177.106 187.425 175.626C188.542 174.146 189.307 172.427 189.662 170.601C190.016 168.776 189.951 166.893 189.47 165.097L181.879 137.101C181.764 136.754 181.649 136.523 181.314 136.416C181.046 136.265 180.73 136.223 180.433 136.3L157.207 143.844C157.047 143.892 156.9 143.98 156.782 144.1C156.663 144.219 156.576 144.367 156.528 144.529C156.42 144.816 156.42 145.132 156.528 145.419L167.991 167.25C168.142 167.522 168.394 167.723 168.692 167.808C168.989 167.894 169.308 167.856 169.578 167.704C169.848 167.551 170.047 167.297 170.132 166.997C170.216 166.697 170.179 166.375 170.028 166.102L159.174 145.445L180.018 138.693L187.275 165.675C187.677 167.138 187.732 168.675 187.437 170.164C187.141 171.652 186.503 173.049 185.573 174.242C184.772 175.318 183.757 176.214 182.594 176.872C181.431 177.531 180.145 177.939 178.817 178.069C177.49 178.2 176.15 178.05 174.883 177.63C173.616 177.211 172.449 176.529 171.456 175.63L165.002 169.803C164.891 169.704 164.762 169.628 164.621 169.58C164.481 169.532 164.332 169.513 164.184 169.523C164.036 169.534 163.892 169.575 163.76 169.643C163.628 169.711 163.51 169.804 163.415 169.919C163.314 170.03 163.237 170.16 163.188 170.302C163.139 170.444 163.119 170.594 163.13 170.744C163.14 170.894 163.181 171.041 163.25 171.174C163.319 171.307 163.414 171.425 163.529 171.52L169.984 177.347C172.163 179.317 174.985 180.409 177.911 180.416Z" fill="#2C3B47"/>
<path d="M170.098 195.735C170.098 195.735 162.735 166.013 161.598 160.151L170.098 195.735Z" fill="white"/>
<path d="M170.098 196.874H170.318C170.463 196.843 170.599 196.781 170.719 196.693C170.838 196.606 170.939 196.494 171.013 196.365C171.088 196.236 171.135 196.093 171.152 195.945C171.169 195.797 171.155 195.647 171.112 195.504C171.006 195.157 163.749 165.782 162.62 159.919C162.59 159.769 162.531 159.627 162.446 159.5C162.362 159.373 162.253 159.264 162.126 159.179C162 159.094 161.858 159.035 161.709 159.006C161.56 158.977 161.407 158.977 161.258 159.008C161.109 159.038 160.968 159.098 160.842 159.183C160.716 159.269 160.608 159.378 160.524 159.506C160.44 159.634 160.382 159.777 160.353 159.927C160.324 160.077 160.324 160.232 160.354 160.382C161.483 166.325 168.51 194.784 168.845 196.038C168.954 196.283 169.13 196.491 169.351 196.639C169.573 196.788 169.832 196.869 170.098 196.874Z" fill="#2C3B47"/>
<path d="M175.31 140.294H175.539C175.683 140.262 175.818 140.2 175.937 140.112C176.056 140.023 176.155 139.912 176.229 139.783C176.303 139.654 176.349 139.511 176.365 139.364C176.382 139.216 176.368 139.066 176.324 138.924C176.218 138.586 173.952 129.094 168.062 126.47C167.927 126.403 167.78 126.365 167.63 126.357C167.48 126.349 167.33 126.372 167.188 126.424C167.047 126.477 166.918 126.558 166.809 126.662C166.7 126.766 166.613 126.892 166.553 127.031C166.493 127.17 166.462 127.32 166.462 127.472C166.461 127.623 166.491 127.774 166.55 127.913C166.608 128.053 166.694 128.179 166.803 128.284C166.911 128.389 167.04 128.471 167.18 128.525C172.047 130.695 174.234 139.387 174.234 139.494C174.33 139.71 174.479 139.897 174.668 140.037C174.856 140.177 175.077 140.266 175.31 140.294Z" fill="#2C3B47"/>
<path d="M162.392 143.266C162.392 143.266 160.126 140.072 158.997 139.956L162.392 143.266Z" fill="white"/>
<path d="M162.392 144.413C162.633 144.391 162.866 144.312 163.071 144.182C163.205 144.104 163.319 143.996 163.405 143.867C163.491 143.738 163.548 143.591 163.57 143.437C163.592 143.283 163.579 143.126 163.532 142.978C163.486 142.83 163.406 142.694 163.3 142.581C162.419 141.211 160.585 138.925 159.112 138.809C158.961 138.783 158.807 138.791 158.659 138.831C158.511 138.87 158.373 138.941 158.255 139.039C158.136 139.137 158.04 139.259 157.972 139.397C157.903 139.535 157.865 139.687 157.86 139.841C157.844 139.991 157.858 140.143 157.901 140.288C157.944 140.433 158.016 140.568 158.111 140.684C158.206 140.801 158.323 140.898 158.456 140.968C158.588 141.039 158.734 141.082 158.883 141.095C159.881 141.917 160.757 142.878 161.484 143.951C161.583 144.1 161.719 144.221 161.878 144.302C162.037 144.383 162.214 144.421 162.392 144.413Z" fill="#2C3B47"/>
<path d="M106.093 155.169C106.093 155.169 99.515 183.859 96.2349 201.571L106.093 155.169Z" fill="white"/>
<path d="M96.2355 202.701C96.4982 202.715 96.757 202.632 96.9643 202.469C97.1716 202.305 97.3136 202.072 97.3641 201.812C100.653 184.206 107.107 155.747 107.222 155.4C107.282 155.097 107.219 154.782 107.049 154.525C106.879 154.269 106.614 154.09 106.314 154.03C106.013 153.97 105.701 154.033 105.447 154.205C105.192 154.376 105.016 154.643 104.956 154.947C104.841 155.285 98.3869 183.859 95.098 201.465C95.0586 201.762 95.1258 202.063 95.2876 202.314C95.4493 202.566 95.6949 202.75 95.9798 202.835C96.0107 202.796 96.0494 202.763 96.0935 202.74C96.1376 202.717 96.1859 202.704 96.2355 202.701Z" fill="#2C3B47"/>
<path d="M211.197 110.119H236.371C236.654 110.093 236.917 109.962 237.109 109.75C237.301 109.539 237.408 109.262 237.408 108.975C237.408 108.689 237.301 108.412 237.109 108.2C236.917 107.989 236.654 107.858 236.371 107.832H212.237L209.636 83.3767L241.467 85.0936L238.866 106.347C238.848 106.497 238.859 106.65 238.901 106.796C238.942 106.942 239.012 107.078 239.107 107.195C239.202 107.313 239.319 107.411 239.452 107.482C239.584 107.553 239.73 107.597 239.88 107.61C240.029 107.626 240.181 107.612 240.325 107.568C240.469 107.525 240.603 107.453 240.719 107.357C240.836 107.261 240.932 107.143 241.003 107.009C241.074 106.876 241.118 106.729 241.132 106.578L243.821 84.0617C243.861 83.7465 243.779 83.4279 243.592 83.1721C243.369 82.9561 243.096 82.8001 242.798 82.7184L208.472 80.8858C208.145 80.8815 207.828 81.0059 207.59 81.2327C207.367 81.4739 207.244 81.7923 207.246 82.1223L210.077 108.98C210.095 109.274 210.219 109.552 210.425 109.761C210.631 109.971 210.905 110.098 211.197 110.119Z" fill="#2C3B47"/>
<path fill-rule="evenodd" clip-rule="evenodd" d="M153 165.5C182.526 165.5 206.5 141.344 206.5 111.5C206.5 81.6556 182.526 57.5 153 57.5C123.474 57.5 99.5 81.6556 99.5 111.5C99.5 141.344 123.474 165.5 153 165.5ZM153 168C183.928 168 209 142.704 209 111.5C209 80.2959 183.928 55 153 55C122.072 55 97 80.2959 97 111.5C97 142.704 122.072 168 153 168Z" fill="#2C3B47"/>
</g>
<g clip-path="url(#clip2_1365_8490)">
<rect x="284" y="78" width="158" height="157" rx="78.5" fill="white"/>
<path d="M412.602 247.116C412.602 247.116 403.723 187.945 398.914 177.654C394.106 167.363 393.23 158.296 378.63 156.482C364.03 154.669 345.334 160.934 345.334 160.934C345.334 160.934 337.003 164.316 334.548 169.013C332.094 173.71 328.097 182.305 328.27 186.621C328.444 190.937 330.716 210.567 336.428 210.268C342.14 209.969 342.989 208.989 342.989 208.989L335.835 236.481C335.835 236.481 389.981 256.156 412.602 247.116Z" fill="#FDF0C3"/>
<path d="M338.5 166C333 167 331.667 174.167 331 177.5L343.5 182L346 180L351 171.5C348.667 169.167 342.987 165.184 338.5 166Z" fill="#915A12"/>
<path d="M359.761 163.092C359.761 163.092 354.724 158.558 353.437 156.682C352.151 154.805 350.034 153.889 348.747 155.865C348.399 156.668 348.249 157.542 348.31 158.414C348.37 159.286 348.639 160.131 349.094 160.88C350.152 162.04 356.95 164.488 359.761 163.092Z" fill="#915A12"/>
<path d="M360.114 164.252C360.441 164.033 360.687 163.715 360.817 163.346C360.85 163.155 360.835 162.959 360.773 162.775C360.71 162.592 360.603 162.426 360.461 162.294C359.175 161.015 355.424 157.516 354.366 156.001C354 155.312 353.464 154.726 352.808 154.298C352.152 153.869 351.398 153.613 350.616 153.553C350.045 153.562 349.487 153.717 348.995 154.003C348.502 154.289 348.093 154.696 347.805 155.185C346.747 156.7 346.984 159.964 348.152 161.596C349.21 162.874 353.9 164.742 357.532 164.742C358.416 164.739 359.291 164.573 360.114 164.252ZM350.616 155.865C351.2 155.865 351.911 156.455 352.495 157.38C353.968 159.17 355.576 160.846 357.304 162.394C354.484 162.276 350.734 160.879 350.15 160.181C349.843 159.615 349.653 158.994 349.592 158.354C349.531 157.714 349.6 157.068 349.794 156.455C350.15 155.865 350.497 155.865 350.616 155.865Z" fill="#2C3B47"/>
<path d="M350.269 174.272C350.764 176.634 351.389 178.968 352.14 181.262L365.508 171.479C365.508 171.479 363.044 164.225 358.71 162.63C354.376 161.034 346.282 159.828 340.305 162.63C338.307 163.79 337.568 166.356 340.305 167.163C338.663 168.324 336.783 171.352 340.652 172.603C339.009 173.891 339.128 175.405 340.187 176.566C342.997 179.712 348.974 178.08 351.091 178.08" fill="#915A12"/>
<path d="M352.842 181.942L366.209 172.159C366.419 172.028 366.579 171.831 366.663 171.599C366.747 171.368 366.752 171.115 366.675 170.881C366.565 170.645 363.983 163.192 359.174 161.324C354.019 159.347 345.806 158.531 339.711 161.442C338.978 161.808 338.366 162.376 337.95 163.079C337.534 163.782 337.331 164.589 337.366 165.404C337.371 165.762 337.456 166.113 337.613 166.435C337.771 166.756 337.998 167.039 338.279 167.263C337.499 168.212 337.119 169.424 337.22 170.645C337.3 171.102 337.478 171.536 337.742 171.918C338.007 172.3 338.352 172.62 338.753 172.857C338.351 173.557 338.19 174.368 338.296 175.167C338.401 175.966 338.767 176.709 339.337 177.282C341.91 180.31 346.719 179.73 349.538 179.385C349.885 179.385 350.122 179.268 350.351 179.268C350.706 180.546 351.062 181.48 351.062 181.598C351.09 181.786 351.171 181.962 351.295 182.107C351.419 182.251 351.582 182.358 351.765 182.414H352.166C352.31 182.4 352.448 182.349 352.566 182.266C352.685 182.184 352.78 182.072 352.842 181.942ZM352.258 177.753C351.889 176.574 351.653 175.358 351.555 174.127C351.508 173.946 351.42 173.779 351.299 173.638C351.177 173.496 351.024 173.385 350.852 173.311C350.68 173.243 350.494 173.218 350.31 173.237C350.126 173.256 349.949 173.318 349.794 173.419C348.572 174.069 347.187 174.352 345.806 174.235C345.513 174.261 345.241 174.395 345.042 174.611C344.843 174.826 344.733 175.108 344.733 175.4C344.733 175.693 344.843 175.975 345.042 176.19C345.241 176.406 345.513 176.54 345.806 176.566C347.076 176.604 348.344 176.448 349.566 176.103C349.584 176.499 349.661 176.89 349.794 177.264H349.329C346.865 177.617 342.996 178.08 341.235 175.985C340.946 175.665 340.781 175.254 340.77 174.825C340.812 174.582 340.907 174.351 341.049 174.149C341.191 173.947 341.376 173.778 341.591 173.655C341.769 173.524 341.907 173.345 341.989 173.14C342.072 172.935 342.095 172.712 342.056 172.494C342.003 172.289 341.9 172.099 341.757 171.942C341.614 171.784 341.435 171.662 341.235 171.588C340.532 171.352 339.83 171.007 339.711 170.418C339.747 169.948 339.892 169.492 340.136 169.088C340.38 168.683 340.716 168.341 341.116 168.088C341.305 167.966 341.452 167.789 341.537 167.582C341.621 167.374 341.64 167.146 341.591 166.927C341.554 166.715 341.458 166.516 341.312 166.356C341.167 166.195 340.979 166.079 340.77 166.021C340.414 165.903 339.857 165.785 339.857 165.322C339.857 164.86 340.213 164.162 340.916 163.69C346.655 160.898 354.512 162.176 358.38 163.69C361.118 164.742 363.189 168.813 364.129 171.035L352.75 179.304C352.641 178.832 352.404 178.397 352.285 177.79L352.258 177.753Z" fill="#2C3B47"/>
<path d="M340.307 168.342C340.095 168.343 339.887 168.29 339.702 168.188C339.517 168.087 339.361 167.94 339.249 167.761C339.168 167.625 339.117 167.473 339.097 167.316C339.077 167.159 339.089 166.999 339.133 166.847C339.176 166.695 339.25 166.553 339.35 166.429C339.45 166.306 339.574 166.204 339.714 166.129C341.467 165.127 343.441 164.566 345.463 164.497C345.756 164.523 346.028 164.657 346.227 164.872C346.426 165.088 346.536 165.37 346.536 165.662C346.536 165.955 346.426 166.237 346.227 166.452C346.028 166.668 345.756 166.802 345.463 166.827C343.882 166.901 342.347 167.382 341.01 168.224C340.784 168.303 340.546 168.343 340.307 168.342Z" fill="#2C3B47"/>
<path d="M340.652 173.782C340.441 173.782 340.233 173.729 340.048 173.627C339.863 173.526 339.706 173.38 339.594 173.202C339.515 173.064 339.465 172.912 339.447 172.755C339.428 172.598 339.441 172.439 339.485 172.286C339.53 172.134 339.604 171.993 339.704 171.87C339.804 171.747 339.928 171.645 340.068 171.57C341.848 170.618 343.798 170.024 345.808 169.82C346.12 169.82 346.419 169.943 346.64 170.162C346.861 170.382 346.985 170.679 346.985 170.989C346.993 171.145 346.968 171.3 346.911 171.445C346.855 171.59 346.768 171.721 346.657 171.831C346.546 171.94 346.413 172.025 346.267 172.08C346.12 172.135 345.964 172.159 345.808 172.15C344.169 172.314 342.577 172.788 341.118 173.546C341.064 173.619 340.994 173.678 340.913 173.719C340.832 173.76 340.743 173.781 340.652 173.782Z" fill="#2C3B47"/>
<path d="M389.187 193.73L371.485 167.281L348.975 183.475L384.105 215.4C386.362 217.412 389.284 218.532 392.317 218.546C394.107 218.546 395.874 218.154 397.494 217.398C399.114 216.642 400.546 215.54 401.688 214.171C402.83 212.802 403.655 211.2 404.103 209.479C404.551 207.757 404.611 205.958 404.28 204.211C401.232 188.017 398.066 167.172 391.97 162.856" fill="#FDF0C3"/>
<path d="M392.473 219.706C389.135 219.682 385.924 218.44 383.448 216.216L348.272 184.291C348.045 184.043 347.921 183.719 347.926 183.384C347.961 183.035 348.127 182.711 348.391 182.477L370.902 166.284C371.164 166.091 371.491 166.006 371.814 166.048C371.976 166.067 372.132 166.119 372.273 166.2C372.415 166.281 372.538 166.39 372.635 166.519L390.337 192.959C390.422 193.089 390.48 193.235 390.508 193.387C390.535 193.54 390.533 193.696 390.5 193.848C390.467 194 390.404 194.143 390.315 194.271C390.226 194.398 390.113 194.507 389.982 194.591C389.85 194.675 389.704 194.732 389.55 194.76C389.397 194.788 389.239 194.785 389.087 194.752C388.934 194.719 388.79 194.657 388.661 194.568C388.533 194.48 388.424 194.368 388.339 194.237L371.34 168.85L351.064 183.529L385.2 214.348C386.304 215.33 387.596 216.081 388.999 216.556C390.402 217.031 391.886 217.22 393.364 217.111C394.842 217.003 396.283 216.6 397.6 215.925C398.918 215.251 400.085 214.32 401.032 213.187C402.057 211.951 402.798 210.507 403.203 208.957C403.608 207.406 403.667 205.787 403.377 204.211C403.021 202.352 402.674 200.367 402.318 198.39C399.745 184.526 396.579 167.172 391.651 163.554C391.403 163.369 391.239 163.094 391.196 162.789C391.152 162.483 391.232 162.173 391.419 161.927C391.605 161.68 391.882 161.518 392.189 161.474C392.497 161.431 392.809 161.511 393.057 161.696C398.687 165.767 401.734 182.196 404.663 197.964C405.019 199.94 405.366 201.917 405.722 203.785C406.078 205.723 406.004 207.715 405.505 209.622C405.005 211.529 404.093 213.305 402.831 214.824C401.569 216.344 399.988 217.572 398.199 218.422C396.41 219.271 394.455 219.722 392.473 219.743V219.706Z" fill="#2C3B47"/>
<path d="M337.249 205.843L349.111 183.593L325.077 175.904L317.202 204.61C316.749 206.259 316.685 207.99 317.014 209.668C317.343 211.345 318.057 212.925 319.1 214.285C320.144 215.644 321.488 216.746 323.029 217.506C324.57 218.265 326.267 218.661 327.987 218.664C330.741 218.62 333.395 217.63 335.497 215.862L342.131 209.923" fill="#FDF0C3"/>
<path d="M327.987 219.706C326.079 219.696 324.199 219.25 322.492 218.404C320.786 217.557 319.297 216.332 318.142 214.824C316.987 213.315 316.196 211.563 315.831 209.702C315.465 207.842 315.534 205.923 316.033 204.093L323.881 175.595C323.999 175.242 324.109 175.006 324.465 174.897C324.742 174.743 325.069 174.701 325.377 174.779L349.43 182.432C349.596 182.482 349.746 182.572 349.869 182.694C349.991 182.816 350.082 182.965 350.133 183.13C350.245 183.422 350.245 183.745 350.133 184.037L338.27 206.287C338.193 206.425 338.089 206.546 337.965 206.643C337.841 206.741 337.698 206.814 337.546 206.856C337.393 206.899 337.233 206.912 337.076 206.894C336.919 206.875 336.766 206.826 336.628 206.75C336.489 206.673 336.368 206.57 336.269 206.446C336.171 206.323 336.098 206.181 336.055 206.029C336.012 205.878 335.999 205.719 336.018 205.563C336.036 205.406 336.085 205.255 336.163 205.118L347.295 184.037L325.724 177.164L318.223 204.655C317.805 206.146 317.747 207.713 318.053 209.23C318.359 210.747 319.02 212.171 319.984 213.387C320.916 214.612 322.119 215.607 323.501 216.294C324.882 216.981 326.405 217.342 327.95 217.349C330.418 217.329 332.794 216.421 334.639 214.792L341.318 208.844C341.555 208.671 341.848 208.592 342.141 208.625C342.433 208.657 342.702 208.798 342.894 209.019C343.087 209.24 343.188 209.525 343.178 209.817C343.169 210.109 343.049 210.386 342.842 210.594L336.163 216.533C333.92 218.55 331.011 219.679 327.987 219.706Z" fill="#2C3B47"/>
<path d="M336.081 235.32C336.081 235.32 343.7 205.027 344.877 199.052L336.081 235.32Z" fill="white"/>
<path d="M336.082 236.48H335.845C335.696 236.446 335.557 236.382 335.434 236.292C335.312 236.202 335.209 236.088 335.132 235.958C335.055 235.827 335.006 235.682 334.987 235.532C334.969 235.382 334.981 235.229 335.023 235.084C335.142 234.74 342.643 204.8 343.82 198.816C343.883 198.507 344.066 198.236 344.331 198.061C344.595 197.887 344.918 197.824 345.229 197.887C345.54 197.949 345.814 198.132 345.989 198.395C346.164 198.657 346.228 198.979 346.165 199.288C344.988 205.344 337.724 234.35 337.368 235.628C337.259 235.878 337.08 236.092 336.852 236.243C336.624 236.394 336.356 236.477 336.082 236.48Z" fill="#2C3B47"/>
<path d="M330.106 178.164H329.868C329.72 178.13 329.579 178.067 329.456 177.977C329.333 177.888 329.23 177.774 329.152 177.643C329.075 177.512 329.026 177.367 329.008 177.216C328.99 177.065 329.003 176.913 329.047 176.767C329.166 176.423 331.511 166.748 337.606 164.074C337.883 163.97 338.189 163.976 338.461 164.09C338.733 164.205 338.95 164.419 339.067 164.689C339.185 164.958 339.193 165.262 339.091 165.538C338.989 165.813 338.784 166.039 338.519 166.168C333.482 168.381 331.219 177.239 331.219 177.348C331.121 177.568 330.966 177.759 330.771 177.902C330.576 178.046 330.347 178.136 330.106 178.164Z" fill="#2C3B47"/>
<path d="M344.055 181.843C344.055 181.843 346.4 178.588 347.568 178.47L344.055 181.843Z" fill="white"/>
<path d="M344.057 183.012C343.808 182.989 343.567 182.909 343.355 182.777C343.215 182.698 343.096 182.589 343.005 182.458C342.915 182.326 342.856 182.176 342.833 182.018C342.81 181.861 342.824 181.7 342.873 181.549C342.923 181.397 343.006 181.259 343.117 181.144C344.03 179.748 345.928 177.418 347.452 177.3C347.608 177.276 347.767 177.284 347.92 177.325C348.072 177.366 348.214 177.439 348.336 177.538C348.459 177.637 348.558 177.761 348.629 177.901C348.7 178.042 348.74 178.195 348.747 178.352C348.764 178.505 348.749 178.66 348.705 178.808C348.66 178.955 348.586 179.093 348.488 179.212C348.389 179.331 348.268 179.429 348.131 179.501C347.994 179.573 347.843 179.617 347.689 179.63C346.638 180.465 345.716 181.449 344.951 182.55C344.853 182.695 344.719 182.813 344.563 182.894C344.407 182.974 344.233 183.015 344.057 183.012Z" fill="#2C3B47"/>
<path d="M402.353 193.965C402.353 193.965 409.151 223.206 412.555 241.259L402.353 193.965Z" fill="white"/>
<path d="M412.138 242.501C411.862 242.507 411.593 242.414 411.38 242.239C411.168 242.064 411.025 241.819 410.979 241.549C407.859 223.56 401.626 194.455 401.508 194.101C401.451 193.791 401.52 193.471 401.701 193.212C401.881 192.952 402.158 192.775 402.47 192.718C402.783 192.662 403.105 192.731 403.366 192.91C403.627 193.09 403.805 193.365 403.862 193.675C403.971 194.02 410.249 223.243 413.334 241.232C413.372 241.533 413.301 241.838 413.134 242.092C412.967 242.346 412.714 242.533 412.421 242.619C412.385 242.58 412.342 242.549 412.293 242.529C412.244 242.509 412.191 242.499 412.138 242.501Z" fill="#2C3B47"/>
<path d="M344.866 116.225C344.866 116.225 335.504 115.844 335.504 120.758C335.504 124.049 342.129 125.926 344.301 127.531C346.472 129.136 345.341 141.349 351.017 147.27C353.854 150.18 359.722 152.157 365.488 151.033L365.963 150.933L367.286 157.706C367.286 157.706 373.062 160.617 377.414 158.549C377.789 153.943 378.637 139.001 378.637 139.001C378.637 139.001 384.787 141.44 386.211 135.891C387.634 130.342 382.141 127.341 377.998 130.07L379.604 114.556L346.755 113.994L344.866 116.225Z" fill="#915A12"/>
<path d="M377.935 130.26L377.36 115.318L346.619 114.094C346.619 114.094 335.168 99.9946 352.194 96.1411C357.304 95.2344 359.494 101.219 359.494 101.219C359.494 101.219 367.916 92.0066 379.359 96.3315C390.801 100.657 388.903 112.126 388.903 112.126C388.903 112.126 397.234 114.574 396.377 121.529C395.519 128.483 390.801 131.122 390.801 131.122C390.801 131.122 399.214 136.761 394.104 143.525C388.995 150.289 378.218 144.749 378.218 144.749L378.501 139.2C378.501 139.2 381.996 140.424 383.793 139.2C385.013 138.29 385.828 136.944 386.066 135.447C386.269 134.498 386.22 133.512 385.922 132.588C385.624 131.664 385.089 130.834 384.368 130.179C381.43 127.876 377.935 130.26 377.935 130.26Z" fill="#626262"/>
<path d="M362.205 152.411C364.64 152.397 367.05 151.92 369.304 151.006C369.417 150.959 369.519 150.891 369.605 150.805C369.692 150.72 369.76 150.618 369.806 150.506C369.853 150.394 369.877 150.274 369.877 150.153C369.877 150.032 369.853 149.912 369.806 149.8C369.759 149.688 369.691 149.586 369.605 149.501C369.518 149.415 369.416 149.347 369.303 149.301C369.191 149.254 369.07 149.231 368.948 149.231C368.826 149.231 368.705 149.255 368.592 149.301C362.205 152.021 354.969 150.054 351.849 146.762C348.536 143.29 347.688 137.46 347.022 133.162C346.547 129.87 346.173 127.722 345.041 126.815C344.155 126.184 343.204 125.65 342.204 125.219C339.932 124.095 336.729 122.499 336.729 120.803C336.718 120.465 336.78 120.128 336.911 119.816C337.041 119.503 337.238 119.222 337.486 118.99C339.311 117.294 343.545 117.104 345.06 117.177C345.302 117.177 345.534 117.081 345.705 116.911C345.876 116.741 345.972 116.51 345.972 116.27C345.972 116.029 345.876 115.799 345.705 115.629C345.534 115.459 345.302 115.363 345.06 115.363C344.768 115.363 338.809 115.082 336.072 117.721C335.631 118.106 335.283 118.585 335.053 119.121C334.822 119.658 334.715 120.239 334.74 120.822C334.74 123.732 338.335 125.518 341.273 126.933C342.16 127.334 343.014 127.804 343.828 128.338C344.394 128.719 344.74 131.348 345.06 133.416C345.717 137.949 346.757 144.133 350.452 147.986C352.861 150.625 357.406 152.411 362.205 152.411Z" fill="#2C3B47"/>
<path d="M359.578 122.055C358.791 122.055 358.154 121.421 358.154 120.64C358.154 119.859 358.791 119.226 359.578 119.226C360.364 119.226 361.001 119.859 361.001 120.64C361.001 121.421 360.364 122.055 359.578 122.055Z" fill="#2C3B47"/>
<path d="M353.62 121.583C352.834 121.583 352.197 120.95 352.197 120.169C352.197 119.387 352.834 118.754 353.62 118.754C354.407 118.754 355.044 119.387 355.044 120.169C355.044 120.95 354.407 121.583 353.62 121.583Z" fill="#2C3B47"/>
<path d="M373.765 160.399C375.165 160.39 376.549 160.103 377.835 159.556C377.969 159.477 378.082 159.367 378.164 159.237C378.247 159.106 378.296 158.957 378.31 158.803C378.592 155.04 379.222 144.042 379.441 140.47C381.046 140.895 382.748 140.764 384.268 140.098C384.984 139.721 385.604 139.186 386.078 138.534C386.553 137.881 386.87 137.129 387.005 136.335C387.662 133.515 386.905 130.976 384.733 129.471C383.625 128.731 382.316 128.345 380.981 128.362C379.646 128.38 378.348 128.802 377.26 129.571C377.155 129.639 377.064 129.727 376.993 129.83C376.921 129.932 376.871 130.048 376.845 130.17C376.819 130.292 376.817 130.418 376.839 130.541C376.862 130.664 376.909 130.781 376.977 130.886C377.046 130.991 377.134 131.081 377.238 131.152C377.341 131.223 377.457 131.273 377.58 131.299C377.703 131.325 377.83 131.327 377.954 131.304C378.077 131.281 378.195 131.235 378.3 131.167C379.074 130.627 379.992 130.329 380.937 130.313C381.882 130.297 382.81 130.563 383.602 131.076C384.318 131.646 384.845 132.417 385.114 133.289C385.382 134.161 385.38 135.093 385.108 135.963C385.024 136.499 384.815 137.007 384.498 137.448C384.181 137.889 383.765 138.25 383.283 138.502C381.394 139.409 378.839 138.402 378.72 138.402C378.581 138.349 378.431 138.33 378.283 138.347C378.136 138.365 377.994 138.418 377.872 138.502C377.626 138.687 377.457 138.955 377.397 139.255C377.397 139.436 376.64 153.163 376.257 158.241C373.136 159.465 369.167 157.96 367.935 157.398L366.767 151.114C366.751 150.982 366.709 150.854 366.641 150.739C366.574 150.624 366.483 150.525 366.374 150.446C366.266 150.368 366.142 150.313 366.011 150.285C365.88 150.256 365.745 150.256 365.614 150.282C365.482 150.308 365.358 150.362 365.248 150.439C365.139 150.515 365.047 150.614 364.977 150.728C364.908 150.842 364.864 150.969 364.847 151.101C364.829 151.233 364.84 151.367 364.878 151.495L366.201 158.259C366.277 158.528 366.445 158.762 366.676 158.921C367.05 158.803 370.271 160.399 373.765 160.399Z" fill="#2C3B47"/>
<path fill-rule="evenodd" clip-rule="evenodd" d="M363 232.5C405.265 232.5 439.5 198.459 439.5 156.5C439.5 114.541 405.265 80.5 363 80.5C320.735 80.5 286.5 114.541 286.5 156.5C286.5 198.459 320.735 232.5 363 232.5ZM363 235C406.63 235 442 199.854 442 156.5C442 113.146 406.63 78 363 78C319.37 78 284 113.146 284 156.5C284 199.854 319.37 235 363 235Z" fill="#2C3B47"/>
</g>
<path d="M411.354 108.45C414.036 108.544 416.687 107.849 418.979 106.453C422.61 104.184 424.698 100.008 425.061 94.0171C425.073 93.8979 425.061 93.7776 425.027 93.6629C424.992 93.5482 424.935 93.4414 424.859 93.3487C424.783 93.256 424.69 93.1791 424.584 93.1225C424.479 93.0658 424.363 93.0305 424.244 93.0186C424.125 93.0067 424.004 93.0184 423.89 93.053C423.775 93.0876 423.668 93.1444 423.576 93.2203C423.483 93.2962 423.406 93.3896 423.349 93.4951C423.293 93.6007 423.257 93.7164 423.245 93.8356C422.882 99.1913 421.158 102.913 417.981 104.91C412.171 108.541 403.547 105.183 403.456 105.092C403.228 105.007 402.975 105.018 402.754 105.12C402.532 105.222 402.361 105.408 402.276 105.636C402.192 105.865 402.202 106.118 402.304 106.339C402.406 106.561 402.592 106.732 402.821 106.816C405.533 107.908 408.431 108.463 411.354 108.45Z" fill="#2C3B47"/>
<path d="M414.44 66.5123C414.44 59.8857 419.069 54.5299 424.788 54.5299C430.507 54.5299 435.137 59.8857 435.137 66.5123C435.137 71.3233 432.686 75.499 429.146 77.4053H420.431C418.56 76.2797 417.02 74.6791 415.968 72.7659C414.916 70.8527 414.389 68.6951 414.44 66.5123Z" fill="#E9D519"/>
<path d="M429.147 77.3145V88.8429H420.342V77.3145H420.433H429.147Z" fill="white"/>
<path d="M419.434 88.843V77.4053C419.425 77.284 419.443 77.1624 419.486 77.0487C419.529 76.9349 419.596 76.8316 419.682 76.7456C419.768 76.6597 419.871 76.5931 419.985 76.5503C420.098 76.5075 420.22 76.4895 420.341 76.4976H429.146C429.268 76.4895 429.389 76.5075 429.503 76.5503C429.617 76.5931 429.72 76.6597 429.806 76.7456C429.892 76.8316 429.959 76.9349 430.001 77.0487C430.044 77.1624 430.062 77.284 430.054 77.4053V88.843C430.062 88.9643 430.044 89.0859 430.001 89.1996C429.959 89.3134 429.892 89.4167 429.806 89.5027C429.72 89.5886 429.617 89.6552 429.503 89.698C429.389 89.7408 429.268 89.7588 429.146 89.7507H420.341C420.106 89.7339 419.885 89.6328 419.718 89.4661C419.551 89.2994 419.45 89.0782 419.434 88.843ZM428.239 78.3131H421.249V87.9352H428.239V78.3131Z" fill="#2C3B47"/>
<path d="M426.149 78.2223C426.344 78.2073 426.531 78.1404 426.69 78.0286C426.85 77.9169 426.977 77.7643 427.057 77.5869L430.053 67.5108C430.09 67.37 430.093 67.2223 430.062 67.0801C430.03 66.9379 429.965 66.8054 429.871 66.6938C429.792 66.5759 429.683 66.4805 429.556 66.4169C429.429 66.3533 429.287 66.3236 429.145 66.3307H424.688C424.447 66.3307 424.216 66.4264 424.046 66.5966C423.876 66.7668 423.78 66.9977 423.78 67.2385C423.78 67.4792 423.876 67.7101 424.046 67.8803C424.216 68.0506 424.447 68.1462 424.688 68.1462H427.865L425.142 77.133C425.098 77.246 425.081 77.3673 425.091 77.488C425.1 77.6087 425.137 77.7256 425.198 77.8302C425.259 77.9348 425.343 78.0243 425.443 78.0922C425.543 78.1601 425.658 78.2045 425.777 78.2223H426.149Z" fill="#2C3B47"/>
<path d="M423.427 78.2223H423.699C423.916 78.143 424.097 77.9908 424.213 77.792C424.329 77.5932 424.372 77.3601 424.335 77.133L421.612 68.1462H424.789C425.029 68.1462 425.26 68.0506 425.431 67.8803C425.601 67.7101 425.696 67.4792 425.696 67.2385C425.696 66.9977 425.601 66.7668 425.431 66.5966C425.26 66.4264 425.029 66.3307 424.789 66.3307H420.341C420.199 66.3236 420.057 66.3533 419.93 66.4169C419.803 66.4805 419.694 66.5759 419.615 66.6938C419.469 66.9401 419.406 67.2261 419.433 67.5108L422.519 77.6776C422.604 77.8444 422.735 77.9839 422.895 78.0802C423.056 78.1765 423.24 78.2257 423.427 78.2223Z" fill="#2C3B47"/>
<path d="M424.79 50.8081C424.912 50.8162 425.033 50.7982 425.147 50.7554C425.261 50.7126 425.364 50.646 425.45 50.5601C425.536 50.4741 425.603 50.3708 425.646 50.257C425.688 50.1433 425.706 50.0217 425.698 49.9004V44.9078C425.698 44.667 425.603 44.4361 425.432 44.2659C425.262 44.0956 425.031 44 424.79 44C424.55 44 424.319 44.0956 424.149 44.2659C423.978 44.4361 423.883 44.667 423.883 44.9078V49.9004C423.875 50.0217 423.893 50.1433 423.935 50.257C423.978 50.3708 424.045 50.4741 424.131 50.5601C424.217 50.646 424.32 50.7126 424.434 50.7554C424.548 50.7982 424.669 50.8162 424.79 50.8081Z" fill="#2C3B47"/>
<path d="M414.258 55.1654C414.377 55.1686 414.495 55.1459 414.605 55.0989C414.715 55.0518 414.813 54.9816 414.893 54.893C415.059 54.7233 415.153 54.4952 415.153 54.2576C415.153 54.02 415.059 53.7919 414.893 53.6222L411.353 50.0819C411.178 49.9508 410.962 49.8872 410.744 49.9027C410.526 49.9182 410.321 50.0118 410.166 50.1663C410.012 50.3208 409.918 50.5258 409.903 50.7438C409.887 50.9618 409.951 51.178 410.082 51.3528L413.622 54.893C413.794 55.058 414.02 55.1548 414.258 55.1654Z" fill="#2C3B47"/>
<path d="M404.908 65.6953H409.9C410.141 65.6953 410.372 65.5997 410.542 65.4294C410.713 65.2592 410.808 65.0283 410.808 64.7875C410.808 64.5468 410.713 64.3159 410.542 64.1457C410.372 63.9754 410.141 63.8798 409.9 63.8798H404.908C404.667 63.8798 404.436 63.9754 404.266 64.1457C404.096 64.3159 404 64.5468 404 64.7875C404 65.0283 404.096 65.2592 404.266 65.4294C404.436 65.5997 404.667 65.6953 404.908 65.6953Z" fill="#2C3B47"/>
<path d="M439.585 65.6953H444.578C444.819 65.6953 445.05 65.5997 445.22 65.4294C445.39 65.2592 445.486 65.0283 445.486 64.7875C445.486 64.5468 445.39 64.3159 445.22 64.1457C445.05 63.9754 444.819 63.8798 444.578 63.8798H439.585C439.464 63.8718 439.342 63.8898 439.229 63.9325C439.115 63.9753 439.012 64.0419 438.926 64.1279C438.84 64.2138 438.773 64.3171 438.73 64.4309C438.688 64.5447 438.67 64.6663 438.678 64.7875C438.678 65.0283 438.773 65.2592 438.944 65.4294C439.114 65.5997 439.345 65.6953 439.585 65.6953Z" fill="#2C3B47"/>
<path d="M435.228 55.1654C435.347 55.1686 435.466 55.1459 435.575 55.0989C435.685 55.0518 435.783 54.9816 435.863 54.893L439.404 51.3528C439.535 51.178 439.598 50.9618 439.583 50.7438C439.567 50.5258 439.474 50.3208 439.319 50.1663C439.165 50.0118 438.96 49.9182 438.742 49.9027C438.524 49.8872 438.308 49.9508 438.133 50.0819L434.592 53.6222C434.426 53.7919 434.333 54.02 434.333 54.2576C434.333 54.4952 434.426 54.7233 434.592 54.893C434.764 55.058 434.99 55.1548 435.228 55.1654Z" fill="#2C3B47"/>
<path fill-rule="evenodd" clip-rule="evenodd" d="M279.654 243.232C279.654 243.922 280.214 244.482 280.904 244.482C290.062 244.482 302.931 240.331 310.738 224.187C311.039 223.565 310.778 222.818 310.157 222.517C309.535 222.217 308.788 222.477 308.487 223.098C301.165 238.242 289.266 241.982 280.904 241.982C280.214 241.982 279.654 242.541 279.654 243.232Z" fill="#2C3B47"/>
<path fill-rule="evenodd" clip-rule="evenodd" d="M203.545 160.768C203.315 161.419 203.657 162.133 204.308 162.362C216.041 166.503 225.87 171.558 233.116 179.446C240.339 187.309 245.102 198.104 246.476 213.932C246.535 214.619 247.141 215.128 247.829 215.069C248.517 215.009 249.026 214.403 248.966 213.715C247.556 197.464 242.631 186.108 234.957 177.754C227.306 169.426 217.028 164.201 205.14 160.005C204.489 159.775 203.775 160.117 203.545 160.768Z" fill="#2C3B47"/>
<path fill-rule="evenodd" clip-rule="evenodd" d="M388.441 291.154C388.732 291.78 388.461 292.523 387.835 292.814C366.428 302.762 330.372 305.218 288.371 268.981C287.849 268.53 287.791 267.741 288.242 267.218C288.692 266.696 289.482 266.638 290.004 267.088C331.316 302.73 366.33 300.051 386.781 290.547C387.407 290.256 388.151 290.528 388.441 291.154Z" fill="#2C3B47"/>
<g clip-path="url(#clip3_1365_8490)">
<rect x="399" y="246" width="86" height="87" rx="43" fill="white"/>
<path d="M450.452 301.066C450.452 301.066 449.821 310.82 449.371 313.463C446.037 315.833 439.549 314.921 439.549 314.921L438.198 308.723L437.387 308.905C426.034 310.728 423.871 304.348 422.79 300.246C421.619 295.779 423.06 291.495 419.726 290.584C413.059 288.852 413.78 286.209 413.78 286.209C413.78 282.562 419.726 282.562 419.726 282.562L420.988 278.916L452.885 279.281L450.452 301.066Z" fill="#F8E1B8"/>
<path d="M449.74 310.455C449.74 310.455 461.183 310.911 467.22 319.752C473.257 328.594 505.965 385.746 505.965 385.746L481.907 401.762L473.527 379.885L415.68 377.698L420.095 352.995L420.546 350.625L410.635 354.272C407.386 355.468 403.861 355.674 400.498 354.864C397.135 354.054 394.08 352.263 391.713 349.714L356.302 311.248L379.458 296.937L404.958 330.572C404.958 330.572 416.041 321.73 424.33 317.446C428.899 314.946 433.778 313.076 438.837 311.886L439.999 314.5H444.499L448.999 313.5L449.74 310.455Z" fill="#E0F5E3"/>
<path d="M455.956 275.544C455.956 275.544 456.317 264.697 466.048 267.158C469.021 267.887 470.553 271.624 470.914 275.088C472.085 284.568 469.472 300.884 477.311 304.165C472.445 304.895 460.011 300.793 457.849 291.313C456.575 286.156 455.94 280.859 455.956 275.544Z" fill="#5AB467"/>
<path d="M424.42 277.795C424.294 277.796 424.169 277.77 424.053 277.718C423.938 277.667 423.834 277.591 423.749 277.497C423.664 277.402 423.6 277.291 423.56 277.169C423.52 277.048 423.507 276.92 423.519 276.793L423.88 270.777C423.88 270.685 424.961 260.841 440.369 260.841C440.608 260.841 440.837 260.937 441.006 261.108C441.175 261.279 441.27 261.511 441.27 261.752C441.27 261.994 441.175 262.226 441.006 262.397C440.837 262.568 440.608 262.664 440.369 262.664C426.583 262.664 425.682 270.868 425.682 270.959L425.321 276.975C425.319 277.09 425.294 277.203 425.247 277.308C425.199 277.412 425.131 277.506 425.047 277.583C424.962 277.66 424.863 277.719 424.755 277.755C424.648 277.792 424.533 277.805 424.42 277.795Z" fill="#2C3B47"/>
<path d="M433.702 309.999C431.415 310.059 429.15 309.526 427.125 308.45C423.881 306.535 422.619 303.254 421.899 300.337C421.574 298.836 421.363 297.313 421.268 295.779C421.088 293.045 420.907 291.678 419.376 291.222C416.132 290.401 414.059 289.217 413.158 287.667C412.815 287.127 412.686 286.476 412.798 285.844C412.793 285.366 412.887 284.892 413.073 284.453C413.259 284.013 413.534 283.618 413.879 283.292C415.771 281.377 419.466 281.377 419.646 281.377C419.885 281.377 420.114 281.473 420.283 281.644C420.452 281.815 420.547 282.047 420.547 282.289C420.547 282.531 420.452 282.763 420.283 282.934C420.114 283.104 419.885 283.2 419.646 283.2C418.745 283.2 416.222 283.474 415.141 284.568C414.801 284.904 414.607 285.363 414.6 285.844V286.117C414.51 286.573 415.321 288.214 419.916 289.399C422.8 290.219 422.89 292.863 423.07 295.597C423.128 297.008 423.309 298.411 423.61 299.79C424.331 302.434 425.322 305.168 428.026 306.718C430.999 308.45 435.414 308.45 441.361 306.809C441.57 306.794 441.778 306.854 441.948 306.977C442.119 307.101 442.241 307.281 442.295 307.486C442.348 307.691 442.329 307.909 442.241 308.101C442.153 308.294 442.001 308.449 441.812 308.541C439.203 309.464 436.465 309.957 433.702 309.999Z" fill="#2C3B47"/>
<path d="M442.621 315.924C441.567 315.918 440.515 315.857 439.467 315.742C439.293 315.698 439.133 315.608 439.006 315.479C438.879 315.35 438.789 315.189 438.746 315.012L437.395 308.814C437.371 308.694 437.371 308.571 437.394 308.451C437.418 308.332 437.464 308.218 437.531 308.116C437.598 308.015 437.684 307.927 437.785 307.859C437.885 307.791 437.997 307.744 438.116 307.72C438.234 307.696 438.356 307.696 438.474 307.72C438.593 307.744 438.705 307.791 438.806 307.858C438.906 307.926 438.992 308.013 439.059 308.115C439.126 308.216 439.173 308.33 439.197 308.449L440.458 314.01C441.99 314.192 446.225 314.374 448.748 312.916C449.108 309.908 449.739 301.157 449.739 301.066C449.763 300.824 449.881 300.602 450.067 300.448C450.253 300.294 450.491 300.222 450.73 300.246C450.969 300.27 451.189 300.389 451.341 300.577C451.493 300.765 451.565 301.007 451.541 301.248C451.541 301.613 450.82 311.093 450.46 313.645C450.447 313.771 450.408 313.893 450.346 314.003C450.284 314.112 450.2 314.208 450.099 314.283C447.937 315.559 444.873 315.924 442.621 315.924Z" fill="#2C3B47"/>
<path d="M429.467 288.305C430.213 288.305 430.818 287.693 430.818 286.938C430.818 286.183 430.213 285.57 429.467 285.57C428.72 285.57 428.115 286.183 428.115 286.938C428.115 287.693 428.72 288.305 429.467 288.305Z" fill="#2C3B47"/>
<path d="M435.053 288.943C435.799 288.943 436.404 288.331 436.404 287.576C436.404 286.821 435.799 286.209 435.053 286.209C434.306 286.209 433.701 286.821 433.701 287.576C433.701 288.331 434.306 288.943 435.053 288.943Z" fill="#2C3B47"/>
<path d="M419.916 279.919L450.822 280.83L451.543 292.862H455.777C455.777 292.862 459.832 273.356 450.822 268.525C443.523 264.605 435.684 264.697 430.008 267.34C422.709 270.621 419.916 279.919 419.916 279.919Z" fill="#5AB467"/>
<path d="M456.408 290.128C456.169 290.128 455.94 290.032 455.771 289.861C455.602 289.69 455.507 289.458 455.507 289.217L455.057 270.895C455.057 270.622 454.066 262.691 440.37 262.691C440.131 262.691 439.902 262.595 439.733 262.424C439.564 262.253 439.469 262.022 439.469 261.78C439.469 261.538 439.564 261.306 439.733 261.135C439.902 260.964 440.131 260.868 440.37 260.868C455.778 260.868 456.859 270.713 456.859 270.804L457.309 289.217C457.309 289.458 457.214 289.69 457.045 289.861C456.876 290.032 456.647 290.128 456.408 290.128Z" fill="#2C3B47"/>
<path d="M461.363 293.501C461.363 298.332 460.012 302.251 456.047 302.251C452.082 302.251 448.929 301.522 448.929 293.501C448.929 285.479 452.082 284.75 456.047 284.75C460.012 284.75 461.363 288.67 461.363 293.501Z" fill="white"/>
<path d="M456.137 303.163C451.182 303.163 448.118 301.522 448.118 293.501C448.118 285.479 451.182 283.839 456.137 283.839C458.48 283.839 462.355 285.115 462.355 293.501C462.355 301.887 458.39 303.163 456.137 303.163ZM456.137 285.662C452.533 285.662 449.92 286.208 449.92 293.501C449.92 300.793 452.443 301.34 456.137 301.34C459.832 301.34 460.553 297.056 460.553 293.501C460.553 289.946 459.742 285.662 456.137 285.662Z" fill="#2C3B47"/>
<path d="M455.236 303.072H454.957C454.417 302.889 451.533 301.613 451.533 293.227C451.533 284.568 454.507 284.112 455.137 284.021C455.376 284.021 455.606 284.117 455.774 284.288C455.943 284.459 456.038 284.691 456.038 284.932C456.04 285.159 455.957 285.378 455.807 285.547C455.657 285.715 455.45 285.821 455.227 285.844C455.137 285.844 453.335 286.664 453.335 293.227C453.335 300.337 455.408 301.34 455.498 301.34C455.712 301.419 455.893 301.572 456.008 301.772C456.123 301.971 456.166 302.205 456.128 302.433C456.049 302.61 455.925 302.763 455.768 302.875C455.611 302.987 455.428 303.055 455.236 303.072Z" fill="#2C3B47"/>
<path d="M404.687 356.304C402.155 356.298 399.65 355.769 397.326 354.75C395.002 353.731 392.908 352.244 391.172 350.379L355.761 311.913C355.581 311.715 355.484 311.453 355.491 311.184C355.492 311.044 355.536 310.907 355.616 310.793C355.697 310.679 355.81 310.593 355.941 310.546L379.098 296.235C379.282 296.117 379.502 296.071 379.717 296.104C379.933 296.138 380.129 296.249 380.269 296.417L405.138 329.323C407.751 327.318 416.942 320.299 423.97 316.653C428.631 314.126 433.599 312.227 438.747 311.002C438.986 310.953 439.234 311.003 439.437 311.14C439.639 311.277 439.78 311.489 439.828 311.731C439.876 311.973 439.827 312.224 439.692 312.429C439.556 312.634 439.346 312.776 439.107 312.825C434.133 313.969 429.342 315.81 424.871 318.294C416.761 322.578 405.769 331.237 405.588 331.329C405.408 331.467 405.183 331.532 404.958 331.511C404.833 331.498 404.713 331.458 404.604 331.396C404.496 331.333 404.401 331.248 404.327 331.146L379.368 298.149L357.833 311.457L392.523 349.103C394.757 351.534 397.648 353.245 400.837 354.023C404.026 354.801 407.371 354.612 410.454 353.478L420.366 349.832C420.593 349.748 420.844 349.758 421.063 349.86C421.283 349.963 421.453 350.15 421.537 350.379C421.621 350.609 421.611 350.863 421.509 351.085C421.408 351.307 421.223 351.48 420.996 351.564L411.085 355.21C409.026 355.927 406.865 356.297 404.687 356.304Z" fill="#2C3B47"/>
<path d="M422.519 341.264H422.339C422.219 341.242 422.105 341.197 422.004 341.129C421.902 341.062 421.815 340.975 421.748 340.872C421.681 340.77 421.634 340.655 421.612 340.535C421.59 340.414 421.592 340.29 421.618 340.17L423.06 332.24C423.083 332.12 423.13 332.006 423.197 331.905C423.264 331.804 423.35 331.717 423.451 331.649C423.551 331.581 423.664 331.534 423.782 331.51C423.901 331.487 424.022 331.487 424.141 331.511C424.259 331.535 424.372 331.582 424.472 331.65C424.572 331.718 424.658 331.805 424.725 331.907C424.792 332.008 424.839 332.122 424.862 332.242C424.885 332.362 424.885 332.485 424.862 332.605L423.42 340.535C423.37 340.74 423.255 340.923 423.092 341.054C422.929 341.186 422.728 341.26 422.519 341.264Z" fill="#2C3B47"/>
<path d="M481.988 402.792H481.718C481.59 402.752 481.474 402.682 481.38 402.587C481.286 402.491 481.216 402.374 481.177 402.245L460.544 348.556C460.502 348.442 460.483 348.322 460.488 348.201C460.493 348.079 460.521 347.96 460.571 347.85C460.622 347.74 460.693 347.641 460.781 347.559C460.869 347.477 460.972 347.413 461.084 347.371C461.197 347.329 461.316 347.31 461.436 347.315C461.556 347.32 461.673 347.348 461.782 347.399C461.891 347.45 461.988 347.522 462.07 347.611C462.151 347.7 462.214 347.804 462.256 347.918L482.439 400.513L504.875 385.564C501 378.819 472.167 328.594 466.581 320.39C460.904 312.004 449.911 311.457 449.731 311.457C449.492 311.457 449.263 311.361 449.094 311.19C448.925 311.019 448.83 310.788 448.83 310.546C448.83 310.304 448.925 310.072 449.094 309.901C449.263 309.73 449.492 309.634 449.731 309.634C450.182 309.634 461.715 310.181 467.932 319.388C473.879 328.229 506.407 384.835 506.767 385.473C506.874 385.669 506.906 385.899 506.856 386.117C506.806 386.336 506.678 386.528 506.497 386.658L482.448 402.673C482.314 402.767 482.151 402.809 481.988 402.792Z" fill="#2C3B47"/>
<path fill-rule="evenodd" clip-rule="evenodd" d="M442 330.5C464.34 330.5 482.5 312.171 482.5 289.5C482.5 266.829 464.34 248.5 442 248.5C419.66 248.5 401.5 266.829 401.5 289.5C401.5 312.171 419.66 330.5 442 330.5ZM442 333C465.748 333 485 313.524 485 289.5C485 265.476 465.748 246 442 246C418.252 246 399 265.476 399 289.5C399 313.524 418.252 333 442 333Z" fill="#2C3B47"/>
</g>
<path d="M146.975 290.819L144.474 273.803C144.474 273.803 134.174 272.791 139.598 263.236C145.022 253.681 145.528 262.055 145.528 262.055L146.652 247.329L185.351 242.018C185.351 242.018 182.948 245.25 189.974 245.25C197 245.25 198.32 250.238 194.189 253.357C190.058 256.477 187.309 258.028 187 264C186.691 269.972 188.5 281 178.5 282.515H160.901L163.711 289.751C163.711 289.751 158.779 297.086 146.975 290.819Z" fill="#CB8529"/>
<path d="M44.8181 424.325H304.775V665.889H44.8181V424.325Z" fill="white"/>
<path d="M306.18 665.847V424.325C306.18 423.819 305.618 423.468 304.775 423.468H44.8172C43.9741 423.468 43.412 423.819 43.412 424.325V665.847C43.412 666.352 43.9741 666.704 44.8172 666.704H304.634C304.948 666.734 305.264 666.668 305.54 666.515C305.816 666.362 306.039 666.129 306.18 665.847ZM46.2224 425.14H303.369V665.032H46.2224V425.14Z" fill="#2C3B47"/>
<path d="M164.469 291.578H173.462C178.451 291.571 183.389 292.575 187.978 294.532C192.567 296.488 196.712 299.355 200.16 302.96L223.486 327.41L233.182 292.562L265.642 295.513L249.342 348.769L145.921 414.531C137.209 403.43 132.431 366.052 132.431 366.052L132.009 369.144L125.265 412.564L84.093 406.1L114.585 317.363C116.641 311.245 120.312 305.795 125.209 301.59C130.106 297.386 136.049 294.582 142.408 293.475L147.888 292.492L164.469 291.578Z" fill="white"/>
<path d="M63.9287 417.847C55.9192 417.707 57.0434 414.896 57.0434 414.896C57.0434 414.896 57.1839 412.367 62.5236 412.086C67.8632 411.805 81.915 416.723 81.915 416.723C76.2943 421.22 63.9287 417.988 63.9287 417.847Z" fill="#CB8529"/>
<path d="M82.6173 417.847C82.8353 417.691 83.004 417.476 83.1036 417.227C83.2032 416.978 83.2294 416.705 83.1793 416.442C83.119 416.189 82.9979 415.954 82.8265 415.758C82.6551 415.562 82.4386 415.411 82.1956 415.318C81.6336 415.177 67.8629 410.4 62.3827 410.681C56.9025 410.962 55.7784 413.772 55.6379 414.615C55.5466 414.999 55.537 415.397 55.6096 415.784C55.6822 416.172 55.8355 416.539 56.0594 416.864C57.043 418.409 59.5724 419.252 63.7879 419.393C66.7735 420.147 69.842 420.525 72.9215 420.517C76.4345 420.517 80.2285 419.941 82.6173 417.847ZM58.4482 415.318C58.4482 415.318 58.8698 413.772 62.6638 413.632C66.0362 413.491 73.4836 415.599 78.4017 417.145C72.781 418.831 64.4905 416.723 64.35 416.723H64.0689C59.5724 416.582 58.5888 415.599 58.4482 415.458V415.318Z" fill="#2C3B47"/>
<path d="M258.686 259.484C255.735 257.657 257.702 244.73 257.842 242.762C257.983 240.795 260.793 237.844 263.182 239.952C265.571 242.06 267.538 259.624 267.538 259.624C265.571 261.451 261.566 261.592 258.686 259.484Z" fill="white"/>
<path d="M268.523 260.749C268.787 260.379 268.934 259.938 268.944 259.484C268.382 255.268 266.696 241.217 264.026 238.968C263.459 238.421 262.737 238.06 261.958 237.934C261.18 237.809 260.381 237.924 259.67 238.266C258.763 238.653 257.974 239.273 257.382 240.062C256.79 240.852 256.416 241.783 256.298 242.762C256.305 243.328 256.258 243.892 256.157 244.449C255.174 253.161 255.174 259.203 257.843 260.889C259.506 261.87 261.394 262.402 263.324 262.435C265.198 262.481 267.032 261.886 268.523 260.749ZM262.2 241.217C263.324 242.341 265.01 251.334 265.993 259.203C264.931 259.66 263.773 259.848 262.621 259.75C261.469 259.652 260.359 259.271 259.389 258.641C258.687 258.219 257.843 255.83 258.968 244.87C258.968 244.027 259.108 243.324 259.108 243.043C259.235 242.598 259.449 242.181 259.739 241.82C260.028 241.458 260.387 241.157 260.794 240.936C260.959 240.824 261.158 240.774 261.356 240.795C261.518 240.805 261.676 240.848 261.821 240.92C261.966 240.993 262.094 241.093 262.2 241.217Z" fill="#2C3B47"/>
<path d="M264.868 226.041H230.722L223.697 282.81H257.842L264.868 226.041Z" fill="#E5E5E5"/>
<path d="M238.591 235.736C237.582 235.736 236.765 234.919 236.765 233.91C236.765 232.901 237.582 232.083 238.591 232.083C239.6 232.083 240.418 232.901 240.418 233.91C240.418 234.919 239.6 235.736 238.591 235.736Z" fill="#2C3B47"/>
<path d="M318.827 498.631L322.34 513.947C322.34 513.947 368.289 525.189 369.554 530.388C370.818 535.587 363.793 535.727 363.793 535.727H284.4L284.119 499.755L318.827 498.631Z" fill="white"/>
<path d="M370.396 534.336C370.836 533.711 371.127 532.994 371.249 532.239C371.371 531.484 371.319 530.712 371.099 529.98C369.834 524.781 338.218 516.35 323.744 512.837L320.513 498.364C320.447 498.041 320.27 497.753 320.014 497.547C319.757 497.342 319.436 497.233 319.107 497.24L284.259 498.364C283.886 498.364 283.529 498.512 283.265 498.775C283.002 499.039 282.854 499.396 282.854 499.769L283.135 535.741C283.135 536.114 283.283 536.471 283.546 536.735C283.81 536.998 284.167 537.147 284.54 537.147H363.932C364.354 537.147 368.359 537.006 370.396 534.336ZM285.664 501.033L317.983 500.05L321.215 514.242C321.227 514.513 321.331 514.773 321.51 514.977C321.688 515.181 321.931 515.319 322.199 515.366C343.838 520.706 367.024 528.013 368.429 530.823C368.551 531.148 368.59 531.499 368.541 531.843C368.492 532.187 368.356 532.513 368.148 532.79C366.992 533.826 365.484 534.379 363.932 534.336H285.945L285.664 501.033Z" fill="#2C3B47"/>
<path d="M225.244 370.352L315.737 379.907L335.55 503.001L269.085 510.729L275.83 417.566L203.323 428.526L225.244 370.352Z" fill="#DA7AB1"/>
<path d="M353.817 404.217L367.447 412.086C367.447 412.086 406.652 385.809 411.429 388.339C416.207 390.868 411.429 396.207 411.429 396.207L357.892 454.803L331.053 430.775L353.817 404.217Z" fill="white"/>
<path d="M359.015 455.646L412.552 397.051C412.833 396.77 415.503 393.678 414.941 390.587C414.764 389.829 414.419 389.12 413.933 388.513C413.447 387.905 412.831 387.413 412.131 387.074C407.353 384.404 379.812 402.109 367.446 410.4L354.519 402.952C354.38 402.851 354.223 402.778 354.056 402.737C353.89 402.696 353.717 402.688 353.547 402.714C353.377 402.741 353.214 402.8 353.068 402.889C352.921 402.978 352.793 403.095 352.692 403.233L329.928 429.791C329.71 430.081 329.605 430.44 329.631 430.801C329.656 431.162 329.812 431.502 330.068 431.758L356.767 455.787C357.033 456.042 357.382 456.192 357.75 456.208C357.989 456.208 358.224 456.157 358.442 456.061C358.66 455.964 358.855 455.823 359.015 455.646ZM354.097 405.903L366.744 413.21C366.978 413.349 367.244 413.422 367.516 413.422C367.788 413.422 368.055 413.349 368.289 413.21C386.838 400.704 407.775 388.479 410.866 389.463C411.99 390.025 412.131 390.727 412.131 391.008C412.128 392.577 411.525 394.086 410.445 395.224L357.75 452.836L333.019 430.634L354.097 405.903Z" fill="#2C3B47"/>
<path d="M125.264 413.491C125.421 413.375 125.552 413.228 125.649 413.058C125.746 412.889 125.806 412.701 125.826 412.507L135.944 346.605C135.907 346.301 135.772 346.018 135.56 345.798C135.348 345.579 135.07 345.434 134.768 345.386C134.466 345.338 134.157 345.391 133.887 345.534C133.618 345.678 133.402 345.906 133.274 346.183L123.297 410.681L85.2169 404.779L115.147 317.518C117.184 311.661 120.744 306.452 125.461 302.426C130.178 298.401 135.882 295.704 141.986 294.613L147.466 293.63C147.839 293.555 148.167 293.336 148.377 293.019C148.588 292.703 148.665 292.316 148.59 291.943C148.516 291.571 148.296 291.243 147.98 291.032C147.664 290.821 147.277 290.745 146.904 290.819L141.424 291.803C134.821 292.942 128.648 295.841 123.554 300.193C118.46 304.545 114.633 310.19 112.477 316.534L81.985 405.341C81.9069 405.524 81.8786 405.725 81.9033 405.922C81.928 406.12 82.0047 406.307 82.1255 406.465C82.4066 406.887 82.6876 407.168 83.1092 407.168L124.281 413.632H124.562C124.799 413.599 125.033 413.552 125.264 413.491Z" fill="#2C3B47"/>
<path d="M92.0315 406.887C89.3026 410.729 85.8695 414.019 81.9143 416.582C64.7711 414.334 56.3401 421.782 56.3401 421.782C56.3401 421.782 52.5461 424.732 52.9676 426.84C53.6702 430.072 57.0426 430.072 59.0099 428.807C58.589 429.386 58.3143 430.059 58.2092 430.767C58.1042 431.475 58.1718 432.198 58.4064 432.874C58.641 433.55 59.0357 434.16 59.5567 434.651C60.0777 435.141 60.7096 435.499 61.3987 435.693C64.6306 436.395 66.8789 432.18 66.8789 432.18C66.8789 432.18 64.7711 438.503 68.9866 439.065C73.2022 439.627 73.9048 435.412 73.9048 435.412C74.7838 432.655 76.6305 430.309 79.1039 428.807C83.1789 426.419 100.744 427.121 100.744 427.121C98.3548 430.634 86.1298 436.676 90.7669 439.908C94.4203 442.297 102.992 436.957 102.992 436.957C108.613 434.428 111.704 425.295 111.704 425.295L116.622 410.962C116.622 410.962 96.3876 407.73 92.0315 406.887Z" fill="#CB8529"/>
<path d="M103.553 438.082C109.736 435.271 112.828 425.997 112.968 425.576L117.886 411.243C117.964 411.06 117.993 410.859 117.968 410.662C117.943 410.464 117.867 410.277 117.746 410.119C117.465 409.697 117.184 409.416 116.762 409.416L92.1715 405.622C91.8922 405.558 91.5993 405.593 91.343 405.722C91.0867 405.85 90.8829 406.063 90.7663 406.325C89.6422 408.573 85.0051 412.929 81.6327 415.177C64.349 413.069 55.7774 420.376 55.4964 420.657C54.7938 421.22 50.9999 424.311 51.7025 427.121C51.8228 427.864 52.1312 428.565 52.5985 429.155C53.0659 429.745 53.6765 430.206 54.3723 430.494C55.1688 430.837 56.0368 430.982 56.9016 430.915C56.8559 431.676 56.9512 432.438 57.1826 433.164C57.4739 434.095 58.0028 434.935 58.7174 435.601C59.4319 436.266 60.3074 436.733 61.2576 436.957C61.9249 437.135 62.6231 437.164 63.3029 437.043C63.9827 436.922 64.6276 436.653 65.1921 436.255C65.2758 437.043 65.5146 437.807 65.8947 438.503C66.2117 439.057 66.6588 439.526 67.1974 439.869C67.736 440.211 68.3499 440.418 68.9861 440.47C70.4748 440.681 71.9864 440.298 73.1955 439.404C74.4045 438.51 75.2141 437.178 75.4499 435.693C76.181 433.28 77.7839 431.227 79.9465 429.932C82.3353 428.667 91.0474 428.245 97.6517 428.386C96.9491 428.948 96.106 429.651 95.2629 430.213C91.6094 432.882 88.237 435.552 88.3775 438.222C88.3718 438.801 88.5263 439.369 88.8239 439.865C89.1215 440.361 89.5507 440.765 90.0637 441.033C91.0427 441.606 92.1612 441.898 93.2956 441.876C97.5111 441.876 102.71 438.784 103.553 438.082ZM78.5413 427.402C75.7637 429.149 73.716 431.846 72.7801 434.99C72.7267 435.379 72.5969 435.753 72.398 436.09C72.1992 436.428 71.9353 436.723 71.6217 436.959C71.308 437.194 70.9509 437.365 70.5709 437.461C70.1908 437.557 69.7954 437.577 69.4076 437.52C69.1852 437.552 68.9581 437.516 68.757 437.416C68.5559 437.315 68.3906 437.155 68.2835 436.957C67.8394 435.531 67.8889 433.996 68.424 432.601C68.4966 432.446 68.536 432.276 68.5395 432.105C68.5431 431.933 68.5108 431.762 68.4447 431.603C68.3786 431.445 68.2802 431.302 68.1556 431.183C68.0311 431.065 67.8832 430.973 67.7214 430.915C67.4022 430.761 67.0366 430.734 66.6978 430.838C66.3591 430.942 66.0722 431.17 65.8947 431.477C65.8947 431.618 64.068 434.709 61.9602 434.288C61.4965 434.192 61.0678 433.972 60.7209 433.65C60.374 433.328 60.1222 432.916 59.993 432.461C59.7845 432.034 59.7004 431.558 59.7501 431.086C59.7998 430.614 59.9813 430.165 60.274 429.791C60.4791 429.531 60.5907 429.209 60.5907 428.878C60.5907 428.546 60.4791 428.225 60.274 427.964C60.055 427.705 59.7492 427.533 59.4134 427.481C59.0775 427.43 58.7343 427.501 58.4473 427.683C57.5261 428.117 56.4828 428.216 55.4964 427.964C55.2087 427.839 54.956 427.646 54.7601 427.401C54.5642 427.156 54.431 426.867 54.3723 426.559C54.2317 425.997 55.4964 424.17 57.1826 422.906C57.1826 422.906 65.3327 416.02 81.6327 418.128C81.7967 418.18 81.9702 418.194 82.1404 418.169C82.3106 418.145 82.4732 418.083 82.6163 417.988C86.432 415.413 89.8019 412.233 92.593 408.573L114.654 412.086L110.298 424.873C110.298 425.014 107.488 433.445 102.429 435.693C102.429 435.73 102.414 435.766 102.388 435.792C102.362 435.819 102.326 435.833 102.289 435.833C99.7594 437.379 93.7172 440.189 91.6094 438.784C91.3284 438.503 91.1879 438.363 91.1879 438.222C91.1879 436.957 94.8413 434.147 96.9491 432.461C98.8184 431.128 100.517 429.57 102.008 427.824C102.165 427.628 102.262 427.392 102.287 427.142C102.312 426.893 102.264 426.641 102.148 426.419C102.015 426.203 101.829 426.025 101.608 425.902C101.386 425.779 101.137 425.715 100.884 425.716C100.181 425.716 98.0732 425.576 95.2629 425.576C89.6422 425.562 81.3516 425.857 78.5413 427.402Z" fill="#2C3B47"/>
<path d="M68.2839 432.742C68.9865 431.056 71.3752 426.419 74.4666 425.295C74.8206 425.164 75.1084 424.898 75.2665 424.556C75.4246 424.213 75.4402 423.822 75.3097 423.468C75.1793 423.114 74.9135 422.826 74.571 422.668C74.2284 422.51 73.8371 422.494 73.483 422.625C68.7054 424.452 65.8951 431.337 65.7546 431.618C65.6669 431.782 65.6155 431.962 65.604 432.148C65.5924 432.333 65.621 432.519 65.6877 432.692C65.7543 432.865 65.8576 433.022 65.9903 433.152C66.1231 433.282 66.2824 433.382 66.4572 433.445C66.622 433.556 66.8211 433.606 67.0192 433.585C67.2886 433.581 67.5511 433.499 67.7754 433.349C67.9996 433.2 68.1761 432.989 68.2839 432.742Z" fill="#2C3B47"/>
<path d="M60.2749 429.51C62.0172 427.319 64.2251 425.543 66.7387 424.311C67.0128 424.126 67.2132 423.851 67.3046 423.534C67.396 423.216 67.3724 422.876 67.2382 422.574C67.104 422.272 66.8677 422.027 66.5707 421.882C66.2738 421.737 65.9352 421.702 65.6145 421.782C62.6705 423.274 60.0825 425.382 58.0266 427.964C57.8291 428.271 57.7488 428.639 57.8004 429C57.852 429.362 58.032 429.692 58.3076 429.932C58.5639 430.088 58.8522 430.184 59.1508 430.213C59.3877 430.226 59.6227 430.165 59.8239 430.039C60.0251 429.913 60.1826 429.729 60.2749 429.51Z" fill="#2C3B47"/>
<path d="M249.833 348.713L266.133 295.456C266.235 295.031 266.185 294.584 265.993 294.192C265.889 294.023 265.745 293.883 265.573 293.785C265.401 293.687 265.207 293.633 265.009 293.63L232.55 290.679C232.383 290.642 232.212 290.637 232.044 290.667C231.876 290.696 231.716 290.758 231.572 290.85C231.429 290.941 231.305 291.06 231.207 291.199C231.109 291.339 231.04 291.496 231.004 291.662L222.011 324.122L200.371 301.499C196.779 297.783 192.478 294.824 187.724 292.797C182.97 290.77 177.858 289.715 172.689 289.695H163.696C163.323 289.695 162.966 289.843 162.702 290.107C162.439 290.37 162.291 290.728 162.291 291.1C162.291 291.473 162.439 291.83 162.702 292.094C162.966 292.357 163.323 292.506 163.696 292.506H172.689C177.495 292.489 182.254 293.453 186.675 295.338C191.096 297.222 195.087 299.988 198.404 303.466L221.73 327.916C221.902 328.109 222.125 328.25 222.373 328.325C222.621 328.399 222.885 328.403 223.135 328.337C223.359 328.252 223.562 328.12 223.732 327.951C223.901 327.781 224.033 327.578 224.119 327.354L233.393 293.63L262.972 296.285L247.234 347.996C247.176 348.347 247.242 348.708 247.422 349.016C247.602 349.324 247.883 349.559 248.217 349.682H248.639C249.412 349.682 249.974 349.275 249.833 348.713Z" fill="#2C3B47"/>
<path d="M187.303 430.353C209.083 430.353 223.978 420.658 234.798 408.292L262.62 376.535C262.62 376.535 328.663 441.033 328.945 441.033C329.226 441.033 366.182 397.472 366.182 397.472L290.162 341.968C284.783 338.53 278.548 336.669 272.165 336.594C265.782 336.52 259.506 338.235 254.049 341.546C219.622 362.483 148.38 405.763 146.553 407.027C146.553 407.027 165.382 430.494 187.303 430.353Z" fill="#DA7AB1"/>
<path d="M330.209 441.314C330.221 441.073 330.177 440.834 330.079 440.614C329.981 440.394 329.833 440.201 329.647 440.049C327.68 438.363 285.524 397.332 263.463 375.692C263.201 375.434 262.847 375.29 262.48 375.29C262.112 375.29 261.759 375.434 261.496 375.692L233.673 407.449C220.886 422.063 205.71 429.089 187.162 429.089C186.789 429.089 186.432 429.237 186.169 429.5C185.905 429.764 185.757 430.121 185.757 430.494C185.757 430.866 185.905 431.224 186.169 431.487C186.432 431.751 186.789 431.899 187.162 431.899C206.554 431.899 222.432 424.451 235.781 409.276L262.62 378.643C327.961 442.297 327.961 442.297 328.663 442.438H328.804C329.133 442.444 329.453 442.335 329.71 442.13C329.967 441.925 330.143 441.636 330.209 441.314Z" fill="#2C3B47"/>
<path d="M225.384 363.326C225.488 363.17 225.559 362.995 225.594 362.811C225.629 362.627 225.627 362.437 225.588 362.254C225.549 362.071 225.473 361.897 225.366 361.743C225.258 361.59 225.121 361.459 224.963 361.359C205.993 349.977 187.023 318.501 186.882 318.22C186.781 318.063 186.649 317.928 186.496 317.822C186.342 317.716 186.169 317.641 185.986 317.602C185.803 317.563 185.615 317.56 185.431 317.594C185.247 317.628 185.072 317.697 184.915 317.799C184.758 317.9 184.623 318.032 184.517 318.185C184.411 318.339 184.336 318.512 184.297 318.695C184.258 318.878 184.255 319.066 184.289 319.25C184.322 319.434 184.392 319.609 184.493 319.766C185.196 321.031 204.025 352.085 223.557 363.888C223.768 364.016 224.017 364.066 224.26 364.029C224.494 364.029 224.724 363.963 224.923 363.839C225.122 363.715 225.281 363.537 225.384 363.326Z" fill="#2C3B47"/>
<path d="M146.131 415.177C146.279 415.067 146.403 414.928 146.497 414.769C146.591 414.61 146.653 414.435 146.679 414.252C146.705 414.069 146.695 413.883 146.649 413.704C146.604 413.526 146.523 413.358 146.412 413.21C137.981 402.531 133.204 365.856 133.204 365.434C133.185 365.25 133.131 365.071 133.043 364.907C132.955 364.744 132.836 364.599 132.693 364.482C132.549 364.364 132.384 364.276 132.206 364.223C132.029 364.169 131.842 364.151 131.658 364.169C131.473 364.188 131.294 364.243 131.131 364.33C130.968 364.418 130.823 364.537 130.706 364.68C130.588 364.824 130.5 364.989 130.447 365.167C130.393 365.344 130.375 365.531 130.393 365.715C130.674 367.261 135.311 403.655 144.164 414.896C144.287 415.079 144.455 415.226 144.652 415.325C144.849 415.423 145.068 415.469 145.288 415.458C145.591 415.452 145.885 415.354 146.131 415.177Z" fill="#2C3B47"/>
<path d="M263.604 377.519L269.506 370.633C269.697 370.349 269.777 370.004 269.732 369.664C269.686 369.324 269.518 369.013 269.259 368.788C269 368.564 268.668 368.441 268.325 368.445C267.982 368.448 267.652 368.577 267.398 368.807L261.496 375.692C261.256 375.973 261.137 376.336 261.163 376.704C261.19 377.072 261.359 377.415 261.637 377.659C261.883 377.836 262.177 377.934 262.48 377.94C262.895 377.951 263.298 377.8 263.604 377.519Z" fill="#2C3B47"/>
<path d="M259.108 421.346L286.93 417.271C287.146 417.297 287.365 417.273 287.57 417.2C287.775 417.127 287.96 417.008 288.111 416.852C288.262 416.695 288.374 416.506 288.44 416.299C288.505 416.091 288.522 415.872 288.488 415.657C288.454 415.442 288.371 415.238 288.244 415.061C288.118 414.884 287.953 414.739 287.761 414.636C287.569 414.534 287.356 414.478 287.139 414.471C286.922 414.465 286.706 414.51 286.509 414.601L258.686 418.676C258.509 418.7 258.339 418.759 258.185 418.851C258.032 418.942 257.899 419.064 257.794 419.208C257.688 419.353 257.614 419.517 257.574 419.691C257.534 419.866 257.53 420.046 257.562 420.222C257.614 420.563 257.782 420.875 258.038 421.106C258.295 421.336 258.623 421.471 258.967 421.487C259.005 421.487 259.04 421.472 259.067 421.445C259.093 421.419 259.108 421.383 259.108 421.346Z" fill="#2C3B47"/>
<path d="M238.593 292.646C240.139 287.025 246.462 282.95 246.462 282.95C246.462 282.95 246.321 282.95 240.56 284.637C234.799 286.323 234.659 282.669 234.659 282.669C234.659 282.669 233.956 278.735 240.56 277.189C237.89 276.627 234.799 276.205 234.659 273.676C234.518 270.304 240.56 269.882 240.56 269.882C240.56 269.882 235.923 270.023 235.783 266.51C235.783 263.699 242.106 262.435 242.106 262.435C242.106 262.435 237.469 262.435 238.031 257.938C238.874 252.88 255.174 252.177 262.762 254.847C263.184 254.987 263.465 255.128 263.886 255.268C270.912 258.5 268.523 273.114 263.886 279.578C260.96 284.042 259.174 289.157 258.687 294.473C258.687 294.473 242.246 292.927 238.593 292.646Z" fill="#CB8529"/>
<path d="M259.95 295.737C260.087 295.614 260.196 295.462 260.268 295.292C260.341 295.122 260.376 294.938 260.371 294.754C260.812 289.689 262.502 284.813 265.289 280.562C268.662 275.924 271.051 266.791 269.364 260.327C269.12 259.027 268.573 257.802 267.767 256.752C266.962 255.703 265.92 254.857 264.727 254.285C264.334 254.04 263.908 253.85 263.463 253.723C256.858 251.474 244.633 251.474 239.434 254.566C238.793 254.911 238.235 255.391 237.798 255.973C237.361 256.556 237.057 257.226 236.905 257.938C236.755 258.68 236.779 259.446 236.974 260.177C237.169 260.909 237.53 261.585 238.029 262.154C238.044 262.26 238.093 262.359 238.17 262.435C236.343 263.278 234.516 264.543 234.516 266.65C234.597 267.857 235.094 268.999 235.921 269.882C235.135 270.224 234.472 270.797 234.021 271.525C233.569 272.253 233.349 273.101 233.392 273.957C233.415 274.785 233.699 275.584 234.203 276.241C234.708 276.897 235.408 277.377 236.202 277.611C235.28 278.158 234.52 278.941 234.001 279.88C233.483 280.818 233.224 281.878 233.251 282.95C233.267 283.508 233.416 284.054 233.685 284.542C233.954 285.031 234.335 285.449 234.797 285.761C236.202 286.744 238.17 286.885 240.699 286.182C239.123 287.985 237.928 290.088 237.186 292.365C237.1 292.546 237.067 292.748 237.092 292.948C237.117 293.147 237.198 293.335 237.326 293.489C237.43 293.658 237.575 293.798 237.746 293.896C237.918 293.994 238.112 294.048 238.31 294.051L258.685 295.878C259.104 295.806 259.526 295.76 259.95 295.737ZM247.022 284.074C247.329 283.897 247.557 283.61 247.662 283.271C247.766 282.933 247.738 282.567 247.584 282.248C247.418 281.963 247.163 281.741 246.859 281.614C246.554 281.488 246.217 281.463 245.898 281.545L239.996 283.231C239.427 283.497 238.811 283.647 238.184 283.671C237.556 283.695 236.93 283.593 236.343 283.372C236.223 283.296 236.122 283.192 236.049 283.07C235.976 282.949 235.932 282.811 235.921 282.669V282.529C235.781 282.388 235.64 279.718 240.699 278.594C241.072 278.594 241.429 278.446 241.692 278.183C241.956 277.919 242.104 277.562 242.104 277.189C242.104 276.816 241.956 276.459 241.692 276.196C241.429 275.932 241.072 275.784 240.699 275.784L240.277 275.643C237.889 275.222 236.202 274.8 236.062 273.536C235.921 271.849 239.575 271.147 240.558 271.147C240.906 271.112 241.228 270.949 241.462 270.689C241.696 270.429 241.825 270.091 241.823 269.742C241.82 269.564 241.78 269.39 241.707 269.228C241.633 269.067 241.527 268.923 241.395 268.804C241.263 268.685 241.109 268.595 240.941 268.539C240.772 268.483 240.594 268.462 240.418 268.477C239.414 268.509 238.428 268.213 237.607 267.634C237.459 267.489 237.343 267.314 237.271 267.119C237.198 266.925 237.169 266.717 237.186 266.51C237.186 265.526 239.996 264.262 242.385 263.84C242.721 263.75 243.016 263.548 243.221 263.266C243.426 262.985 243.527 262.642 243.509 262.294C243.458 261.953 243.289 261.641 243.033 261.41C242.777 261.18 242.448 261.045 242.104 261.03C241.276 261.037 240.475 260.736 239.856 260.186C239.635 259.915 239.481 259.596 239.408 259.254C239.334 258.912 239.343 258.557 239.434 258.219C239.653 257.602 240.108 257.097 240.699 256.814C244.774 254.425 256.015 254.144 262.339 256.252C262.62 256.393 263.041 256.533 263.322 256.674C264.111 257.112 264.795 257.716 265.328 258.444C265.862 259.171 266.232 260.005 266.414 260.889C267.959 266.369 265.711 274.66 262.76 278.735C259.89 282.98 258.061 287.842 257.42 292.927L240.277 291.381C241.911 288.443 244.223 285.937 247.022 284.074Z" fill="#2C3B47"/>
<path d="M254.05 262.856C254.136 262.503 254.082 262.129 253.898 261.815C253.715 261.5 253.417 261.269 253.066 261.17C251.38 260.749 244.213 261.03 241.965 261.17C241.688 261.276 241.451 261.468 241.29 261.717C241.128 261.966 241.049 262.26 241.065 262.556C241.08 262.853 241.189 263.137 241.376 263.367C241.563 263.598 241.819 263.763 242.106 263.84C245.521 263.616 248.948 263.616 252.363 263.84H252.785C253.071 263.824 253.345 263.722 253.571 263.546C253.797 263.37 253.964 263.13 254.05 262.856Z" fill="#2C3B47"/>
<path d="M240.419 271.287C240.56 271.287 249.553 270.585 251.941 270.725C252.314 270.763 252.686 270.65 252.976 270.413C253.266 270.176 253.45 269.833 253.487 269.461C253.524 269.088 253.412 268.716 253.175 268.426C252.938 268.136 252.595 267.952 252.222 267.915C249.412 267.774 240.7 268.477 240.278 268.477C239.918 268.541 239.592 268.732 239.36 269.015C239.128 269.299 239.005 269.656 239.014 270.023C239.049 270.371 239.212 270.693 239.472 270.927C239.732 271.161 240.069 271.289 240.419 271.287Z" fill="#2C3B47"/>
<path d="M240.488 278.454C242.877 277.892 249.622 276.487 252.151 277.189C252.338 277.278 252.542 277.325 252.749 277.326C252.956 277.327 253.16 277.283 253.348 277.196C253.535 277.109 253.702 276.982 253.834 276.823C253.967 276.665 254.063 276.479 254.116 276.279C254.168 276.079 254.176 275.87 254.139 275.666C254.101 275.463 254.019 275.27 253.899 275.102C253.778 274.934 253.622 274.795 253.442 274.694C253.261 274.593 253.06 274.534 252.854 274.519C249.341 273.536 240.91 275.503 239.926 275.784C239.576 275.883 239.277 276.114 239.094 276.428C238.91 276.743 238.856 277.116 238.943 277.47C239.008 277.792 239.185 278.081 239.442 278.287C239.699 278.492 240.019 278.601 240.348 278.594C240.488 278.594 240.699 278.594 240.488 278.454Z" fill="#2C3B47"/>
<path d="M185.35 241.976L146.651 247.287L145.527 262.013C145.527 262.013 141.311 260.285 139.597 263.194C138.503 265.026 138.071 267.179 138.375 269.292C139.162 275.433 145.766 271.765 145.766 271.765L146.637 284.257C146.637 284.257 105.803 258.121 139.611 241.947C139.766 235.273 149.152 219.928 173.335 225.085C192.038 229.933 185.35 241.976 185.35 241.976Z" fill="#2C3B47"/>
<path d="M176.103 284.215C179.31 283.96 182.336 282.628 184.689 280.435C189.34 275.742 188.904 268.28 188.736 264.346C188.651 263.657 188.736 263.081 188.665 262.66C188.665 259.259 190.675 258.304 190.815 258.276C190.956 258.247 199.612 255.044 198.881 249.325C198.15 243.605 189.045 243.62 188.806 243.521C188.433 243.521 188.076 243.669 187.812 243.933C187.549 244.196 187.401 244.554 187.401 244.926C187.401 245.784 187.991 246.332 188.806 246.332C188.806 246.332 195.747 246.332 196.169 249.648C196.534 252.571 191.602 255.044 189.846 255.69C189.705 255.69 185.939 257.32 185.911 262.716C185.911 263.137 185.911 263.84 186.01 264.543C186.206 268.337 186.6 274.814 182.679 278.594C180.291 281.011 176.595 282.051 171.438 281.7C163.457 281.292 157.555 280.491 157.386 280.505C157.058 280.521 156.745 280.652 156.503 280.874C156.261 281.097 156.105 281.397 156.062 281.723C156.018 282.049 156.09 282.38 156.266 282.658C156.441 282.936 156.708 283.144 157.021 283.245C157.021 283.245 163.204 284.018 171.213 284.566C173.138 284.313 174.698 284.398 176.103 284.215Z" fill="#2C3B47"/>
<path d="M176.425 250.739C176.298 249.738 177.007 248.824 178.008 248.697C179.009 248.571 179.923 249.28 180.049 250.281C180.176 251.282 179.467 252.196 178.466 252.322C177.465 252.448 176.551 251.74 176.425 250.739Z" fill="#2C3B47"/>
<path d="M166.402 254.573C166.271 253.574 166.975 252.658 167.973 252.527C168.972 252.396 169.888 253.099 170.019 254.098C170.151 255.097 169.447 256.013 168.448 256.144C167.45 256.275 166.534 255.572 166.402 254.573Z" fill="#2C3B47"/>
<path d="M156.867 294.571C159.756 294.263 162.419 292.867 164.315 290.665C164.544 290.375 164.65 290.006 164.61 289.639L163.654 282.107C163.608 281.735 163.415 281.396 163.118 281.165C162.972 281.051 162.804 280.967 162.624 280.917C162.445 280.868 162.258 280.855 162.073 280.878C161.889 280.901 161.711 280.96 161.549 281.052C161.387 281.144 161.245 281.267 161.131 281.414C161.017 281.56 160.933 281.728 160.884 281.907C160.834 282.087 160.821 282.274 160.844 282.459L161.729 289.484C160.605 290.623 156.474 293.826 148.535 290.44C147.804 284.594 147.031 271.793 147.017 271.653C146.996 271.414 146.921 271.184 146.796 270.979C146.672 270.774 146.502 270.601 146.3 270.472C146.08 270.37 145.84 270.318 145.598 270.318C145.355 270.318 145.115 270.37 144.895 270.472C144.235 270.838 142.085 271.807 140.89 271.259C139.991 270.81 139.668 269.433 139.668 268.294C139.594 267.343 139.725 266.386 140.052 265.489C140.379 264.592 140.895 263.776 141.565 263.095C142.092 262.83 142.675 262.691 143.265 262.691C143.856 262.691 144.438 262.83 144.965 263.095C145.133 263.176 145.315 263.222 145.501 263.232C145.687 263.242 145.873 263.215 146.049 263.153C146.224 263.091 146.386 262.995 146.524 262.871C146.663 262.746 146.775 262.596 146.855 262.428C146.936 262.26 146.982 262.078 146.992 261.892C147.002 261.706 146.975 261.52 146.913 261.345C146.851 261.169 146.755 261.008 146.631 260.869C146.506 260.731 146.356 260.618 146.188 260.538C143.195 259.217 141.157 259.891 139.991 260.749C137.897 262.154 136.703 264.964 136.843 268.365C137.04 271.035 137.968 272.763 139.654 273.676C141.192 274.332 142.924 274.367 144.488 273.775C144.712 277.864 145.457 287.11 146.005 291.438C146.035 291.671 146.13 291.89 146.279 292.072C146.428 292.253 146.626 292.389 146.848 292.463C149.9 294.158 153.392 294.892 156.867 294.571Z" fill="#2C3B47"/>
<path d="M139.752 243.198C139.936 243.183 140.115 243.128 140.276 243.035C140.436 242.943 140.574 242.816 140.679 242.664C140.901 242.37 141 242.001 140.952 241.636C140.905 241.27 140.716 240.938 140.426 240.711C140.272 240.584 135.607 237.212 131.335 239.306C130.999 239.479 130.747 239.778 130.632 240.138C130.517 240.498 130.55 240.888 130.724 241.224C130.897 241.559 131.196 241.812 131.556 241.927C131.916 242.041 132.306 242.008 132.642 241.835C135.452 240.43 138.881 243.029 138.881 243.029C139.137 243.198 139.451 243.259 139.752 243.198Z" fill="#2C3B47"/>
<rect width="80.0199" height="30.4838" rx="15.2419" transform="matrix(-1 0 0 1 292.998 52.5735)" fill="#5C9CD0"/>
<path fill-rule="evenodd" clip-rule="evenodd" d="M224.41 49.3578H276.804C285.419 49.3578 292.403 56.3421 292.403 64.9576C292.403 73.5731 285.419 80.5573 276.804 80.5573H224.41C215.794 80.5573 208.81 73.5731 208.81 64.9576C208.81 56.3421 215.794 49.3578 224.41 49.3578ZM276.804 46.8578C286.8 46.8578 294.903 54.9614 294.903 64.9576C294.903 74.9538 286.8 83.0573 276.804 83.0573H224.41C214.413 83.0573 206.31 74.9538 206.31 64.9576C206.31 54.9614 214.413 46.8578 224.41 46.8578H276.804Z" fill="#2C3B47"/>
<path fill-rule="evenodd" clip-rule="evenodd" d="M194.316 107.999C193.811 108.47 193.784 109.261 194.255 109.765C196.203 111.854 199.367 113.057 202.792 113.4C206.248 113.747 210.14 113.241 213.713 111.723C217.293 110.201 220.585 107.648 222.762 103.887C224.943 100.119 225.948 95.2346 225.116 89.1541C225.022 88.4701 224.392 87.9915 223.708 88.0851C223.024 88.1787 222.545 88.8091 222.639 89.493C223.408 95.1123 222.459 99.4198 220.598 102.635C218.734 105.856 215.898 108.078 212.735 109.422C209.563 110.769 206.095 111.219 203.042 110.913C199.959 110.603 197.467 109.544 196.082 108.06C195.611 107.555 194.82 107.528 194.316 107.999Z" fill="#2C3B47"/>
<path fill-rule="evenodd" clip-rule="evenodd" d="M457.894 231.921C457.734 231.393 457.176 231.094 456.647 231.254C451.742 232.741 447.745 235.429 445.673 239.65C443.602 243.871 443.564 249.405 446.109 256.354C446.299 256.873 446.873 257.139 447.392 256.949C447.91 256.759 448.177 256.185 447.987 255.666C445.554 249.023 445.72 244.094 447.469 240.531C449.217 236.969 452.653 234.555 457.227 233.168C457.756 233.008 458.054 232.45 457.894 231.921Z" fill="#2C3B47"/>
<path fill-rule="evenodd" clip-rule="evenodd" d="M234.233 61.1471C234.233 61.8375 233.674 62.3971 232.983 62.3971H221.552C220.862 62.3971 220.302 61.8375 220.302 61.1471C220.302 60.4568 220.862 59.8971 221.552 59.8971H232.983C233.674 59.8971 234.233 60.4568 234.233 61.1471Z" fill="#2C3B47"/>
<path fill-rule="evenodd" clip-rule="evenodd" d="M241.854 68.7681C241.854 69.4584 241.294 70.0181 240.604 70.0181H221.551C220.861 70.0181 220.301 69.4584 220.301 68.7681C220.301 68.0777 220.861 67.5181 221.551 67.5181H240.604C241.294 67.5181 241.854 68.0777 241.854 68.7681Z" fill="#2C3B47"/>
<path fill-rule="evenodd" clip-rule="evenodd" d="M245.664 61.1471C245.664 61.8375 245.104 62.3971 244.414 62.3971H237.746C237.055 62.3971 236.496 61.8375 236.496 61.1471C236.496 60.4568 237.055 59.8971 237.746 59.8971H244.414C245.104 59.8971 245.664 60.4568 245.664 61.1471Z" fill="#2C3B47"/>
<path fill-rule="evenodd" clip-rule="evenodd" d="M253.285 68.7681C253.285 69.4584 252.726 70.0181 252.035 70.0181H245.367C244.676 70.0181 244.117 69.4584 244.117 68.7681C244.117 68.0777 244.676 67.5181 245.367 67.5181H252.035C252.726 67.5181 253.285 68.0777 253.285 68.7681Z" fill="#2C3B47"/>
<path fill-rule="evenodd" clip-rule="evenodd" d="M260.906 61.1471C260.906 61.8375 260.347 62.3971 259.656 62.3971H249.177C248.487 62.3971 247.927 61.8375 247.927 61.1471C247.927 60.4568 248.487 59.8971 249.177 59.8971H259.656C260.347 59.8971 260.906 60.4568 260.906 61.1471Z" fill="#2C3B47"/>
<path fill-rule="evenodd" clip-rule="evenodd" d="M280.911 61.1471C280.911 61.8375 280.351 62.3971 279.661 62.3971H263.467C262.776 62.3971 262.217 61.8375 262.217 61.1471C262.217 60.4568 262.776 59.8971 263.467 59.8971H279.661C280.351 59.8971 280.911 60.4568 280.911 61.1471Z" fill="#2C3B47"/>
<path fill-rule="evenodd" clip-rule="evenodd" d="M278.054 68.7681C278.054 69.4584 277.494 70.0181 276.804 70.0181H256.799C256.108 70.0181 255.549 69.4584 255.549 68.7681C255.549 68.0777 256.108 67.5181 256.799 67.5181H276.804C277.494 67.5181 278.054 68.0777 278.054 68.7681Z" fill="#2C3B47"/>
<circle cx="479.234" cy="223.569" r="13.813" fill="white"/>
<circle cx="476.376" cy="225.474" r="13.813" fill="#5AB467"/>
<path fill-rule="evenodd" clip-rule="evenodd" d="M479.71 234.881C486.221 234.881 491.499 229.603 491.499 223.092C491.499 216.581 486.221 211.303 479.71 211.303C473.199 211.303 467.921 216.581 467.921 223.092C467.921 229.603 473.199 234.881 479.71 234.881ZM479.71 237.381C487.602 237.381 493.999 230.984 493.999 223.092C493.999 215.2 487.602 208.803 479.71 208.803C471.818 208.803 465.421 215.2 465.421 223.092C465.421 230.984 471.818 237.381 479.71 237.381Z" fill="#2C3B47"/>
<path fill-rule="evenodd" clip-rule="evenodd" d="M494.853 211.7C495.357 212.171 495.384 212.962 494.913 213.466L479.773 229.686L472.129 221.52C471.658 221.016 471.684 220.225 472.188 219.754C472.692 219.282 473.483 219.308 473.955 219.812L479.77 226.025L493.086 211.76C493.557 211.256 494.348 211.229 494.853 211.7Z" fill="#2C3B47"/>
</g>
<defs>
<clipPath id="clip0_1365_8490">
<rect width="582" height="560" fill="white"/>
</clipPath>
<clipPath id="clip1_1365_8490">
<rect x="97" y="55" width="112" height="113" rx="56" fill="white"/>
</clipPath>
<clipPath id="clip2_1365_8490">
<rect x="284" y="78" width="158" height="157" rx="78.5" fill="white"/>
</clipPath>
<clipPath id="clip3_1365_8490">
<rect x="399" y="246" width="86" height="87" rx="43" fill="white"/>
</clipPath>
</defs>
</svg>
