<svg width="320" height="240" viewBox="0 0 320 240" fill="none" xmlns="http://www.w3.org/2000/svg">
<path d="M111.614 126.997C99.0893 126.791 89 116.573 89 104C89 91.9627 98.2471 82.0852 110.025 81.0836C110.008 80.7245 110 80.3632 110 80C110 67.2975 120.297 57 133 57C134.985 57 136.911 57.2515 138.749 57.7243C142.91 53.5693 148.655 51 155 51C160.81 51 166.116 53.154 170.165 56.707C173.393 54.9795 177.082 54 181 54C191.631 54 200.577 61.212 203.212 71.0102C216.414 71.387 227 82.2073 227 95.5C227 101.163 225.079 106.377 221.852 110.526C225.023 113.533 227 117.786 227 122.5C227 131.613 219.613 139 210.5 139C207.799 139 205.25 138.351 203 137.201C200.75 138.351 198.201 139 195.5 139C193.192 139 190.995 138.526 189 137.67C187.005 138.526 184.808 139 182.5 139C181.476 139 180.473 138.907 179.5 138.728C178.527 138.907 177.524 139 176.5 139C174.94 139 173.43 138.784 172 138.379C170.57 138.784 169.06 139 167.5 139C160.451 139 154.434 134.579 152.07 128.359C150.619 128.776 149.086 129 147.5 129C145.757 129 144.077 128.73 142.5 128.229C140.923 128.73 139.243 129 137.5 129C135.757 129 134.077 128.73 132.5 128.229C130.923 128.73 129.243 129 127.5 129C126.121 129 124.781 128.831 123.5 128.512C122.219 128.831 120.879 129 119.5 129C116.644 129 113.957 128.274 111.614 126.997Z" fill="white"/>
<path d="M152.5 142.5L140.748 163.902H155.263L140.748 197.771L181.875 154.225H169.779L177.5 145.5" fill="#FDF0C3"/>
<path fill-rule="evenodd" clip-rule="evenodd" d="M178.083 144.548C178.083 143.858 178.643 143.298 179.333 143.298H193.848C194.539 143.298 195.098 143.858 195.098 144.548C195.098 145.239 194.539 145.798 193.848 145.798H179.333C178.643 145.798 178.083 145.239 178.083 144.548Z" fill="#2C3B47"/>
<path fill-rule="evenodd" clip-rule="evenodd" d="M192.599 144.548C192.599 143.858 193.158 143.298 193.849 143.298H206.066C206.756 143.298 207.316 143.858 207.316 144.548C207.316 145.239 206.756 145.798 206.066 145.798H193.849C193.158 145.798 192.599 145.239 192.599 144.548Z" fill="#2C3B47"/>
<path fill-rule="evenodd" clip-rule="evenodd" d="M159.493 114.907C159.851 115.497 159.662 116.266 159.071 116.623L158.351 117.059C157.761 117.416 156.992 117.227 156.635 116.636C156.277 116.046 156.467 115.277 157.057 114.92L157.777 114.484C158.368 114.127 159.136 114.316 159.493 114.907Z" fill="#2C3B47"/>
<path fill-rule="evenodd" clip-rule="evenodd" d="M151.436 121.185C151.885 120.797 152.005 120.131 151.691 119.603C151.339 119.009 150.572 118.814 149.978 119.166L149.785 119.281C149.405 119.506 149.173 119.915 149.173 120.356V120.453C149.173 121.143 149.732 121.703 150.423 121.703C150.84 121.703 151.209 121.499 151.436 121.185Z" fill="#2C3B47"/>
<path fill-rule="evenodd" clip-rule="evenodd" d="M105.754 86.4845C105.829 87.1707 105.334 87.7878 104.647 87.8628C99.621 88.412 94.9742 90.7975 91.5981 94.5617C88.2221 98.326 86.3545 103.204 86.3535 108.26C86.3534 108.951 85.7936 109.51 85.1033 109.51C84.4129 109.51 83.8534 108.95 83.8535 108.26C83.8546 102.588 85.9497 97.1153 89.737 92.8925C93.5243 88.6698 98.7372 85.9937 104.376 85.3776C105.062 85.3026 105.679 85.7982 105.754 86.4845Z" fill="#2C3B47"/>
<path fill-rule="evenodd" clip-rule="evenodd" d="M106.872 85.2373L106.875 85.2373C107.162 85.2373 107.483 85.2591 107.738 85.2765C107.839 85.2834 107.929 85.2896 108.004 85.2934C108.693 85.3291 109.223 85.9169 109.187 86.6063C109.152 87.2958 108.564 87.8257 107.875 87.7901C107.71 87.7816 107.575 87.7721 107.452 87.7635C107.247 87.7491 107.079 87.7374 106.876 87.7373C106.131 87.7389 105.388 87.7807 104.648 87.8627C103.961 87.9388 103.344 87.4442 103.267 86.758C103.191 86.0719 103.686 85.454 104.372 85.378C105.202 85.2859 106.037 85.239 106.872 85.2373Z" fill="#2C3B47"/>
<path fill-rule="evenodd" clip-rule="evenodd" d="M106.669 86.4807C106.702 85.7912 107.289 85.2596 107.978 85.2933C111.061 85.444 114.081 86.2143 116.859 87.5583C119.637 88.9023 122.116 90.7924 124.148 93.1157C124.602 93.6355 124.549 94.4251 124.029 94.8796C123.51 95.334 122.72 95.281 122.265 94.7613C120.455 92.6909 118.246 91.0065 115.77 89.8088C113.295 88.6111 110.603 87.9246 107.856 87.7903C107.166 87.7566 106.635 87.1703 106.669 86.4807Z" fill="#2C3B47"/>
<path fill-rule="evenodd" clip-rule="evenodd" d="M122.377 93.0033C122.893 92.5452 123.683 92.5926 124.141 93.1091C127.846 97.2867 129.894 102.675 129.899 108.259C129.9 108.949 129.341 109.51 128.65 109.51C127.96 109.511 127.4 108.952 127.399 108.261C127.395 103.288 125.571 98.4887 122.271 94.7679C121.813 94.2513 121.86 93.4613 122.377 93.0033Z" fill="#2C3B47"/>
<path fill-rule="evenodd" clip-rule="evenodd" d="M135.493 64.2467C132.03 63.3981 128.422 63.3305 124.93 64.0487C121.439 64.767 118.15 66.2532 115.304 68.3995C112.457 70.5459 110.124 73.2987 108.473 76.4584C106.822 79.6181 105.895 83.1055 105.759 86.6679C105.732 87.3577 105.152 87.8956 104.462 87.8692C103.772 87.8428 103.234 87.2621 103.261 86.5723C103.411 82.6393 104.435 78.7891 106.258 75.3007C108.08 71.8123 110.656 68.7731 113.799 66.4034C116.941 64.0338 120.572 62.393 124.427 61.6C128.282 60.807 132.265 60.8817 136.088 61.8186C136.758 61.9829 137.169 62.6597 137.004 63.3302C136.84 64.0007 136.163 64.4111 135.493 64.2467Z" fill="#2C3B47"/>
<path fill-rule="evenodd" clip-rule="evenodd" d="M176.04 61.1224C172.737 61.0917 169.464 61.7386 166.421 63.0232C165.785 63.2917 165.052 62.9938 164.783 62.3578C164.515 61.7218 164.813 60.9886 165.449 60.72C168.806 59.3025 172.419 58.5886 176.063 58.6225C179.707 58.6564 183.306 59.4373 186.636 60.917C189.967 62.3967 192.958 64.5437 195.426 67.2254C197.894 69.9071 199.786 73.0664 200.984 76.5081C201.212 77.16 200.867 77.8726 200.215 78.0996C199.563 78.3267 198.851 77.9822 198.624 77.3303C197.537 74.2114 195.823 71.3484 193.587 68.9183C191.35 66.4882 188.639 64.5426 185.621 63.2017C182.603 61.8607 179.342 61.1531 176.04 61.1224Z" fill="#2C3B47"/>
<path fill-rule="evenodd" clip-rule="evenodd" d="M199.384 75.7384C200.037 75.512 200.749 75.8573 200.975 76.5095C201.78 78.8293 202.259 81.2497 202.397 83.7013C202.436 84.3906 201.909 84.9809 201.219 85.0198C200.53 85.0586 199.94 84.5314 199.901 83.8422C199.776 81.6219 199.342 79.4299 198.613 77.3291C198.387 76.6769 198.732 75.9647 199.384 75.7384Z" fill="#2C3B47"/>
<path fill-rule="evenodd" clip-rule="evenodd" d="M173.001 95.7693C173.676 95.9111 174.109 96.5738 173.967 97.2494C173.888 97.6294 173.832 98.0215 173.77 98.4639C173.76 98.5331 173.75 98.6036 173.74 98.6754C173.642 99.3588 173.009 99.8337 172.325 99.7361C171.642 99.6385 171.167 99.0053 171.265 98.3219C171.274 98.257 171.283 98.1908 171.293 98.1234C171.354 97.6872 171.422 97.204 171.521 96.7359C171.662 96.0603 172.325 95.6275 173.001 95.7693Z" fill="#2C3B47"/>
<path fill-rule="evenodd" clip-rule="evenodd" d="M219.39 115.308C219.963 115.692 220.116 116.469 219.732 117.042C218.819 118.404 217.783 119.679 216.635 120.85C216.152 121.343 215.36 121.351 214.867 120.868C214.374 120.385 214.366 119.594 214.849 119.101C215.889 118.04 216.828 116.885 217.655 115.651C218.04 115.077 218.816 114.924 219.39 115.308Z" fill="#2C3B47"/>
<path fill-rule="evenodd" clip-rule="evenodd" d="M158.667 114.328C159.344 114.464 159.783 115.122 159.648 115.799C159.639 115.844 159.629 115.884 159.62 115.918C159.61 115.951 159.601 115.98 159.594 116.003C159.593 116.007 159.592 116.011 159.59 116.014C159.497 116.612 158.98 117.07 158.355 117.07C157.665 117.07 157.105 116.51 157.105 115.82C157.105 115.568 157.171 115.367 157.193 115.301C157.193 115.3 157.194 115.299 157.194 115.298C157.199 115.282 157.205 115.266 157.208 115.256" fill="#2C3B47"/>
<path fill-rule="evenodd" clip-rule="evenodd" d="M172.189 98.5979C172.515 99.2064 172.286 99.964 171.678 100.29C168.969 101.741 166.561 103.693 164.58 106.042C164.135 106.57 163.346 106.637 162.818 106.192C162.29 105.747 162.223 104.958 162.669 104.43C164.853 101.84 167.51 99.687 170.497 98.0864C171.106 97.7604 171.863 97.9894 172.189 98.5979Z" fill="#2C3B47"/>
<path fill-rule="evenodd" clip-rule="evenodd" d="M163.152 105.81C163.714 106.212 163.843 106.992 163.442 107.554C161.656 110.05 160.366 112.866 159.642 115.849C159.479 116.52 158.803 116.932 158.132 116.769C157.461 116.606 157.049 115.93 157.212 115.259C158.012 111.966 159.436 108.856 161.408 106.1C161.81 105.538 162.59 105.408 163.152 105.81Z" fill="#2C3B47"/>
<path fill-rule="evenodd" clip-rule="evenodd" d="M171.977 97.3645C175.974 95.5126 180.371 94.6884 184.767 94.9666C189.164 95.2449 193.421 96.6168 197.153 98.9578C197.738 99.3247 197.915 100.096 197.548 100.681C197.181 101.266 196.409 101.442 195.825 101.076C192.445 98.9559 188.59 97.7136 184.609 97.4616C180.628 97.2097 176.647 97.956 173.028 99.6329C172.401 99.9231 171.658 99.6505 171.368 99.0241C171.078 98.3977 171.35 97.6547 171.977 97.3645Z" fill="#2C3B47"/>
<path fill-rule="evenodd" clip-rule="evenodd" d="M173.63 97.987C173.92 98.6138 173.646 99.3564 173.019 99.6457C172.935 99.6846 172.853 99.7224 172.772 99.7593C172.378 99.9402 172.025 100.102 171.68 100.288C171.072 100.616 170.314 100.389 169.986 99.7817C169.658 99.1741 169.885 98.4158 170.493 98.0881C170.916 97.8599 171.356 97.6583 171.75 97.4775C171.826 97.4429 171.9 97.409 171.972 97.3759C172.598 97.0866 173.341 97.3602 173.63 97.987Z" fill="#2C3B47"/>
<path fill-rule="evenodd" clip-rule="evenodd" d="M164.424 104.276C164.954 104.718 165.026 105.506 164.584 106.036C164.187 106.513 163.807 107.019 163.429 107.544C163.026 108.105 162.245 108.233 161.684 107.829C161.124 107.426 160.996 106.645 161.399 106.085C161.795 105.534 162.214 104.976 162.663 104.436C163.105 103.906 163.894 103.834 164.424 104.276Z" fill="#2C3B47"/>
<path fill-rule="evenodd" clip-rule="evenodd" d="M159.586 115.588C159.714 116.266 159.268 116.92 158.59 117.049C158.476 117.07 158.378 117.098 158.227 117.141C158.172 117.157 158.111 117.174 158.039 117.194C157.374 117.379 156.685 116.989 156.5 116.324C156.315 115.659 156.705 114.97 157.37 114.785C157.401 114.777 157.436 114.767 157.475 114.755C157.646 114.706 157.887 114.637 158.125 114.592C158.804 114.464 159.457 114.91 159.586 115.588Z" fill="#2C3B47"/>
<path fill-rule="evenodd" clip-rule="evenodd" d="M158.891 115.682C159.061 116.351 158.656 117.031 157.987 117.201C155.499 117.834 153.249 119.178 151.511 121.069C151.044 121.578 150.253 121.611 149.745 121.144C149.237 120.677 149.203 119.886 149.67 119.378C151.736 117.129 154.412 115.531 157.371 114.778C158.04 114.608 158.72 115.013 158.891 115.682Z" fill="#2C3B47"/>
<path fill-rule="evenodd" clip-rule="evenodd" d="M151.25 119.517C151.767 119.974 151.815 120.764 151.358 121.281C149.222 123.696 148.043 126.809 148.043 130.033C148.043 130.723 147.483 131.283 146.793 131.283C146.103 131.283 145.543 130.724 145.543 130.033C145.542 126.199 146.945 122.497 149.486 119.625C149.943 119.108 150.733 119.06 151.25 119.517Z" fill="#2C3B47"/>
<path fill-rule="evenodd" clip-rule="evenodd" d="M149.599 138.673C150.118 138.218 150.908 138.27 151.363 138.79C152.604 140.206 154.134 141.341 155.849 142.119C157.564 142.896 159.426 143.299 161.309 143.298C162 143.298 162.559 143.858 162.559 144.548C162.559 145.239 162 145.798 161.309 145.798C159.07 145.799 156.856 145.32 154.817 144.396C152.777 143.471 150.959 142.121 149.483 140.437C149.028 139.918 149.08 139.128 149.599 138.673Z" fill="#2C3B47"/>
<path fill-rule="evenodd" clip-rule="evenodd" d="M151.46 119.319C151.969 119.785 152.005 120.575 151.539 121.085L151.345 121.296C150.88 121.806 150.089 121.841 149.579 121.375C149.07 120.91 149.035 120.119 149.5 119.609L149.694 119.398C150.16 118.888 150.95 118.853 151.46 119.319Z" fill="#2C3B47"/>
<path fill-rule="evenodd" clip-rule="evenodd" d="M146.793 128.783C147.483 128.783 148.043 129.343 148.043 130.033C148.043 133.257 149.222 136.37 151.358 138.785C151.815 139.302 151.767 140.092 151.25 140.55C150.733 141.007 149.943 140.959 149.486 140.442C146.945 137.57 145.542 133.868 145.543 130.033C145.543 129.343 146.103 128.783 146.793 128.783Z" fill="#2C3B47"/>
<path fill-rule="evenodd" clip-rule="evenodd" d="M218.072 139.598C218.525 140.119 218.469 140.909 217.948 141.361C214.651 144.224 210.432 145.799 206.066 145.798C205.376 145.798 204.816 145.238 204.816 144.548C204.817 143.858 205.376 143.298 206.067 143.298C209.83 143.299 213.467 141.941 216.309 139.474C216.83 139.021 217.62 139.077 218.072 139.598Z" fill="#2C3B47"/>
<path fill-rule="evenodd" clip-rule="evenodd" d="M217.861 115.428C218.376 114.967 219.166 115.01 219.627 115.525C221.235 117.321 222.47 119.42 223.257 121.699C224.045 123.979 224.37 126.392 224.213 128.798C224.056 131.205 223.421 133.556 222.345 135.714C221.268 137.872 219.772 139.793 217.944 141.365C217.421 141.816 216.631 141.756 216.181 141.233C215.731 140.71 215.79 139.92 216.314 139.47C217.89 138.114 219.18 136.458 220.108 134.598C221.036 132.737 221.583 130.711 221.718 128.636C221.853 126.562 221.573 124.481 220.894 122.516C220.215 120.551 219.151 118.741 217.764 117.193C217.304 116.678 217.347 115.888 217.861 115.428Z" fill="#2C3B47"/>
<path fill-rule="evenodd" clip-rule="evenodd" d="M165.233 62.9039C160.969 59.9929 155.883 58.5279 150.724 58.7245C145.565 58.9212 140.605 60.7692 136.575 63.9964C136.036 64.428 135.25 64.3409 134.818 63.8021C134.387 63.2632 134.474 62.4766 135.013 62.045C139.46 58.4831 144.934 56.4434 150.629 56.2263C156.323 56.0093 161.936 57.6263 166.642 60.8392C167.212 61.2285 167.359 62.0062 166.97 62.5764C166.581 63.1465 165.803 63.2932 165.233 62.9039Z" fill="#2C3B47"/>
<path fill-rule="evenodd" clip-rule="evenodd" d="M127.909 87.4046C130.335 85.9817 133.097 85.2334 135.909 85.2373C136.599 85.2383 137.158 85.7987 137.157 86.4891C137.156 87.1794 136.596 87.7383 135.905 87.7373C133.539 87.734 131.215 88.3636 129.174 89.561C127.133 90.7583 125.45 92.4798 124.298 94.5469C123.962 95.1499 123.201 95.3665 122.598 95.0305C121.995 94.6945 121.778 93.9333 122.114 93.3302C123.483 90.8735 125.484 88.8276 127.909 87.4046Z" fill="#2C3B47"/>
<path fill-rule="evenodd" clip-rule="evenodd" d="M177.184 87.0396C177.757 87.4241 177.91 88.2006 177.526 88.774C175.803 91.3427 174.593 94.22 173.961 97.2478C173.82 97.9236 173.158 98.3572 172.482 98.2163C171.807 98.0753 171.373 97.4132 171.514 96.7374C172.211 93.3945 173.547 90.2177 175.449 87.3816C175.834 86.8082 176.61 86.6551 177.184 87.0396Z" fill="#2C3B47"/>
<path fill-rule="evenodd" clip-rule="evenodd" d="M180.788 83.2009C181.267 83.6981 181.252 84.4894 180.755 84.9683C179.547 86.1321 178.464 87.4193 177.524 88.8086C177.137 89.3804 176.36 89.5304 175.788 89.1435C175.216 88.7567 175.066 87.9796 175.453 87.4078C176.491 85.8738 177.686 84.4528 179.02 83.1679C179.517 82.6889 180.309 82.7037 180.788 83.2009Z" fill="#2C3B47"/>
<path fill-rule="evenodd" clip-rule="evenodd" d="M158.102 114.596C161.499 113.893 165.034 114.33 168.157 115.84C171.28 117.349 173.819 119.847 175.379 122.945C175.689 123.562 175.441 124.313 174.824 124.624C174.208 124.934 173.456 124.686 173.146 124.069C171.833 121.462 169.697 119.361 167.069 118.091C164.441 116.821 161.467 116.453 158.609 117.044C157.933 117.184 157.272 116.75 157.132 116.073C156.992 115.397 157.426 114.736 158.102 114.596Z" fill="#2C3B47"/>
<path fill-rule="evenodd" clip-rule="evenodd" d="M185.107 136.342C185.631 136.791 185.692 137.58 185.242 138.105L172.496 152.976H181.874C182.373 152.976 182.824 153.272 183.022 153.731C183.219 154.189 183.125 154.721 182.783 155.084L141.656 198.63C141.24 199.07 140.568 199.149 140.061 198.817C139.555 198.484 139.36 197.836 139.598 197.279L153.367 165.152H140.747C140.304 165.152 139.894 164.918 139.67 164.536C139.445 164.155 139.439 163.683 139.655 163.295L151.751 141.522C152.086 140.919 152.847 140.702 153.45 141.037C154.054 141.372 154.271 142.133 153.936 142.737L142.872 162.652H155.263C155.683 162.652 156.075 162.864 156.306 163.214C156.537 163.565 156.577 164.009 156.411 164.395L144.665 191.802L178.974 155.476H169.778C169.29 155.476 168.846 155.191 168.642 154.748C168.438 154.304 168.511 153.783 168.829 153.412L183.344 136.478C183.793 135.953 184.583 135.893 185.107 136.342Z" fill="#2C3B47"/>
<path fill-rule="evenodd" clip-rule="evenodd" d="M133.161 62.344C133.318 61.6716 133.99 61.2536 134.662 61.4104C139.722 62.5898 144.255 65.397 147.566 69.401C150.877 73.4051 152.783 78.385 152.991 83.5765C153.019 84.2663 152.482 84.8479 151.792 84.8756C151.102 84.9032 150.521 84.3665 150.493 83.6767C150.307 79.0319 148.602 74.5765 145.64 70.9942C142.677 67.4118 138.622 64.9003 134.094 63.8451C133.422 63.6884 133.004 63.0163 133.161 62.344Z" fill="#2C3B47"/>
<path fill-rule="evenodd" clip-rule="evenodd" d="M85.1035 107.01C85.7939 107.01 86.3535 107.57 86.3535 108.26C86.3535 123.464 98.6431 133.622 114.134 133.622H145.584C146.274 133.622 146.834 134.181 146.834 134.872C146.834 135.562 146.274 136.122 145.584 136.122H114.134C97.5585 136.122 83.8535 125.123 83.8535 108.26C83.8535 107.57 84.4132 107.01 85.1035 107.01Z" fill="#2C3B47"/>
<path d="M80.865 79.5936C80.7911 79.5795 80.721 79.55 80.6591 79.5072C80.5973 79.4643 80.5451 79.4089 80.506 79.3447L77.756 74.9157L72.5454 74.7014C72.437 74.6979 72.3318 74.6641 72.2417 74.6037C72.1516 74.5433 72.0803 74.4588 72.0359 74.3599C72.0034 74.2556 71.9928 74.1457 72.0048 74.0371C72.0167 73.9285 72.051 73.8235 72.1054 73.7288L75.4518 69.7572L74.0507 64.7376C74.0298 64.6333 74.0358 64.5254 74.0682 64.4241C74.1006 64.3228 74.1584 64.2315 74.236 64.1587C74.3109 64.0854 74.4058 64.0359 74.5088 64.0163C74.6118 63.9967 74.7183 64.008 74.8149 64.0487L79.6665 65.9998L84.0087 63.105C84.0899 63.0372 84.1924 63 84.2982 63C84.404 63 84.5065 63.0372 84.5877 63.105C84.6826 63.1568 84.7611 63.2341 84.8143 63.3283C84.8675 63.4224 84.8933 63.5296 84.8887 63.6376L84.5008 68.8135L88.5535 72.0556C88.6372 72.1252 88.7023 72.2146 88.7427 72.3157C88.7831 72.4168 88.7977 72.5264 88.7851 72.6346C88.7603 72.7411 88.7058 72.8385 88.6279 72.9153C88.55 72.9922 88.452 73.0454 88.3451 73.0688L83.285 74.3425L81.4497 79.2115C81.4113 79.3125 81.3454 79.4007 81.2595 79.4662C81.1735 79.5317 81.071 79.5718 80.9634 79.582C80.975 79.6168 80.9229 79.6052 80.865 79.5936ZM78.2134 73.8446C78.2879 73.8569 78.3588 73.8856 78.4209 73.9286C78.483 73.9717 78.5347 74.028 78.5723 74.0935L80.8881 77.7931L82.434 73.7404C82.4655 73.6518 82.5224 73.5744 82.5975 73.5178C82.6726 73.4612 82.7627 73.4278 82.8566 73.422L87.1003 72.3798L83.7076 69.6761C83.6263 69.6237 83.5642 69.5461 83.5307 69.4553C83.4973 69.3644 83.4944 69.2651 83.5224 69.1724L83.8524 64.8013L80.1992 67.1924C80.0323 67.2748 79.8422 67.2973 79.6608 67.2561L75.6081 65.6466L76.766 69.8614C76.7886 69.9477 76.791 70.0381 76.7729 70.1254C76.7548 70.2128 76.7168 70.2948 76.6618 70.3651L73.8654 73.6941L78.2018 73.8967C78.1034 73.8214 78.1613 73.833 78.2134 73.8446Z" fill="#2C3B47" stroke="#2C3B47"/>
<path fill-rule="evenodd" clip-rule="evenodd" d="M211.875 60.0662C212.085 59.2648 212.905 58.7856 213.707 58.9957C214.639 59.2403 215.554 59.5188 216.45 59.8298C217.233 60.1013 217.647 60.956 217.375 61.7386C217.104 62.5213 216.249 62.9355 215.466 62.664C214.644 62.3784 213.803 62.1224 212.946 61.8976C212.144 61.6875 211.665 60.8675 211.875 60.0662ZM219.667 62.7409C220.058 62.0104 220.967 61.7351 221.697 62.126C223.399 63.0364 225.009 64.0728 226.519 65.2198C227.179 65.7208 227.307 66.6618 226.806 67.3216C226.305 67.9813 225.364 68.1099 224.705 67.6088C223.319 66.5567 221.843 65.6062 220.282 64.7711C219.551 64.3803 219.276 63.4713 219.667 62.7409ZM228.673 68.9873C229.272 68.4144 230.221 68.4351 230.794 69.0336C232.119 70.4181 233.331 71.9017 234.419 73.4682C234.891 74.1487 234.723 75.0834 234.042 75.5559C233.362 76.0284 232.427 75.8599 231.955 75.1795C230.956 73.741 229.843 72.3789 228.627 71.1081C228.054 70.5097 228.075 69.5602 228.673 68.9873ZM235.305 77.7159C236.05 77.3549 236.947 77.6667 237.308 78.4124C238.139 80.129 238.838 81.9126 239.393 83.7469C239.634 84.5398 239.186 85.3772 238.393 85.6175C237.6 85.8577 236.763 85.4098 236.522 84.617C236.012 82.9334 235.371 81.2959 234.608 79.7196C234.247 78.9739 234.559 78.0768 235.305 77.7159ZM238.928 88.0614C239.749 87.9486 240.506 88.5224 240.618 89.3431C240.877 91.2218 240.989 93.1334 240.948 95.0628C240.93 95.891 240.244 96.5479 239.416 96.53C238.587 96.512 237.93 95.8261 237.948 94.9978C237.987 93.2283 237.883 91.4749 237.646 89.7517C237.534 88.931 238.107 88.1742 238.928 88.0614ZM239.164 99.0186C239.979 99.166 240.521 99.9464 240.373 100.762C240.204 101.695 239.998 102.629 239.754 103.561C239.543 104.362 238.724 104.842 237.922 104.631C237.121 104.421 236.642 103.601 236.852 102.8C237.077 101.943 237.266 101.085 237.421 100.228C237.569 99.4124 238.349 98.8711 239.164 99.0186Z" fill="#2C3B47"/>
<circle cx="244" cy="120" r="4" fill="#5C9CD0"/>
<circle cx="91" cy="47" r="4" fill="#F190B7"/>
</svg>
