<svg width="640" height="560" viewBox="0 0 640 560" fill="none" xmlns="http://www.w3.org/2000/svg">
<path d="M111 136C111 131.582 114.582 128 119 128H205C209.418 128 213 131.582 213 136V140C213 144.418 216.582 148 221 148H243C247.418 148 251 151.582 251 156V260C251 264.418 247.418 268 243 268H119C114.582 268 111 264.418 111 260V136Z" fill="white"/>
<path fill-rule="evenodd" clip-rule="evenodd" d="M248.5 260V156C248.5 152.962 246.038 150.5 243 150.5H221C215.201 150.5 210.5 145.799 210.5 140V136C210.5 132.962 208.038 130.5 205 130.5H119C115.962 130.5 113.5 132.962 113.5 136V260C113.5 263.038 115.962 265.5 119 265.5H243C246.038 265.5 248.5 263.038 248.5 260ZM119 128C114.582 128 111 131.582 111 136V260C111 264.418 114.582 268 119 268H243C247.418 268 251 264.418 251 260V156C251 151.582 247.418 148 243 148H221C216.582 148 213 144.418 213 140V136C213 131.582 209.418 128 205 128H119Z" fill="#2C3B47"/>
<path d="M111 292C111 287.582 114.582 284 119 284H243C247.418 284 251 287.582 251 292V416C251 420.418 247.418 424 243 424H119C114.582 424 111 420.418 111 416V292Z" fill="#EFE08A"/>
<path fill-rule="evenodd" clip-rule="evenodd" d="M243 286.5H119C115.962 286.5 113.5 288.962 113.5 292V416C113.5 419.038 115.962 421.5 119 421.5H243C246.038 421.5 248.5 419.038 248.5 416V292C248.5 288.962 246.038 286.5 243 286.5ZM119 284C114.582 284 111 287.582 111 292V416C111 420.418 114.582 424 119 424H243C247.418 424 251 420.418 251 416V292C251 287.582 247.418 284 243 284H119Z" fill="#2C3B47"/>
<path d="M267 136C267 131.582 270.582 128 275 128H399C403.418 128 407 131.582 407 136V260C407 264.418 403.418 268 399 268H275C270.582 268 267 264.418 267 260V136Z" fill="#E4B722"/>
<path fill-rule="evenodd" clip-rule="evenodd" d="M399 130.5H275C271.962 130.5 269.5 132.962 269.5 136V260C269.5 263.038 271.962 265.5 275 265.5H399C402.038 265.5 404.5 263.038 404.5 260V136C404.5 132.962 402.038 130.5 399 130.5ZM275 128C270.582 128 267 131.582 267 136V260C267 264.418 270.582 268 275 268H399C403.418 268 407 264.418 407 260V136C407 131.582 403.418 128 399 128H275Z" fill="#2C3B47"/>
<path d="M267 292C267 287.582 270.582 284 275 284H399C403.418 284 407 287.582 407 292V416C407 420.418 403.418 424 399 424H275C270.582 424 267 420.418 267 416V292Z" fill="#FDF0C3"/>
<path fill-rule="evenodd" clip-rule="evenodd" d="M399 286.5H275C271.962 286.5 269.5 288.962 269.5 292V416C269.5 419.038 271.962 421.5 275 421.5H399C402.038 421.5 404.5 419.038 404.5 416V292C404.5 288.962 402.038 286.5 399 286.5ZM275 284C270.582 284 267 287.582 267 292V416C267 420.418 270.582 424 275 424H399C403.418 424 407 420.418 407 416V292C407 287.582 403.418 284 399 284H275Z" fill="#2C3B47"/>
<path d="M423 136C423 131.582 426.582 128 431 128H555C559.418 128 563 131.582 563 136V260C563 264.418 559.418 268 555 268H431C426.582 268 423 264.418 423 260V136Z" fill="#E9D519"/>
<path fill-rule="evenodd" clip-rule="evenodd" d="M555 130.5H431C427.962 130.5 425.5 132.962 425.5 136V260C425.5 263.038 427.962 265.5 431 265.5H555C558.038 265.5 560.5 263.038 560.5 260V136C560.5 132.962 558.038 130.5 555 130.5ZM431 128C426.582 128 423 131.582 423 136V260C423 264.418 426.582 268 431 268H555C559.418 268 563 264.418 563 260V136C563 131.582 559.418 128 555 128H431Z" fill="#2C3B47"/>
<path d="M423 292C423 287.582 426.582 284 431 284H555C559.418 284 563 287.582 563 292V416C563 420.418 559.418 424 555 424H431C426.582 424 423 420.418 423 416V292Z" fill="#FFF8E1"/>
<path fill-rule="evenodd" clip-rule="evenodd" d="M555 286.5H431C427.962 286.5 425.5 288.962 425.5 292V416C425.5 419.038 427.962 421.5 431 421.5H555C558.038 421.5 560.5 419.038 560.5 416V292C560.5 288.962 558.038 286.5 555 286.5ZM431 284C426.582 284 423 287.582 423 292V416C423 420.418 426.582 424 431 424H555C559.418 424 563 420.418 563 416V292C563 287.582 559.418 284 555 284H431Z" fill="#2C3B47"/>
<rect x="440" y="301" width="106" height="4" rx="2" fill="#2C3B47"/>
<rect x="440" y="145" width="106" height="4" rx="2" fill="#2C3B47"/>
<rect x="284" y="301" width="106" height="4" rx="2" fill="#2C3B47"/>
<rect x="284" y="145" width="106" height="4" rx="2" fill="#2C3B47"/>
<rect x="132" y="301" width="106" height="4" rx="2" fill="#2C3B47"/>
<rect x="125" y="140" width="76" height="4" rx="2" fill="#2C3B47"/>
<rect x="125" y="167" width="28" height="4" rx="2" fill="#2C3B47"/>
<rect x="125" y="180" width="28" height="4" rx="2" fill="#2C3B47"/>
<rect x="125" y="193" width="28" height="4" rx="2" fill="#2C3B47"/>
<rect x="125" y="206" width="28" height="4" rx="2" fill="#2C3B47"/>
<rect x="440" y="311" width="106" height="4" rx="2" fill="#2C3B47"/>
<rect x="440" y="155" width="106" height="4" rx="2" fill="#2C3B47"/>
<rect x="284" y="311" width="106" height="4" rx="2" fill="#2C3B47"/>
<rect x="284" y="155" width="106" height="4" rx="2" fill="#2C3B47"/>
<rect x="132" y="311" width="106" height="4" rx="2" fill="#2C3B47"/>
<rect x="440" y="321" width="90" height="4" rx="2" fill="#2C3B47"/>
<rect x="440" y="165" width="90" height="4" rx="2" fill="#2C3B47"/>
<rect x="284" y="321" width="90" height="4" rx="2" fill="#2C3B47"/>
<rect x="284" y="165" width="90" height="4" rx="2" fill="#2C3B47"/>
<path d="M291.335 243.2C289.221 243.2 287.175 244.882 287.175 247.261C287.175 250.172 289.189 250.912 289.417 252.8H293.257C293.485 250.913 295.495 250.172 295.495 247.261C295.495 244.882 293.449 243.2 291.335 243.2Z" fill="#2C3B47"/>
<path fill-rule="evenodd" clip-rule="evenodd" d="M293.257 254.082H289.417V253.44H293.257V254.082Z" fill="#2C3B47"/>
<path d="M289.417 254.72H293.257C293.257 255.427 292.684 256 291.977 256H290.697C289.99 256 289.417 255.427 289.417 254.72Z" fill="#2C3B47"/>
<path fill-rule="evenodd" clip-rule="evenodd" d="M296.668 247.3C296.668 247.668 296.966 247.967 297.335 247.967L298.001 247.967C298.369 247.967 298.668 247.668 298.668 247.3C298.668 246.932 298.369 246.633 298.001 246.633L297.335 246.633C296.966 246.633 296.668 246.932 296.668 247.3ZM295.558 242.139C295.817 241.878 296.239 241.878 296.499 242.138C296.758 242.397 296.759 242.817 296.501 243.077L296.245 243.334C295.985 243.595 295.563 243.595 295.303 243.335C295.044 243.076 295.044 242.656 295.302 242.397L295.558 242.139ZM291.335 241.967C290.966 241.967 290.668 241.668 290.668 241.3L290.668 240.667C290.668 240.298 290.966 240 291.335 240C291.703 240 292.001 240.298 292.001 240.667L292.001 241.3C292.001 241.668 291.703 241.967 291.335 241.967ZM286.001 247.3C286.001 246.932 285.703 246.633 285.335 246.633L284.668 246.633C284.3 246.633 284.001 246.932 284.001 247.3C284.001 247.668 284.3 247.967 284.668 247.967L285.335 247.967C285.703 247.967 286.001 247.668 286.001 247.3ZM286.178 242.13C286.437 241.871 286.858 241.871 287.117 242.131L287.376 242.392C287.633 242.651 287.633 243.069 287.375 243.327C287.117 243.585 286.699 243.585 286.44 243.328L286.179 243.069C285.919 242.81 285.919 242.389 286.178 242.13Z" fill="#2C3B47"/>
<rect x="371.001" y="246" width="19" height="4" rx="2" fill="#2C3B47"/>
<path d="M447.335 243.2C445.221 243.2 443.175 244.882 443.175 247.261C443.175 250.172 445.189 250.912 445.417 252.8H449.257C449.485 250.913 451.495 250.172 451.495 247.261C451.495 244.882 449.449 243.2 447.335 243.2Z" fill="#2C3B47"/>
<path fill-rule="evenodd" clip-rule="evenodd" d="M449.257 254.082H445.417V253.44H449.257V254.082Z" fill="#2C3B47"/>
<path d="M445.417 254.72H449.257C449.257 255.427 448.684 256 447.977 256H446.697C445.99 256 445.417 255.427 445.417 254.72Z" fill="#2C3B47"/>
<path fill-rule="evenodd" clip-rule="evenodd" d="M452.668 247.3C452.668 247.668 452.966 247.967 453.335 247.967L454.001 247.967C454.369 247.967 454.668 247.668 454.668 247.3C454.668 246.932 454.369 246.633 454.001 246.633L453.335 246.633C452.966 246.633 452.668 246.932 452.668 247.3ZM451.558 242.139C451.817 241.878 452.239 241.878 452.499 242.138C452.758 242.397 452.759 242.817 452.501 243.077L452.245 243.334C451.985 243.595 451.563 243.595 451.303 243.335C451.044 243.076 451.044 242.656 451.302 242.397L451.558 242.139ZM447.335 241.967C446.966 241.967 446.668 241.668 446.668 241.3L446.668 240.667C446.668 240.298 446.966 240 447.335 240C447.703 240 448.001 240.298 448.001 240.667L448.001 241.3C448.001 241.668 447.703 241.967 447.335 241.967ZM442.001 247.3C442.001 246.932 441.703 246.633 441.335 246.633L440.668 246.633C440.3 246.633 440.001 246.932 440.001 247.3C440.001 247.668 440.3 247.967 440.668 247.967L441.335 247.967C441.703 247.967 442.001 247.668 442.001 247.3ZM442.178 242.13C442.437 241.871 442.858 241.871 443.117 242.131L443.376 242.392C443.633 242.651 443.633 243.069 443.375 243.327C443.117 243.585 442.699 243.585 442.44 243.328L442.179 243.069C441.919 242.81 441.919 242.389 442.178 242.13Z" fill="#2C3B47"/>
<rect x="527.001" y="246" width="19" height="4" rx="2" fill="#2C3B47"/>
<path d="M447.335 399.2C445.221 399.2 443.175 400.882 443.175 403.261C443.175 406.172 445.189 406.912 445.417 408.8H449.257C449.485 406.913 451.495 406.172 451.495 403.261C451.495 400.882 449.449 399.2 447.335 399.2Z" fill="#2C3B47"/>
<path fill-rule="evenodd" clip-rule="evenodd" d="M449.257 410.082H445.417V409.44H449.257V410.082Z" fill="#2C3B47"/>
<path d="M445.417 410.72H449.257C449.257 411.427 448.684 412 447.977 412H446.697C445.99 412 445.417 411.427 445.417 410.72Z" fill="#2C3B47"/>
<path fill-rule="evenodd" clip-rule="evenodd" d="M452.668 403.3C452.668 403.668 452.966 403.967 453.335 403.967L454.001 403.967C454.369 403.967 454.668 403.668 454.668 403.3C454.668 402.932 454.369 402.633 454.001 402.633L453.335 402.633C452.966 402.633 452.668 402.932 452.668 403.3ZM451.558 398.139C451.817 397.878 452.239 397.878 452.499 398.138C452.758 398.397 452.759 398.817 452.501 399.077L452.245 399.334C451.985 399.595 451.563 399.595 451.303 399.335C451.044 399.076 451.044 398.656 451.302 398.397L451.558 398.139ZM447.335 397.967C446.966 397.967 446.668 397.668 446.668 397.3L446.668 396.667C446.668 396.298 446.966 396 447.335 396C447.703 396 448.001 396.298 448.001 396.667L448.001 397.3C448.001 397.668 447.703 397.967 447.335 397.967ZM442.001 403.3C442.001 402.932 441.703 402.633 441.335 402.633L440.668 402.633C440.3 402.633 440.001 402.932 440.001 403.3C440.001 403.668 440.3 403.967 440.668 403.967L441.335 403.967C441.703 403.967 442.001 403.668 442.001 403.3ZM442.178 398.13C442.437 397.871 442.858 397.871 443.117 398.131L443.376 398.392C443.633 398.651 443.633 399.069 443.375 399.327C443.117 399.585 442.699 399.585 442.44 399.328L442.179 399.069C441.919 398.81 441.919 398.389 442.178 398.13Z" fill="#2C3B47"/>
<rect x="527.001" y="402" width="19" height="4" rx="2" fill="#2C3B47"/>
<path d="M291.335 399.2C289.221 399.2 287.175 400.882 287.175 403.261C287.175 406.172 289.189 406.912 289.417 408.8H293.257C293.485 406.913 295.495 406.172 295.495 403.261C295.495 400.882 293.449 399.2 291.335 399.2Z" fill="#2C3B47"/>
<path fill-rule="evenodd" clip-rule="evenodd" d="M293.257 410.082H289.417V409.44H293.257V410.082Z" fill="#2C3B47"/>
<path d="M289.417 410.72H293.257C293.257 411.427 292.684 412 291.977 412H290.697C289.99 412 289.417 411.427 289.417 410.72Z" fill="#2C3B47"/>
<path fill-rule="evenodd" clip-rule="evenodd" d="M296.668 403.3C296.668 403.668 296.966 403.967 297.335 403.967L298.001 403.967C298.369 403.967 298.668 403.668 298.668 403.3C298.668 402.932 298.369 402.633 298.001 402.633L297.335 402.633C296.966 402.633 296.668 402.932 296.668 403.3ZM295.558 398.139C295.817 397.878 296.239 397.878 296.499 398.138C296.758 398.397 296.759 398.817 296.501 399.077L296.245 399.334C295.985 399.595 295.563 399.595 295.303 399.335C295.044 399.076 295.044 398.656 295.302 398.397L295.558 398.139ZM291.335 397.967C290.966 397.967 290.668 397.668 290.668 397.3L290.668 396.667C290.668 396.298 290.966 396 291.335 396C291.703 396 292.001 396.298 292.001 396.667L292.001 397.3C292.001 397.668 291.703 397.967 291.335 397.967ZM286.001 403.3C286.001 402.932 285.703 402.633 285.335 402.633L284.668 402.633C284.3 402.633 284.001 402.932 284.001 403.3C284.001 403.668 284.3 403.967 284.668 403.967L285.335 403.967C285.703 403.967 286.001 403.668 286.001 403.3ZM286.178 398.13C286.437 397.871 286.858 397.871 287.117 398.131L287.376 398.392C287.633 398.651 287.633 399.069 287.375 399.327C287.117 399.585 286.699 399.585 286.44 399.328L286.179 399.069C285.919 398.81 285.919 398.389 286.178 398.13Z" fill="#2C3B47"/>
<rect x="371.001" y="402" width="19" height="4" rx="2" fill="#2C3B47"/>
<path d="M139.335 399.2C137.221 399.2 135.175 400.882 135.175 403.261C135.175 406.172 137.189 406.912 137.417 408.8H141.257C141.485 406.913 143.495 406.172 143.495 403.261C143.495 400.882 141.449 399.2 139.335 399.2Z" fill="#2C3B47"/>
<path fill-rule="evenodd" clip-rule="evenodd" d="M141.257 410.082H137.417V409.44H141.257V410.082Z" fill="#2C3B47"/>
<path d="M137.417 410.72H141.257C141.257 411.427 140.684 412 139.977 412H138.697C137.99 412 137.417 411.427 137.417 410.72Z" fill="#2C3B47"/>
<path fill-rule="evenodd" clip-rule="evenodd" d="M144.668 403.3C144.668 403.668 144.966 403.967 145.335 403.967L146.001 403.967C146.369 403.967 146.668 403.668 146.668 403.3C146.668 402.932 146.369 402.633 146.001 402.633L145.335 402.633C144.966 402.633 144.668 402.932 144.668 403.3ZM143.558 398.139C143.817 397.878 144.239 397.878 144.499 398.138C144.758 398.397 144.759 398.817 144.501 399.077L144.245 399.334C143.985 399.595 143.563 399.595 143.303 399.335C143.044 399.076 143.044 398.656 143.302 398.397L143.558 398.139ZM139.335 397.967C138.966 397.967 138.668 397.668 138.668 397.3L138.668 396.667C138.668 396.298 138.966 396 139.335 396C139.703 396 140.001 396.298 140.001 396.667L140.001 397.3C140.001 397.668 139.703 397.967 139.335 397.967ZM134.001 403.3C134.001 402.932 133.703 402.633 133.335 402.633L132.668 402.633C132.3 402.633 132.001 402.932 132.001 403.3C132.001 403.668 132.3 403.967 132.668 403.967L133.335 403.967C133.703 403.967 134.001 403.668 134.001 403.3ZM134.178 398.13C134.437 397.871 134.858 397.871 135.117 398.131L135.376 398.392C135.633 398.651 135.633 399.069 135.375 399.327C135.117 399.585 134.699 399.585 134.44 399.328L134.179 399.069C133.919 398.81 133.919 398.389 134.178 398.13Z" fill="#2C3B47"/>
<rect x="219.001" y="402" width="19" height="4" rx="2" fill="#2C3B47"/>
<rect x="132" y="321" width="90" height="4" rx="2" fill="#2C3B47"/>
<path d="M589.134 385.45C591.816 385.544 594.467 384.849 596.759 383.453C600.39 381.184 602.478 377.008 602.841 371.017C602.853 370.898 602.842 370.778 602.807 370.663C602.772 370.548 602.715 370.441 602.64 370.349C602.564 370.256 602.47 370.179 602.365 370.123C602.259 370.066 602.143 370.031 602.024 370.019C601.905 370.007 601.785 370.018 601.67 370.053C601.555 370.088 601.449 370.145 601.356 370.22C601.263 370.296 601.186 370.39 601.13 370.495C601.073 370.601 601.038 370.716 601.026 370.836C600.663 376.191 598.938 379.913 595.761 381.91C589.951 385.541 581.328 382.183 581.237 382.092C581.008 382.008 580.755 382.018 580.534 382.12C580.313 382.222 580.141 382.408 580.057 382.636C579.972 382.865 579.982 383.118 580.085 383.339C580.187 383.561 580.373 383.732 580.601 383.817C583.313 384.908 586.211 385.463 589.134 385.45Z" fill="#2C3B47"/>
<path d="M592.22 343.512C592.22 336.886 596.85 331.53 602.569 331.53C608.287 331.53 612.917 336.886 612.917 343.512C612.917 348.323 610.466 352.499 606.926 354.405H598.211C596.34 353.28 594.801 351.679 593.748 349.766C592.696 347.853 592.169 345.695 592.22 343.512Z" fill="#E9D519"/>
<path d="M606.927 354.314V365.843H598.122V354.314H598.213H606.927Z" fill="white"/>
<path d="M597.214 365.843V354.405C597.206 354.284 597.224 354.162 597.267 354.049C597.309 353.935 597.376 353.832 597.462 353.746C597.548 353.66 597.651 353.593 597.765 353.55C597.879 353.508 598 353.49 598.122 353.498H606.927C607.048 353.49 607.17 353.508 607.283 353.55C607.397 353.593 607.5 353.66 607.586 353.746C607.672 353.832 607.739 353.935 607.782 354.049C607.825 354.162 607.843 354.284 607.834 354.405V365.843C607.843 365.964 607.825 366.086 607.782 366.2C607.739 366.313 607.672 366.417 607.586 366.503C607.5 366.589 607.397 366.655 607.283 366.698C607.17 366.741 607.048 366.759 606.927 366.751H598.122C597.886 366.734 597.665 366.633 597.498 366.466C597.332 366.299 597.231 366.078 597.214 365.843ZM606.019 355.313H599.029V364.935H606.019V355.313Z" fill="#2C3B47"/>
<path d="M603.93 355.222C604.124 355.207 604.311 355.14 604.47 355.029C604.63 354.917 604.757 354.764 604.838 354.587L607.833 344.511C607.871 344.37 607.874 344.222 607.842 344.08C607.811 343.938 607.745 343.805 607.652 343.694C607.572 343.576 607.463 343.481 607.336 343.417C607.209 343.353 607.067 343.324 606.925 343.331H602.468C602.228 343.331 601.997 343.426 601.826 343.597C601.656 343.767 601.561 343.998 601.561 344.239C601.561 344.479 601.656 344.71 601.826 344.88C601.997 345.051 602.228 345.146 602.468 345.146H605.645L602.922 354.133C602.879 354.246 602.861 354.367 602.871 354.488C602.881 354.609 602.917 354.726 602.978 354.83C603.039 354.935 603.123 355.024 603.223 355.092C603.324 355.16 603.438 355.205 603.558 355.222H603.93Z" fill="#2C3B47"/>
<path d="M601.207 355.222H601.48C601.696 355.143 601.877 354.991 601.993 354.792C602.109 354.593 602.152 354.36 602.115 354.133L599.392 345.146H602.569C602.81 345.146 603.041 345.051 603.211 344.88C603.381 344.71 603.477 344.479 603.477 344.239C603.477 343.998 603.381 343.767 603.211 343.597C603.041 343.426 602.81 343.331 602.569 343.331H598.121C597.979 343.324 597.837 343.353 597.71 343.417C597.583 343.481 597.474 343.576 597.395 343.694C597.249 343.94 597.186 344.226 597.213 344.511L600.3 354.678C600.385 354.844 600.515 354.984 600.675 355.08C600.836 355.176 601.02 355.226 601.207 355.222Z" fill="#2C3B47"/>
<path d="M602.571 327.808C602.692 327.816 602.814 327.798 602.927 327.755C603.041 327.713 603.145 327.646 603.23 327.56C603.316 327.474 603.383 327.371 603.426 327.257C603.469 327.143 603.487 327.022 603.478 326.9V321.908C603.478 321.667 603.383 321.436 603.213 321.266C603.042 321.096 602.811 321 602.571 321C602.33 321 602.099 321.096 601.929 321.266C601.759 321.436 601.663 321.667 601.663 321.908V326.9C601.655 327.022 601.673 327.143 601.716 327.257C601.759 327.371 601.825 327.474 601.911 327.56C601.997 327.646 602.1 327.713 602.214 327.755C602.328 327.798 602.449 327.816 602.571 327.808Z" fill="#2C3B47"/>
<path d="M592.038 332.165C592.157 332.169 592.276 332.146 592.385 332.099C592.495 332.052 592.593 331.982 592.673 331.893C592.84 331.723 592.933 331.495 592.933 331.258C592.933 331.02 592.84 330.792 592.673 330.622L589.133 327.082C588.958 326.951 588.742 326.887 588.524 326.903C588.306 326.918 588.101 327.012 587.947 327.166C587.792 327.321 587.698 327.526 587.683 327.744C587.667 327.962 587.731 328.178 587.862 328.353L591.402 331.893C591.574 332.058 591.8 332.155 592.038 332.165Z" fill="#2C3B47"/>
<path d="M582.688 342.695H587.681C587.921 342.695 588.152 342.6 588.323 342.429C588.493 342.259 588.588 342.028 588.588 341.788C588.588 341.547 588.493 341.316 588.323 341.146C588.152 340.975 587.921 340.88 587.681 340.88H582.688C582.447 340.88 582.216 340.975 582.046 341.146C581.876 341.316 581.78 341.547 581.78 341.788C581.78 342.028 581.876 342.259 582.046 342.429C582.216 342.6 582.447 342.695 582.688 342.695Z" fill="#2C3B47"/>
<path d="M617.366 342.695H622.358C622.599 342.695 622.83 342.6 623 342.429C623.17 342.259 623.266 342.028 623.266 341.788C623.266 341.547 623.17 341.316 623 341.146C622.83 340.975 622.599 340.88 622.358 340.88H617.366C617.244 340.872 617.123 340.89 617.009 340.933C616.895 340.975 616.792 341.042 616.706 341.128C616.62 341.214 616.553 341.317 616.511 341.431C616.468 341.545 616.45 341.666 616.458 341.788C616.458 342.028 616.554 342.259 616.724 342.429C616.894 342.6 617.125 342.695 617.366 342.695Z" fill="#2C3B47"/>
<path d="M613.008 332.165C613.127 332.169 613.246 332.146 613.356 332.099C613.465 332.052 613.564 331.982 613.644 331.893L617.184 328.353C617.315 328.178 617.379 327.962 617.363 327.744C617.348 327.526 617.254 327.321 617.1 327.166C616.945 327.012 616.74 326.918 616.522 326.903C616.304 326.887 616.088 326.951 615.913 327.082L612.373 330.622C612.206 330.792 612.113 331.02 612.113 331.258C612.113 331.495 612.206 331.723 612.373 331.893C612.544 332.058 612.77 332.155 613.008 332.165Z" fill="#2C3B47"/>
<g clip-path="url(#clip0_1413_11230)">
<rect x="493" y="361" width="86" height="87" rx="43" fill="white"/>
<path d="M544.452 416.066C544.452 416.066 543.821 425.82 543.371 428.463C540.037 430.833 533.549 429.921 533.549 429.921L532.198 423.723L531.387 423.905C520.034 425.728 517.871 419.348 516.79 415.246C515.619 410.779 517.06 406.495 513.726 405.584C507.059 403.852 507.78 401.209 507.78 401.209C507.78 397.562 513.726 397.562 513.726 397.562L514.988 393.916L546.885 394.281L544.452 416.066Z" fill="#F8E1B8"/>
<path d="M543.74 425.455C543.74 425.455 555.183 425.911 561.22 434.752C567.257 443.594 599.965 500.746 599.965 500.746L575.907 516.762L567.527 494.885L509.68 492.698L514.095 467.995L514.546 465.625L504.635 469.272C501.386 470.468 497.861 470.674 494.498 469.864C491.135 469.054 488.08 467.263 485.713 464.714L450.302 426.248L473.458 411.937L498.958 445.572C498.958 445.572 510.041 436.73 518.33 432.446C522.899 429.946 527.778 428.076 532.837 426.886L533.999 429.5H538.499L542.999 428.5L543.74 425.455Z" fill="#E3A8CC"/>
<path d="M549.956 390.544C549.956 390.544 550.317 379.697 560.048 382.158C563.021 382.887 564.553 386.624 564.914 390.088C566.085 399.568 563.472 415.884 571.311 419.165C566.445 419.895 554.011 415.793 551.849 406.313C550.575 401.156 549.94 395.859 549.956 390.544Z" fill="#915A12"/>
<path d="M518.42 392.795C518.294 392.796 518.169 392.77 518.053 392.718C517.938 392.667 517.834 392.591 517.749 392.497C517.664 392.402 517.6 392.291 517.56 392.169C517.52 392.048 517.507 391.92 517.519 391.793L517.88 385.777C517.88 385.685 518.961 375.841 534.369 375.841C534.608 375.841 534.837 375.937 535.006 376.108C535.175 376.279 535.27 376.511 535.27 376.752C535.27 376.994 535.175 377.226 535.006 377.397C534.837 377.568 534.608 377.664 534.369 377.664C520.583 377.664 519.682 385.868 519.682 385.959L519.321 391.975C519.319 392.09 519.294 392.203 519.247 392.308C519.199 392.412 519.131 392.506 519.047 392.583C518.962 392.66 518.863 392.719 518.755 392.755C518.648 392.792 518.533 392.805 518.42 392.795Z" fill="#2C3B47"/>
<path d="M527.702 424.999C525.415 425.059 523.15 424.526 521.125 423.45C517.881 421.535 516.619 418.254 515.899 415.337C515.574 413.836 515.363 412.313 515.268 410.779C515.088 408.045 514.907 406.678 513.376 406.222C510.132 405.401 508.059 404.217 507.158 402.667C506.815 402.127 506.686 401.476 506.798 400.844C506.793 400.366 506.887 399.892 507.073 399.453C507.259 399.013 507.534 398.618 507.879 398.292C509.771 396.377 513.466 396.377 513.646 396.377C513.885 396.377 514.114 396.473 514.283 396.644C514.452 396.815 514.547 397.047 514.547 397.289C514.547 397.531 514.452 397.763 514.283 397.934C514.114 398.104 513.885 398.2 513.646 398.2C512.745 398.2 510.222 398.474 509.141 399.568C508.801 399.904 508.607 400.363 508.6 400.844V401.117C508.51 401.573 509.321 403.214 513.916 404.399C516.8 405.219 516.89 407.863 517.07 410.597C517.128 412.008 517.309 413.411 517.61 414.79C518.331 417.434 519.322 420.168 522.026 421.718C524.999 423.45 529.414 423.45 535.361 421.809C535.57 421.794 535.778 421.854 535.948 421.977C536.119 422.101 536.241 422.281 536.295 422.486C536.348 422.691 536.329 422.909 536.241 423.101C536.153 423.294 536.001 423.449 535.812 423.541C533.203 424.464 530.465 424.957 527.702 424.999Z" fill="#2C3B47"/>
<path d="M536.621 430.924C535.567 430.918 534.515 430.857 533.467 430.742C533.293 430.698 533.133 430.608 533.006 430.479C532.879 430.35 532.789 430.189 532.746 430.012L531.395 423.814C531.371 423.694 531.371 423.571 531.394 423.451C531.418 423.332 531.464 423.218 531.531 423.116C531.598 423.015 531.684 422.927 531.785 422.859C531.885 422.791 531.997 422.744 532.116 422.72C532.234 422.696 532.356 422.696 532.474 422.72C532.593 422.744 532.705 422.791 532.806 422.858C532.906 422.926 532.992 423.013 533.059 423.114C533.126 423.216 533.173 423.33 533.197 423.449L534.458 429.01C535.99 429.192 540.225 429.374 542.748 427.916C543.108 424.908 543.739 416.157 543.739 416.066C543.763 415.824 543.881 415.602 544.067 415.448C544.253 415.294 544.491 415.222 544.73 415.246C544.969 415.27 545.189 415.389 545.341 415.577C545.493 415.765 545.565 416.007 545.541 416.248C545.541 416.613 544.82 426.093 544.46 428.645C544.447 428.771 544.408 428.893 544.346 429.002C544.284 429.112 544.2 429.208 544.099 429.283C541.937 430.559 538.873 430.924 536.621 430.924Z" fill="#2C3B47"/>
<path d="M523.467 403.305C524.213 403.305 524.818 402.693 524.818 401.938C524.818 401.182 524.213 400.57 523.467 400.57C522.72 400.57 522.115 401.182 522.115 401.938C522.115 402.693 522.72 403.305 523.467 403.305Z" fill="#2C3B47"/>
<path d="M529.053 403.943C529.799 403.943 530.404 403.331 530.404 402.576C530.404 401.821 529.799 401.208 529.053 401.208C528.306 401.208 527.701 401.821 527.701 402.576C527.701 403.331 528.306 403.943 529.053 403.943Z" fill="#2C3B47"/>
<path d="M513.916 394.919L544.822 395.831L545.543 407.863H549.777C549.777 407.863 553.832 388.356 544.822 383.525C537.523 379.605 529.684 379.697 524.008 382.34C516.709 385.621 513.916 394.919 513.916 394.919Z" fill="#915A12"/>
<path d="M550.408 405.128C550.169 405.128 549.94 405.032 549.771 404.861C549.602 404.69 549.507 404.458 549.507 404.217L549.057 385.895C549.057 385.622 548.066 377.691 534.37 377.691C534.131 377.691 533.902 377.595 533.733 377.424C533.564 377.253 533.469 377.022 533.469 376.78C533.469 376.538 533.564 376.306 533.733 376.135C533.902 375.964 534.131 375.868 534.37 375.868C549.778 375.868 550.859 385.713 550.859 385.804L551.309 404.217C551.309 404.458 551.214 404.69 551.045 404.861C550.876 405.032 550.647 405.128 550.408 405.128Z" fill="#2C3B47"/>
<path d="M555.363 408.501C555.363 413.332 554.012 417.251 550.047 417.251C546.082 417.251 542.929 416.522 542.929 408.501C542.929 400.479 546.082 399.75 550.047 399.75C554.012 399.75 555.363 403.67 555.363 408.501Z" fill="white"/>
<path d="M550.137 418.163C545.182 418.163 542.118 416.522 542.118 408.501C542.118 400.479 545.182 398.839 550.137 398.839C552.48 398.839 556.355 400.115 556.355 408.501C556.355 416.887 552.39 418.163 550.137 418.163ZM550.137 400.662C546.533 400.662 543.92 401.208 543.92 408.501C543.92 415.793 546.443 416.34 550.137 416.34C553.832 416.34 554.553 412.056 554.553 408.501C554.553 404.946 553.742 400.662 550.137 400.662Z" fill="#2C3B47"/>
<path d="M549.236 418.072H548.957C548.417 417.889 545.533 416.613 545.533 408.227C545.533 399.568 548.507 399.112 549.137 399.021C549.376 399.021 549.606 399.117 549.774 399.288C549.943 399.459 550.038 399.691 550.038 399.932C550.04 400.159 549.957 400.378 549.807 400.547C549.657 400.715 549.45 400.821 549.227 400.844C549.137 400.844 547.335 401.664 547.335 408.227C547.335 415.337 549.408 416.34 549.498 416.34C549.712 416.419 549.893 416.572 550.008 416.772C550.123 416.971 550.166 417.205 550.128 417.434C550.049 417.61 549.925 417.763 549.768 417.875C549.611 417.987 549.428 418.055 549.236 418.072Z" fill="#2C3B47"/>
<path d="M498.687 471.304C496.155 471.298 493.65 470.769 491.326 469.75C489.002 468.732 486.908 467.244 485.172 465.379L449.761 426.913C449.581 426.715 449.484 426.453 449.491 426.184C449.492 426.044 449.536 425.907 449.616 425.793C449.697 425.679 449.81 425.593 449.941 425.546L473.098 411.235C473.282 411.117 473.502 411.071 473.717 411.104C473.933 411.138 474.129 411.249 474.269 411.417L499.138 444.323C501.751 442.318 510.942 435.299 517.97 431.653C522.631 429.127 527.599 427.227 532.747 426.002C532.986 425.953 533.234 426.003 533.437 426.14C533.639 426.277 533.78 426.489 533.828 426.731C533.876 426.973 533.827 427.224 533.692 427.429C533.556 427.634 533.346 427.776 533.107 427.825C528.133 428.969 523.342 430.81 518.871 433.294C510.761 437.578 499.769 446.237 499.588 446.329C499.408 446.467 499.183 446.533 498.958 446.511C498.833 446.498 498.713 446.459 498.604 446.396C498.496 446.333 498.401 446.248 498.327 446.146L473.368 413.149L451.833 426.458L486.523 464.103C488.757 466.534 491.648 468.245 494.837 469.023C498.026 469.801 501.371 469.612 504.454 468.479L514.366 464.832C514.593 464.748 514.844 464.758 515.063 464.861C515.283 464.963 515.453 465.15 515.537 465.379C515.621 465.609 515.611 465.863 515.509 466.085C515.408 466.307 515.223 466.48 514.996 466.564L505.085 470.21C503.026 470.927 500.865 471.297 498.687 471.304Z" fill="#2C3B47"/>
<path d="M516.519 456.264H516.339C516.219 456.242 516.105 456.196 516.004 456.129C515.902 456.062 515.815 455.975 515.748 455.872C515.681 455.77 515.634 455.655 515.612 455.535C515.59 455.414 515.592 455.29 515.618 455.17L517.06 447.24C517.083 447.12 517.13 447.006 517.197 446.905C517.264 446.804 517.35 446.717 517.451 446.649C517.551 446.581 517.664 446.534 517.782 446.51C517.901 446.487 518.022 446.487 518.141 446.511C518.259 446.535 518.372 446.582 518.472 446.65C518.572 446.718 518.658 446.805 518.725 446.907C518.792 447.008 518.839 447.122 518.862 447.242C518.885 447.362 518.885 447.485 518.862 447.605L517.42 455.535C517.37 455.74 517.255 455.923 517.092 456.054C516.929 456.186 516.728 456.26 516.519 456.264Z" fill="#2C3B47"/>
<path d="M575.988 517.791H575.718C575.59 517.752 575.474 517.682 575.38 517.587C575.286 517.491 575.216 517.374 575.177 517.245L554.544 463.556C554.502 463.442 554.483 463.322 554.488 463.2C554.493 463.079 554.521 462.96 554.571 462.85C554.622 462.74 554.693 462.641 554.781 462.559C554.869 462.477 554.972 462.413 555.084 462.371C555.197 462.329 555.316 462.31 555.436 462.315C555.556 462.32 555.673 462.348 555.782 462.399C555.891 462.45 555.988 462.522 556.07 462.611C556.151 462.7 556.214 462.804 556.256 462.918L576.439 515.513L598.875 500.564C595 493.819 566.167 443.594 560.581 435.39C554.904 427.004 543.911 426.457 543.731 426.457C543.492 426.457 543.263 426.361 543.094 426.19C542.925 426.019 542.83 425.788 542.83 425.546C542.83 425.304 542.925 425.072 543.094 424.901C543.263 424.73 543.492 424.634 543.731 424.634C544.182 424.634 555.715 425.181 561.932 434.388C567.879 443.229 600.407 499.835 600.767 500.473C600.874 500.669 600.906 500.899 600.856 501.117C600.806 501.336 600.678 501.528 600.497 501.658L576.448 517.673C576.314 517.767 576.151 517.809 575.988 517.791Z" fill="#2C3B47"/>
<path fill-rule="evenodd" clip-rule="evenodd" d="M536 445.5C558.34 445.5 576.5 427.171 576.5 404.5C576.5 381.829 558.34 363.5 536 363.5C513.66 363.5 495.5 381.829 495.5 404.5C495.5 427.171 513.66 445.5 536 445.5ZM536 448C559.748 448 579 428.524 579 404.5C579 380.476 559.748 361 536 361C512.252 361 493 380.476 493 404.5C493 428.524 512.252 448 536 448Z" fill="#2C3B47"/>
</g>
<g clip-path="url(#clip1_1413_11230)">
<rect x="46" y="218" width="156" height="158" rx="78" fill="white"/>
<path d="M211.494 416.506L269.336 393.849L254.809 358.397L190.569 387.851L169.911 352.933C167.249 348.449 163.681 344.569 159.436 341.54C155.191 338.511 150.362 336.4 145.255 335.34L136.193 333.475L113.935 333.075L93.1442 338.806C93.1442 338.806 78.8836 344.803 76.3513 355.865C73.8191 366.927 64.8895 406.11 64.8895 406.11C64.8895 406.11 61.0245 419.438 69.8208 430.9C71.9532 433.565 76.2181 437.697 76.2181 437.697L72.2198 478.346H178.041L176.442 427.968L211.494 416.506Z" fill="#FFF1E1"/>
<path d="M211.491 417.839C211.231 417.861 210.97 417.793 210.752 417.648C210.535 417.503 210.372 417.288 210.292 417.039C210.228 416.873 210.199 416.696 210.205 416.518C210.211 416.341 210.252 416.166 210.327 416.005C210.401 415.843 210.507 415.698 210.639 415.578C210.77 415.458 210.924 415.366 211.092 415.307L267.734 393.183L254.273 360.264L191.233 389.185C190.927 389.305 190.589 389.318 190.274 389.221C189.959 389.125 189.686 388.924 189.501 388.651L168.843 353.733C166.276 349.4 162.825 345.657 158.714 342.747C154.604 339.838 149.926 337.827 144.986 336.847L135.924 334.981C135.749 334.946 135.582 334.877 135.434 334.778C135.286 334.678 135.158 334.551 135.059 334.402C134.96 334.254 134.892 334.087 134.857 333.912C134.822 333.737 134.822 333.557 134.857 333.382C134.892 333.207 134.962 333.04 135.061 332.892C135.16 332.744 135.288 332.616 135.436 332.517C135.585 332.418 135.751 332.35 135.926 332.315C136.102 332.28 136.282 332.28 136.457 332.315L145.52 334.181C150.826 335.262 155.846 337.446 160.254 340.592C164.663 343.737 168.361 347.774 171.109 352.44L191.1 386.292L254.273 357.371C254.616 357.238 254.997 357.238 255.339 357.371C255.528 357.429 255.7 357.532 255.839 357.671C255.979 357.811 256.082 357.982 256.139 358.171L270.666 393.623C270.8 393.965 270.8 394.346 270.666 394.689C270.585 394.848 270.472 394.989 270.334 395.103C270.197 395.218 270.038 395.304 269.867 395.355L212.025 418.012C211.867 417.906 211.682 417.845 211.491 417.839Z" fill="#2C3B47"/>
<path d="M162.047 271.767C162.047 271.767 170.577 239.247 134.725 243.912C116.466 246.578 94.7424 259.639 99.2738 272.833C93.5429 276.298 83.2806 292.291 87.1457 308.018C90.8774 323.478 101.273 328.409 114.467 326.81C114.201 321.479 109.669 278.031 109.669 278.031L162.047 271.767Z" fill="#2C3B47"/>
<path d="M136.19 327.61V335.207C136.19 335.207 128.727 340.271 115.132 335.34C114.733 330.942 114.199 317.348 114.199 317.348C113.532 318.643 112.439 319.668 111.103 320.251C109.768 320.834 108.273 320.938 106.869 320.546C101.405 319.48 100.072 314.815 99.6723 310.817C99.2725 306.819 102.071 299.488 112.067 306.019L109.801 278.031L159.247 272.033C159.247 272.033 171.508 270.168 171.775 276.298C172.041 282.429 168.176 284.428 160.047 286.294C159.913 290.026 163.245 329.742 140.855 328.143L136.19 327.61Z" fill="#915A12"/>
<path d="M135.526 289.626C136.631 289.626 137.526 288.731 137.526 287.627C137.526 286.523 136.631 285.628 135.526 285.628C134.422 285.628 133.527 286.523 133.527 287.627C133.527 288.731 134.422 289.626 135.526 289.626Z" fill="#2C3B47"/>
<path d="M144.322 289.094C145.426 289.094 146.322 288.199 146.322 287.094C146.322 285.99 145.426 285.095 144.322 285.095C143.218 285.095 142.323 285.99 142.323 287.094C142.323 288.199 143.218 289.094 144.322 289.094Z" fill="#2C3B47"/>
<path d="M126.332 338.939C122.317 338.909 118.341 338.141 114.604 336.673C114.354 336.576 114.136 336.414 113.971 336.203C113.807 335.991 113.703 335.739 113.671 335.474C113.404 332.409 113.004 324.945 112.871 320.68C111.948 321.317 110.902 321.754 109.8 321.96C108.698 322.167 107.564 322.139 106.474 321.88C101.542 320.947 98.7436 317.215 98.2105 310.951C98.0356 309.431 98.2637 307.892 98.8719 306.489C99.4802 305.085 100.447 303.866 101.676 302.954C104.474 301.355 108.073 301.888 112.604 304.82C112.905 305.015 113.116 305.32 113.191 305.67C113.266 306.02 113.199 306.386 113.004 306.686C112.81 306.987 112.504 307.197 112.154 307.272C111.804 307.347 111.439 307.28 111.138 307.086C107.54 304.82 104.741 304.154 103.008 305.22C101.276 306.286 100.743 309.085 100.876 310.684C101.276 315.882 103.275 318.548 106.873 319.214C111.272 320.014 112.738 316.815 112.738 316.815C112.854 316.535 113.063 316.303 113.33 316.157C113.597 316.012 113.905 315.962 114.204 316.015C114.488 316.072 114.745 316.22 114.938 316.437C115.13 316.653 115.247 316.926 115.27 317.215C115.27 317.348 115.803 329.343 116.203 334.274C126.465 337.74 132.729 335.207 134.728 334.274V327.611C134.728 327.257 134.869 326.918 135.119 326.668C135.369 326.418 135.708 326.278 136.061 326.278C136.415 326.278 136.754 326.418 137.003 326.668C137.253 326.918 137.394 327.257 137.394 327.611V335.207C137.356 335.617 137.166 335.998 136.861 336.274C136.594 336.54 132.996 338.939 126.332 338.939Z" fill="#2C3B47"/>
<path d="M141.925 329.475H140.459L131.396 328.542C131.063 328.463 130.765 328.277 130.548 328.012C130.331 327.747 130.208 327.418 130.196 327.076C130.257 326.734 130.438 326.425 130.707 326.205C130.976 325.984 131.315 325.868 131.662 325.877L140.725 326.81C142.513 327.009 144.322 326.814 146.026 326.238C147.73 325.663 149.287 324.72 150.588 323.478C159.117 315.348 158.584 295.09 158.451 288.426V286.293C158.474 286.005 158.591 285.732 158.783 285.515C158.976 285.299 159.233 285.151 159.517 285.094C167.914 283.228 170.313 281.229 170.179 276.431C170.202 276.098 170.141 275.765 170.001 275.462C169.861 275.16 169.648 274.897 169.38 274.698C167.114 272.833 161.383 273.232 159.251 273.499C159.064 273.586 158.859 273.628 158.653 273.622C158.447 273.616 158.245 273.563 158.063 273.466C157.881 273.369 157.724 273.231 157.604 273.063C157.485 272.895 157.406 272.701 157.374 272.498C157.342 272.294 157.357 272.086 157.419 271.889C157.481 271.692 157.588 271.513 157.731 271.364C157.874 271.216 158.05 271.103 158.244 271.034C158.438 270.965 158.646 270.942 158.851 270.967C159.784 270.833 167.514 269.767 170.979 272.699C171.536 273.154 171.99 273.722 172.312 274.365C172.633 275.008 172.815 275.712 172.845 276.431C173.111 283.894 167.78 286.027 161.116 287.626V288.559C161.25 295.49 161.783 316.814 152.453 325.61C149.547 328.164 145.793 329.542 141.925 329.475Z" fill="#2C3B47"/>
<path d="M99.2757 274.207C99.0354 274.208 98.7988 274.148 98.5887 274.031C98.3786 273.914 98.2021 273.745 98.0762 273.541C97.943 273.141 93.5448 265.411 85.8148 268.209C85.6485 268.271 85.4718 268.299 85.2948 268.292C85.1177 268.285 84.9438 268.243 84.7829 268.168C84.622 268.094 84.4773 267.989 84.3571 267.859C84.2369 267.729 84.1435 267.576 84.0822 267.41C84.0209 267.244 83.9931 267.067 84.0001 266.89C84.0071 266.713 84.0489 266.539 84.1232 266.378C84.1975 266.217 84.3027 266.072 84.4328 265.952C84.563 265.832 84.7156 265.738 84.8819 265.677C92.7452 262.745 98.4761 268.609 100.342 272.208C100.435 272.364 100.495 272.537 100.518 272.718C100.542 272.898 100.528 273.081 100.478 273.256C100.428 273.431 100.343 273.593 100.228 273.734C100.113 273.875 99.9703 273.99 99.8088 274.074C99.6756 274.034 99.5423 274.207 99.2757 274.207Z" fill="#2C3B47"/>
<path d="M143.927 469.55C143.739 469.57 143.551 469.523 143.394 469.417L84.7525 443.961C77.235 441.331 70.935 436.048 67.0338 429.105C63.1326 422.161 61.898 414.033 63.5616 406.244L73.6906 359.464C74.863 353.905 77.5697 348.786 81.5037 344.687C85.4377 340.588 90.4416 337.673 95.9478 336.274L114.473 331.476C114.783 331.454 115.09 331.542 115.342 331.722C115.594 331.903 115.775 332.166 115.854 332.466C115.933 332.766 115.905 333.084 115.775 333.366C115.644 333.647 115.42 333.874 115.14 334.008L96.6142 338.806C91.5901 340.083 87.0265 342.748 83.4444 346.495C79.8623 350.242 77.406 354.921 76.3561 359.997L66.2271 406.777C64.6862 413.95 65.8294 421.439 69.4401 427.825C73.0508 434.211 78.8783 439.051 85.8188 441.429L143.261 466.485L161.653 425.969L99.5462 398.78C99.2862 398.606 99.0962 398.344 99.0095 398.043C98.9228 397.742 98.9451 397.42 99.0724 397.133C99.1997 396.847 99.4239 396.615 99.7055 396.477C99.9872 396.34 100.308 396.306 100.612 396.382L164.052 424.103C164.211 424.185 164.352 424.298 164.467 424.435C164.581 424.573 164.667 424.732 164.718 424.903C164.852 425.246 164.852 425.626 164.718 425.969L145.26 468.884C145.106 469.092 144.905 469.261 144.674 469.377C144.442 469.493 144.186 469.552 143.927 469.55Z" fill="#2C3B47"/>
<path fill-rule="evenodd" clip-rule="evenodd" d="M124 373.5C165.668 373.5 199.5 339.28 199.5 297C199.5 254.72 165.668 220.5 124 220.5C82.3324 220.5 48.5 254.72 48.5 297C48.5 339.28 82.3324 373.5 124 373.5ZM124 376C167.078 376 202 340.63 202 297C202 253.37 167.078 218 124 218C80.9218 218 46 253.37 46 297C46 340.63 80.9218 376 124 376Z" fill="#2C3B47"/>
</g>
<path d="M52.0013 193C50.8346 207.333 55.001 238 85.5013 249.5" stroke="#2C3B47" stroke-width="2.5" stroke-linecap="round"/>
<path d="M67.4212 149.561C67.4212 138.799 59.9026 130.101 50.6149 130.101C41.3272 130.101 33.8086 138.799 33.8086 149.561C33.8086 157.374 37.789 164.156 43.5385 167.252H57.6912C60.7298 165.424 63.2305 162.824 64.9395 159.717C66.6484 156.61 67.5046 153.106 67.4212 149.561Z" fill="#E9D519"/>
<path d="M43.5368 167.104V185.827H57.8369V167.104H57.6895H43.5368Z" fill="white"/>
<path d="M59.3114 185.827V167.252C59.3245 167.055 59.2952 166.858 59.2258 166.673C59.1563 166.488 59.0481 166.32 58.9085 166.181C58.769 166.041 58.6012 165.933 58.4164 165.863C58.2316 165.794 58.0342 165.765 57.8372 165.778H43.5371C43.3401 165.765 43.1426 165.794 42.9579 165.863C42.7731 165.933 42.6053 166.041 42.4657 166.181C42.3261 166.32 42.218 166.488 42.1485 166.673C42.079 166.858 42.0498 167.055 42.0628 167.252V185.827C42.0498 186.024 42.079 186.222 42.1485 186.407C42.218 186.591 42.3261 186.759 42.4657 186.899C42.6053 187.038 42.7731 187.147 42.9579 187.216C43.1426 187.285 43.3401 187.315 43.5371 187.302H57.8372C58.2191 187.274 58.5784 187.11 58.8492 186.839C59.1199 186.569 59.284 186.209 59.3114 185.827ZM45.0113 168.726H56.363V184.353H45.0113V168.726Z" fill="#2C3B47"/>
<path d="M48.4042 168.579C48.0886 168.554 47.7854 168.446 47.5261 168.264C47.2667 168.083 47.0609 167.835 46.93 167.547L42.065 151.183C42.0041 150.954 41.999 150.714 42.0503 150.483C42.1017 150.252 42.2078 150.037 42.3598 149.856C42.489 149.665 42.6654 149.51 42.872 149.406C43.0787 149.303 43.3085 149.255 43.5392 149.266H50.7777C51.1687 149.266 51.5437 149.422 51.8201 149.698C52.0966 149.975 52.252 150.35 52.252 150.741C52.252 151.132 52.0966 151.507 51.8201 151.783C51.5437 152.059 51.1687 152.215 50.7777 152.215H45.6179L50.0406 166.81C50.1112 166.993 50.1397 167.19 50.1239 167.386C50.1081 167.582 50.0485 167.772 49.9494 167.942C49.8503 168.112 49.7143 168.257 49.5515 168.368C49.3887 168.478 49.2031 168.55 49.0086 168.579H48.4042Z" fill="#2C3B47"/>
<path d="M52.8255 168.579H52.3832C52.0323 168.45 51.7373 168.203 51.5489 167.88C51.3605 167.557 51.2907 167.179 51.3513 166.81L55.774 152.215H50.6142C50.2232 152.215 49.8482 152.059 49.5717 151.783C49.2952 151.507 49.14 151.132 49.14 150.741C49.14 150.35 49.2952 149.975 49.5717 149.698C49.8482 149.422 50.2232 149.266 50.6142 149.266H57.8379C58.0687 149.255 58.2984 149.303 58.5051 149.406C58.7117 149.51 58.8881 149.665 59.0173 149.856C59.2534 150.256 59.3566 150.721 59.3122 151.183L54.2998 167.694C54.1617 167.965 53.9502 168.192 53.6895 168.348C53.4288 168.504 53.1295 168.584 52.8255 168.579Z" fill="#2C3B47"/>
<path d="M50.6116 124.057C50.4146 124.07 50.2171 124.041 50.0324 123.971C49.8476 123.902 49.6798 123.793 49.5402 123.654C49.4006 123.514 49.2925 123.347 49.223 123.162C49.1535 122.977 49.1243 122.78 49.1374 122.583V114.474C49.1374 114.083 49.2927 113.708 49.5691 113.432C49.8456 113.155 50.2206 113 50.6116 113C51.0026 113 51.3776 113.155 51.654 113.432C51.9305 113.708 52.0858 114.083 52.0858 114.474V122.583C52.0989 122.78 52.0697 122.977 52.0002 123.162C51.9307 123.347 51.8225 123.514 51.683 123.654C51.5434 123.793 51.3756 123.902 51.1908 123.971C51.006 124.041 50.8086 124.07 50.6116 124.057Z" fill="#2C3B47"/>
<path d="M67.7176 131.133C67.5239 131.138 67.3313 131.101 67.1532 131.025C66.975 130.949 66.8155 130.835 66.6857 130.691C66.4155 130.415 66.2642 130.045 66.2642 129.659C66.2642 129.273 66.4155 128.902 66.6857 128.627L72.4352 122.877C72.7191 122.664 73.0703 122.561 73.4242 122.586C73.7782 122.611 74.1112 122.763 74.3622 123.014C74.6131 123.265 74.7651 123.598 74.7902 123.952C74.8154 124.306 74.712 124.657 74.4991 124.941L68.7496 130.691C68.4707 130.959 68.1039 131.116 67.7176 131.133Z" fill="#2C3B47"/>
<path d="M82.9017 148.234H74.7934C74.4024 148.234 74.0274 148.079 73.751 147.802C73.4745 147.526 73.3192 147.151 73.3192 146.76C73.3192 146.369 73.4745 145.994 73.751 145.718C74.0274 145.441 74.4024 145.286 74.7934 145.286H82.9017C83.2927 145.286 83.6677 145.441 83.9442 145.718C84.2206 145.994 84.376 146.369 84.376 146.76C84.376 147.151 84.2206 147.526 83.9442 147.802C83.6677 148.079 83.2927 148.234 82.9017 148.234Z" fill="#2C3B47"/>
<path d="M26.5843 148.234H18.476C18.085 148.234 17.71 148.079 17.4335 147.802C17.1571 147.526 17.0017 147.151 17.0017 146.76C17.0017 146.369 17.1571 145.994 17.4335 145.718C17.71 145.441 18.085 145.286 18.476 145.286H26.5843C26.7812 145.273 26.9787 145.302 27.1635 145.371C27.3483 145.441 27.5161 145.549 27.6557 145.689C27.7952 145.828 27.9034 145.996 27.9728 146.181C28.0423 146.366 28.0715 146.563 28.0585 146.76C28.0585 147.151 27.9032 147.526 27.6267 147.802C27.3503 148.079 26.9753 148.234 26.5843 148.234Z" fill="#2C3B47"/>
<path d="M33.6609 131.133C33.4671 131.138 33.2746 131.101 33.0964 131.025C32.9183 130.949 32.7588 130.835 32.6289 130.691L26.8794 124.941C26.6665 124.657 26.5631 124.306 26.5883 123.952C26.6134 123.598 26.7654 123.265 27.0163 123.014C27.2673 122.763 27.6003 122.611 27.9543 122.586C28.3082 122.561 28.6594 122.664 28.9433 122.877L34.6928 128.627C34.963 128.902 35.1143 129.273 35.1143 129.659C35.1143 130.045 34.963 130.415 34.6928 130.691C34.414 130.959 34.0472 131.116 33.6609 131.133Z" fill="#2C3B47"/>
<defs>
<clipPath id="clip0_1413_11230">
<rect x="493" y="361" width="86" height="87" rx="43" fill="white"/>
</clipPath>
<clipPath id="clip1_1413_11230">
<rect x="46" y="218" width="156" height="158" rx="78" fill="white"/>
</clipPath>
</defs>
</svg>
