<svg width="320" height="240" viewBox="0 0 320 240" fill="none" xmlns="http://www.w3.org/2000/svg">
<path d="M51 167.367C51 169.373 52.6266 171 54.6331 171H207.223C209.23 171 210.856 169.373 210.856 167.367C210.856 165.36 209.23 163.734 207.223 163.734H54.6331C52.6266 163.734 51 165.36 51 167.367Z" fill="white"/>
<path fill-rule="evenodd" clip-rule="evenodd" d="M207.223 168.5H54.6331C54.0073 168.5 53.5 167.993 53.5 167.367C53.5 166.741 54.0073 166.234 54.6331 166.234H207.223C207.849 166.234 208.356 166.741 208.356 167.367C208.356 167.993 207.849 168.5 207.223 168.5ZM54.6331 171C52.6266 171 51 169.373 51 167.367C51 165.36 52.6266 163.734 54.6331 163.734H207.223C209.23 163.734 210.856 165.36 210.856 167.367C210.856 169.373 209.23 171 207.223 171H54.6331Z" fill="#2C3B47"/>
<path d="M51 74C51 71.7909 52.7909 70 55 70H206.856C209.065 70 210.856 71.7909 210.856 74V161.914C210.856 164.123 209.065 165.914 206.856 165.914H55C52.7909 165.914 51 164.123 51 161.914V74Z" fill="white"/>
<path fill-rule="evenodd" clip-rule="evenodd" d="M206.856 72.5H55C54.1716 72.5 53.5 73.1716 53.5 74V161.914C53.5 162.742 54.1716 163.414 55 163.414H206.856C207.685 163.414 208.356 162.742 208.356 161.914V74C208.356 73.1716 207.685 72.5 206.856 72.5ZM55 70C52.7909 70 51 71.7909 51 74V161.914C51 164.123 52.7909 165.914 55 165.914H206.856C209.065 165.914 210.856 164.123 210.856 161.914V74C210.856 71.7909 209.065 70 206.856 70H55Z" fill="#2C3B47"/>
<path d="M56 77C56 75.8954 56.8954 75 58 75H204C205.105 75 206 75.8954 206 77V159C206 160.105 205.105 161 204 161H58C56.8954 161 56 160.105 56 159V77Z" fill="#F1F7FC"/>
<path fill-rule="evenodd" clip-rule="evenodd" d="M58.5 77.5V158.5H203.5V77.5H58.5ZM58 75C56.8954 75 56 75.8954 56 77V159C56 160.105 56.8954 161 58 161H204C205.105 161 206 160.105 206 159V77C206 75.8954 205.105 75 204 75H58Z" fill="#2C3B47"/>
<path d="M226 87C226 84.7909 227.791 83 230 83H274C276.209 83 278 84.7909 278 87V167C278 169.209 276.209 171 274 171H230C227.791 171 226 169.209 226 167V87Z" fill="white"/>
<path fill-rule="evenodd" clip-rule="evenodd" d="M274 85.5H230C229.172 85.5 228.5 86.1716 228.5 87V167C228.5 167.828 229.172 168.5 230 168.5H274C274.828 168.5 275.5 167.828 275.5 167V87C275.5 86.1716 274.828 85.5 274 85.5ZM230 83C227.791 83 226 84.7909 226 87V167C226 169.209 227.791 171 230 171H274C276.209 171 278 169.209 278 167V87C278 84.7909 276.209 83 274 83H230Z" fill="#2C3B47"/>
<path d="M226 94C226 92.8954 226.895 92 228 92H276C277.105 92 278 92.8954 278 94V161C278 162.105 277.105 163 276 163H228C226.895 163 226 162.105 226 161V94Z" fill="#F1F7FC"/>
<path fill-rule="evenodd" clip-rule="evenodd" d="M228.5 94.5V160.5H275.5V94.5H228.5ZM228 92C226.895 92 226 92.8954 226 94V161C226 162.105 226.895 163 228 163H276C277.105 163 278 162.105 278 161V94C278 92.8954 277.105 92 276 92H228Z" fill="#2C3B47"/>
<path d="M231 113H273V145H231V113Z" fill="#E0F5E3"/>
<path d="M231 147H273V155H231V147Z" fill="#E5E5E5"/>
<path d="M231 107H247V113H231V107Z" fill="#5C9CD0"/>
<path d="M249 107H265V113H249V107Z" fill="#FDF0C3"/>
<path d="M267 107H273V113H267V107Z" fill="#E0F5E3"/>
<path d="M229 95H275V103H229V95Z" fill="white"/>
<rect x="92" y="89" width="77" height="29" fill="#E0F5E3"/>
<rect x="92" y="83" width="16" height="6" fill="#5C9CD0"/>
<rect x="110" y="83" width="16" height="6" fill="#FDF0C3"/>
<rect x="128" y="83" width="16" height="6" fill="#E0F5E3"/>
<rect x="92" y="120" width="77" height="13" fill="#E5E5E5"/>
<rect x="246" y="88" width="12" height="2" rx="1" fill="#2C3B47"/>
<rect x="59" y="78" width="25" height="80" fill="white"/>
<rect x="173" y="83" width="25" height="16" rx="2" fill="white"/>
<rect x="173" y="101" width="25" height="16" rx="2" fill="white"/>
<rect x="173" y="119" width="25" height="16" rx="2" fill="white"/>
<path d="M190.06 166.775L207.316 179.98L203.926 184.358L186.366 170.92L184.982 169.86L184.423 171.511L181.076 181.391C180.762 180.817 180.401 180.161 180 179.437C178.582 176.877 176.649 173.439 174.49 169.62C170.709 162.936 166.229 155.077 162.589 148.705L200.202 159.067L190.206 164.693L188.554 165.623L190.06 166.775Z" fill="#E4B722" stroke="#2C3B47" stroke-width="2.5"/>
<path d="M165.345 132.064L163.152 140.276" stroke="#2C3B47" stroke-width="2.5" stroke-linecap="round"/>
<path d="M159.41 154.285L157.217 162.497" stroke="#2C3B47" stroke-width="2.5" stroke-linecap="round"/>
<path d="M154.276 145.41L146.064 143.217" stroke="#2C3B47" stroke-width="2.5" stroke-linecap="round"/>
<path d="M157.65 141.005L153.394 133.647" stroke="#2C3B47" stroke-width="2.5" stroke-linecap="round"/>
<path d="M147.647 155.167L155.005 150.911" stroke="#2C3B47" stroke-width="2.5" stroke-linecap="round"/>
<path d="M167.557 143.65L174.914 139.394" stroke="#2C3B47" stroke-width="2.5" stroke-linecap="round"/>
<path fill-rule="evenodd" clip-rule="evenodd" d="M42 109.75C42.6904 109.75 43.25 110.31 43.25 111V114.075C43.25 114.765 42.6904 115.325 42 115.325C41.3096 115.325 40.75 114.765 40.75 114.075V111C40.75 110.31 41.3096 109.75 42 109.75ZM42 118.975C42.6904 118.975 43.25 119.535 43.25 120.225V126.375C43.25 127.065 42.6904 127.625 42 127.625C41.3096 127.625 40.75 127.065 40.75 126.375V120.225C40.75 119.535 41.3096 118.975 42 118.975ZM42 131.275C42.6904 131.275 43.25 131.835 43.25 132.525V138.675C43.25 139.365 42.6904 139.925 42 139.925C41.3096 139.925 40.75 139.365 40.75 138.675V132.525C40.75 131.835 41.3096 131.275 42 131.275ZM42 143.575C42.6904 143.575 43.25 144.135 43.25 144.825V150.975C43.25 151.665 42.6904 152.225 42 152.225C41.3096 152.225 40.75 151.665 40.75 150.975V144.825C40.75 144.135 41.3096 143.575 42 143.575ZM42 155.875C42.6904 155.875 43.25 156.435 43.25 157.125V163.275C43.25 163.965 42.6904 164.525 42 164.525C41.3096 164.525 40.75 163.965 40.75 163.275V157.125C40.75 156.435 41.3096 155.875 42 155.875ZM42 168.175C42.6904 168.175 43.25 168.735 43.25 169.425V172.5C43.25 173.418 43.4324 174.289 43.7617 175.083C44.0261 175.721 43.7236 176.453 43.0859 176.717C42.4482 176.981 41.7168 176.679 41.4524 176.041C40.9994 174.949 40.75 173.752 40.75 172.5V169.425C40.75 168.735 41.3096 168.175 42 168.175ZM45.783 179.414C46.0475 178.776 46.7788 178.474 47.4165 178.738C48.2107 179.068 49.0825 179.25 50 179.25H53.0556C53.7459 179.25 54.3056 179.81 54.3056 180.5C54.3056 181.19 53.7459 181.75 53.0556 181.75H50C48.7481 181.75 47.5513 181.501 46.4589 181.048C45.8212 180.783 45.5186 180.052 45.783 179.414ZM57.9167 180.5C57.9167 179.81 58.4763 179.25 59.1667 179.25H65.2778C65.9681 179.25 66.5278 179.81 66.5278 180.5C66.5278 181.19 65.9681 181.75 65.2778 181.75H59.1667C58.4763 181.75 57.9167 181.19 57.9167 180.5ZM70.1389 180.5C70.1389 179.81 70.6985 179.25 71.3889 179.25H77.5C78.1904 179.25 78.75 179.81 78.75 180.5C78.75 181.19 78.1904 181.75 77.5 181.75H71.3889C70.6985 181.75 70.1389 181.19 70.1389 180.5ZM82.3611 180.5C82.3611 179.81 82.9208 179.25 83.6111 179.25H89.7222C90.4126 179.25 90.9722 179.81 90.9722 180.5C90.9722 181.19 90.4126 181.75 89.7222 181.75H83.6111C82.9208 181.75 82.3611 181.19 82.3611 180.5ZM94.5833 180.5C94.5833 179.81 95.143 179.25 95.8333 179.25H101.944C102.635 179.25 103.194 179.81 103.194 180.5C103.194 181.19 102.635 181.75 101.944 181.75H95.8333C95.143 181.75 94.5833 181.19 94.5833 180.5ZM106.806 180.5C106.806 179.81 107.365 179.25 108.056 179.25H114.167C114.857 179.25 115.417 179.81 115.417 180.5C115.417 181.19 114.857 181.75 114.167 181.75H108.056C107.365 181.75 106.806 181.19 106.806 180.5ZM119.028 180.5C119.028 179.81 119.587 179.25 120.278 179.25H126.389C127.079 179.25 127.639 179.81 127.639 180.5C127.639 181.19 127.079 181.75 126.389 181.75H120.278C119.587 181.75 119.028 181.19 119.028 180.5ZM131.25 180.5C131.25 179.81 131.81 179.25 132.5 179.25H138.611C139.301 179.25 139.861 179.81 139.861 180.5C139.861 181.19 139.301 181.75 138.611 181.75H132.5C131.81 181.75 131.25 181.19 131.25 180.5ZM143.472 180.5C143.472 179.81 144.032 179.25 144.722 179.25H150.833C151.524 179.25 152.083 179.81 152.083 180.5C152.083 181.19 151.524 181.75 150.833 181.75H144.722C144.032 181.75 143.472 181.19 143.472 180.5ZM155.694 180.5C155.694 179.81 156.254 179.25 156.944 179.25H160C160.69 179.25 161.25 179.81 161.25 180.5C161.25 181.19 160.69 181.75 160 181.75H156.944C156.254 181.75 155.694 181.19 155.694 180.5Z" fill="#2C3B47"/>
<path d="M237 59C237 61.2091 235.209 63 233 63C230.791 63 229 61.2091 229 59C229 56.7909 230.791 55 233 55C235.209 55 237 56.7909 237 59Z" fill="#5AB467"/>
<path fill-rule="evenodd" clip-rule="evenodd" d="M245.408 65.4911C245.6 65.123 245.777 64.7454 245.938 64.359C246.622 62.7083 247 60.8983 247 59C247 57.1017 246.622 55.2917 245.938 53.641C245.777 53.2546 245.6 52.877 245.408 52.5089C245.213 52.1381 245.003 51.777 244.777 51.4267C243.642 52.0201 243.128 53.393 243.628 54.5986C244.189 55.9511 244.5 57.4361 244.5 59C244.5 60.5639 244.189 62.0489 243.628 63.4014C243.128 64.607 243.642 65.9799 244.777 66.5733C245.003 66.223 245.213 65.8619 245.408 65.4911ZM240.573 70.7768C239.98 69.6418 238.607 69.1284 237.401 69.6284C236.049 70.1892 234.564 70.5 233 70.5C231.436 70.5 229.951 70.1892 228.599 69.6284C227.393 69.1284 226.02 69.6418 225.427 70.7768C225.777 71.0025 226.138 71.2131 226.509 71.4075C226.877 71.6004 227.255 71.7775 227.641 71.9377C229.292 72.6222 231.102 73 233 73C234.898 73 236.708 72.6222 238.359 71.9377C238.745 71.7775 239.123 71.6004 239.491 71.4075C239.862 71.2131 240.223 71.0025 240.573 70.7768ZM221.223 66.5733C222.358 65.9799 222.872 64.607 222.372 63.4014C221.811 62.0489 221.5 60.5639 221.5 59C221.5 57.4361 221.811 55.9511 222.372 54.5986C222.872 53.393 222.358 52.0201 221.223 51.4267C220.997 51.777 220.787 52.1381 220.592 52.5089C220.4 52.877 220.223 53.2546 220.062 53.641C219.378 55.2917 219 57.1017 219 59C219 60.8983 219.378 62.7083 220.062 64.359C220.223 64.7454 220.4 65.123 220.592 65.4911C220.787 65.8619 220.997 66.223 221.223 66.5733ZM225.427 47.2232C226.02 48.3582 227.393 48.8716 228.599 48.3716C229.951 47.8108 231.436 47.5 233 47.5C234.564 47.5 236.049 47.8108 237.401 48.3716C238.607 48.8716 239.98 48.3582 240.573 47.2232C240.223 46.9975 239.862 46.7869 239.491 46.5925C239.123 46.3996 238.745 46.2226 238.359 46.0623C236.708 45.3778 234.898 45 233 45C231.102 45 229.292 45.3778 227.641 46.0623C227.255 46.2226 226.877 46.3996 226.509 46.5925C226.138 46.7869 225.777 46.9975 225.427 47.2232Z" fill="#2C3B47"/>
</svg>
