<svg width="112" height="112" viewBox="0 0 112 112" fill="none" xmlns="http://www.w3.org/2000/svg">
<rect width="112" height="112" rx="16" fill="white"/>
<path d="M93 63C93 72.3888 76.8823 80 57 80C37.1177 80 21 72.3888 21 63C21 53.6112 21 51.5 21 51.5C33.5 75 90 69 93 51.5C93 51.5 93 59.7785 93 63Z" fill="#1168A8"/>
<path d="M93 63C93 70.4019 82.9823 76.6989 69 79.0326L69.5 65.5C79.5 57 81.5 52.5 93 51.5C93 51.5 93 59.7785 93 63Z" fill="#E9D519"/>
<path d="M57.3761 49.4706L70.2991 63.4451C65.8055 64.4419 60.7739 65 55.4615 65C36.429 65 21 57.8366 21 49C21 40.1634 36.429 33 55.4615 33C63.6112 33 71.1002 34.3134 77 36.5093L57.3761 49.4706Z" fill="#5C9CD0"/>
<path d="M93.0009 52.0001C93.0009 59.0441 83.9287 65.0874 71.0009 67.6667L56.5 52.0001L78.5009 38.3635C87.3018 41.4628 93.0009 46.4172 93.0009 52.0001Z" fill="#EFE08A"/>
<path d="M52.5 19C51.9477 19 51.5 19.4477 51.5 20C51.5 20.5523 51.9477 21 52.5 21H55.2083C55.7606 21 56.2083 20.5523 56.2083 20C56.2083 19.4477 55.7606 19 55.2083 19H52.5Z" fill="#2C3B47"/>
<path d="M60.625 19C60.0727 19 59.625 19.4477 59.625 20C59.625 20.5523 60.0727 21 60.625 21H66.0417C66.594 21 67.0417 20.5523 67.0417 20C67.0417 19.4477 66.594 19 66.0417 19H60.625Z" fill="#2C3B47"/>
<path d="M71.4583 19C70.906 19 70.4583 19.4477 70.4583 20C70.4583 20.5523 70.906 21 71.4583 21H76.875C77.4273 21 77.875 20.5523 77.875 20C77.875 19.4477 77.4273 19 76.875 19H71.4583Z" fill="#2C3B47"/>
<path d="M82.2917 19C81.7394 19 81.2917 19.4477 81.2917 20C81.2917 20.5523 81.7394 21 82.2917 21H85C85.5523 21 86 20.5523 86 20C86 19.4477 85.5523 19 85 19H82.2917Z" fill="#2C3B47"/>
<path d="M61 25C61 24.4477 61.4477 24 62 24L64.875 24C65.4273 24 65.875 24.4477 65.875 25C65.875 25.5523 65.4273 26 64.875 26L62 26C61.4477 26 61 25.5523 61 25Z" fill="#2C3B47"/>
<path d="M69.625 25C69.625 24.4477 70.0727 24 70.625 24L76.375 24C76.9273 24 77.375 24.4477 77.375 25C77.375 25.5523 76.9273 26 76.375 26L70.625 26C70.0727 26 69.625 25.5523 69.625 25Z" fill="#2C3B47"/>
<path d="M81.125 25C81.125 24.4477 81.5727 24 82.125 24H85C85.5523 24 86 24.4477 86 25C86 25.5523 85.5523 26 85 26H82.125C81.5727 26 81.125 25.5523 81.125 25Z" fill="#2C3B47"/>
<path fill-rule="evenodd" clip-rule="evenodd" d="M85.7402 30.0344C86.2735 29.8908 86.8222 30.2067 86.9658 30.74C88.1547 35.156 87.6265 38.9766 86.2962 42.1174C90.3312 44.7798 92.779 48.0152 92.9865 51.5152L93 51.5L93 51.8777C93.0006 51.9185 93.0009 51.9593 93.0009 52.0001L93.0007 52.0608L93 52.1226L93 63C93 69.9493 84.17 75.9247 71.5191 78.5607C71.1821 78.631 70.8424 78.6988 70.5 78.7643C70.0115 78.8577 69.5176 78.9461 69.0186 79.0296C65.26 79.658 61.2146 80 57 80C45.0796 80 34.5124 77.2641 27.9606 73.0495C27.9689 76.1467 28.3776 79.1042 29.0942 81.5465C29.933 84.4052 31.1324 86.3537 32.4058 87.1529C32.8736 87.4464 33.0148 88.0637 32.7213 88.5314C32.4277 88.9992 31.8105 89.1405 31.3427 88.8469C29.4293 87.6461 28.0509 85.0946 27.1751 82.1096C26.2872 79.0833 25.8525 75.3986 25.9834 71.6351C22.817 69.1043 21 66.1524 21 63V51.5L21.0137 51.5258C21.5456 42.3562 37.4536 35 57 35C65.0598 35 72.5011 36.2508 78.5007 38.3637C80.7346 39.1503 82.7689 40.0564 84.5607 41.0621C85.6516 38.3237 86.05 35.0317 85.0346 31.26C84.891 30.7267 85.2069 30.178 85.7402 30.0344ZM28.0323 70.6837C29.2579 71.5666 30.7117 72.4159 32.3982 73.2123C38.5909 76.1367 47.2868 78 57 78C61.263 78 65.33 77.6411 69.0754 76.9911L69.409 67.9631C65.5407 68.6338 61.3609 69 57 69C45.9564 69 36.0743 66.6518 29.4706 62.955C28.6699 65.3765 28.2011 68.0204 28.0323 70.6837ZM27.7203 61.893C26.9122 64.2083 26.4059 66.6828 26.154 69.141C24.0351 67.135 23 65.0203 23 63V57.6094L23.0258 57.6363C24.1648 59.1673 25.7547 60.598 27.7203 61.893ZM30.3074 60.783C31.6145 57.8475 33.4954 55.3907 36.0197 53.8542C36.4915 53.567 36.6411 52.9518 36.354 52.48C36.0668 52.0083 35.4516 51.8586 34.9798 52.1458C32.1174 53.8881 30.0363 56.5773 28.5995 59.705C27.1211 58.7015 25.7687 57.5859 24.5684 56.3534C23.5171 54.9029 23 53.4279 23 52C23 48.5316 26.0508 44.785 32.3982 41.7877C38.5909 38.8633 47.2868 37 57 37C64.1868 37 70.8167 38.0201 76.2878 39.7353L56.5 52.0001L69.3912 65.9276C56.3522 68.1532 40.7541 66.9128 30.3074 60.783ZM77.0239 49.6207C79.0183 48.5404 81.8417 46.2303 83.701 42.8735C83.3411 42.6692 82.9691 42.4684 82.5855 42.2715C82.2669 42.1082 81.939 41.9469 81.6018 41.7877C80.6962 41.36 79.737 40.955 78.7289 40.5752L59.6157 52.422L71.6995 65.4771C75.4275 64.6607 78.7754 63.547 81.6018 62.2123C82.0436 62.0037 82.4694 61.7915 82.8793 61.576C83.9072 61.0347 84.8511 60.4637 85.7033 59.8682C86.5217 59.2964 87.2405 58.7139 87.8631 58.1248C89.1252 56.9263 90.0007 55.6891 90.5 54.4567V54.3251L90.5901 54.2233C90.8641 53.4763 91 52.7319 91 52C91 50.1635 90.1446 48.2489 88.3973 46.4089C88.1783 46.1794 87.9449 45.9504 87.6968 45.722C87.0268 45.1053 86.2609 44.5051 85.4049 43.927C83.3035 47.6524 80.1563 50.1986 77.9765 51.3793C77.4909 51.6423 76.8839 51.4619 76.6209 50.9763C76.3579 50.4907 76.5383 49.8838 77.0239 49.6207ZM71.9288 67.4743L71.6143 75.9839C77.0366 74.7944 81.5862 72.9834 84.8715 70.8269C88.8096 68.2418 90.5 65.4799 90.5 63V58.2382C87.0757 62.3354 80.3779 65.6537 71.9288 67.4743Z" fill="#2C3B47"/>
<path d="M37 95C36.4477 95 36 95.4477 36 96C36 96.5523 36.4477 97 37 97H39.875C40.4273 97 40.875 96.5523 40.875 96C40.875 95.4477 40.4273 95 39.875 95H37Z" fill="#2C3B47"/>
<path d="M45.625 95C45.0727 95 44.625 95.4477 44.625 96C44.625 96.5523 45.0727 97 45.625 97H51.375C51.9273 97 52.375 96.5523 52.375 96C52.375 95.4477 51.9273 95 51.375 95H45.625Z" fill="#2C3B47"/>
<path d="M57.125 95C56.5727 95 56.125 95.4477 56.125 96C56.125 96.5523 56.5727 97 57.125 97H60C60.5523 97 61 96.5523 61 96C61 95.4477 60.5523 95 60 95H57.125Z" fill="#2C3B47"/>
<path d="M36 91C36 90.4477 36.4477 90 37 90H39.7083C40.2606 90 40.7083 90.4477 40.7083 91C40.7083 91.5523 40.2606 92 39.7083 92H37C36.4477 92 36 91.5523 36 91Z" fill="#2C3B47"/>
<path d="M44.125 91C44.125 90.4477 44.5727 90 45.125 90H50.5417C51.094 90 51.5417 90.4477 51.5417 91C51.5417 91.5523 51.094 92 50.5417 92H45.125C44.5727 92 44.125 91.5523 44.125 91Z" fill="#2C3B47"/>
<path d="M54.9583 91C54.9583 90.4477 55.406 90 55.9583 90H61.375C61.9273 90 62.375 90.4477 62.375 91C62.375 91.5523 61.9273 92 61.375 92H55.9583C55.406 92 54.9583 91.5523 54.9583 91Z" fill="#2C3B47"/>
<path d="M65.7917 91C65.7917 90.4477 66.2394 90 66.7917 90H69.5C70.0523 90 70.5 90.4477 70.5 91C70.5 91.5523 70.0523 92 69.5 92H66.7917C66.2394 92 65.7917 91.5523 65.7917 91Z" fill="#2C3B47"/>
</svg>
