<svg width="112" height="112" viewBox="0 0 112 112" fill="none" xmlns="http://www.w3.org/2000/svg">
<rect width="112" height="112" rx="16" fill="white"/>
<path d="M66.4741 78.8158L39.9747 81.5569L40.5735 92.5006L66.4741 92.5006L66.4741 78.8158Z" fill="#5C9CD0"/>
<path d="M45.426 67.0151C45.5735 69.6403 45.847 74 45.847 74L61.7464 72.1781C61.7464 72.1781 61.0377 65.6809 63.1247 63.2952C63.4164 62.9617 63.734 62.6141 64.0625 62.2546C66.0836 60.0426 68.5181 57.3781 67.9031 54.7461C67.188 51.6862 61.7332 50.5701 61.7332 50.5701L63.5454 32.1548C63.6222 31.3983 63.3872 30.6431 62.8917 30.0541C62.3963 29.4651 61.6807 29.0903 60.9013 29.0116C60.1676 28.9469 59.4359 29.1552 58.8545 29.5942C58.2731 30.0332 57.8854 30.6701 57.7698 31.3759L55.9372 41.3073C55.9372 41.3073 55.2501 38.0056 53.2133 37.8671C51.1764 37.7286 49.9381 39.5234 49.5256 41.9962C48.9343 40.6963 47.9339 40.17 46.9594 40.4954L46.8798 40.2683C46.8798 40.2683 46.8724 40.3611 46.8593 40.5318C45.8666 40.9164 44.7753 41.761 44.8743 44.475C43.9455 43.4105 43.0625 42.7395 42.1955 42.9294L42.1113 42.687C42.1113 42.687 42.1102 42.7806 42.1087 42.9513C41.9414 42.9992 41.7747 43.0798 41.6083 43.1965C40.5519 43.9373 39.9007 47.5686 40.0124 49.5409C40.0291 49.8357 40.0298 50.2681 40.0307 50.79C40.0356 53.7597 40.0454 59.6267 43.0307 59.5227C43.1332 59.8435 43.3363 60.3302 43.5829 60.9211C44.2775 62.5858 45.3171 65.0776 45.426 67.0151Z" fill="#F8E1B8"/>
<path d="M60.8583 17.9809C59.9701 17.8388 59.0892 17.7882 58.2249 17.8217C57.7301 17.8408 57.3136 17.4511 57.2946 16.9512C57.2756 16.4513 57.6614 16.0304 58.1562 16.0113C59.1366 15.9733 60.1344 16.0309 61.1386 16.1914C62.1429 16.352 63.1095 16.6086 64.0304 16.9506C64.4952 17.1232 64.7334 17.6438 64.5626 18.1134C64.3917 18.583 63.8765 18.8237 63.4117 18.6511C62.5999 18.3495 61.7466 18.1229 60.8583 17.9809Z" fill="#2C3B47"/>
<path d="M53.5621 17.8584C53.7699 18.3126 53.5739 18.8509 53.1244 19.0608C51.5219 19.8092 50.0768 20.8703 48.8774 22.1791C48.541 22.5462 47.9737 22.5683 47.6103 22.2284C47.247 21.8885 47.2252 21.3153 47.5616 20.9482C48.9202 19.4656 50.5568 18.264 52.372 17.4163C52.8215 17.2063 53.3543 17.4043 53.5621 17.8584Z" fill="#2C3B47"/>
<path d="M69.1024 20.0916C68.7391 19.7517 68.1718 19.7738 67.8354 20.1409C67.499 20.508 67.5208 21.0811 67.8842 21.421C69.1796 22.6328 70.2298 24.0929 70.9705 25.712C71.1783 26.1661 71.7111 26.3641 72.1606 26.1542C72.6101 25.9442 72.806 25.4059 72.5982 24.9518C71.7592 23.1178 70.5698 21.4643 69.1024 20.0916Z" fill="#2C3B47"/>
<path d="M45.6036 25.535C46.0684 25.7076 46.3067 26.2282 46.1358 26.6978C45.8374 27.518 45.6131 28.3801 45.4725 29.2776C45.3306 30.1834 45.2808 31.0816 45.3158 31.9627C45.3357 32.4626 44.9507 32.8842 44.456 32.9042C43.9612 32.9243 43.544 32.5354 43.5241 32.0355C43.4844 31.036 43.5409 30.0185 43.7014 28.9944C43.8603 27.9797 44.1142 27.0031 44.4527 26.0727C44.6236 25.6031 45.1389 25.3624 45.6036 25.535Z" fill="#2C3B47"/>
<path d="M73.9888 30.7958C73.9699 30.2958 73.5534 29.9061 73.0586 29.9253C72.5637 29.9445 72.178 30.3653 72.197 30.8652C72.2301 31.7384 72.18 32.6284 72.0394 33.5259C71.8988 34.4233 71.6745 35.2854 71.3761 36.1056C71.2052 36.5752 71.4435 37.0958 71.9082 37.2684C72.373 37.441 72.8883 37.2003 73.0591 36.7307C73.3977 35.8003 73.6516 34.8237 73.8105 33.8091C73.9695 32.7944 74.0264 31.7863 73.9888 30.7958Z" fill="#2C3B47"/>
<path d="M69.9015 40.5751C70.2649 40.915 70.2867 41.4881 69.9503 41.8552C68.5917 43.3378 66.9551 44.5394 65.1398 45.3872C64.6903 45.5971 64.1575 45.3991 63.9498 44.945C63.742 44.4909 63.938 43.9526 64.3874 43.7427C65.9899 42.9943 67.4351 41.9332 68.6345 40.6244C68.9709 40.2572 69.5382 40.2352 69.9015 40.5751Z" fill="#2C3B47"/>
<path d="M44.2749 78.5623C45.1038 78.6439 45.8411 78.0312 45.9218 77.1938C46.0026 76.3564 45.3961 75.6114 44.5673 75.5299C43.7385 75.4483 43.0012 76.061 42.9204 76.8984C42.8397 77.7358 43.4461 78.4807 44.2749 78.5623Z" fill="#2C3B47"/>
<path fill-rule="evenodd" clip-rule="evenodd" d="M45.3799 36.7231C45.8282 36.5107 46.3621 36.7057 46.5723 37.1587C46.6995 37.4328 46.8356 37.7023 46.9803 37.9668C47.8928 36.1943 49.2772 35.2609 51.055 35.3536C51.8337 35.4099 52.649 35.9902 53.1918 36.557L54.3388 29.5884C54.5077 28.595 55.0424 27.7029 55.8354 27.0912C56.6284 26.4795 57.621 26.1936 58.6141 26.2908C59.1427 26.3154 59.6596 26.4573 60.1278 26.7065C60.5961 26.9556 61.0044 27.3058 61.3237 27.7323C61.6743 28.1291 61.9369 28.5969 62.094 29.1046C62.2511 29.6122 62.299 30.148 62.2345 30.6758L60.5393 48.4304C62.3041 48.9858 65.7778 50.4391 66.4789 53.271C67.2199 56.519 64.6208 59.5353 62.4948 61.9009C62.3365 62.0761 62.193 62.2283 62.0495 62.3803C61.9062 62.5323 61.7625 62.6846 61.6043 62.8597C60.4472 64.2178 60.2574 67.6881 60.3615 70.0866L64.0734 69.5942C64.3564 69.5768 64.6291 69.6765 64.8323 69.8717C64.8516 69.9013 64.873 69.9319 64.8951 69.9635C65.0171 70.1378 65.163 70.3462 65.1139 70.6317L65.2153 77.4638L66.1263 77.3543C66.4435 77.3431 66.7523 77.4587 66.9856 77.6762C67.008 77.7089 67.0328 77.7426 67.0585 77.7776C67.2001 77.9702 67.3693 78.2004 67.3218 78.5092L67.1399 93H64.9026L65.0685 79.7694L40.704 82.7339L41.8982 93H39.5586L38.2791 81.8386C38.2604 81.686 38.2729 81.5311 38.3157 81.3834C38.3585 81.2358 38.4308 81.0986 38.528 80.9802C38.6253 80.8619 38.7454 80.7649 38.8812 80.6952C39.0169 80.6255 39.1653 80.5846 39.3173 80.575L39.9625 80.4975L39.2007 73.9546C39.1874 73.8144 39.2019 73.6714 39.2432 73.5345C39.2846 73.3975 39.3519 73.2695 39.4412 73.1583C39.5304 73.0471 39.6396 72.9551 39.7621 72.8879C39.8846 72.8207 40.0177 72.7797 40.1533 72.7675L42.8294 72.4125C42.7459 71.0079 42.5755 68.108 42.4736 66.1497C42.1363 64.1456 41.5629 62.1895 40.7655 60.3231C40.6927 60.0308 40.5795 59.7504 40.4294 59.49C39.911 59.3494 39.4302 59.0936 39.0222 58.7414C37.179 56.8584 37.0624 52.9049 37.0365 49.2704C37.0084 48.9615 36.9987 48.6512 37.0072 48.3411C36.9385 46.7593 37.3415 42.0445 39.0887 40.8986C39.5031 40.5869 40.0001 40.4072 40.5162 40.3824C41.0322 40.3576 41.5439 40.4888 41.9858 40.7592C42.1389 40.131 42.451 39.5538 42.8915 39.0842C43.332 38.6145 43.8857 38.2686 44.4984 38.0804C44.648 38.0227 44.8021 37.9788 44.9586 37.949L44.9487 37.9278C44.7385 37.4748 44.9316 36.9354 45.3799 36.7231ZM61.1673 60.2923L60.2262 61.3482C57.9604 63.4952 57.9137 67.9897 57.8916 70.1168L57.8914 70.1336L44.7375 71.8095C44.6006 70.3155 44.5027 67.8044 44.4395 65.9548C44.0937 63.7024 43.4746 61.5016 42.5964 59.4021C42.5773 59.3589 42.5585 59.3156 42.5402 59.2721C43.1153 59.001 43.7683 58.5255 44.2963 57.7023C44.6022 57.8321 44.9394 57.8758 45.2715 57.8252C45.7997 57.7979 46.3126 57.6408 46.7661 57.3684C47.0105 57.6052 47.2835 57.8113 47.5794 57.9814C48.1433 58.2627 48.7618 58.4145 49.3906 58.4261C50.9796 58.4113 52.0221 57.3688 52.5187 55.3854L56.3439 56.5647C56.6384 56.6454 56.9524 56.6082 57.2205 56.4609C57.4886 56.3136 57.6902 56.0675 57.7832 55.7738C57.834 55.6266 57.8538 55.4703 57.8412 55.3149C57.8287 55.1596 57.7842 55.0086 57.7105 54.8716C57.6367 54.7347 57.5355 54.6148 57.4132 54.5198C57.2909 54.4247 57.1503 54.3565 57.0004 54.3196L49.4882 52.0037C49.215 51.9128 48.9817 51.7284 48.8287 51.4822C48.6757 51.2361 48.6126 50.9437 48.6502 50.6555C48.6688 50.5041 48.7171 50.3579 48.7922 50.2256C48.8674 50.0932 48.9679 49.9773 49.0879 49.8846C49.2079 49.792 49.345 49.7245 49.4912 49.686C49.6373 49.6475 49.7896 49.6389 49.9391 49.6605C50.6868 49.6764 51.4071 49.745 52.0764 49.8086L52.1736 49.8179C52.2504 49.8998 52.3372 49.9723 52.4322 50.0336C52.4841 50.0703 52.5436 50.0945 52.6062 50.1043C52.6688 50.1142 52.7328 50.1094 52.7933 50.0904C53.0578 50.1174 53.3224 50.0531 53.5446 49.9096C55.416 50.014 57.2805 50.2226 59.1295 50.5344C59.343 50.5485 59.5546 50.5023 59.7415 50.4032C61.0597 50.7108 64.2512 51.8063 64.6969 53.7555C65.1667 55.8102 62.9855 58.2818 61.1673 60.2923ZM42.5852 56.0992C42.5134 55.9819 42.4467 55.8611 42.3854 55.7371C41.8436 54.4954 41.9173 48.647 41.9643 44.9176C41.9696 44.499 41.9745 44.107 41.9782 43.7512C40.9984 42.5549 40.5828 42.7293 40.4111 42.8015C40.3994 42.8064 40.3884 42.811 40.3788 42.8144C39.7641 43.2657 39.1424 46.1722 39.1958 48.276C39.1659 48.6144 39.1603 48.9544 39.179 49.2935C39.1861 49.5006 39.1918 49.7446 39.198 50.0157L39.198 50.0167C39.2478 52.1677 39.3375 56.046 40.492 57.1208C40.6104 57.1968 40.7421 57.2482 40.8793 57.2726C40.9454 57.2603 41.0127 57.2538 41.0804 57.2534C41.5032 57.1885 41.8939 56.9867 42.1935 56.6783C42.3579 56.509 42.4901 56.3127 42.5852 56.0992ZM44.4966 54.9095C44.4556 54.8256 44.4136 54.7319 44.3704 54.6275C44.0434 53.8364 44.0969 48.3724 44.1425 43.7276L44.1442 43.5541C44.1522 43.5269 44.159 43.4993 44.1647 43.4714C44.1917 43.3386 44.1918 43.2017 44.1647 43.069C44.1675 40.6002 44.9833 40.256 45.3905 40.2244C45.963 40.0649 46.2759 40.4893 46.5113 40.9486C46.3064 42.911 45.247 53.0755 45.5905 55.2426C45.6064 55.317 45.6243 55.3909 45.6442 55.4641C45.5372 55.5578 45.4055 55.6334 45.2688 55.6242C45.1592 55.6169 45.0532 55.5906 44.9455 55.5169C44.9234 55.4496 44.8953 55.3839 44.8614 55.3207C44.7724 55.1554 44.6469 55.0151 44.4966 54.9095ZM58.749 48.1246L60.4135 30.4854C60.4461 30.0382 60.3101 29.5952 60.0328 29.2451C59.9007 29.0474 59.7222 28.8858 59.5133 28.7747C59.3043 28.6635 59.0715 28.6063 58.8354 28.608C58.3961 28.5679 57.9581 28.697 57.6091 28.9694C57.2601 29.2419 57.0259 29.6375 56.9534 30.077L55.1763 40.1072C55.1824 40.1866 55.1804 40.2666 55.1702 40.346L54.2509 47.6756C55.5934 47.7709 56.9939 47.8797 58.749 48.1246ZM51.9564 47.5313L52.8612 40.2931C52.853 40.2609 52.8463 40.2283 52.841 40.1952C52.601 39.4133 51.9398 37.6403 51.119 37.5872C49.4991 37.5036 48.9341 39.8086 48.7798 40.8545C48.7735 40.8838 48.7662 40.9128 48.7577 40.9414C48.6632 42.0539 48.5434 43.3299 48.4197 44.6489L48.4194 44.6522C48.3207 45.7034 48.2195 46.782 48.1264 47.8272C48.7268 47.4941 49.4158 47.348 50.1052 47.414C50.7004 47.4873 51.2766 47.5074 51.8327 47.5269L51.9564 47.5313ZM47.7432 53.7442C47.7431 54.1882 47.7623 54.5297 47.8059 54.7406C47.8077 54.8398 47.8204 54.9382 47.8434 55.0341C47.8799 55.0868 47.9122 55.1428 47.9399 55.2016C47.9784 55.2836 48.007 55.3693 48.0255 55.4569C48.0919 55.5588 48.172 55.6515 48.2636 55.7321C48.4043 55.8558 48.5691 55.9484 48.7474 56.0037C48.9256 56.0591 49.1134 56.0761 49.2986 56.0536C49.5145 56.0544 50.0195 56.0328 50.3195 54.7074L48.8317 54.2487C48.5995 54.2265 48.3758 54.1499 48.178 54.025C48.0257 53.942 47.8805 53.848 47.7432 53.7442ZM63.1971 77.7062L42.0438 80.2474L41.3425 74.7258L63.0784 71.8425L63.1971 77.7062Z" fill="#2C3B47"/>
</svg>
