<svg width="320" height="240" viewBox="0 0 320 240" fill="none" xmlns="http://www.w3.org/2000/svg">
<path d="M98.9355 97.3086L68.5778 127.666L79.3279 138.416L88.1097 147.198L98.8598 157.948L129.218 127.591L98.9355 97.3086Z" fill="#5C9CD0"/>
<path d="M98.118 158.69L67.7602 128.332C67.6524 128.238 67.566 128.121 67.5068 127.991C67.4476 127.86 67.4169 127.719 67.4169 127.575C67.4169 127.432 67.4476 127.29 67.5068 127.16C67.566 127.029 67.6524 126.913 67.7602 126.818L98.1179 96.4603C98.2124 96.3525 98.3288 96.2661 98.4594 96.2069C98.5899 96.1477 98.7317 96.1171 98.875 96.1171C99.0184 96.1171 99.1601 96.1477 99.2906 96.2069C99.4212 96.2661 99.5376 96.3525 99.6321 96.4603L129.99 126.818C130.098 126.913 130.184 127.029 130.243 127.16C130.302 127.29 130.333 127.432 130.333 127.575C130.333 127.718 130.302 127.86 130.243 127.991C130.184 128.121 130.098 128.238 129.99 128.332L99.632 158.69C99.4313 158.891 99.1589 159.003 98.875 159.003C98.591 159.003 98.3187 158.891 98.118 158.69ZM70.1071 127.651L98.9507 156.494L127.794 127.651L98.9507 98.8072L70.1071 127.651Z" fill="#2C3B47"/>
<path d="M170.508 108.013C170.606 106.669 171.027 105.368 171.736 104.222C172.446 103.076 173.422 102.119 174.582 101.432C175.742 100.745 177.05 100.349 178.396 100.278C179.742 100.207 181.085 100.463 182.311 101.023C183.537 101.584 184.608 102.433 185.435 103.498C186.261 104.563 186.817 105.812 187.056 107.138C187.295 108.465 187.209 109.83 186.806 111.116C186.402 112.402 185.694 113.571 184.741 114.524C184.157 115.116 183.494 115.625 182.772 116.038L180.653 118.158L190.191 127.697L220.549 97.3389L190.191 66.9812L159.834 97.3389L170.508 108.013Z" fill="white"/>
<path d="M189.252 128.272L179.713 118.733C179.606 118.639 179.519 118.522 179.46 118.392C179.401 118.261 179.37 118.119 179.37 117.976C179.37 117.833 179.401 117.691 179.46 117.56C179.519 117.43 179.606 117.313 179.713 117.219L182.06 114.872C182.705 114.537 183.292 114.103 183.801 113.585C185.167 112.22 185.934 110.368 185.934 108.437C185.934 106.506 185.167 104.655 183.801 103.289C182.436 101.924 180.584 101.157 178.654 101.157C176.723 101.157 174.871 101.924 173.506 103.289C172.267 104.554 171.516 106.217 171.386 107.983C171.372 108.193 171.301 108.396 171.181 108.569C171.061 108.742 170.896 108.88 170.705 108.967C170.513 109.042 170.305 109.061 170.103 109.02C169.902 108.98 169.716 108.883 169.569 108.74L158.819 97.9899C158.711 97.8954 158.625 97.779 158.565 97.6485C158.506 97.5179 158.476 97.3762 158.476 97.2328C158.476 97.0895 158.506 96.9478 158.565 96.8172C158.625 96.6867 158.711 96.5703 158.819 96.4758L189.177 66.1181C189.271 66.0102 189.387 65.9238 189.518 65.8646C189.649 65.8054 189.79 65.7748 189.934 65.7748C190.077 65.7748 190.219 65.8054 190.349 65.8646C190.48 65.9238 190.596 66.0102 190.691 66.1181L221.048 96.4758C221.156 96.5703 221.243 96.6867 221.302 96.8172C221.361 96.9478 221.392 97.0895 221.392 97.2328C221.392 97.3762 221.361 97.5179 221.302 97.6485C221.243 97.779 221.156 97.8954 221.048 97.9899L190.691 128.348C190.593 128.441 190.478 128.514 190.351 128.561C190.225 128.609 190.09 128.629 189.955 128.622C189.82 128.615 189.688 128.58 189.567 128.52C189.446 128.46 189.339 128.375 189.252 128.272ZM181.985 117.976L190.009 126.001L218.853 97.1571L190.009 68.3135L161.166 97.1571L169.751 105.742C170.199 104.28 171.006 102.952 172.097 101.881C173.864 100.114 176.261 99.1216 178.76 99.1216C181.258 99.1216 183.655 100.114 185.422 101.881C187.188 103.648 188.181 106.044 188.181 108.543C188.181 111.042 187.188 113.438 185.422 115.205C184.808 115.817 184.122 116.351 183.378 116.795L182.091 118.082L181.985 117.976Z" fill="#2C3B47"/>
<path d="M154.202 110.481C152.803 109.035 150.911 108.17 148.902 108.059L159.652 97.3086L148.902 86.5584C150.247 86.4609 151.547 86.0395 152.693 85.3301C153.839 84.6207 154.797 83.6444 155.483 82.4847C156.17 81.325 156.566 80.0163 156.637 78.6703C156.708 77.3244 156.453 75.9812 155.892 74.7555C155.331 73.5298 154.482 72.4581 153.418 71.6318C152.353 70.8055 151.104 70.2492 149.777 70.0105C148.451 69.7718 147.086 69.8577 145.8 70.2609C144.514 70.6641 143.344 71.3726 142.392 72.3259C140.946 73.7242 140.08 75.6167 139.969 77.6252L129.219 66.8751L98.8612 97.2328L109.611 107.983C108.267 108.08 106.966 108.502 105.82 109.211C104.674 109.921 103.717 110.897 103.03 112.057C102.343 113.216 101.947 114.525 101.876 115.871C101.805 117.217 102.061 118.56 102.621 119.786C103.182 121.012 104.031 122.083 105.096 122.91C106.161 123.736 107.41 124.292 108.736 124.531C110.063 124.77 111.427 124.684 112.714 124.281C114 123.877 115.169 123.169 116.122 122.216C117.568 120.817 118.433 118.925 118.544 116.916L129.295 127.666L140.045 116.916C140.161 118.512 140.733 120.04 141.693 121.32C142.653 122.6 143.96 123.577 145.46 124.135C146.959 124.693 148.587 124.809 150.15 124.469C151.713 124.129 153.146 123.347 154.277 122.216C155.045 121.441 155.653 120.523 156.065 119.514C156.477 118.504 156.686 117.423 156.679 116.333C156.672 115.242 156.449 114.164 156.024 113.16C155.599 112.156 154.98 111.245 154.202 110.481Z" fill="white"/>
<path d="M103.554 122.972C101.79 121.204 100.799 118.808 100.799 116.31C100.799 113.812 101.79 111.416 103.554 109.648C104.642 108.577 105.963 107.774 107.415 107.301L98.1032 97.9896C97.9954 97.8952 97.909 97.7788 97.8498 97.6482C97.7906 97.5177 97.76 97.376 97.76 97.2326C97.76 97.0893 97.7906 96.9475 97.8498 96.817C97.909 96.6864 97.9954 96.57 98.1032 96.4755L128.461 66.1178C128.555 66.01 128.672 65.9236 128.802 65.8644C128.933 65.8052 129.075 65.7745 129.218 65.7745C129.361 65.7745 129.503 65.8052 129.634 65.8644C129.764 65.9236 129.881 66.01 129.975 66.1178L139.287 75.4295C139.735 73.967 140.542 72.6398 141.634 71.5686C143.401 69.8017 145.797 68.8091 148.296 68.8091C150.794 68.8091 153.191 69.8017 154.958 71.5686C156.725 73.3355 157.717 75.7319 157.717 78.2306C157.717 80.7294 156.725 83.1258 154.958 84.8927C153.87 85.9639 152.548 86.7673 151.097 87.2395L160.409 96.5513C160.516 96.6457 160.603 96.7621 160.662 96.8927C160.721 97.0232 160.752 97.1649 160.752 97.3083C160.752 97.4517 160.721 97.5934 160.662 97.7239C160.603 97.8545 160.516 97.9709 160.409 98.0654L151.097 107.377C152.559 107.825 153.886 108.632 154.958 109.724C156.725 111.491 157.717 113.887 157.717 116.386C157.717 118.885 156.725 121.281 154.958 123.048C153.191 124.815 150.794 125.808 148.296 125.808C145.797 125.808 143.401 124.815 141.634 123.048C140.562 121.961 139.759 120.639 139.287 119.187L129.99 128.484C129.896 128.591 129.779 128.678 129.649 128.737C129.518 128.796 129.377 128.827 129.233 128.827C129.09 128.827 128.948 128.796 128.818 128.737C128.687 128.678 128.571 128.591 128.476 128.484L119.164 119.172C118.716 120.634 117.909 121.962 116.818 123.033C115.047 124.776 112.658 125.748 110.173 125.736C107.688 125.725 105.309 124.731 103.554 122.972ZM100.45 97.3083L110.443 107.301C110.586 107.449 110.683 107.634 110.724 107.836C110.764 108.037 110.745 108.246 110.67 108.437C110.605 108.644 110.473 108.823 110.295 108.947C110.117 109.07 109.903 109.13 109.686 109.118C107.911 109.211 106.236 109.968 104.992 111.238C103.627 112.603 102.86 114.455 102.86 116.386C102.86 118.317 103.627 120.169 104.992 121.534C106.358 122.899 108.209 123.666 110.14 123.666C112.071 123.666 113.923 122.899 115.288 121.534C116.527 120.269 117.278 118.606 117.408 116.84C117.422 116.63 117.493 116.427 117.613 116.254C117.733 116.081 117.898 115.943 118.089 115.856C118.281 115.781 118.489 115.763 118.691 115.803C118.892 115.843 119.077 115.94 119.225 116.083L129.218 126.076L139.211 116.083C139.359 115.94 139.544 115.843 139.746 115.803C139.947 115.763 140.156 115.781 140.347 115.856C140.554 115.921 140.733 116.053 140.856 116.231C140.98 116.409 141.04 116.624 141.028 116.84C141.121 118.615 141.878 120.29 143.148 121.534C144.513 122.899 146.365 123.666 148.296 123.666C150.227 123.666 152.078 122.899 153.444 121.534C154.809 120.169 155.576 118.317 155.576 116.386C155.576 114.455 154.809 112.603 153.444 111.238C152.179 109.999 150.516 109.248 148.75 109.118C148.54 109.104 148.337 109.033 148.164 108.913C147.991 108.793 147.853 108.629 147.766 108.437C147.691 108.246 147.672 108.037 147.713 107.836C147.753 107.634 147.85 107.449 147.993 107.301L157.986 97.3083L147.993 87.3152C147.85 87.1677 147.753 86.9821 147.713 86.7808C147.672 86.5795 147.691 86.3708 147.766 86.1797C147.831 85.9728 147.963 85.7934 148.141 85.67C148.319 85.5466 148.533 85.4862 148.75 85.4983C150.525 85.4053 152.2 84.6487 153.444 83.3786C154.809 82.0132 155.576 80.1615 155.576 78.2306C155.576 76.2998 154.809 74.448 153.444 73.0827C152.078 71.7174 150.227 70.9503 148.296 70.9503C146.365 70.9503 144.513 71.7174 143.148 73.0827C141.909 74.3477 141.158 76.0105 141.028 77.7764C141.014 77.9867 140.943 78.1892 140.823 78.3625C140.703 78.5358 140.539 78.6733 140.347 78.7606C140.156 78.8356 139.947 78.8541 139.746 78.8138C139.544 78.7735 139.359 78.6762 139.211 78.5334L129.218 68.5404L100.45 97.3083Z" fill="#2C3B47"/>
<path d="M148.826 147.199C148.728 148.543 148.307 149.844 147.597 150.99C146.888 152.136 145.912 153.093 144.752 153.78C143.592 154.467 142.284 154.863 140.938 154.934C139.592 155.005 138.249 154.749 137.023 154.188C135.797 153.628 134.725 152.779 133.899 151.714C133.073 150.649 132.517 149.4 132.278 148.074C132.039 146.747 132.125 145.382 132.528 144.096C132.931 142.81 133.64 141.641 134.593 140.688C135.992 139.242 137.884 138.377 139.893 138.265L129.142 127.515L118.392 138.265C118.295 136.921 117.873 135.62 117.164 134.474C116.455 133.328 115.478 132.371 114.319 131.684C113.159 130.997 111.85 130.601 110.504 130.53C109.158 130.459 107.815 130.715 106.589 131.275C105.364 131.836 104.292 132.685 103.466 133.75C102.639 134.815 102.083 136.064 101.844 137.39C101.606 138.717 101.692 140.082 102.095 141.368C102.498 142.654 103.206 143.823 104.16 144.776C105.558 146.222 107.451 147.087 109.459 147.199L98.709 157.949L129.067 188.306L159.44 157.934L148.765 147.259L148.826 147.199Z" fill="white"/>
<path d="M128.477 189.048L98.1188 158.691C98.011 158.596 97.9246 158.48 97.8654 158.349C97.8062 158.219 97.7755 158.077 97.7755 157.934C97.7755 157.79 97.8062 157.648 97.8654 157.518C97.9246 157.387 98.011 157.271 98.1188 157.176L107.431 147.865C105.968 147.417 104.641 146.61 103.57 145.518C101.803 143.751 100.81 141.355 100.81 138.856C100.81 136.357 101.803 133.961 103.57 132.194C105.336 130.427 107.733 129.434 110.232 129.434C112.73 129.434 115.127 130.427 116.894 132.194C117.965 133.281 118.768 134.603 119.241 136.055L128.552 126.743C128.647 126.635 128.763 126.549 128.894 126.49C129.024 126.43 129.166 126.4 129.309 126.4C129.453 126.4 129.594 126.43 129.725 126.49C129.855 126.549 129.972 126.635 130.066 126.743L140.816 137.493C140.959 137.641 141.057 137.826 141.097 138.028C141.137 138.229 141.119 138.438 141.044 138.629C140.979 138.836 140.847 139.015 140.668 139.138C140.49 139.262 140.276 139.322 140.059 139.31C138.284 139.403 136.609 140.16 135.366 141.43C134 142.795 133.233 144.647 133.233 146.578C133.233 148.509 134 150.36 135.366 151.726C136.731 153.091 138.583 153.858 140.514 153.858C142.445 153.858 144.296 153.091 145.662 151.726C146.9 150.461 147.651 148.798 147.781 147.032C147.795 146.822 147.866 146.619 147.986 146.446C148.106 146.273 148.271 146.135 148.463 146.048C148.654 145.973 148.862 145.954 149.064 145.995C149.265 146.035 149.451 146.132 149.598 146.275L160.348 157.025C160.456 157.12 160.543 157.236 160.602 157.366C160.661 157.497 160.692 157.639 160.692 157.782C160.692 157.925 160.661 158.067 160.602 158.198C160.543 158.328 160.456 158.445 160.348 158.539L129.991 188.897C129.913 189.021 129.807 189.126 129.682 189.203C129.558 189.281 129.417 189.328 129.271 189.343C129.125 189.358 128.977 189.339 128.839 189.288C128.702 189.237 128.578 189.155 128.477 189.048ZM100.39 157.934L129.234 186.777L158.077 157.934L149.523 149.379C149.074 150.841 148.268 152.169 147.176 153.24C145.409 155.007 143.012 155.999 140.514 155.999C138.015 155.999 135.619 155.007 133.852 153.24C132.085 151.473 131.092 149.077 131.092 146.578C131.092 144.079 132.085 141.683 133.852 139.916C134.939 138.845 136.261 138.041 137.713 137.569L129.158 129.014L119.165 139.007C119.017 139.15 118.832 139.247 118.63 139.288C118.429 139.328 118.22 139.309 118.029 139.234C117.822 139.17 117.643 139.038 117.52 138.859C117.396 138.681 117.336 138.467 117.348 138.25C117.255 136.475 116.498 134.8 115.228 133.557C113.863 132.191 112.011 131.424 110.08 131.424C108.149 131.424 106.298 132.191 104.932 133.557C103.567 134.922 102.8 136.774 102.8 138.704C102.8 140.635 103.567 142.487 104.932 143.852C106.197 145.091 107.86 145.842 109.626 145.972C109.836 145.986 110.039 146.057 110.212 146.177C110.385 146.297 110.523 146.462 110.61 146.653C110.685 146.845 110.704 147.053 110.663 147.255C110.623 147.456 110.526 147.641 110.383 147.789L100.314 157.858L100.39 157.934Z" fill="#2C3B47"/>
<path d="M140.12 77.6257C140.217 76.2814 140.639 74.9806 141.348 73.8346C142.058 72.6885 143.034 71.7312 144.194 71.0444C145.353 70.3576 146.662 69.9617 148.008 69.8906C149.354 69.8194 150.697 70.0751 151.923 70.6357C153.148 71.1964 154.22 72.0454 155.047 73.1103C155.873 74.1751 156.429 75.4242 156.668 76.7507C156.907 78.0772 156.821 79.4418 156.417 80.728C156.014 82.0141 155.306 83.1835 154.352 84.1363C152.954 85.5824 151.062 86.4475 149.053 86.5589L159.803 97.309L170.553 86.5589C170.651 87.9032 171.072 89.2039 171.782 90.3499C172.491 91.496 173.467 92.4533 174.627 93.1401C175.787 93.8269 177.095 94.2228 178.441 94.294C179.787 94.3652 181.131 94.1095 182.356 93.5488C183.582 92.9881 184.654 92.1391 185.48 91.0742C186.306 90.0094 186.863 88.7603 187.101 87.4338C187.34 86.1073 187.254 84.7427 186.851 83.4566C186.448 82.1705 185.739 81.0011 184.786 80.0482C183.388 78.6022 181.495 77.737 179.486 77.6257L190.237 66.8755L159.879 36.5178L129.521 66.8756L140.196 77.5499L140.12 77.6257Z" fill="#EED6DA"/>
<path d="M158.894 97.914L148.144 87.1639C148.001 87.0163 147.904 86.8308 147.863 86.6295C147.823 86.4281 147.842 86.2194 147.917 86.0283C147.981 85.8214 148.113 85.6421 148.292 85.5187C148.47 85.3953 148.684 85.3348 148.901 85.347C150.676 85.2539 152.351 84.4974 153.594 83.2272C154.96 81.8619 155.727 80.0101 155.727 78.0793C155.727 76.1484 154.96 74.2967 153.594 72.9313C152.229 71.566 150.377 70.799 148.447 70.799C146.516 70.799 144.664 71.566 143.299 72.9313C142.06 74.1964 141.309 75.8592 141.179 77.625C141.165 77.8353 141.094 78.0379 140.974 78.2111C140.854 78.3844 140.689 78.522 140.497 78.6092C140.306 78.6842 140.098 78.7027 139.896 78.6624C139.695 78.6222 139.509 78.5248 139.362 78.3821L128.612 67.632C128.504 67.5375 128.418 67.4211 128.358 67.2905C128.299 67.16 128.268 67.0183 128.268 66.8749C128.268 66.7316 128.299 66.5899 128.358 66.4593C128.418 66.3288 128.504 66.2123 128.612 66.1179L158.97 35.7602C159.064 35.6523 159.18 35.5659 159.311 35.5067C159.442 35.4475 159.583 35.4169 159.727 35.4169C159.87 35.4169 160.012 35.4475 160.142 35.5067C160.273 35.5659 160.389 35.6523 160.484 35.7602L190.841 66.1179C190.949 66.2123 191.036 66.3287 191.095 66.4593C191.154 66.5899 191.185 66.7316 191.185 66.8749C191.185 67.0183 191.154 67.16 191.095 67.2906C191.036 67.4211 190.949 67.5375 190.841 67.632L181.53 76.9437C182.992 77.3919 184.319 78.1987 185.391 79.2905C187.157 81.0574 188.15 83.4539 188.15 85.9526C188.15 88.4514 187.157 90.8478 185.391 92.6146C183.624 94.3815 181.227 95.3742 178.729 95.3742C176.23 95.3742 173.833 94.3815 172.066 92.6146C170.995 91.5271 170.192 90.2053 169.72 88.7537L160.408 98.0654C160.179 98.2255 159.901 98.2982 159.623 98.2704C159.345 98.2426 159.086 98.1162 158.894 97.914ZM151.096 87.0882L159.651 95.6429L169.644 85.6498C169.791 85.507 169.977 85.4097 170.178 85.3694C170.38 85.3292 170.588 85.3476 170.78 85.4227C170.986 85.4875 171.166 85.6195 171.289 85.7978C171.413 85.976 171.473 86.1904 171.461 86.4068C171.554 88.1818 172.31 89.8571 173.581 91.1005C174.946 92.4659 176.798 93.2329 178.729 93.2329C180.659 93.2329 182.511 92.4659 183.876 91.1005C185.242 89.7352 186.009 87.8835 186.009 85.9526C186.009 84.0217 185.242 82.17 183.876 80.8046C182.611 79.5658 180.949 78.8148 179.183 78.6849C178.972 78.6708 178.77 78.6 178.597 78.48C178.423 78.3601 178.286 78.1954 178.199 78.0036C178.124 77.8125 178.105 77.6038 178.145 77.4024C178.186 77.2011 178.283 77.0156 178.426 76.868L188.419 66.8749L159.575 38.0313L130.732 66.8749L139.286 75.4296C139.734 73.9671 140.541 72.6399 141.633 71.5686C143.4 69.8017 145.796 68.8091 148.295 68.8091C150.794 68.8091 153.19 69.8018 154.957 71.5686C156.724 73.3355 157.717 75.7319 157.717 78.2307C157.717 80.7294 156.724 83.1258 154.957 84.8927C153.876 85.9392 152.548 86.6945 151.096 87.0882Z" fill="#2C3B47"/>
<path d="M240.74 173.831L254.888 177.205L264.409 137.391L250.261 134.018C251.832 132.889 252.956 131.244 253.435 129.37C253.753 128.113 253.759 126.798 253.454 125.538C253.149 124.278 252.541 123.111 251.683 122.139C250.826 121.167 249.744 120.418 248.532 119.957C247.32 119.497 246.014 119.339 244.728 119.496C243.441 119.654 242.212 120.123 241.147 120.863C240.082 121.602 239.213 122.59 238.616 123.741C238.019 124.891 237.711 126.17 237.719 127.467C237.727 128.763 238.051 130.038 238.662 131.181L224.514 127.808L221.141 141.956C222.281 141.355 223.55 141.041 224.839 141.039C226.127 141.038 227.397 141.349 228.539 141.947C229.681 142.544 230.66 143.41 231.393 144.47C232.127 145.529 232.592 146.751 232.748 148.03C232.905 149.309 232.749 150.607 232.294 151.813C231.838 153.018 231.096 154.095 230.133 154.951C229.169 155.806 228.012 156.415 226.761 156.725C225.51 157.034 224.203 157.036 222.952 156.729C221.056 156.298 219.395 155.164 218.304 153.555L214.931 167.703L229.079 171.076C227.508 172.204 226.384 173.85 225.904 175.723C225.404 177.781 225.741 179.952 226.841 181.761C227.942 183.57 229.716 184.867 231.773 185.368C233.83 185.868 236.002 185.531 237.811 184.431C239.619 183.33 240.917 181.556 241.418 179.499C241.843 177.588 241.604 175.589 240.74 173.831Z" fill="#5AB467"/>
<path fill-rule="evenodd" clip-rule="evenodd" d="M251.888 175.205L261.409 135.391L247.261 132.018C248.061 131.443 248.745 130.735 249.287 129.931C249.809 129.155 250.2 128.29 250.435 127.37C250.753 126.113 250.759 124.798 250.454 123.538C250.149 122.278 249.541 121.111 248.683 120.139C247.826 119.167 246.744 118.418 245.532 117.957C244.32 117.497 243.014 117.339 241.728 117.496C240.441 117.654 239.212 118.123 238.147 118.863C237.082 119.602 236.213 120.59 235.616 121.741C235.019 122.891 234.711 124.17 234.719 125.467C234.721 125.78 234.741 126.092 234.78 126.401C234.9 127.371 235.198 128.314 235.662 129.181L221.514 125.808L218.141 139.956C219.008 139.499 219.949 139.208 220.916 139.094C221.222 139.058 221.53 139.04 221.839 139.039C223.127 139.038 224.397 139.349 225.539 139.947C226.681 140.544 227.66 141.41 228.393 142.47C229.127 143.529 229.592 144.751 229.748 146.03C229.905 147.309 229.749 148.607 229.294 149.813C228.838 151.018 228.096 152.095 227.133 152.951C226.169 153.806 225.012 154.415 223.761 154.725C222.51 155.034 221.203 155.036 219.952 154.729C219.026 154.519 218.156 154.141 217.382 153.621C216.57 153.077 215.862 152.378 215.304 151.555L211.931 165.703L226.079 169.076C225.279 169.65 224.595 170.359 224.053 171.163C223.531 171.939 223.14 172.803 222.904 173.723C222.404 175.781 222.741 177.952 223.841 179.761C224.942 181.57 226.716 182.867 228.773 183.368C230.83 183.868 233.002 183.531 234.811 182.431C236.619 181.33 237.917 179.556 238.418 177.499C238.631 176.54 238.677 175.559 238.561 174.597C238.446 173.643 238.17 172.707 237.74 171.831L251.888 175.205ZM237.74 171.831L235.497 172.935C236.106 174.174 236.277 175.583 235.983 176.932C235.635 178.334 234.747 179.543 233.511 180.295C232.269 181.051 230.777 181.283 229.364 180.939C227.951 180.595 226.733 179.704 225.977 178.461C225.224 177.223 224.991 175.738 225.33 174.329C225.666 173.03 226.447 171.889 227.537 171.107L231.983 167.914L214.942 163.851L216.773 156.173C217.585 156.617 218.46 156.952 219.377 157.162C221.015 157.56 222.726 157.557 224.362 157.151C226.006 156.744 227.526 155.944 228.793 154.82C230.059 153.696 231.033 152.281 231.632 150.697C232.231 149.113 232.436 147.407 232.23 145.726C232.024 144.045 231.413 142.44 230.449 141.047C229.486 139.655 228.198 138.517 226.698 137.732C225.198 136.947 223.529 136.537 221.836 136.539C221.732 136.539 221.628 136.541 221.524 136.544L223.366 128.819L240.488 132.902L237.867 128.002C237.447 127.217 237.224 126.341 237.219 125.451C237.213 124.561 237.425 123.683 237.835 122.892C238.245 122.102 238.842 121.424 239.573 120.916C240.304 120.408 241.148 120.086 242.032 119.978C242.915 119.87 243.812 119.978 244.644 120.294C245.477 120.611 246.219 121.125 246.808 121.792C247.397 122.46 247.814 123.261 248.024 124.127C248.233 124.991 248.229 125.892 248.013 126.754C247.678 128.058 246.896 129.202 245.803 129.987L241.357 133.18L258.396 137.243L250.037 172.194L238.32 169.4L237.74 171.831Z" fill="#2C3B47"/>
<path fill-rule="evenodd" clip-rule="evenodd" d="M185.384 129.116C185.872 129.604 185.872 130.396 185.384 130.884L183.467 132.801C182.979 133.289 182.188 133.289 181.699 132.801C181.211 132.312 181.211 131.521 181.699 131.033L183.616 129.116C184.104 128.628 184.896 128.628 185.384 129.116ZM179.634 134.866C180.122 135.354 180.122 136.146 179.634 136.634L175.801 140.467C175.312 140.955 174.521 140.955 174.033 140.467C173.545 139.979 173.545 139.188 174.033 138.699L177.866 134.866C178.354 134.378 179.146 134.378 179.634 134.866ZM171.967 142.533C172.455 143.021 172.455 143.812 171.967 144.301L168.134 148.134C167.646 148.622 166.854 148.622 166.366 148.134C165.878 147.646 165.878 146.854 166.366 146.366L170.199 142.533C170.688 142.045 171.479 142.045 171.967 142.533ZM164.301 150.199C164.789 150.688 164.789 151.479 164.301 151.967L162.384 153.884C161.896 154.372 161.104 154.372 160.616 153.884C160.128 153.396 160.128 152.604 160.616 152.116L162.533 150.199C163.021 149.711 163.812 149.711 164.301 150.199Z" fill="#2C3B47"/>
<path fill-rule="evenodd" clip-rule="evenodd" d="M110.884 68.1161C111.372 68.6043 111.372 69.3957 110.884 69.8839L108.853 71.9151C108.364 72.4033 107.573 72.4033 107.085 71.9151C106.597 71.427 106.597 70.6355 107.085 70.1474L109.116 68.1161C109.604 67.628 110.396 67.628 110.884 68.1161ZM104.79 74.2099C105.278 74.698 105.278 75.4895 104.79 75.9776L100.728 80.0401C100.239 80.5283 99.448 80.5283 98.9599 80.0401C98.4717 79.552 98.4717 78.7605 98.9599 78.2724L103.022 74.2099C103.511 73.7217 104.302 73.7217 104.79 74.2099ZM96.6651 82.3349C97.1533 82.823 97.1533 83.6145 96.6651 84.1026L92.6026 88.1651C92.1145 88.6533 91.323 88.6533 90.8349 88.1651C90.3467 87.677 90.3467 86.8855 90.8349 86.3974L94.8974 82.3349C95.3855 81.8467 96.177 81.8467 96.6651 82.3349ZM88.5401 90.4599C89.0283 90.948 89.0283 91.7395 88.5401 92.2276L84.4776 96.2901C83.9895 96.7783 83.198 96.7783 82.7099 96.2901C82.2217 95.802 82.2217 95.0105 82.7099 94.5224L86.7724 90.4599C87.2605 89.9717 88.052 89.9717 88.5401 90.4599ZM80.4151 98.5849C80.9033 99.073 80.9033 99.8645 80.4151 100.353L76.3526 104.415C75.8645 104.903 75.073 104.903 74.5849 104.415C74.0967 103.927 74.0967 103.136 74.5849 102.647L78.6474 98.5849C79.1355 98.0967 79.927 98.0967 80.4151 98.5849ZM72.2901 106.71C72.7783 107.198 72.7783 107.989 72.2901 108.478L68.2276 112.54C67.7395 113.028 66.948 113.028 66.4599 112.54C65.9717 112.052 65.9717 111.261 66.4599 110.772L70.5224 106.71C71.0105 106.222 71.802 106.222 72.2901 106.71ZM64.1651 114.835C64.6533 115.323 64.6533 116.114 64.1651 116.603L60.1026 120.665C59.6145 121.153 58.823 121.153 58.3349 120.665C57.8467 120.177 57.8467 119.386 58.3349 118.897L62.3974 114.835C62.8855 114.347 63.677 114.347 64.1651 114.835ZM56.0401 122.96C56.5283 123.448 56.5283 124.239 56.0401 124.728L51.9776 128.79C51.4895 129.278 50.698 129.278 50.2099 128.79C49.7217 128.302 49.7217 127.511 50.2099 127.022L54.2724 122.96C54.7605 122.472 55.552 122.472 56.0401 122.96ZM47.9151 131.085C48.4033 131.573 48.4033 132.364 47.9151 132.853L45.8839 134.884C45.3957 135.372 44.6043 135.372 44.1161 134.884C43.628 134.396 43.628 133.604 44.1161 133.116L46.1474 131.085C46.6355 130.597 47.427 130.597 47.9151 131.085Z" fill="#2C3B47"/>
<path d="M168 198C168 201.866 164.866 205 161 205C157.134 205 154 201.866 154 198C154 194.134 157.134 191 161 191C164.866 191 168 194.134 168 198Z" fill="#F39129"/>
<path fill-rule="evenodd" clip-rule="evenodd" d="M98.1964 42.5846L103.105 58.223C103.212 58.5644 103.632 58.686 103.905 58.4545L116.403 47.8504C116.707 47.5924 116.602 47.0996 116.218 46.9888L98.8123 41.9546C98.4292 41.8438 98.0769 42.2041 98.1964 42.5846ZM100.719 58.9716C101.362 61.0199 103.886 61.7497 105.522 60.3608L118.02 49.7567C119.845 48.2085 119.212 45.252 116.913 44.5872L99.5069 39.553C97.2082 38.8882 95.0945 41.0502 95.8111 43.3333L100.719 58.9716Z" fill="#2C3B47"/>
</svg>
