<svg width="640" height="560" viewBox="0 0 640 560" fill="none" xmlns="http://www.w3.org/2000/svg">
<path d="M71.25 150C71.25 146.272 74.2721 143.25 78 143.25H236C239.728 143.25 242.75 146.272 242.75 150V431C242.75 434.728 239.728 437.75 236 437.75H78C74.2721 437.75 71.25 434.728 71.25 431V150Z" fill="white" stroke="#2C3B47" stroke-width="2.5"/>
<rect x="84" y="228" width="104" height="4" rx="2" fill="#2C3B47"/>
<rect x="84" y="248" width="147" height="4" rx="2" fill="#2C3B47"/>
<rect x="84" y="288" width="147" height="4" rx="2" fill="#2C3B47"/>
<rect x="84" y="268" width="147" height="4" rx="2" fill="#2C3B47"/>
<rect x="84" y="308" width="147" height="4" rx="2" fill="#2C3B47"/>
<rect x="84" y="258" width="139" height="4" rx="2" fill="#2C3B47"/>
<rect x="84" y="298" width="139" height="4" rx="2" fill="#2C3B47"/>
<rect x="84" y="278" width="139" height="4" rx="2" fill="#2C3B47"/>
<rect x="84" y="318" width="139" height="4" rx="2" fill="#2C3B47"/>
<path d="M71.25 150C71.25 146.272 74.2721 143.25 78 143.25H236C239.728 143.25 242.75 146.272 242.75 150V210.75H71.25V150Z" fill="#FFF1E1" stroke="#2C3B47" stroke-width="2.5"/>
<rect x="104.25" y="361.25" width="16.5" height="9.5" rx="4.75" fill="#5AB467" stroke="#2C3B47" stroke-width="2.5"/>
<rect x="104.25" y="381.25" width="109.5" height="9.5" rx="4.75" fill="#5AB467" stroke="#2C3B47" stroke-width="2.5"/>
<rect x="104.25" y="401.25" width="48.5" height="9.5" rx="4.75" fill="#5AB467" stroke="#2C3B47" stroke-width="2.5"/>
<rect x="85.25" y="361.25" width="9.5" height="9.5" rx="4.75" fill="white" stroke="#2C3B47" stroke-width="2.5"/>
<rect x="85.25" y="381.25" width="9.5" height="9.5" rx="4.75" fill="white" stroke="#2C3B47" stroke-width="2.5"/>
<rect x="85.25" y="401.25" width="9.5" height="9.5" rx="4.75" fill="white" stroke="#2C3B47" stroke-width="2.5"/>
<path d="M274.374 227.278C273.204 225.317 272.306 223.175 271.731 220.903C272.39 220.755 272.815 220.108 272.683 219.441C272.399 218.006 272.25 216.521 272.25 215V214.5C272.25 214.322 272.213 214.153 272.146 214C272.213 213.847 272.25 213.678 272.25 213.5V213C272.25 211.479 272.399 209.994 272.683 208.559C272.815 207.892 272.39 207.245 271.731 207.097C272.306 204.825 273.204 202.683 274.374 200.722C274.945 201.083 275.703 200.925 276.081 200.361C277.742 197.879 279.879 195.742 282.361 194.081C282.925 193.703 283.083 192.945 282.722 192.374C284.683 191.204 286.825 190.306 289.097 189.731C289.245 190.39 289.892 190.815 290.559 190.683C291.994 190.399 293.479 190.25 295 190.25H299.016C299.706 190.25 300.266 189.69 300.266 189H305.797C305.797 189.69 306.357 190.25 307.047 190.25H315.078C315.768 190.25 316.328 189.69 316.328 189H321.859C321.859 189.69 322.419 190.25 323.109 190.25H331.141C331.831 190.25 332.391 189.69 332.391 189H337.922C337.922 189.69 338.482 190.25 339.172 190.25H347.203C347.893 190.25 348.453 189.69 348.453 189H353.984C353.984 189.69 354.544 190.25 355.234 190.25H363.266C363.956 190.25 364.516 189.69 364.516 189H370.047C370.047 189.69 370.607 190.25 371.297 190.25H379.328C380.018 190.25 380.578 189.69 380.578 189H386.109C386.109 189.69 386.669 190.25 387.359 190.25H395.391C396.081 190.25 396.641 189.69 396.641 189H402.172C402.172 189.69 402.732 190.25 403.422 190.25H411.453C412.143 190.25 412.703 189.69 412.703 189H418.234C418.234 189.69 418.794 190.25 419.484 190.25H427.516C428.206 190.25 428.766 189.69 428.766 189H434.297C434.297 189.69 434.857 190.25 435.547 190.25H443.578C444.268 190.25 444.828 189.69 444.828 189H450.359C450.359 189.69 450.919 190.25 451.609 190.25H459.641C460.331 190.25 460.891 189.69 460.891 189H466.422C466.422 189.69 466.982 190.25 467.672 190.25H475.703C476.393 190.25 476.953 189.69 476.953 189H482.484C482.484 189.69 483.044 190.25 483.734 190.25H491.766C492.456 190.25 493.016 189.69 493.016 189H498.547C498.547 189.69 499.107 190.25 499.797 190.25H507.828C508.518 190.25 509.078 189.69 509.078 189H514.609C514.609 189.69 515.169 190.25 515.859 190.25H523.891C524.581 190.25 525.141 189.69 525.141 189H530.672C530.672 189.69 531.232 190.25 531.922 190.25H539.953C540.643 190.25 541.203 189.69 541.203 189H546.734C546.734 189.69 547.294 190.25 547.984 190.25H552C553.521 190.25 555.006 190.399 556.441 190.683C557.108 190.815 557.755 190.39 557.903 189.731C560.175 190.306 562.317 191.204 564.278 192.374C563.917 192.945 564.075 193.703 564.639 194.081C567.121 195.742 569.258 197.879 570.919 200.361C571.297 200.925 572.055 201.083 572.626 200.722C573.796 202.683 574.694 204.825 575.269 207.097C574.61 207.245 574.185 207.892 574.317 208.559C574.601 209.994 574.75 211.479 574.75 213V213.5C574.75 213.678 574.787 213.847 574.854 214C574.787 214.153 574.75 214.322 574.75 214.5V215C574.75 216.521 574.601 218.006 574.317 219.441C574.185 220.108 574.61 220.755 575.269 220.903C574.694 223.175 573.796 225.317 572.626 227.278C572.055 226.917 571.297 227.075 570.919 227.639C569.258 230.121 567.121 232.258 564.639 233.919C564.075 234.297 563.917 235.055 564.278 235.626C562.317 236.796 560.175 237.694 557.903 238.269C557.755 237.61 557.108 237.185 556.441 237.317C555.006 237.601 553.521 237.75 552 237.75H547.984C547.294 237.75 546.734 238.31 546.734 239H541.203C541.203 238.31 540.643 237.75 539.953 237.75H531.922C531.232 237.75 530.672 238.31 530.672 239H525.141C525.141 238.31 524.581 237.75 523.891 237.75H515.859C515.169 237.75 514.609 238.31 514.609 239H509.078C509.078 238.31 508.518 237.75 507.828 237.75H499.797C499.107 237.75 498.547 238.31 498.547 239H493.016C493.016 238.31 492.456 237.75 491.766 237.75H483.734C483.044 237.75 482.484 238.31 482.484 239H476.953C476.953 238.31 476.393 237.75 475.703 237.75H467.672C466.982 237.75 466.422 238.31 466.422 239H460.891C460.891 238.31 460.331 237.75 459.641 237.75H451.609C450.919 237.75 450.359 238.31 450.359 239H444.828C444.828 238.31 444.268 237.75 443.578 237.75H435.547C434.857 237.75 434.297 238.31 434.297 239H428.766C428.766 238.31 428.206 237.75 427.516 237.75H419.484C418.794 237.75 418.234 238.31 418.234 239H412.703C412.703 238.31 412.143 237.75 411.453 237.75H403.422C402.732 237.75 402.172 238.31 402.172 239H396.641C396.641 238.31 396.081 237.75 395.391 237.75H387.359C386.669 237.75 386.109 238.31 386.109 239H380.578C380.578 238.31 380.018 237.75 379.328 237.75H371.297C370.607 237.75 370.047 238.31 370.047 239H364.516C364.516 238.31 363.956 237.75 363.266 237.75H355.234C354.544 237.75 353.984 238.31 353.984 239H348.453C348.453 238.31 347.893 237.75 347.203 237.75H339.172C338.482 237.75 337.922 238.31 337.922 239H332.391C332.391 238.31 331.831 237.75 331.141 237.75H323.109C322.419 237.75 321.859 238.31 321.859 239H316.328C316.328 238.31 315.768 237.75 315.078 237.75H307.047C306.357 237.75 305.797 238.31 305.797 239H300.266C300.266 238.31 299.706 237.75 299.016 237.75H295C293.479 237.75 291.994 237.601 290.559 237.317C289.892 237.185 289.245 237.61 289.097 238.269C286.825 237.694 284.683 236.796 282.722 235.626C283.083 235.055 282.925 234.297 282.361 233.919C279.879 232.258 277.742 230.121 276.081 227.639C275.703 227.075 274.945 226.917 274.374 227.278Z" stroke="#2C3B47" stroke-width="2.5" stroke-linecap="round" stroke-dasharray="8 8"/>
<rect x="277.25" y="195.25" width="292.5" height="37.5" rx="18.75" fill="#5AB467" stroke="#2C3B47" stroke-width="2.5"/>
<rect x="319" y="212" width="218" height="4" rx="2" fill="#2C3B47"/>
<rect x="277.25" y="353.25" width="292.5" height="37.5" rx="18.75" fill="#E0F5E3" stroke="#2C3B47" stroke-width="2.5"/>
<path fill-rule="evenodd" clip-rule="evenodd" d="M307.087 368.044L307.945 361L300.901 361.858L303.224 364.181L294.434 372.972L296.11 374.648L304.9 365.858L307.087 368.044ZM296.224 382.759L297.062 383.597L297.9 382.759L309.061 371.599L307.384 369.923L297.071 380.236L291.676 374.859L290 376.535L296.224 382.759Z" fill="#2C3B47"/>
<rect x="284.25" y="202.25" width="23.5" height="23.5" rx="11.75" fill="white" stroke="#2C3B47" stroke-width="2.5"/>
<rect x="290.25" y="208.25" width="11.5" height="11.5" rx="5.75" fill="#5AB467" stroke="#2C3B47" stroke-width="2.5"/>
<g opacity="0.5">
<rect x="277.25" y="248.25" width="292.5" height="37.5" rx="18.75" fill="#5AB467" stroke="#2C3B47" stroke-width="2.5"/>
<rect x="284.25" y="255.25" width="23.5" height="23.5" rx="11.75" fill="white" stroke="#2C3B47" stroke-width="2.5"/>
<rect x="319" y="265" width="147" height="4" rx="2" fill="#2C3B47"/>
</g>
<g opacity="0.5">
<rect x="277.25" y="296.25" width="292.5" height="37.5" rx="18.75" fill="#5AB467" stroke="#2C3B47" stroke-width="2.5"/>
<rect x="284.25" y="303.25" width="23.5" height="23.5" rx="11.75" fill="white" stroke="#2C3B47" stroke-width="2.5"/>
<rect x="319" y="313" width="203" height="4" rx="2" fill="#2C3B47"/>
</g>
<rect x="319" y="370" width="102" height="4" rx="2" fill="#2C3B47"/>
<g clip-path="url(#clip0_1413_12212)">
<rect x="187" y="96" width="89" height="91" rx="44.5" fill="white"/>
<path d="M252.948 128.07L253.454 127.971C253.454 127.971 262.476 113.372 251.023 109.719C244.323 107.519 240.274 114.791 240.274 114.791C240.274 114.791 237.534 104.955 227.798 107.386C216.95 110.027 219.183 120.666 219.183 120.666C219.183 120.666 214.782 115.396 207.081 118.741C199.379 122.085 201.195 130.502 203.23 133.846C198.356 134.055 194.197 139.226 195.221 144.089C196.64 151.185 205.122 150.074 207.994 149.359C203.527 152.209 200.689 159.195 204.539 163.86C210.227 170.758 222.142 164.674 222.142 164.674L221.735 160.823L218.6 134.055L252.948 128.07Z" fill="#2C3B47"/>
<path d="M264.81 132.636C264.484 131.091 263.601 129.719 262.328 128.784C261.056 127.848 259.484 127.414 257.911 127.564L253.048 127.971L252.949 128.169V128.07L218.535 134.055L219.041 138.621L218.942 138.313L219.349 141.152L220.064 146.928C218.645 146.631 211.34 145.409 213.166 154.233C213.318 155.106 213.691 155.925 214.248 156.614C214.805 157.302 215.529 157.837 216.351 158.168C217.173 158.498 218.066 158.613 218.945 158.502C219.824 158.391 220.66 158.058 221.374 157.534L221.781 160.68L221.99 160.878C222.496 167.776 223.2 177.007 223.2 177.007C223.2 177.007 231.925 180.044 237.701 176.391C237.602 174.191 237.404 171.726 237.404 171.726L237.294 171.429C239.382 171.11 241.451 170.669 243.488 170.109C259.507 164.223 256.36 142.021 256.36 142.021L261.432 139.688C262.673 139.026 263.67 137.985 264.277 136.716C264.885 135.447 265.071 134.018 264.81 132.636Z" fill="#EDCFC5"/>
<path d="M307.397 239.103L273.225 188.306C270.7 184.455 267.297 181.258 263.296 178.978C259.294 176.699 254.809 175.401 250.209 175.192L237.534 174.576H222.935V175.291C221.615 175.291 202.856 175.896 198.895 191.211C196.464 200.739 179.092 286.73 179.092 286.73L217.016 289.866L219.15 267.466L307.397 239.103Z" fill="#E0F5E3"/>
<path d="M216.949 290.812L178.926 287.676C178.644 287.638 178.387 287.492 178.211 287.269C178.04 287.035 177.969 286.742 178.013 286.455C178.211 285.641 195.352 200.364 197.816 190.837C202.03 174.411 222.725 174.202 222.934 174.202C223.186 174.228 223.419 174.346 223.588 174.534C223.757 174.722 223.851 174.966 223.851 175.219C223.851 175.472 223.757 175.716 223.588 175.904C223.419 176.092 223.186 176.211 222.934 176.237C222.725 176.237 203.559 176.435 199.709 191.343C197.508 200.144 182.171 275.607 180.136 285.74L215.937 288.689L222.725 217.407C222.769 217.148 222.905 216.914 223.106 216.747C223.308 216.579 223.563 216.49 223.825 216.493C223.957 216.506 224.085 216.544 224.202 216.606C224.318 216.668 224.422 216.753 224.506 216.855C224.589 216.958 224.652 217.076 224.69 217.202C224.728 217.329 224.741 217.462 224.727 217.594L217.84 289.888C217.843 290.128 217.751 290.36 217.584 290.533C217.417 290.706 217.189 290.806 216.949 290.812Z" fill="#2C3B47"/>
<path d="M233.067 172.893C232.624 172.92 232.18 172.883 231.747 172.782C231.496 172.723 231.271 172.584 231.107 172.385C230.942 172.187 230.846 171.94 230.834 171.682C230.834 171.176 231.45 170.769 231.934 170.769C235.661 170.885 239.38 170.372 242.936 169.251C257.943 163.75 255.104 142.483 255.104 142.274C255.068 142.059 255.11 141.839 255.223 141.652C255.336 141.466 255.513 141.328 255.721 141.262L260.792 138.929C261.907 138.402 262.813 137.516 263.363 136.413C263.914 135.309 264.078 134.053 263.829 132.845C263.572 131.542 262.837 130.382 261.768 129.594C260.699 128.806 259.374 128.447 258.053 128.587L253.179 128.994C252.911 129.021 252.643 128.939 252.434 128.768C252.226 128.597 252.094 128.35 252.068 128.081C252.042 127.813 252.123 127.545 252.294 127.337C252.466 127.128 252.713 126.996 252.981 126.97L257.844 126.563C259.662 126.419 261.471 126.933 262.941 128.012C264.411 129.09 265.445 130.661 265.853 132.438C266.2 134.09 265.978 135.811 265.223 137.322C264.468 138.832 263.225 140.042 261.695 140.756L257.294 142.78C257.701 146.84 258.614 165.807 243.706 171.176C240.251 172.212 236.674 172.789 233.067 172.893Z" fill="#2C3B47"/>
<path d="M237.733 140.745C238.572 140.745 239.251 140.065 239.251 139.226C239.251 138.388 238.572 137.708 237.733 137.708C236.895 137.708 236.215 138.388 236.215 139.226C236.215 140.065 236.895 140.745 237.733 140.745Z" fill="#2C3B47"/>
<path d="M244.323 139.116C245.161 139.116 245.841 138.437 245.841 137.598C245.841 136.76 245.161 136.08 244.323 136.08C243.484 136.08 242.805 136.76 242.805 137.598C242.805 138.437 243.484 139.116 244.323 139.116Z" fill="#2C3B47"/>
<path d="M307.397 240.104C307.084 240.077 306.793 239.931 306.583 239.697L272.444 188.911C269.975 185.201 266.665 182.125 262.785 179.932C258.905 177.74 254.562 176.493 250.11 176.292L237.436 175.687C237.308 175.68 237.184 175.649 237.069 175.594C236.954 175.54 236.851 175.463 236.765 175.368C236.593 175.177 236.504 174.926 236.517 174.669C236.53 174.412 236.645 174.171 236.835 173.999C237.026 173.827 237.278 173.737 237.535 173.751L250.209 174.367C254.965 174.617 259.597 175.976 263.735 178.336C267.872 180.695 271.401 183.989 274.039 187.954L308.211 238.75C308.288 238.863 308.341 238.989 308.367 239.123C308.393 239.256 308.391 239.393 308.362 239.526C308.333 239.659 308.278 239.784 308.199 239.895C308.12 240.006 308.02 240.099 307.903 240.17C307.745 240.097 307.569 240.074 307.397 240.104Z" fill="#2C3B47"/>
<path d="M203.13 134.87C202.913 134.849 202.706 134.773 202.528 134.647C202.351 134.522 202.209 134.352 202.118 134.155C202.019 133.956 200.907 130.711 195.12 130.711C194.869 130.685 194.636 130.566 194.466 130.378C194.297 130.19 194.203 129.946 194.203 129.693C194.203 129.44 194.297 129.196 194.466 129.008C194.636 128.82 194.869 128.702 195.12 128.676C202.525 128.676 204.043 133.34 204.043 133.549C204.093 133.675 204.113 133.81 204.103 133.944C204.093 134.079 204.052 134.209 203.985 134.325C203.917 134.442 203.823 134.541 203.712 134.617C203.6 134.692 203.472 134.741 203.339 134.76C203.361 134.87 203.262 134.87 203.13 134.87Z" fill="#2C3B47"/>
</g>
<rect x="188.25" y="97.25" width="86.5" height="88.5" rx="43.25" stroke="#2C3B47" stroke-width="2.5"/>
<path d="M284.252 147.878C294.373 150.123 314.242 160.215 312.749 182.622" stroke="#2C3B47" stroke-width="2.5" stroke-linecap="round"/>
<path d="M468.072 423.577C457.868 425.407 435.645 423.755 428.384 402.504" stroke="#2C3B47" stroke-width="2.5" stroke-linecap="round"/>
<g clip-path="url(#clip1_1413_12212)">
<rect width="74" height="75" rx="37" transform="matrix(-1 0 0 1 547 373)" fill="white"/>
<path d="M528.79 431.531C537.97 433.638 539.971 444.41 541.148 449.093C534.675 454.655 519.256 465.778 509.369 465.778C497.01 465.778 482.003 456.118 482.885 449.093C483.768 442.068 489.065 432.409 493.479 431.531C497.893 430.652 517.314 428.896 528.79 431.531Z" fill="#5C9CD0"/>
<path d="M509.231 432.224C505.772 433.38 500.164 432.538 500.164 432.538L499.808 427.818L499.476 427.884C498.15 428.177 496.777 428.186 495.448 427.91C494.119 427.635 492.864 427.082 491.766 426.288C490.668 425.494 489.752 424.476 489.079 423.303C488.406 422.13 487.991 420.828 487.862 419.484C487.862 416.761 487.481 413.6 485.656 411.867C484.702 410.91 479.252 410.159 479.733 407.123C480.214 404.086 486.104 404.037 486.104 404.037L487.39 401.454L518.007 401.99L513.03 431.49L509.231 432.224Z" fill="#F8E1B8"/>
<path d="M495.157 408.095C495.185 407.504 494.725 407.001 494.13 406.973C493.535 406.945 493.03 407.402 493.002 407.994C492.974 408.586 493.433 409.088 494.028 409.116C494.623 409.144 495.128 408.687 495.157 408.095Z" fill="#2C3B47"/>
<path d="M499.694 408.81C499.722 408.219 499.262 407.716 498.667 407.688C498.073 407.66 497.567 408.117 497.539 408.709C497.511 409.301 497.971 409.803 498.565 409.831C499.16 409.859 499.665 409.402 499.694 408.81Z" fill="#2C3B47"/>
<path d="M502.915 433.578C501.917 433.574 500.922 433.472 499.945 433.273C499.53 433.273 499.298 432.91 499.232 432.497L498.875 427.769C498.869 427.657 498.887 427.545 498.926 427.44C498.965 427.335 499.025 427.24 499.103 427.158C499.18 427.077 499.274 427.013 499.377 426.969C499.481 426.925 499.592 426.902 499.705 426.902C499.818 426.896 499.931 426.912 500.037 426.95C500.144 426.989 500.241 427.049 500.324 427.126C500.406 427.203 500.472 427.296 500.516 427.4C500.561 427.503 500.584 427.615 500.584 427.728L500.891 431.787C502.459 431.944 506.341 432.291 508.962 431.424C509.174 431.358 509.405 431.377 509.602 431.48C509.8 431.582 509.948 431.758 510.016 431.969C510.083 432.18 510.063 432.409 509.96 432.606C509.857 432.802 509.68 432.95 509.468 433.017C507.333 433.582 505.115 433.771 502.915 433.578Z" fill="#2C3B47"/>
<path d="M486.101 401.396L512.646 402.642C512.646 402.642 509.328 406.949 510.787 410.324C512.247 413.699 514.197 417.091 512.405 419.896C511.195 421.723 510.522 423.85 510.462 426.037C510.402 428.224 510.957 430.384 512.065 432.274C513.724 435.409 512.281 439.964 512.281 439.964L542.401 431.713C542.401 431.713 535.159 423.354 535.765 418.593C536.37 413.831 540.36 410.885 535.765 406.289C531.169 401.693 536.519 399.218 533.774 394.135C531.857 390.652 527.502 389.703 523.164 391.816C521.845 388.119 520.916 385.099 515.217 386.04C512.206 386.56 509.709 386.609 506.623 385.14C503.537 383.671 495.101 382.945 489.427 388.87C484.898 393.408 486.101 401.396 486.101 401.396Z" fill="#2C3B47"/>
<path d="M523.137 392.567H522.971C522.762 392.499 522.585 392.358 522.472 392.17C522.359 391.982 522.318 391.76 522.357 391.544C522.448 391.305 524.016 385.677 529.823 384.629C529.933 384.608 530.047 384.609 530.157 384.633C530.266 384.657 530.37 384.702 530.462 384.767C530.553 384.832 530.631 384.915 530.689 385.01C530.747 385.106 530.786 385.212 530.802 385.322C530.821 385.432 530.817 385.545 530.791 385.653C530.765 385.761 530.717 385.863 530.65 385.952C530.584 386.042 530.5 386.117 530.403 386.173C530.306 386.229 530.199 386.266 530.088 386.28C525.319 387.105 523.925 391.932 523.917 392.056C523.892 392.353 523.469 392.584 523.137 392.567Z" fill="#2C3B47"/>
<path d="M496.79 428.825C494.978 428.76 493.221 428.188 491.721 427.174C490.421 426.309 489.331 425.166 488.532 423.828C487.732 422.491 487.244 420.992 487.101 419.442C487.043 417.206 486.869 413.98 485.193 412.412C484.741 412.127 484.249 411.91 483.733 411.768C481.692 410.943 478.59 409.788 479.055 406.999C479.726 403.401 485.55 403.261 486.213 403.294C486.424 403.32 486.62 403.415 486.771 403.565C486.921 403.714 487.017 403.909 487.043 404.119C487.029 404.333 486.937 404.535 486.785 404.687C486.632 404.839 486.429 404.931 486.213 404.944C484.886 404.944 481.045 405.448 480.705 407.329C480.473 408.641 482.182 409.466 484.38 410.316C485.099 410.557 485.783 410.893 486.412 411.315C488.561 413.32 488.81 416.802 488.843 419.566C488.968 420.847 489.378 422.084 490.044 423.187C490.71 424.291 491.614 425.233 492.692 425.945C495.272 427.636 498.756 427.719 502.563 426.159C502.667 426.098 502.783 426.06 502.903 426.048C503.023 426.036 503.144 426.05 503.258 426.089C503.372 426.129 503.476 426.192 503.563 426.276C503.649 426.359 503.717 426.46 503.76 426.572C503.804 426.684 503.822 426.804 503.814 426.924C503.806 427.043 503.772 427.16 503.714 427.265C503.656 427.37 503.576 427.462 503.479 427.533C503.382 427.604 503.27 427.654 503.152 427.678C501.128 428.473 498.966 428.863 496.79 428.825Z" fill="#2C3B47"/>
<path d="M503.622 493.831C503.456 493.831 503.373 493.831 503.298 493.741C503.202 493.685 503.117 493.61 503.05 493.52C502.983 493.431 502.935 493.329 502.909 493.221L497.235 471.065C497.209 470.953 497.206 470.837 497.226 470.723C497.246 470.61 497.288 470.502 497.351 470.405C497.5 470.214 497.711 470.08 497.948 470.025L527.305 465.627C527.415 465.608 527.527 465.612 527.635 465.637C527.744 465.663 527.846 465.709 527.936 465.775C528.025 465.84 528.101 465.923 528.158 466.018C528.215 466.113 528.252 466.219 528.267 466.329C528.286 466.438 528.283 466.55 528.257 466.657C528.232 466.765 528.185 466.867 528.119 466.956C528.053 467.045 527.97 467.121 527.874 467.177C527.778 467.234 527.672 467.271 527.562 467.286L499.126 471.486L504.377 491.967L536.82 482.015C540.008 481.021 542.675 478.82 544.246 475.887C545.817 472.953 546.164 469.523 545.214 466.337C540.619 451.162 537.749 442.027 536.836 439.932C535.119 435.806 530.142 433.999 530.059 433.999C529.937 433.985 529.819 433.946 529.715 433.882C529.61 433.818 529.521 433.732 529.454 433.63C529.386 433.527 529.343 433.412 529.326 433.291C529.309 433.17 529.32 433.046 529.357 432.93C529.394 432.813 529.456 432.707 529.54 432.617C529.623 432.527 529.726 432.457 529.84 432.412C529.954 432.367 530.076 432.347 530.199 432.355C530.321 432.362 530.441 432.397 530.548 432.456C530.789 432.546 536.264 434.452 538.28 439.263C539.399 441.953 543.497 455.197 546.732 465.759C547.808 469.365 547.417 473.246 545.644 476.568C543.871 479.889 540.856 482.385 537.251 483.517L503.962 493.757C503.858 493.815 503.74 493.84 503.622 493.831Z" fill="#2C3B47"/>
<path d="M482.126 449.949C482.035 449.953 481.945 449.92 481.878 449.859C481.775 449.816 481.683 449.754 481.605 449.676C481.527 449.597 481.466 449.504 481.425 449.402C481.384 449.3 481.364 449.19 481.366 449.08C481.369 448.97 481.393 448.862 481.438 448.761L485.37 439.362C487.709 433.776 491.259 430.715 495.93 430.36L499.928 430.055C500.038 430.048 500.148 430.063 500.251 430.099C500.355 430.135 500.451 430.191 500.532 430.264C500.614 430.337 500.681 430.425 500.728 430.524C500.775 430.622 500.802 430.729 500.807 430.838C500.813 430.95 500.796 431.062 500.756 431.167C500.717 431.272 500.657 431.368 500.579 431.449C500.502 431.53 500.409 431.594 500.305 431.638C500.202 431.682 500.09 431.705 499.978 431.705L495.971 432.018C492.056 432.324 488.937 434.989 486.846 440.014L482.914 449.413C482.855 449.572 482.747 449.709 482.606 449.805C482.465 449.901 482.297 449.952 482.126 449.949Z" fill="#2C3B47"/>
</g>
<rect x="-1.25" y="1.25" width="71.5" height="72.5" rx="35.75" transform="matrix(-1 0 0 1 544.5 373)" stroke="#2C3B47" stroke-width="2.5"/>
<defs>
<clipPath id="clip0_1413_12212">
<rect x="187" y="96" width="89" height="91" rx="44.5" fill="white"/>
</clipPath>
<clipPath id="clip1_1413_12212">
<rect width="74" height="75" rx="37" transform="matrix(-1 0 0 1 547 373)" fill="white"/>
</clipPath>
</defs>
</svg>
