<?xml version="1.0" encoding="UTF-8"?>
<svg width="18px" height="16px" viewBox="0 0 18 16" version="1.1" xmlns="http://www.w3.org/2000/svg" xmlns:xlink="http://www.w3.org/1999/xlink">
    <!-- Generator: sketchtool 51.3 (57544) - http://www.bohemiancoding.com/sketch -->
    <title>6AE83AFD-FCC2-40AF-B4C9-651C8AA4FB78</title>
    <desc>Created with sketchtool.</desc>
    <defs></defs>
    <g id="Website-2.0" stroke="none" stroke-width="1" fill="none" fill-rule="evenodd">
        <g id="Assets-&amp;-States" transform="translate(-693.000000, -464.000000)">
            <g id="assets" transform="translate(40.000000, 342.000000)">
                <g id="bullet-check" transform="translate(653.000000, 122.000000)">
                    <g>
                        <path d="M8,14 C11.3137085,14 14,11.3137085 14,8 C14,4.6862915 11.3137085,2 8,2 C4.6862915,2 2,4.6862915 2,8 C2,11.3137085 4.6862915,14 8,14 Z M8,16 C3.581722,16 0,12.418278 0,8 C0,3.581722 3.581722,0 8,0 C12.418278,0 16,3.581722 16,8 C16,12.418278 12.418278,16 8,16 Z" id="Oval-2" fill="#FFC600" fill-rule="nonzero"></path>
                        <polygon id="Path-2" fill="#0680FC" fill-rule="nonzero" points="8 8.58578644 15.8075864 0.778200036 17.2218 2.1924136 8 11.4142136 3.79289322 7.20710678 5.20710678 5.79289322"></polygon>
                    </g>
                </g>
            </g>
        </g>
    </g>
</svg>
