<?xml version="1.0" encoding="UTF-8"?>
<svg width="32px" height="32px" viewBox="0 0 32 32" version="1.1" xmlns="http://www.w3.org/2000/svg" xmlns:xlink="http://www.w3.org/1999/xlink">
    <!-- Generator: sketchtool 57.1 (101010) - https://sketch.com -->
    <title>07A3FE04-41AF-46D8-97F6-C123B0512BBF</title>
    <desc>Created with sketchtool.</desc>
    <defs>
        <linearGradient x1="50%" y1="0%" x2="50%" y2="100%" id="linearGradient-1">
            <stop stop-color="#0EB7FE" offset="0%"></stop>
            <stop stop-color="#0680FC" offset="100%"></stop>
        </linearGradient>
    </defs>
    <g id="Website-2.0" stroke="none" stroke-width="1" fill="none" fill-rule="evenodd">
        <g id="Community" transform="translate(-904.000000, -5771.000000)">
            <g id="Group-4" transform="translate(443.000000, 5672.000000)">
                <g id="contact" transform="translate(0.000000, 99.000000)">
                    <g id="cta-phone" transform="translate(461.000000, 0.000000)">
                        <circle id="Oval-2" fill="url(#linearGradient-1)" cx="16" cy="16" r="16"></circle>
                        <path d="M9.0382588,13.178948 C9.0578133,13.3506972 9.1147764,13.5607074 9.1717395,13.789423 C9.2295528,14.0189888 9.2865159,14.190738 9.3247747,14.2859653 C9.3630335,14.4007482 9.4395511,14.5912028 9.534773,14.877735 C9.6486992,15.1642671 9.7065125,15.3360163 9.7447713,15.411688 C9.9930284,16.098685 10.2786941,16.7287156 10.6221731,17.2635189 C11.1756504,18.1792314 11.939126,19.1144995 12.9125999,20.0880286 C13.8852236,21.0607074 14.8204387,21.8242263 15.7369495,22.377735 C16.2708723,22.7212334 16.9008672,23.0077656 17.5878252,23.2560367 C17.6643428,23.2934475 17.8360823,23.351264 18.121748,23.4651967 C18.4082639,23.5612742 18.5995579,23.6369459 18.7134841,23.6752069 C18.808706,23.7134679 18.9804455,23.7712844 19.2099983,23.8282508 C19.4387009,23.8852171 19.6486992,23.9430337 19.8204387,23.961739 C20.0108825,23.9812946 20.1834722,24 20.3926203,24 C21.0421697,24 21.6908689,23.8282508 22.3582724,23.4651967 C23.0834892,23.0647319 23.5221901,22.6829725 23.656521,22.3207686 C23.7517429,22.1490194 23.808706,21.9007482 23.8852236,21.5955107 C23.9617412,21.2902732 24,21.042002 24,20.8506972 C24,20.7554699 23.9804455,20.678948 23.9617412,20.6219816 C23.9234824,20.4884934 23.656521,20.3167441 23.1600068,20.068473 C23.0265261,19.9732457 22.8352321,19.8780184 22.5878252,19.7445301 C22.3200136,19.6101916 22.1100153,19.4767033 21.9008672,19.3627707 C21.6908689,19.2479878 21.5191294,19.1527605 21.3278354,19.0379776 C21.3091311,19.0192722 21.2139092,18.9614556 21.060874,18.847523 C20.9078388,18.7514454 20.7939126,18.6757737 20.6791362,18.6179571 C20.5839143,18.5796962 20.4886924,18.5414352 20.3926203,18.5414352 C20.2404353,18.5414352 20.0686958,18.6562181 19.8586975,18.847523 C19.6299949,19.0566829 19.4387009,19.2666931 19.2669614,19.5149643 C19.0952219,19.7445301 18.9047781,19.9732457 18.6947798,20.1637003 C18.5034858,20.3737105 18.3317463,20.469788 18.2178201,20.469788 C18.1413025,20.469788 18.0647849,20.4502324 17.969563,20.4119714 C17.8743411,20.3932661 17.7978235,20.3550051 17.7595647,20.3354495 C17.7026016,20.2971885 17.626084,20.2597778 17.4926033,20.1832559 C17.3778269,20.1067339 17.3013093,20.068473 17.3013093,20.068473 C16.3278354,19.5149643 15.4886924,18.9044893 14.8017344,18.1979367 C14.0952219,17.5109398 13.4847815,16.6717492 12.9313042,15.6982202 C12.9313042,15.6982202 12.8930454,15.6216982 12.8165278,15.5077656 C12.7408604,15.373427 12.7026016,15.2977554 12.6643428,15.2399388 C12.6447883,15.2025281 12.6073797,15.1260061 12.5878252,15.0299286 C12.5495664,14.9347013 12.5308621,14.8581793 12.5308621,14.7825077 C12.5308621,14.6677247 12.626084,14.4959755 12.8360823,14.3055209 C13.0265261,14.0955107 13.2560789,13.9042059 13.4847815,13.7324566 C13.7330386,13.5607074 13.9430369,13.3702528 14.1530352,13.140687 C14.343479,12.9306768 14.4582554,12.7589276 14.4582554,12.6067339 C14.4582554,12.5115066 14.4199966,12.4154291 14.3817378,12.3202018 C14.3247747,12.2062691 14.2482571,12.0914862 14.1530352,11.9384424 C14.0382588,11.7862487 13.9812957,11.6901712 13.9617412,11.6714658 C13.8469648,11.4810112 13.7517429,11.309262 13.6378167,11.0992518 C13.5230403,10.8892416 13.3895596,10.6792314 13.2560789,10.4122548 C13.1225982,10.1639837 13.0265261,9.97267883 12.9313042,9.83919057 C12.6830471,9.34349847 12.5113076,9.07567169 12.3778269,9.03826097 C12.3208638,9.01870536 12.2443462,9 12.1491243,9 C11.9578303,9 11.7104234,9.03826097 11.404353,9.11393266 C11.0991328,9.1904546 10.8517259,9.24742093 10.6799864,9.34349847 C10.3169529,9.47698674 9.9352151,9.9157125 9.534773,10.6409704 C9.1717395,11.309262 9,11.957998 9,12.6067339 C9,12.8167441 9.0195545,12.9884934 9.0382588,13.178948" id="Fill-147" fill="#FFFFFF"></path>
                    </g>
                </g>
            </g>
        </g>
    </g>
</svg>