<?xml version="1.0" encoding="UTF-8"?>
<svg width="32px" height="32px" viewBox="0 0 32 32" version="1.1" xmlns="http://www.w3.org/2000/svg" xmlns:xlink="http://www.w3.org/1999/xlink">
    <title>10C62505-9918-48A1-B2BD-2392FD4B84B3@1x</title>
    <defs>
        <linearGradient x1="50%" y1="0%" x2="50%" y2="100%" id="linearGradient-1">
            <stop stop-color="#0EB7FE" offset="0%"></stop>
            <stop stop-color="#0680FC" offset="100%"></stop>
        </linearGradient>
    </defs>
    <g id="Website-2.0" stroke="none" stroke-width="1" fill="none" fill-rule="evenodd">
        <g id="Media-Article" transform="translate(-1241.000000, -3459.000000)">
            <g id="footer" transform="translate(0.000000, 3380.000000)">
                <g id="Group-3" transform="translate(1033.000000, 39.000000)">
                    <g id="Group-2" transform="translate(0.000000, 40.000000)">
                        <g id="icon_footer_youtube" transform="translate(208.000000, 0.000000)">
                            <circle id="Oval-2" fill="url(#linearGradient-1)" cx="16" cy="16" r="16"></circle>
                            <g id="social/facebook" transform="translate(8.000000, 8.000000)" fill="#FFFFFF" fill-rule="nonzero">
                                <path d="M15.32,3.96033058 C14.886,3.19471074 14.415,3.0538843 13.456,3.00033058 C12.498,2.93586777 10.089,2.90909091 8.002,2.90909091 C5.911,2.90909091 3.501,2.93586777 2.544,2.99933884 C1.587,3.0538843 1.115,3.19371901 0.677,3.96033058 C0.23,4.72495868 0,6.04198347 0,8.36066116 C0,8.36264463 0,8.36363636 0,8.36363636 C0,8.36561983 0,8.36661157 0,8.36661157 L0,8.36859504 C0,10.6773554 0.23,12.0042975 0.677,12.7609917 C1.115,13.5266116 1.586,13.6654545 2.543,13.7299174 C3.501,13.7854545 5.911,13.8181818 8.002,13.8181818 C10.089,13.8181818 12.498,13.7854545 13.457,13.7309091 C14.416,13.6664463 14.887,13.5276033 15.321,12.7619835 C15.772,12.0052893 16,10.6783471 16,8.36958678 C16,8.36958678 16,8.36661157 16,8.3646281 C16,8.3646281 16,8.36264463 16,8.36165289 C16,6.04198347 15.772,4.72495868 15.32,3.96033058 Z M5.81818182,11.6363636 L5.81818182,5.81818182 L10.9090909,8.72727273 L5.81818182,11.6363636 Z" id="Shape"></path>
                            </g>
                        </g>
                    </g>
                </g>
            </g>
        </g>
    </g>
</svg>