<?xml version="1.0" encoding="UTF-8"?>
<svg width="13px" height="16px" viewBox="0 0 13 16" version="1.1" xmlns="http://www.w3.org/2000/svg" xmlns:xlink="http://www.w3.org/1999/xlink">
    <!-- Generator: sketchtool 57.1 (101010) - https://sketch.com -->
    <title>8FA23923-28B7-4385-84DE-3CA8CEFDB6B9</title>
    <desc>Created with sketchtool.</desc>
    <g id="Website-2.0" stroke="none" stroke-width="1" fill="none" fill-rule="evenodd" opacity="0.6">
        <g id="Home-with-events" transform="translate(-900.000000, -3851.000000)" fill="#000000" fill-rule="nonzero">
            <path d="M906.268248,3851.00407 C903.030994,3851.11561 900.341634,3853.5957 900.030938,3856.76143 C899.967462,3857.39457 900.004211,3858.00803 900.117799,3858.59525 L900.117799,3858.59525 C900.117799,3858.59525 900.127822,3858.66414 900.16123,3858.79536 C900.261455,3859.23495 900.411791,3859.66143 900.598877,3860.06165 C901.250337,3861.57726 902.757047,3864.11312 906.137956,3866.87206 C906.345087,3867.04265 906.649102,3867.04265 906.859573,3866.87206 C910.240483,3864.1164 911.747193,3861.58054 912.401993,3860.05837 C912.59242,3859.65814 912.739416,3859.23495 912.839641,3858.79208 C912.869708,3858.66414 912.883071,3858.59197 912.883071,3858.59197 L912.883071,3858.59197 C912.95991,3858.1983 913,3857.7948 913,3857.38145 C913,3853.77941 909.963195,3850.87613 906.268248,3851.00407 Z M906.498765,3860.55701 C904.754857,3860.55701 903.34169,3859.16934 903.34169,3857.4569 C903.34169,3855.74446 904.754857,3854.35679 906.498765,3854.35679 C908.242673,3854.35679 909.655839,3855.74446 909.655839,3857.4569 C909.655839,3859.16934 908.242673,3860.55701 906.498765,3860.55701 Z" id="icon_meetpointer"></path>
        </g>
    </g>
</svg>