<?xml version="1.0" encoding="UTF-8"?>
<svg width="100px" height="100px" viewBox="0 0 100 100" version="1.1" xmlns="http://www.w3.org/2000/svg" xmlns:xlink="http://www.w3.org/1999/xlink">
    <!-- Generator: sketchtool 58 (101010) - https://sketch.com -->
    <title>3828A788-1FBB-4B00-83F0-633C6A0EE9A6</title>
    <desc>Created with sketchtool.</desc>
    <g id="Website-2.0" stroke="none" stroke-width="1" fill="none" fill-rule="evenodd">
        <g id="Meet-the-team" transform="translate(-520.000000, -2820.000000)">
            <g id="like-minded-people" transform="translate(140.000000, 2720.000000)">
                <g id="img_team_founders-img_team_frontend" transform="translate(380.000000, 100.000000)">
                    <circle id="Oval" fill="#F7F7F7" cx="50" cy="50" r="50"></circle>
                    <g id="plant" transform="translate(25.000000, 26.000000)" fill-rule="nonzero">
                        <path d="M48.9231024,2.61805958 C48.7690704,2.24409125 48.4030688,2.00006027 47.9990982,2.00006027 C40.4950325,2.00006027 33.6490011,4.36602638 29.6889829,8.32602196 C27.4029725,10.6120194 26.5009996,13.9960156 27.3389409,17.1620433 C27.4409414,17.5500742 27.7669116,17.8400426 28.164976,17.8960113 C28.565009,17.95198 28.9569796,17.7680427 29.1629493,17.4220118 C30.9949264,14.3780465 33.2549681,11.5040497 35.8789488,8.87802134 C36.2689506,8.48802178 36.9029848,8.48802178 37.2929866,8.87802134 C37.6829884,9.26802091 37.6829884,9.90205145 37.2929866,10.292051 C36.524983,11.0600502 35.8270111,11.8220493 35.1649456,12.5780485 C35.100914,12.6520171 35.0409137,12.7260795 34.9769759,12.8000482 C31.2289275,17.1360746 29.1329491,21.1720076 28.054913,23.780036 C26.7548757,19.7160717 24.3188646,12.7380795 22.0949169,9.79002032 C23.4609544,7.80805379 23.2709223,5.06999434 21.5088829,3.31002756 C19.4069983,1.20599865 15.9409512,0 12.0009018,0 C11.5969312,0 11.2309296,0.244030978 11.0768976,0.61799931 C10.9208969,0.991967643 11.006866,1.42199841 11.2928986,1.70802934 C12.202934,2.61599708 12.4948729,4.40202634 12.7789367,6.12599316 C13.0689067,7.88202245 13.3409705,9.53998935 14.3109124,10.5100195 C15.3028857,11.5019872 16.6069542,11.9980179 17.9109289,11.9980179 C18.8669021,11.9980179 19.8189377,11.7260494 20.6509728,11.1940188 C22.9749522,14.4479839 25.998966,23.714036 27.0410021,27.2819696 C27.1670026,27.7099378 27.5570044,28 28.0010065,28 C28.0089752,28 28.0170378,28 28.0250066,28 C28.4769774,27.9899688 28.8669792,27.6740316 28.9730109,27.2339696 C28.9830422,27.1960009 29.4750445,25.2299718 30.9609888,22.2940064 C32.544996,23.4059739 34.3730357,23.9920045 36.2129816,23.9900357 C38.5570236,23.9900357 40.8930031,23.094068 42.6750112,21.31207 C44.3869878,19.6001031 44.9070215,16.4381067 45.4570553,13.0920791 C46.051058,9.48411442 46.6650295,5.75211858 48.7071014,3.70808961 C48.993134,3.42205868 49.0791031,2.99202791 48.9231024,2.61805958 Z" id="Path" fill="#0680FC"></path>
                        <path d="M11.6883099,23.272028 C9.97423322,21.6460303 3.12008273,21.1220623 1.06005936,21 C0.782083237,21 0.516013682,21.0820311 0.314070828,21.2699996 C0.114003023,21.4600306 0,21.7240302 0,21.9980611 L0,41.9999702 C0,42.5519694 0.44804313,43 1.00005777,43 L7.00021686,43 C7.43222831,43 7.8162385,42.7220316 7.9502108,42.310001 L8.17807237,41.4995124 C8.9804034,38.568813 11.6042395,28.5749253 11.9962868,24.0839956 C12.02235,23.7820273 11.9103158,23.4820277 11.6883099,23.272028 Z M8.85382207,25.1101852 L8.7591353,25.7293538 C8.44862246,27.6610349 7.90250114,30.251194 7.18730906,33.2540842 L6.94274109,34.2699968 C6.46210315,36.2461175 5.8652475,38.5528984 5.47914895,40 L3,40 L3,24.1610618 C5.39222234,24.3927405 7.67472344,24.7577399 8.85382207,25.1101852 Z" id="Path" fill="#252525"></path>
                        <path d="M39.3736204,34.2589187 C39.3736204,31.8486392 37.2637197,30.4604062 33.9276817,29.6130476 C32.0333092,29.1318741 29.6935152,28.853771 28.0982789,28.8188291 L27.622746,28.8120701 L27.4667505,28.8015563 C26.9876175,28.7573171 26.3818551,28.5923654 24.9390478,28.1330189 L23.4158239,27.6469005 L22.8759138,27.4837776 C22.7042956,27.4334798 22.538673,27.3865943 22.3719776,27.341129 C21.5639337,27.1207394 20.8401754,26.9677454 20.1557815,26.8846787 L17.9461071,26.6824913 L17.0936398,26.6118302 L16.3015511,26.552246 C16.0452249,26.5341196 15.7954219,26.5176726 15.5486026,26.5027383 L14.1791035,26.4198739 L13.974741,27.7765722 C13.4883126,31.0058174 12.2550679,35.5921829 10.7591767,40.3394639 L10.1615894,42.2174939 L22.110057,47.4902135 L24.3067792,48.341816 C28.6275212,49.9883841 32.0133615,50.0124988 37.9986163,47.6811878 L38.5094623,47.4778622 L38.9884397,47.273967 C39.4112672,47.0917065 39.8816748,46.8840511 40.3879488,46.6544285 C41.8357964,45.9977516 43.2843586,45.2951163 44.6416393,44.5726197 C46.0186176,43.8396379 47.227071,43.1251919 48.2247474,42.4375814 C50.3299082,40.9866795 51.5,39.7201885 51.5,38.2303045 C51.5,34.6006387 47.4914604,32.4917705 43.4572065,33.8531281 L43.3601158,33.8896775 L39.0762139,35.6738063 C39.2702881,35.2600172 39.3736204,34.7893425 39.3736204,34.2589187 Z M48.5,38.2303045 C48.5,38.3328655 47.8094534,39.0803034 46.5222906,39.9674314 C45.6307652,40.5818814 44.5159697,41.2409562 43.2319811,41.9244385 C41.9366163,42.6139765 40.5430582,43.2899317 39.1487856,43.9223095 L38.4439698,44.238093 L37.299641,44.7320552 L36.4902441,45.0477209 C31.6257142,46.8936543 29.0500315,46.8881691 25.6524323,45.6422064 L23.6509363,44.8668557 L23.2347136,44.7105667 L13.8339458,40.5593102 C15.0847783,36.5365789 16.1315344,32.676449 16.7089746,29.5908496 L19.5526684,29.8373466 C20.0522699,29.8816874 20.6101817,29.985206 21.2536115,30.1486743 L21.5825788,30.2354078 C22.0020348,30.3498121 22.425438,30.4777473 22.9956126,30.6599364 L24.5664817,31.1621006 L25.321396,31.3928333 C26.3725303,31.7031141 26.8952349,31.796403 27.5390458,31.8124094 L27.7682725,31.815078 C31.4612988,31.815078 36.3736204,33.062815 36.3736204,34.2589187 C36.3736204,34.4830186 36.1034198,34.7000203 35.1169317,34.9090702 C33.9672485,35.1527032 32.3238831,35.1928327 30.132311,35.0684305 L29.360882,35.0198568 L28.8118924,34.9800913 L25.8685787,34.7357086 C24.8471346,34.6526586 24.2599043,34.662667 23.7770192,34.8567881 C22.7029681,35.2815819 22.4228968,36.5711901 23.1656991,37.4165746 C23.3914262,37.6734749 23.6551849,37.8460752 24.0172649,38.0301701 C24.4702438,38.2604814 25.1222101,38.5160546 25.8915623,38.7746251 L26.4479651,38.9560029 C27.7433208,39.3651922 28.9932534,39.668325 29.6727423,39.6999673 L30.9856672,39.7119894 L33.2146774,39.7441027 L34.8080973,39.7550952 C35.4817587,39.7555629 36.0536783,39.7491 36.5304293,39.7343205 L37.1968346,39.7062931 L44.462806,36.6802134 C46.7046487,35.94498 48.5,36.898614 48.5,38.2303045 Z" id="Path" fill="#252525"></path>
                    </g>
                </g>
            </g>
        </g>
    </g>
</svg>