<?xml version="1.0" encoding="UTF-8"?>
<svg width="32px" height="32px" viewBox="0 0 32 32" version="1.1" xmlns="http://www.w3.org/2000/svg" xmlns:xlink="http://www.w3.org/1999/xlink">
    <!-- Generator: sketchtool 58 (101010) - https://sketch.com -->
    <title>07AEBA15-CDB4-45FC-9786-4196E692CD5A</title>
    <desc>Created with sketchtool.</desc>
    <defs>
        <linearGradient x1="50%" y1="0%" x2="50%" y2="100%" id="linearGradient-1">
            <stop stop-color="#0EB7FE" offset="0%"></stop>
            <stop stop-color="#0680FC" offset="100%"></stop>
        </linearGradient>
    </defs>
    <g id="Website-2.0" stroke="none" stroke-width="1" fill="none" fill-rule="evenodd">
        <g id="Meet-the-team" transform="translate(-1004.000000, -919.000000)" fill="url(#linearGradient-1)">
            <g id="member-01" transform="translate(140.000000, 700.000000)">
                <g id="Group-2" transform="translate(610.000000, 20.000000)">
                    <g id="Group-4" transform="translate(70.000000, 130.000000)">
                        <g id="Group-3" transform="translate(138.000000, 69.000000)">
                            <g id="cta-twitter-copy" transform="translate(46.000000, 0.000000)">
                                <path d="M16,1.0658141e-14 C24.836556,1.0658141e-14 32,7.163444 32,16 C32,24.836556 24.836556,32 16,32 C7.163444,32 1.0658141e-14,24.836556 1.0658141e-14,16 C1.0658141e-14,7.163444 7.163444,1.0658141e-14 16,1.0658141e-14 Z M11.7926602,12.2132039 L8.21269903,12.2132039 L8.21269903,22.9829126 L11.7926602,22.9829126 L11.7926602,12.2132039 Z M20.5809709,11.9601942 C18.6791456,11.9601942 17.8294757,13.0069903 17.3537087,13.739767 L17.3537087,13.739767 L17.3537087,12.2132039 L13.7727379,12.2132039 C13.8190794,13.1846221 13.7763725,22.2309817 13.7729517,22.9390061 L13.7727379,22.9829126 L17.3540583,22.9829126 L17.3540583,16.9684272 C17.3540583,16.6461748 17.3783689,16.3257476 17.4728155,16.095534 C17.7318058,15.4515728 18.3205049,14.7858641 19.3097476,14.7858641 C20.6056311,14.7858641 21.1234563,15.7736699 21.1234563,17.2210874 L21.1234563,17.2210874 L21.1234563,22.9829126 L24.7035728,22.9829126 L24.7035728,16.8074951 C24.7035728,13.4994563 22.9372039,11.9601942 20.5809709,11.9601942 Z M17.3537087,13.739767 L17.3537087,13.7745631 L17.3301748,13.7745631 C17.3370097,13.7634951 17.3464466,13.7511845 17.3537087,13.739767 L17.3537087,13.739767 Z M10.0265243,7.0216699 C8.80135922,7.0216699 8,7.82528155 8,8.88205825 C8,9.91580583 8.77817476,10.7438058 9.97899029,10.7438058 L10.0029126,10.7438058 C11.2518058,10.7438058 12.0285049,9.91596117 12.0285049,8.88205825 C12.0049709,7.82528155 11.2518058,7.0216699 10.0265243,7.0216699 Z" id="icon_team_linkedin"></path>
                            </g>
                        </g>
                    </g>
                </g>
            </g>
        </g>
    </g>
</svg>