<svg width="32" height="32" viewBox="0 0 32 32" fill="none" xmlns="http://www.w3.org/2000/svg">
<path d="M0 16C0 7.16344 7.16344 0 16 0C24.8366 0 32 7.16344 32 16C32 24.8366 24.8366 32 16 32C7.16344 32 0 24.8366 0 16Z" fill="#2C3B47"/>
<path fill-rule="evenodd" clip-rule="evenodd" d="M15.9694 6C10.4648 6 6 10.5893 6 16.2474C6 20.7739 8.87462 24.6088 12.789 25.9919C13.2783 26.0547 13.4618 25.7404 13.4618 25.4889C13.4618 25.2375 13.4618 24.6088 13.4618 23.7286C10.7095 24.3573 10.0979 22.3456 10.0979 22.3456C9.66972 21.1511 8.99694 20.8367 8.99694 20.8367C8.07951 20.2081 9.0581 20.2081 9.0581 20.2081C10.0367 20.2709 10.5872 21.2768 10.5872 21.2768C11.5046 22.8485 12.9113 22.4084 13.4618 22.1569C13.5229 21.4654 13.8287 21.0253 14.0734 20.7739C11.8716 20.5224 9.5474 19.6422 9.5474 15.6816C9.5474 14.55 9.91437 13.6698 10.5872 12.9154C10.526 12.7268 10.159 11.6581 10.7095 10.275C10.7095 10.275 11.5657 10.0235 13.4618 11.3437C14.2569 11.0923 15.1131 11.0294 15.9694 11.0294C16.8257 11.0294 17.682 11.1551 18.4771 11.3437C20.3731 10.0235 21.2294 10.275 21.2294 10.275C21.7798 11.6581 21.4128 12.7268 21.3517 12.9783C21.9633 13.6698 22.3914 14.6128 22.3914 15.7445C22.3914 19.7051 20.0673 20.5224 17.8654 20.7739C18.2324 21.0882 18.5382 21.7169 18.5382 22.6599C18.5382 24.043 18.5382 25.1117 18.5382 25.4889C18.5382 25.7404 18.7217 26.0547 19.211 25.9919C23.1865 24.6088 26 20.7739 26 16.2474C25.9388 10.5893 21.474 6 15.9694 6Z" fill="white"/>
</svg>
