<svg width="32" height="32" viewBox="0 0 32 32" fill="none" xmlns="http://www.w3.org/2000/svg">
<path d="M0 16C0 7.16344 7.16344 0 16 0C24.8366 0 32 7.16344 32 16C32 24.8366 24.8366 32 16 32C7.16344 32 0 24.8366 0 16Z" fill="#2C3B47"/>
<path fill-rule="evenodd" clip-rule="evenodd" d="M9.90732 8.02039C8.75422 8.02039 8 8.77673 8 9.77134C8 10.7443 8.7324 11.5236 9.86258 11.5236H9.88509C11.0605 11.5236 11.7915 10.7444 11.7915 9.77134C11.7694 8.77673 11.0605 8.02039 9.90732 8.02039ZM23.721 17.2306V23.0427H20.3515V17.6198C20.3515 16.2576 19.8641 15.3279 18.6445 15.3279C17.7134 15.3279 17.1593 15.9544 16.9156 16.5605C16.8267 16.7772 16.8038 17.0787 16.8038 17.382V23.0427H13.4332C13.4332 23.0427 13.4786 13.8581 13.4332 12.9065H16.8035V14.3433C16.8003 14.3484 16.7966 14.3536 16.7929 14.3589L16.7929 14.3589C16.7888 14.3647 16.7847 14.3706 16.7813 14.376H16.8035V14.3433C17.2513 13.6536 18.051 12.6684 19.8409 12.6684C22.0585 12.6684 23.721 14.1171 23.721 17.2306ZM11.5696 23.0427H8.20019V12.9065H11.5696V23.0427Z" fill="white"/>
</svg>
