<?xml version="1.0" encoding="UTF-8"?>
<svg width="32px" height="32px" viewBox="0 0 32 32" version="1.1" xmlns="http://www.w3.org/2000/svg" xmlns:xlink="http://www.w3.org/1999/xlink">
    <!-- Generator: sketchtool 57.1 (101010) - https://sketch.com -->
    <title>AFDF9492-C603-495C-8743-1CB38AB16D62</title>
    <desc>Created with sketchtool.</desc>
    <defs>
        <linearGradient x1="50%" y1="0%" x2="50%" y2="100%" id="linearGradient-1">
            <stop stop-color="#0EB7FE" offset="0%"></stop>
            <stop stop-color="#0680FC" offset="100%"></stop>
        </linearGradient>
    </defs>
    <g id="Website-2.0" stroke="none" stroke-width="1" fill="none" fill-rule="evenodd">
        <g id="Community" transform="translate(-704.000000, -5771.000000)">
            <g id="Group-4" transform="translate(443.000000, 5672.000000)">
                <g id="contact" transform="translate(0.000000, 99.000000)">
                    <g id="cta-skype" transform="translate(261.000000, 0.000000)">
                        <circle id="Oval-2" fill="url(#linearGradient-1)" cx="16" cy="16" r="16"></circle>
                        <path d="M7.94397425,14.2331633 C7.8187341,14.8430311 7.7551794,15.432289 7.7551794,16 C7.7551794,17.1138753 7.96547069,18.1865307 8.40568046,19.2170292 C8.84589023,20.2259811 9.43377122,21.1093994 10.1674542,21.8457375 C10.9020718,22.5811388 11.7834259,23.1703966 12.7900203,23.6116373 C13.818111,24.0538149 14.88826,24.2636619 15.9995327,24.2636619 C16.5659172,24.2636619 17.1537982,24.2008952 17.762241,24.0744249 C18.5594787,24.6842927 19.4819565,25 20.4894854,25 C21.7474947,25 22.7970819,24.5578224 23.6775014,23.6753409 C24.5588556,22.8125325 25,21.740814 25,20.4995316 C25,19.4905798 24.6850304,18.5650047 24.0550911,17.7658999 C24.1812659,17.1560321 24.243886,16.567711 24.243886,16 C24.243886,14.8851879 24.0345293,13.8134693 23.5943195,12.7829708 C23.1531751,11.7730821 22.5662288,10.8906006 21.8316112,10.1542625 C21.0979282,9.41792443 20.2165741,8.82960341 19.2099797,8.38836265 C18.181889,7.94618507 17.11174,7.73633809 15.9995327,7.73633809 C15.4331481,7.73633809 14.8462018,7.79910482 14.237759,7.9255751 C13.4199595,7.3157073 12.5171089,7 11.4899527,7 C10.2515707,7 9.20291812,7.44124076 8.32156394,8.3246591 C7.44020977,9.18653065 7,10.259186 7,11.4995316 C7,12.5094202 7.31496962,13.4340585 7.94397425,14.2331633 L7.94397425,14.2331633 Z M12.2515018,17.8259647 C12.4309171,17.615555 12.6832199,17.5014056 13.0068082,17.5014056 C13.2046456,17.5014056 13.3840609,17.5584803 13.545855,17.6734816 C13.7260713,17.787631 13.8694433,17.9222251 14.0136163,18.0747082 C14.1569884,18.2467842 14.3011614,18.4001193 14.4629555,18.5526024 C14.6247497,18.7246784 14.8402082,18.8584206 15.1101322,18.9734219 C15.3792551,19.0884232 15.6852223,19.1454979 16.0272327,19.1454979 C16.4581498,19.1454979 16.8177813,19.0500894 17.0877052,18.8780135 C17.3576292,18.6863447 17.4833801,18.457194 17.4833801,18.1897095 C17.4833801,17.9026323 17.3752503,17.6922225 17.1597918,17.5397393 C17.0156187,17.443479 16.638366,17.3097368 16.0448538,17.1572536 L14.5887064,16.7747679 C14.1754105,16.6793594 13.8334001,16.5643581 13.545855,16.4306159 C13.25831,16.2968737 12.9883861,16.1247977 12.7545054,15.9143879 C12.5030036,15.7039782 12.3235883,15.4364937 12.1978374,15.1110827 C12.0720865,14.7856717 12,14.4040378 12,13.9636255 C12,13.4473976 12.1073288,12.9890962 12.3412095,12.5870176 C12.557469,12.2045319 12.8626352,11.8987137 13.2222667,11.669563 C13.5995194,11.4395604 13.9951942,11.2674845 14.4269123,11.172076 C14.8586304,11.0579266 15.3079696,11 15.7573088,11 C16.4044854,11 16.9979976,11.0766675 17.5730877,11.2487435 C18.1481778,11.4020785 18.6335603,11.6499702 19.0116139,11.9753812 C19.3888666,12.2811994 19.5682819,12.6449442 19.5682819,13.0265781 C19.5682819,13.3519891 19.4785743,13.6194735 19.2807369,13.8494761 C19.1013216,14.0786268 18.8498198,14.1936281 18.5262315,14.1936281 C18.3460152,14.1936281 18.2018422,14.1552943 18.0400481,14.0598859 C17.896676,13.9832183 17.7709251,13.8682171 17.6451742,13.7532158 C17.5194233,13.6390664 17.3928714,13.5053241 17.2671205,13.3903229 C17.1413696,13.2753216 16.9619543,13.1799131 16.7280737,13.0845046 C16.494193,13.0078371 16.2426912,12.9695034 15.9551462,12.9695034 C15.0020024,12.9695034 14.5166199,13.2369878 14.5166199,13.7915495 C14.5166199,13.9065508 14.5350421,14.0215521 14.5887064,14.0973677 C14.6423708,14.1936281 14.6968362,14.2694437 14.7505006,14.3273703 C14.8225871,14.384445 14.9122948,14.4415197 15.0556668,14.4994463 C15.1998398,14.556521 15.3079696,14.5948548 15.4152984,14.6135957 C15.505807,14.6519295 15.649179,14.6902632 15.8470164,14.728597 L16.8898678,14.9960814 C17.2134561,15.072749 17.5010012,15.1494165 17.7709251,15.2448249 C18.0224269,15.3214925 18.2923508,15.4364937 18.597517,15.6085697 C18.8850621,15.7610529 19.1189427,15.9331289 19.3167801,16.1247977 C19.5146175,16.3156146 19.6764117,16.5643581 19.8021626,16.8514354 C19.9279135,17.1572536 20,17.4818128 20,17.8259647 C20,18.3421927 19.8918702,18.8200869 19.6764117,19.2409064 C19.442531,19.6429849 19.154986,19.9871369 18.7777333,20.2350285 C18.4181017,20.483772 18.0048058,20.6754408 17.5546656,20.8091831 C17.1053264,20.9429253 16.638366,21 16.1529836,21 C15.0204245,21 14.0496596,20.7708493 13.2222667,20.2929551 C12.413296,19.8338019 12,19.2792401 12,18.62927 C12,18.3038589 12.0897076,18.0363745 12.2515018,17.8259647 L12.2515018,17.8259647 Z" id="Fill-217" fill="#FFFFFF"></path>
                    </g>
                </g>
            </g>
        </g>
    </g>
</svg>