<?xml version="1.0" encoding="UTF-8"?>
<svg width="32px" height="32px" viewBox="0 0 32 32" version="1.1" xmlns="http://www.w3.org/2000/svg" xmlns:xlink="http://www.w3.org/1999/xlink">
    <!-- Generator: sketchtool 57.1 (101010) - https://sketch.com -->
    <title>ED02C49C-488B-4062-83A3-5832BB40F07A</title>
    <desc>Created with sketchtool.</desc>
    <defs>
        <linearGradient x1="50%" y1="0%" x2="50%" y2="100%" id="linearGradient-1">
            <stop stop-color="#0EB7FE" offset="0%"></stop>
            <stop stop-color="#0680FC" offset="100%"></stop>
        </linearGradient>
    </defs>
    <g id="Website-2.0" stroke="none" stroke-width="1" fill="none" fill-rule="evenodd">
        <g id="Community" transform="translate(-505.000000, -5771.000000)">
            <g id="Group-4" transform="translate(443.000000, 5672.000000)">
                <g id="contact" transform="translate(0.000000, 99.000000)">
                    <g id="cta-twitter" transform="translate(62.000000, 0.000000)">
                        <circle id="Oval-2" fill="url(#linearGradient-1)" cx="16" cy="16" r="16"></circle>
                        <g id="envelope" transform="translate(8.000000, 10.000000)" fill="#FFFFFF" fill-rule="nonzero">
                            <path d="M1.58406452,4.02351613 C1.79283871,4.17083871 2.42216129,4.6083871 3.47206452,5.33593548 C4.522,6.06348387 5.32632258,6.62367742 5.88506452,7.01654839 C5.94645161,7.0596129 6.07687097,7.15322581 6.2763871,7.29751613 C6.47593548,7.44190323 6.64174194,7.55858065 6.77367742,7.64758065 C6.90570968,7.73654839 7.06532258,7.83635484 7.25267742,7.94683871 C7.43996774,8.05722581 7.61651613,8.14025806 7.78229032,8.19522581 C7.94809677,8.25064516 8.10158065,8.27809677 8.24277419,8.27809677 L8.25203226,8.27809677 L8.26132258,8.27809677 C8.40251613,8.27809677 8.55606452,8.2506129 8.72187097,8.19522581 C8.88758065,8.14025806 9.06429032,8.05712903 9.25141935,7.94683871 C9.43864516,7.83622581 9.59825806,7.73651613 9.73029032,7.64758065 C9.86232258,7.55858065 10.028,7.44190323 10.2276129,7.29751613 C10.4270968,7.15309677 10.5576774,7.0596129 10.6190645,7.01654839 C11.1838387,6.62367742 12.6207097,5.62590323 14.9292258,4.02332258 C15.3774194,3.71032258 15.751871,3.33264516 16.0526774,2.89054839 C16.3537097,2.44864516 16.5040645,1.98506452 16.5040645,1.50006452 C16.5040645,1.09477419 16.3581613,0.74783871 16.0664839,0.459290323 C15.7748387,0.170677419 15.4294194,0.0264516129 15.0304516,0.0264516129 L1.47351613,0.0264516129 C1.00077419,0.0264516129 0.636967742,0.186064516 0.38216129,0.505290323 C0.127387097,0.824580645 0,1.22367742 0,1.70254839 C0,2.08935484 0.168903226,2.50851613 0.506548387,2.95977419 C0.84416129,3.41106452 1.20345161,3.76567742 1.58406452,4.02351613 Z" id="Path"></path>
                            <path d="M15.5829677,5.00887097 C13.5692903,6.37180645 12.0402581,7.43103226 10.9966129,8.18632258 C10.6466452,8.44409677 10.3627419,8.64532258 10.1447097,8.78951613 C9.92667742,8.93380645 9.63670968,9.08116129 9.2743871,9.23151613 C8.91219355,9.38209677 8.57464516,9.45716129 8.26145161,9.45716129 L8.25206452,9.45716129 L8.24280645,9.45716129 C7.92967742,9.45716129 7.59193548,9.38209677 7.22974194,9.23151613 C6.86754839,9.08116129 6.5773871,8.93380645 6.35941935,8.78951613 C6.14151613,8.64532258 5.85751613,8.44409677 5.50758065,8.18632258 C4.67864516,7.57851613 3.15290323,6.51922581 0.930290323,5.00887097 C0.580225806,4.77570968 0.27016129,4.50845161 0,4.20764516 L0,11.5200645 C0,11.9255484 0.144225806,12.2722903 0.43283871,12.560871 C0.721387097,12.8495484 1.06835484,12.9938387 1.4736129,12.9938387 L15.0305806,12.9938387 C15.4357419,12.9938387 15.7826774,12.8495484 16.0712581,12.560871 C16.3599355,12.2721935 16.5040968,11.9255806 16.5040968,11.5200645 L16.5040968,4.20764516 C16.2400323,4.50222581 15.933129,4.76948387 15.5829677,5.00887097 Z" id="Path"></path>
                        </g>
                    </g>
                </g>
            </g>
        </g>
    </g>
</svg>