<?xml version="1.0" encoding="UTF-8"?>
<svg width="32px" height="32px" viewBox="0 0 32 32" version="1.1" xmlns="http://www.w3.org/2000/svg" xmlns:xlink="http://www.w3.org/1999/xlink">
    <!-- Generator: sketchtool 58 (101010) - https://sketch.com -->
    <title>A20C7FB9-6FD1-4ABE-9F1C-266DAE33358E</title>
    <desc>Created with sketchtool.</desc>
    <defs>
        <linearGradient x1="50%" y1="0%" x2="50%" y2="100%" id="linearGradient-1">
            <stop stop-color="#0EB7FE" offset="0%"></stop>
            <stop stop-color="#0680FC" offset="100%"></stop>
        </linearGradient>
    </defs>
    <g id="Website-2.0" stroke="none" stroke-width="1" fill="none" fill-rule="evenodd">
        <g id="Meet-the-team" transform="translate(-958.000000, -919.000000)" fill="url(#linearGradient-1)">
            <g id="member-01" transform="translate(140.000000, 700.000000)">
                <g id="Group-2" transform="translate(610.000000, 20.000000)">
                    <g id="Group-4" transform="translate(70.000000, 130.000000)">
                        <g id="Group-3" transform="translate(138.000000, 69.000000)">
                            <g id="cta-twitter">
                                <path d="M16,1.0658141e-14 C24.836556,1.0658141e-14 32,7.163444 32,16 C32,24.836556 24.836556,32 16,32 C7.163444,32 1.0658141e-14,24.836556 1.0658141e-14,16 C1.0658141e-14,7.163444 7.163444,1.0658141e-14 16,1.0658141e-14 Z M19.5740225,9.6 C17.8122169,9.6 16.382412,11.0659552 16.382412,12.8738834 C16.382412,13.1302594 16.4098364,13.3795715 16.464685,13.6193266 C13.8111732,13.4826205 11.4589136,12.1807958 9.88326108,10.197518 C9.60818673,10.6828456 9.45112011,11.2458754 9.45112011,11.8450555 C9.45112011,12.9806721 10.0145655,13.9829067 10.8717836,14.5700367 C10.3490592,14.554247 9.85583675,14.4054908 9.42452681,14.1615804 L9.42452681,14.2018859 C9.42452681,15.7887574 10.5252397,17.1126047 11.9870397,17.4121947 C11.7194447,17.4890659 11.436891,17.5272938 11.1456114,17.5272938 C10.9399289,17.5272938 10.7392326,17.5077643 10.5447692,17.4695365 C10.9511479,18.7696991 12.1295631,19.7166696 13.5269574,19.7416008 C12.4345549,20.6204259 11.0571056,21.1439813 9.56164847,21.1439813 C9.30402597,21.1439813 9.0493121,21.1290226 8.8,21.0991052 C10.2127686,22.0265462 11.8918856,22.5688 13.6944121,22.5688 C19.5677897,22.5688 22.778514,17.5808959 22.778514,13.2540844 C22.778514,13.1115609 22.7760209,12.9694531 22.7706191,12.8298383 C23.3943149,12.3677798 23.9361532,11.7918689 24.3624769,11.135347 C23.7907211,11.3954627 23.1749203,11.5716432 22.5292019,11.650592 C23.1886324,11.2458754 23.694736,10.6038967 23.9332446,9.83975514 C23.3157816,10.2145543 22.6334975,10.4871356 21.9042596,10.6329831 C21.3233624,9.99723728 20.4931531,9.6 19.5740225,9.6 Z" id="icon_team_twitter"></path>
                            </g>
                        </g>
                    </g>
                </g>
            </g>
        </g>
    </g>
</svg>