<?xml version="1.0" encoding="UTF-8"?>
<svg width="46px" height="42px" viewBox="0 0 46 42" version="1.1" xmlns="http://www.w3.org/2000/svg" xmlns:xlink="http://www.w3.org/1999/xlink">
    <!-- Generator: sketchtool 55.2 (78181) - https://sketchapp.com -->
    <title>1931DDA6-5D8A-4C08-B6BA-B68957B7B758</title>
    <desc>Created with sketchtool.</desc>
    <g id="Website-2.0" stroke="none" stroke-width="1" fill="none" fill-rule="evenodd">
        <g id="Home---cookie-policy" transform="translate(-19.000000, -839.000000)">
            <g id="Group-5" transform="translate(0.000000, 810.000000)">
                <g id="icon_cookie" transform="translate(20.000000, 30.000000)">
                    <ellipse id="Oval" stroke="#252525" stroke-width="2" fill="#FFFFFF" cx="12.6315789" cy="12.5490196" rx="12.6315789" ry="12.5490196"></ellipse>
                    <path d="M16.1842105,15.6862745 C16.7105263,18.4317568 17.8947368,19.9678006 19.7368421,20.2944058" id="Path-3" stroke="#252525" stroke-width="2"></path>
                    <path d="M2.94432404,11.2569798 C3.23166032,13.0694248 3.88610246,14.0821794 4.90765047,14.2952438" id="Path-3" stroke="#252525" stroke-width="2" transform="translate(3.925987, 12.776112) rotate(26.000000) translate(-3.925987, -12.776112) "></path>
                    <g id="Group-2" transform="translate(13.421053, 12.549020) rotate(81.000000) translate(-13.421053, -12.549020) translate(7.105263, 6.274510)" stroke="#252525" stroke-width="2">
                        <ellipse id="Oval" cx="5.13157895" cy="1.96078431" rx="1.97368421" ry="1.96078431"></ellipse>
                        <ellipse id="Oval" cx="1.97368421" cy="9.80392157" rx="1.97368421" ry="1.96078431"></ellipse>
                        <ellipse id="Oval" cx="10.6578947" cy="10.5882353" rx="1.97368421" ry="1.96078431"></ellipse>
                    </g>
                    <g id="Group-4" transform="translate(15.000000, 14.117647)">
                        <path d="M15.0869636,1.02124649 C15.0298574,1.32576998 15,1.63981315 15,1.96078431 C15,4.64981061 17.0956104,6.85257991 19.752864,7.04515082 C19.7422498,7.1790394 19.7368421,7.31438251 19.7368421,7.45098039 C19.7368421,9.50551838 20.9601867,11.2761964 22.722691,12.0833014 C22.3288978,12.8048267 22.1052632,13.6313697 22.1052632,14.5098039 C22.1052632,16.1603151 22.8947727,17.6276317 24.1190713,18.5593515 C22.1238583,22.8808854 17.7305398,25.8823529 12.6315789,25.8823529 C5.65535053,25.8823529 -1.42108547e-14,20.2639655 -1.42108547e-14,13.3333333 C-1.42108547e-14,6.40270118 5.65535053,0.784313725 12.6315789,0.784313725 C13.471721,0.784313725 14.2927061,0.865798365 15.0869636,1.02124649 Z" id="Combined-Shape" stroke="#0680FC" stroke-width="2" fill="#FFFFFF"></path>
                        <ellipse id="Oval" stroke="#0680FC" stroke-width="2" cx="10.6578947" cy="9.01960784" rx="1.97368421" ry="1.96078431"></ellipse>
                        <ellipse id="Oval" stroke="#0680FC" stroke-width="2" cx="7.5" cy="16.8627451" rx="1.97368421" ry="1.96078431"></ellipse>
                        <ellipse id="Oval" stroke="#0680FC" stroke-width="2" cx="16.1842105" cy="17.6470588" rx="1.97368421" ry="1.96078431"></ellipse>
                        <ellipse id="Oval" fill="#0680FC" cx="24.0789474" cy="1.17647059" rx="1.18421053" ry="1.17647059"></ellipse>
                        <ellipse id="Oval" fill="#0680FC" cx="28.8157895" cy="9.01960784" rx="1.18421053" ry="1.17647059"></ellipse>
                        <ellipse id="Oval" fill="#0680FC" cx="28.8157895" cy="17.6470588" rx="1.18421053" ry="1.17647059"></ellipse>
                        <ellipse id="Oval" fill="#0680FC" cx="11.8421053" cy="21.9607843" rx="1" ry="1"></ellipse>
                        <ellipse id="Oval" fill="#0680FC" cx="24.0789474" cy="7.45098039" rx="1.18421053" ry="1.17647059"></ellipse>
                        <path d="M15.575903,9.68835233 C15.8632393,11.5007973 16.5176814,12.513552 17.5392294,12.7266163" id="Path-3" stroke="#0680FC" stroke-width="2" transform="translate(16.557566, 11.207484) rotate(26.000000) translate(-16.557566, -11.207484) "></path>
                        <path d="M2.98881539,9.69274931 C4.49786833,10.7016548 5.14981679,11.7170075 4.94466075,12.7388074" id="Path-3" stroke="#0680FC" stroke-width="2" transform="translate(3.985153, 11.215778) rotate(53.000000) translate(-3.985153, -11.215778) "></path>
                    </g>
                    <path d="M13.0263158,3.92156863 C14.3421053,5.09803922 15.6578947,5.49019608 16.9736842,5.09803922" id="Path-2" stroke="#252525" stroke-width="2"></path>
                </g>
            </g>
        </g>
    </g>
</svg>