<?xml version="1.0" encoding="UTF-8"?>
<svg width="21px" height="20px" viewBox="0 0 21 20" version="1.1" xmlns="http://www.w3.org/2000/svg" xmlns:xlink="http://www.w3.org/1999/xlink">
    <!-- Generator: sketchtool 53.2 (72643) - https://sketchapp.com -->
    <title>6EFFB457-1984-47A1-8665-958D24809304</title>
    <desc>Created with sketchtool.</desc>
    <g id="Digital-marketing" stroke="none" stroke-width="1" fill="none" fill-rule="evenodd">
        <g id="webinar-landing-page" transform="translate(-960.000000, -663.000000)" fill="#252525">
            <g id="window" transform="translate(930.000000, 540.000000)">
                <path d="M35.672,141.15 C37.131,142.003 38.747,142.43 40.498,142.43 C42.226,142.43 43.842,142.003 45.323,141.15 C46.782,140.275 47.949,139.108 48.825,137.649 C49.678,136.167 50.104,134.551 50.104,132.823 C50.104,131.072 49.678,129.456 48.825,127.997 C47.949,126.516 46.782,125.348 45.323,124.495 C43.842,123.62 42.226,123.194 40.498,123.194 C38.747,123.194 37.131,123.62 35.672,124.495 C34.19,125.348 33.023,126.516 32.17,127.997 C31.295,129.456 30.868,131.072 30.868,132.823 C30.868,134.551 31.295,136.167 32.17,137.649 C33.023,139.108 34.19,140.275 35.672,141.15 L35.672,141.15 Z M37.063,126.92 C38.118,126.314 39.263,125.999 40.498,125.999 C41.732,125.999 42.854,126.314 43.909,126.92 C44.942,127.526 45.772,128.356 46.378,129.389 C46.984,130.444 47.299,131.588 47.299,132.823 C47.299,134.057 46.984,135.18 46.378,136.235 C45.772,137.267 44.942,138.098 43.909,138.704 C42.854,139.31 41.732,139.624 40.498,139.624 C39.263,139.624 38.118,139.31 37.063,138.704 C36.031,138.098 35.2,137.267 34.594,136.235 C33.988,135.18 33.674,134.057 33.674,132.823 C33.674,131.588 33.988,130.444 34.594,129.389 C35.2,128.356 36.031,127.526 37.063,126.92 L37.063,126.92 Z M37.4,134.304 C37.467,134.372 37.58,134.417 37.692,134.417 L41.687,134.417 C41.799,134.417 41.912,134.372 41.979,134.304 C42.046,134.237 42.091,134.125 42.091,134.013 L42.091,128.423 C42.091,128.311 42.046,128.199 41.979,128.132 C41.912,128.064 41.799,128.019 41.687,128.019 L40.902,128.019 C40.789,128.019 40.677,128.064 40.61,128.132 C40.542,128.199 40.498,128.311 40.498,128.423 L40.498,132.823 L37.692,132.823 C37.58,132.823 37.467,132.868 37.4,132.935 C37.333,133.002 37.288,133.115 37.288,133.227 L37.288,134.013 C37.288,134.125 37.333,134.237 37.4,134.304 L37.4,134.304 Z" id="icon_clock"></path>
            </g>
        </g>
    </g>
</svg>