<?xml version="1.0" encoding="UTF-8"?>
<svg width="21px" height="23px" viewBox="0 0 21 23" version="1.1" xmlns="http://www.w3.org/2000/svg" xmlns:xlink="http://www.w3.org/1999/xlink">
    <!-- Generator: sketchtool 53.2 (72643) - https://sketchapp.com -->
    <title>0B26DDD6-FFEC-45B4-BE60-AA54FBBF6F16</title>
    <desc>Created with sketchtool.</desc>
    <g id="Digital-marketing" stroke="none" stroke-width="1" fill="none" fill-rule="evenodd">
        <g id="webinar-landing-page" transform="translate(-960.000000, -619.000000)" fill="#252525">
            <g id="window" transform="translate(930.000000, 540.000000)">
                <path d="M30.54,101.111 C30.854,101.426 31.236,101.583 31.662,101.583 L49.304,101.583 C49.731,101.583 50.112,101.426 50.427,101.111 C50.741,100.797 50.898,100.415 50.898,99.989 L50.898,83.94 C50.898,83.514 50.741,83.132 50.427,82.818 C50.112,82.504 49.731,82.347 49.304,82.347 L47.688,82.347 L47.688,81.135 C47.688,80.596 47.486,80.125 47.105,79.721 C46.701,79.339 46.229,79.137 45.691,79.137 L44.883,79.137 C44.344,79.137 43.873,79.339 43.469,79.721 C43.087,80.125 42.885,80.596 42.885,81.135 L42.885,82.347 L38.082,82.347 L38.082,81.135 C38.082,80.596 37.88,80.125 37.498,79.721 C37.094,79.339 36.623,79.137 36.084,79.137 L35.276,79.137 C34.737,79.137 34.266,79.339 33.862,79.721 C33.48,80.125 33.278,80.596 33.278,81.135 L33.278,82.347 L31.685,82.347 C31.236,82.347 30.854,82.504 30.54,82.818 C30.226,83.132 30.068,83.514 30.068,83.94 L30.068,99.989 C30.068,100.415 30.226,100.797 30.54,101.111 L30.54,101.111 Z M31.662,96.375 L35.276,96.375 L35.276,99.989 L31.662,99.989 L31.662,96.375 Z M31.662,91.549 L35.276,91.549 L35.276,95.567 L31.662,95.567 L31.662,91.549 Z M31.662,87.15 L35.276,87.15 L35.276,90.741 L31.662,90.741 L31.662,87.15 Z M34.872,81.135 C34.872,81.022 34.917,80.933 34.984,80.843 C35.074,80.776 35.164,80.731 35.276,80.731 L36.084,80.731 C36.196,80.731 36.286,80.776 36.376,80.843 C36.443,80.933 36.488,81.022 36.488,81.135 L36.488,84.748 C36.488,84.861 36.443,84.95 36.376,85.04 C36.286,85.108 36.196,85.152 36.084,85.152 L35.276,85.152 C35.164,85.152 35.074,85.108 34.984,85.04 C34.917,84.95 34.872,84.861 34.872,84.748 L34.872,81.135 L34.872,81.135 Z M36.084,96.375 L40.079,96.375 L40.079,99.989 L36.084,99.989 L36.084,96.375 Z M36.084,91.549 L40.079,91.549 L40.079,95.567 L36.084,95.567 L36.084,91.549 Z M36.084,87.15 L40.079,87.15 L40.079,90.741 L36.084,90.741 L36.084,87.15 Z M40.887,96.375 L44.905,96.375 L44.905,99.989 L40.887,99.989 L40.887,96.375 Z M40.887,91.549 L44.905,91.549 L44.905,95.567 L40.887,95.567 L40.887,91.549 Z M40.887,87.15 L44.905,87.15 L44.905,90.741 L40.887,90.741 L40.887,87.15 Z M44.479,81.135 C44.479,81.022 44.523,80.933 44.591,80.843 C44.681,80.776 44.77,80.731 44.883,80.731 L45.691,80.731 C45.803,80.731 45.893,80.776 45.982,80.843 C46.05,80.933 46.095,81.022 46.095,81.135 L46.095,84.748 C46.095,84.861 46.05,84.95 45.982,85.04 C45.893,85.108 45.803,85.152 45.691,85.152 L44.883,85.152 C44.77,85.152 44.681,85.108 44.591,85.04 C44.523,84.95 44.479,84.861 44.479,84.748 L44.479,81.135 L44.479,81.135 Z M45.713,96.375 L49.304,96.375 L49.304,99.989 L45.713,99.989 L45.713,96.375 Z M45.713,91.549 L49.304,91.549 L49.304,95.567 L45.713,95.567 L45.713,91.549 Z M45.713,87.15 L49.304,87.15 L49.304,90.741 L45.713,90.741 L45.713,87.15 Z" id="icon_calendar"></path>
            </g>
        </g>
    </g>
</svg>