<svg width="25" height="24" viewBox="0 0 25 24" fill="none" xmlns="http://www.w3.org/2000/svg">
<path d="M5.28139 11.3666L5.28136 11.3667C5.41539 11.7772 5.56116 12.104 5.71775 12.3806C5.88017 12.6512 6.07525 12.9274 6.29171 13.2117C6.5147 13.5046 6.65898 13.6787 6.74778 13.7701C6.78646 13.8095 6.82684 13.8475 6.86732 13.885C6.87268 13.8899 6.87844 13.8952 6.88447 13.9008C6.91554 13.9294 6.95392 13.9648 6.98313 13.9944L12.5487 19.4809L12.5538 19.4859L12.5537 19.486C12.561 19.4934 12.5654 19.4965 12.5666 19.4974L5.28139 11.3666ZM5.28139 11.3666L5.27961 11.3614M5.28139 11.3666L5.27961 11.3614M5.27961 11.3614C5.15375 10.9899 5.0979 10.6199 5.0979 10.2635C5.0979 9.02313 5.45019 8.11694 6.0868 7.48115L6.08697 7.48098C6.72256 6.84559 7.62218 6.5 8.87003 6.5C9.17633 6.5 9.48974 6.55419 9.82897 6.66916C10.1735 6.78666 10.5013 6.94721 10.7831 7.13406C11.1091 7.35601 11.3842 7.55937 11.6102 7.74349L11.6102 7.7435L11.6129 7.74574C11.8247 7.91578 12.0437 8.11041 12.2286 8.3134L12.5989 8.71993L12.9685 8.31277C13.1523 8.11023 13.3711 7.91582 13.5829 7.74574L13.5829 7.74575L13.5856 7.74349C13.8116 7.55937 14.0867 7.35602 14.4126 7.13407C14.6943 6.94737 15.0228 6.78673 15.3669 6.66913C15.7049 6.5546 16.0183 6.5 16.3422 6.5C17.5726 6.5 18.4727 6.84502 19.1088 7.48098L19.109 7.48115C19.7456 8.11694 20.0979 9.02313 20.0979 10.2635C20.0979 11.422 19.5041 12.6742 18.1957 14.0109L12.6471 19.4809L12.6471 19.4809M5.27961 11.3614L12.6471 19.4809M12.6471 19.4809L12.641 19.4871M12.6471 19.4809L12.641 19.4871M12.641 19.4871C12.6346 19.4936 12.6308 19.4965 12.6295 19.4974L12.641 19.4871Z" stroke="#8E4765"/>
</svg>
