<svg width="112" height="112" viewBox="0 0 112 112" fill="none" xmlns="http://www.w3.org/2000/svg">
<rect width="112" height="112" rx="16" fill="white"/>
<path d="M22.5754 65.9083C22.145 65.1628 22.2399 64.2255 22.8111 63.5814L47.9901 35.1867C48.8958 34.1653 50.536 34.3314 51.2186 35.5136L68.4743 65.4014C69.1484 66.569 68.4977 68.0555 67.1825 68.3523L30.4025 76.6535C29.5483 76.8463 28.668 76.461 28.2302 75.7026L22.5754 65.9083Z" fill="#EFE08A"/>
<path d="M54.2598 37.2253C53.1552 35.3122 53.8107 32.8658 55.7239 31.7612L56.4942 31.3165C58.4074 30.2119 60.8538 30.8674 61.9584 32.7806L80.1823 64.3453C81.2868 66.2584 80.6313 68.7048 78.7182 69.8094L77.9478 70.2542C76.0346 71.3587 73.5882 70.7032 72.4837 68.7901L54.2598 37.2253Z" fill="#F1F7FC"/>
<path d="M21.1631 70.5756C20.3347 69.1407 20.8263 67.306 22.2612 66.4775L23.9937 65.4772C25.4286 64.6488 27.2634 65.1404 28.0918 66.5753L33.9814 76.7763C34.8098 78.2112 34.3182 80.046 32.8833 80.8744L31.1507 81.8747C29.7158 82.7031 27.8811 82.2115 27.0526 80.7766L21.1631 70.5756Z" fill="#5C9CD0"/>
<path d="M72.0908 20.4691C72.6242 20.6121 72.9408 21.1604 72.7979 21.6939L69.8694 32.6229C69.7265 33.1564 69.1782 33.473 68.6447 33.33C68.1112 33.1871 67.7947 32.6387 67.9376 32.1053L70.866 21.1762C71.009 20.6428 71.5573 20.3262 72.0908 20.4691Z" fill="#2C3B47"/>
<path fill-rule="evenodd" clip-rule="evenodd" d="M74.8047 70.6233C75.8217 70.9263 76.9564 70.8266 77.9479 70.2542L78.7182 69.8094C80.6314 68.7048 81.2869 66.2585 80.1823 64.3453L61.9584 32.7806C60.8539 30.8674 58.4075 30.2119 56.4943 31.3165L55.7239 31.7612C54.5607 32.4329 53.8624 33.6005 53.742 34.8428C53.7014 34.8751 53.6628 34.9109 53.6266 34.9503L25.9547 65.1108C25.3017 65.0089 24.6108 65.121 23.9938 65.4772L22.2612 66.4775C20.8264 67.306 20.3347 69.1407 21.1632 70.5756L27.0527 80.7766C27.8812 82.2115 29.7159 82.7031 31.1508 81.8747L32.8834 80.8744C33.3963 80.5783 33.7887 80.1535 34.0434 79.6644C34.1152 79.6644 34.1882 79.6566 34.2613 79.6404L36.2745 79.1927L38.4192 82.9074C38.9927 83.9007 40.0823 84.4801 41.2264 84.4001L44.6283 84.1624C44.7274 84.1871 44.8321 84.1968 44.9395 84.1893L61.9733 82.9992C64.1852 82.8447 65.4709 80.4268 64.3623 78.5065L61.5178 73.5798L74.7427 70.6391C74.7637 70.6345 74.7844 70.6292 74.8047 70.6233ZM56.7239 33.4933L57.4943 33.0485C58.4509 32.4962 59.6741 32.824 60.2264 33.7806L78.4503 65.3453C79.0026 66.3019 78.6748 67.5251 77.7182 68.0773L76.9479 68.5221C75.9913 69.0744 74.7681 68.7467 74.2158 67.7901L55.9919 36.2253C55.4396 35.2688 55.7674 34.0456 56.7239 33.4933ZM54.2574 37.2211L27.7568 66.105C27.8811 66.248 27.9936 66.405 28.0919 66.5753L33.9815 76.7763C34.1307 77.0348 34.237 77.3062 34.3028 77.5823L72.6509 69.0554C72.5923 68.9699 72.5365 68.8814 72.4837 68.7901L54.2574 37.2211ZM59.4877 74.0312L56.9699 74.591L59.4025 78.8044C59.8428 79.5669 59.9055 80.4078 59.6826 81.1544L61.8339 81.0041C62.5712 80.9526 62.9998 80.1466 62.6302 79.5065L59.5636 74.195C59.5329 74.1418 59.5077 74.087 59.4877 74.0312ZM40.1513 81.9074L38.3212 78.7376L54.9233 75.0461L57.6705 79.8044C58.04 80.4445 57.6115 81.2505 56.8742 81.302L41.087 82.405C40.7056 82.4316 40.3424 82.2385 40.1513 81.9074ZM23.2612 68.2096L24.9938 67.2093C25.4721 66.9331 26.0837 67.097 26.3598 67.5753L32.2494 77.7763C32.5255 78.2546 32.3617 78.8662 31.8834 79.1424L30.1508 80.1427C29.6725 80.4188 29.0609 80.2549 28.7848 79.7766L22.8952 69.5756C22.6191 69.0973 22.783 68.4857 23.2612 68.2096Z" fill="#2C3B47"/>
<path d="M84.7544 32.5193C85.1208 32.1061 85.0828 31.4741 84.6696 31.1077C84.2564 30.7412 83.6244 30.7792 83.2579 31.1924L75.7976 39.6056C75.4311 40.0188 75.4691 40.6508 75.8823 41.0173C76.2955 41.3837 76.9275 41.3457 77.294 40.9325L84.7544 32.5193Z" fill="#2C3B47"/>
<path d="M93.4429 46.3548C93.372 45.8071 92.8704 45.4206 92.3227 45.4915L80.862 46.976C80.3143 47.0469 79.9278 47.5484 79.9988 48.0961C80.0697 48.6438 80.5712 49.0303 81.1189 48.9594L92.5796 47.475C93.1273 47.404 93.5138 46.9025 93.4429 46.3548Z" fill="#2C3B47"/>
<path d="M95.9729 60.0575C96.5064 60.2004 96.823 60.7488 96.68 61.2822C96.5371 61.8157 95.9887 62.1323 95.4553 61.9893L83.3119 58.7355C82.7785 58.5926 82.4619 58.0443 82.6048 57.5108C82.7477 56.9773 83.2961 56.6608 83.8296 56.8037L95.9729 60.0575Z" fill="#2C3B47"/>
</svg>
