<svg width="640" height="560" viewBox="0 0 640 560" fill="none" xmlns="http://www.w3.org/2000/svg">
<path d="M471.771 110.435H319.992V306.864H471.771V110.435Z" fill="white"/>
<rect x="351" y="253" width="104" height="4" rx="2" fill="#2C3B47"/>
<rect x="351" y="268" width="104" height="4" rx="2" fill="#2C3B47"/>
<rect x="351" y="283" width="104" height="4" rx="2" fill="#2C3B47"/>
<path fill-rule="evenodd" clip-rule="evenodd" d="M335 254.641L338.214 258L344 251.954L343.094 251L338.214 256.099L335.906 253.694L335 254.641Z" fill="#DA7AB1" stroke="#DA7AB1"/>
<path fill-rule="evenodd" clip-rule="evenodd" d="M335 269.641L338.214 273L344 266.954L343.094 266L338.214 271.099L335.906 268.694L335 269.641Z" fill="#DA7AB1" stroke="#DA7AB1"/>
<path fill-rule="evenodd" clip-rule="evenodd" d="M335 284.641L338.214 288L344 281.954L343.094 281L338.214 286.099L335.906 283.694L335 284.641Z" fill="#DA7AB1" stroke="#DA7AB1"/>
<path d="M471.673 307.856H319.993C319.861 307.864 319.728 307.845 319.604 307.798C319.48 307.751 319.367 307.679 319.273 307.585C319.179 307.491 319.106 307.378 319.06 307.254C319.013 307.13 318.993 306.997 319.002 306.864V110.435C318.993 110.303 319.013 110.17 319.06 110.046C319.106 109.922 319.179 109.809 319.273 109.715C319.367 109.621 319.48 109.548 319.604 109.502C319.728 109.455 319.861 109.435 319.993 109.444H471.772C471.904 109.435 472.037 109.455 472.161 109.502C472.286 109.548 472.398 109.621 472.492 109.715C472.586 109.809 472.659 109.922 472.706 110.046C472.752 110.17 472.772 110.303 472.763 110.435V306.864C472.741 307.137 472.616 307.391 472.413 307.575C472.211 307.759 471.946 307.859 471.673 307.856ZM320.985 305.873H470.781V111.427H320.985V305.873Z" fill="black"/>
<path d="M358.062 130.724H337.838V144.9H358.062V130.724Z" fill="#EED6DA"/>
<path d="M389.984 130.724H369.76V144.9H389.984V130.724Z" fill="#EED6DA"/>
<path d="M421.906 130.724H401.682V144.9H421.906V130.724Z" fill="#EED6DA"/>
<path d="M453.728 130.724H433.504V144.9H453.728V130.724Z" fill="#EED6DA"/>
<path d="M358.062 155.905H337.838V170.081H358.062V155.905Z" fill="#EED6DA"/>
<path d="M389.984 155.905H369.76V170.081H389.984V155.905Z" fill="#EED6DA"/>
<path d="M421.906 155.905H401.682V170.081H421.906V155.905Z" fill="#EED6DA"/>
<path d="M453.728 155.905H433.504V170.081H453.728V155.905Z" fill="#EED6DA"/>
<path d="M358.062 181.085H337.838V195.262H358.062V181.085Z" fill="#EED6DA"/>
<path d="M358.062 206H337.838V220.177H358.062V206Z" fill="#EED6DA"/>
<path d="M389.984 181.085H369.76V195.262H389.984V181.085Z" fill="#EED6DA"/>
<path d="M389.984 206H369.76V220.177H389.984V206Z" fill="#EED6DA"/>
<path d="M421.906 181.085H401.682V195.262H421.906V181.085Z" fill="#EED6DA"/>
<path d="M421.906 206H401.682V220.177H421.906V206Z" fill="#EED6DA"/>
<path d="M453.728 181.085H433.504V195.262H453.728V181.085Z" fill="#EED6DA"/>
<path d="M453.728 206H433.504V220.177H453.728V206Z" fill="#EED6DA"/>
<path d="M359.984 130L336.517 146.5" stroke="#F190B7" stroke-width="2.5"/>
<path d="M359.999 146.466L336.5 130.034" stroke="#F190B7" stroke-width="2.5"/>
<path d="M389.986 130.216L370.553 146.716" stroke="#F190B7" stroke-width="2.5"/>
<path d="M390 146.682L370.539 130.25" stroke="#F190B7" stroke-width="2.5"/>
<path d="M421.985 130.216L400.554 146.716" stroke="#F190B7" stroke-width="2.5"/>
<path d="M422 146.682L400.539 130.25" stroke="#F190B7" stroke-width="2.5"/>
<path d="M454.446 130.216L433.015 146.716" stroke="#F190B7" stroke-width="2.5"/>
<path d="M454.461 146.682L433 130.25" stroke="#F190B7" stroke-width="2.5"/>
<path d="M359.446 154.216L338.015 170.716" stroke="#F190B7" stroke-width="2.5"/>
<path d="M359.461 170.682L338 154.25" stroke="#F190B7" stroke-width="2.5"/>
<path d="M437.501 203.5C433.834 205.333 427.401 210.8 431.001 218C435.501 227 445.5 228 452 224C458.5 220 459.5 210.5 455 207C450.5 203.5 434 201 428.5 207C423 213 430 225 443.5 224C457 223 460.5 216.5 460 210C459.5 203.5 450.501 199 437.501 200.5" stroke="#DA7AB1" stroke-width="2.5"/>
<path d="M431.027 236.339H319.993C319.73 236.339 319.478 236.235 319.292 236.049C319.106 235.863 319.002 235.611 319.002 235.348C319.002 235.085 319.106 234.833 319.292 234.647C319.478 234.461 319.73 234.356 319.993 234.356H431.027C431.159 234.348 431.292 234.367 431.416 234.414C431.54 234.461 431.653 234.533 431.747 234.627C431.841 234.721 431.914 234.834 431.96 234.958C432.007 235.082 432.027 235.215 432.018 235.348C432.018 235.611 431.913 235.863 431.728 236.049C431.542 236.235 431.29 236.339 431.027 236.339Z" fill="black"/>
<path d="M471.673 236.339H439.652C439.389 236.339 439.136 236.235 438.951 236.049C438.765 235.863 438.66 235.611 438.66 235.348C438.66 235.085 438.765 234.833 438.951 234.647C439.136 234.461 439.389 234.356 439.652 234.356H471.673C471.936 234.356 472.188 234.461 472.374 234.647C472.56 234.833 472.664 235.085 472.664 235.348C472.664 235.611 472.56 235.863 472.374 236.049C472.188 236.235 471.936 236.339 471.673 236.339Z" fill="black"/>
<path d="M337.837 118.763C337.705 118.772 337.572 118.752 337.448 118.705C337.323 118.658 337.211 118.586 337.117 118.492C337.023 118.398 336.95 118.285 336.903 118.161C336.857 118.037 336.837 117.904 336.846 117.771V103.991C336.846 103.728 336.95 103.476 337.136 103.29C337.322 103.104 337.574 103 337.837 103C338.1 103 338.352 103.104 338.538 103.29C338.724 103.476 338.829 103.728 338.829 103.991V117.771C338.837 117.904 338.818 118.037 338.771 118.161C338.724 118.285 338.651 118.398 338.558 118.492C338.464 118.586 338.351 118.658 338.227 118.705C338.102 118.752 337.97 118.772 337.837 118.763Z" fill="black"/>
<path d="M366.884 118.763C366.752 118.772 366.619 118.752 366.495 118.705C366.37 118.658 366.257 118.586 366.164 118.492C366.07 118.398 365.997 118.285 365.95 118.161C365.904 118.037 365.884 117.904 365.893 117.771V103.991C365.893 103.728 365.997 103.476 366.183 103.29C366.369 103.104 366.621 103 366.884 103C367.147 103 367.399 103.104 367.585 103.29C367.771 103.476 367.875 103.728 367.875 103.991V117.771C367.875 118.034 367.771 118.286 367.585 118.472C367.399 118.658 367.147 118.763 366.884 118.763Z" fill="black"/>
<path d="M395.833 118.763C395.701 118.772 395.568 118.752 395.444 118.705C395.319 118.658 395.207 118.586 395.113 118.492C395.019 118.398 394.946 118.285 394.899 118.161C394.853 118.037 394.833 117.904 394.842 117.771V103.991C394.842 103.728 394.946 103.476 395.132 103.29C395.318 103.104 395.57 103 395.833 103C396.096 103 396.348 103.104 396.534 103.29C396.72 103.476 396.825 103.728 396.825 103.991V117.771C396.833 117.904 396.814 118.037 396.767 118.161C396.72 118.285 396.648 118.398 396.554 118.492C396.46 118.586 396.347 118.658 396.223 118.705C396.098 118.752 395.966 118.772 395.833 118.763Z" fill="black"/>
<path d="M424.781 118.763C424.648 118.772 424.515 118.752 424.391 118.705C424.267 118.658 424.154 118.586 424.06 118.492C423.966 118.398 423.893 118.285 423.847 118.161C423.8 118.037 423.78 117.904 423.789 117.771V103.991C423.789 103.728 423.894 103.476 424.079 103.29C424.265 103.104 424.518 103 424.781 103C425.043 103 425.296 103.104 425.482 103.29C425.667 103.476 425.772 103.728 425.772 103.991V117.771C425.781 117.904 425.761 118.037 425.714 118.161C425.668 118.285 425.595 118.398 425.501 118.492C425.407 118.586 425.294 118.658 425.17 118.705C425.046 118.752 424.913 118.772 424.781 118.763Z" fill="black"/>
<path d="M453.827 118.763C453.695 118.772 453.562 118.752 453.438 118.705C453.314 118.658 453.201 118.586 453.107 118.492C453.013 118.398 452.94 118.285 452.894 118.161C452.847 118.037 452.827 117.904 452.836 117.771V103.991C452.836 103.728 452.94 103.476 453.126 103.29C453.312 103.104 453.564 103 453.827 103C454.09 103 454.342 103.104 454.528 103.29C454.714 103.476 454.819 103.728 454.819 103.991V117.771C454.819 118.034 454.714 118.286 454.528 118.472C454.342 118.658 454.09 118.763 453.827 118.763Z" fill="black"/>
<path d="M189.5 202.93L186.789 166.15L223.371 167.241L224.758 170.413C224.758 170.413 231.698 170.81 232.194 174.478C232.689 178.146 226.047 178.741 224.858 179.831C222.577 181.814 221.983 185.581 221.784 188.852C221.556 190.463 220.986 192.005 220.114 193.378C219.242 194.751 218.088 195.922 216.727 196.813C215.367 197.704 213.832 198.295 212.226 198.547C210.619 198.798 208.977 198.704 207.41 198.27L207.013 198.171L206.319 203.822C206.319 203.822 200.065 205.408 196 203.822L189.5 202.93Z" fill="#EDCFC5"/>
<path d="M153.381 290.071C153.679 284.718 157.743 263.701 157.743 263.701L158.14 261.52C154.516 259.809 151.656 256.812 150.118 253.112C148.579 249.411 148.47 245.271 149.812 241.494C154.174 229.201 159.825 213.439 161.312 210.266C163.89 204.913 170.334 203.029 170.334 203.029L188.476 202.484L206 204L206.618 201.939L211.376 202.534C217.622 203.327 220.894 208.383 222.678 213.339L226.842 224.839L221.488 245.757C222.083 250.912 226.842 293.739 226.842 293.739L153.381 290.071Z" fill="#FDF0C3"/>
<path d="M259.258 179.464C247.164 177.68 245.875 190.468 245.875 190.468L264.017 195.425C264.017 195.425 273.237 181.615 259.258 179.464Z" fill="#EDCFC5"/>
<path d="M121.916 456.69V324.78H272.069C289.052 324.78 302.819 338.547 302.819 355.53V456.69H121.916Z" fill="white" stroke="#2C3B47" stroke-width="2.5"/>
<path d="M248.225 410.225L247.531 421.328C247.531 421.328 276.38 438.083 276.281 441.85C276.182 445.617 271.324 444.328 271.324 444.328L217.592 428.565L224.531 404.178L248.225 410.225Z" fill="white"/>
<path d="M271.254 445.22L217.492 429.458C217.245 429.388 217.034 429.225 216.905 429.003C216.775 428.781 216.737 428.518 216.798 428.268L223.737 403.88C223.807 403.633 223.97 403.422 224.192 403.293C224.414 403.164 224.678 403.125 224.927 403.186L248.72 409.333C248.929 409.398 249.11 409.531 249.236 409.71C249.361 409.89 249.424 410.105 249.414 410.324L248.72 420.833C257.741 426.186 277.47 438.082 277.371 441.949C277.377 442.503 277.256 443.051 277.015 443.55C276.774 444.049 276.421 444.485 275.983 444.824C275.162 445.37 274.192 445.647 273.207 445.617C272.533 445.645 271.863 445.509 271.254 445.22ZM225.155 405.496L218.81 428L271.65 443.466C272.696 443.79 273.825 443.72 274.823 443.267C275.021 443.168 275.418 442.871 275.418 441.979C275.021 439.698 260.745 430.28 247.164 422.349C247.011 422.256 246.886 422.125 246.799 421.968C246.712 421.812 246.667 421.636 246.668 421.457L247.362 411.147L225.155 405.496Z" fill="black"/>
<path d="M254.797 300.411C260.356 302.38 265.109 306.13 268.318 311.078C271.527 316.025 273.012 321.895 272.543 327.773L265.504 417.095L212.466 405.992L228.922 329.756L158.139 323.708V290.002H225.552L254.797 300.411Z" fill="#8E4765"/>
<path d="M208.303 332.898L218.415 337.657C218.415 337.657 219.208 370.967 222.578 372.652C225.949 374.338 227.139 369.48 227.139 369.48L239.134 314.756L214.449 309.105L208.303 332.898Z" fill="white"/>
<path d="M222.081 373.644C218.611 371.859 217.719 348.859 217.422 338.351L207.905 333.89C207.712 333.764 207.561 333.584 207.472 333.372C207.384 333.159 207.362 332.925 207.409 332.7L213.456 308.808C213.526 308.561 213.689 308.35 213.911 308.221C214.133 308.091 214.396 308.053 214.646 308.114L239.331 313.765C239.462 313.788 239.588 313.838 239.699 313.911C239.811 313.985 239.907 314.08 239.981 314.191C240.055 314.302 240.106 314.427 240.13 314.558C240.155 314.689 240.153 314.824 240.124 314.955L228.128 369.678C228.029 370.075 227.335 372.85 225.353 373.743C224.922 373.956 224.445 374.058 223.965 374.04C223.318 374.023 222.68 373.889 222.081 373.644ZM215.34 310.295L209.689 332.403L219.008 336.765C219.182 336.841 219.331 336.965 219.436 337.123C219.542 337.282 219.6 337.467 219.603 337.657C219.9 353.42 221.387 370.471 223.172 371.859C223.965 372.256 224.46 372.057 224.56 371.958C225.426 371.299 226.025 370.348 226.245 369.282L238.042 315.549L215.34 310.295Z" fill="black"/>
<path d="M225.85 293.838C225.751 293.145 218.117 224.641 217.523 219.486C217.51 219.356 217.522 219.224 217.56 219.099C217.598 218.974 217.66 218.857 217.743 218.756C217.826 218.655 217.928 218.571 218.043 218.509C218.158 218.447 218.285 218.408 218.415 218.395C218.545 218.382 218.676 218.395 218.802 218.433C218.927 218.471 219.044 218.533 219.145 218.616C219.246 218.698 219.33 218.8 219.392 218.916C219.454 219.031 219.492 219.157 219.505 219.288C220.1 224.443 227.734 292.946 227.833 293.64C227.824 293.895 227.732 294.139 227.571 294.336C227.41 294.534 227.188 294.672 226.941 294.731H226.841C226.595 294.732 226.357 294.641 226.173 294.476C225.99 294.311 225.875 294.084 225.85 293.838Z" fill="black"/>
<path d="M265.078 185.185C265.078 185.185 265.871 190.637 266.169 191.628C266.466 192.62 267.061 196.09 269.242 195.197C271.423 194.305 270.828 187.663 270.035 185.68C269.242 183.698 267.953 183.896 267.953 183.896C267.061 183.598 265.078 185.185 265.078 185.185Z" fill="#EDCFC5"/>
<path d="M267.487 196.09C266.099 195.396 265.603 193.314 265.306 192.223L265.207 191.926C264.909 190.934 264.116 185.978 264.017 185.383C264.008 185.213 264.04 185.044 264.109 184.889C264.178 184.734 264.282 184.598 264.414 184.491C265.108 183.995 266.793 182.706 268.082 182.904C268.875 182.904 270.163 183.4 270.957 185.383C271.551 187.068 272.84 194.801 269.569 196.189C269.213 196.294 268.848 196.361 268.478 196.387C268.123 196.411 267.771 196.305 267.487 196.09ZM267.685 184.689C267.076 184.886 266.505 185.188 266 185.581C266.297 187.762 266.793 190.736 266.991 191.331L267.09 191.728C267.289 192.322 267.685 194.008 268.28 194.305C268.379 194.404 268.478 194.404 268.776 194.305C270.064 193.809 269.866 188.258 269.073 186.077C268.676 185.184 268.28 184.887 268.082 184.887C267.883 184.887 267.883 184.887 267.685 184.689Z" fill="black"/>
<path d="M264.91 188.654C266.596 189.546 268.479 185.779 268.975 184.49C269.471 183.202 270.363 179.335 268.975 178.344C267.587 177.353 264.712 178.344 264.712 178.344C262.234 179.534 263.225 187.762 264.91 188.654Z" fill="#EDCFC5"/>
<path d="M264.513 189.546C262.926 188.654 262.232 184.59 262.332 182.012C262.431 179.633 263.125 178.146 264.314 177.551H264.413C264.711 177.452 267.685 176.361 269.569 177.65C272.047 179.236 270.064 184.689 269.965 184.887C269.866 185.085 268.379 188.853 266.297 189.646C266.041 189.727 265.772 189.761 265.504 189.745C265.166 189.727 264.832 189.66 264.513 189.546ZM265.107 179.335C264.81 179.534 264.413 180.128 264.314 181.516C264.017 184.292 265.008 187.465 265.504 187.861H265.603C266.396 187.564 267.586 185.482 268.081 184.193C268.775 182.309 269.172 179.633 268.478 179.236C268.12 179.022 267.706 178.918 267.288 178.939C266.534 178.944 265.786 179.078 265.078 179.335H265.107Z" fill="black"/>
<path d="M258.863 183.43C259.16 184.619 259.755 187.098 262.035 187.296C264.316 187.494 265.01 184.619 265.01 181.249C265.01 177.878 263.721 173.318 261.837 173.813C260.557 174.256 259.448 175.088 258.665 176.193C258.665 176.193 258.467 182.309 258.863 183.43Z" fill="#EDCFC5"/>
<path d="M262.033 188.258C259.356 187.96 258.464 185.284 258.068 183.995L257.969 183.697C257.572 182.409 257.671 177.551 257.671 176.064C257.671 175.866 257.77 175.766 257.869 175.568C258.796 174.264 260.117 173.291 261.637 172.792C261.968 172.727 262.309 172.738 262.635 172.824C262.962 172.91 263.264 173.068 263.52 173.288C265.106 174.676 265.999 178.344 265.999 181.219C265.999 184.292 265.404 186.374 264.214 187.465C263.666 187.952 262.965 188.232 262.231 188.258H262.033ZM262.033 174.874C261.532 174.983 261.059 175.199 260.649 175.507C260.238 175.815 259.899 176.208 259.654 176.659C259.579 178.842 259.645 181.027 259.852 183.202L259.951 183.499C260.447 184.887 260.943 186.275 262.231 186.374C262.353 186.418 262.486 186.423 262.611 186.387C262.735 186.352 262.845 186.278 262.925 186.176C263.223 185.878 264.016 184.788 264.016 181.318C264.016 178.741 263.124 175.766 262.231 174.973C262.18 174.917 262.109 174.881 262.033 174.874Z" fill="black"/>
<path d="M248.156 177.055C247.957 174.676 249.543 172.495 250.832 172.098C254.104 171.107 257.673 173.09 258.763 176.956C259.854 180.822 260.746 186.077 258.763 186.771C256.78 187.465 254.699 186.374 254.005 183.4C253.311 180.426 252.22 175.568 252.22 175.568" fill="#EDCFC5"/>
<path d="M255.392 187.395C254.723 186.993 254.153 186.446 253.724 185.794C253.295 185.142 253.018 184.402 252.914 183.628C252.22 180.654 251.129 175.796 251.129 175.796L253.112 175.4C253.112 175.4 254.202 180.257 254.896 183.232C254.951 183.727 255.112 184.206 255.369 184.633C255.625 185.061 255.971 185.428 256.383 185.71C257.008 185.992 257.716 186.027 258.366 185.809C259.159 185.611 259.258 182.538 257.771 177.283C257.31 175.688 256.242 174.336 254.797 173.516C253.641 172.899 252.289 172.756 251.03 173.12C250.336 173.318 248.948 175.102 249.047 177.085C249.074 177.348 248.994 177.611 248.827 177.815C248.66 178.02 248.418 178.149 248.155 178.176C247.892 178.202 247.629 178.123 247.425 177.955C247.22 177.788 247.091 177.546 247.064 177.283C246.965 174.408 248.75 171.732 250.534 171.236C252.296 170.733 254.184 170.947 255.789 171.831C256.727 172.362 257.552 173.073 258.216 173.924C258.879 174.775 259.368 175.748 259.655 176.788C260.745 180.456 262.133 186.8 259.06 187.792C258.588 187.986 258.083 188.087 257.573 188.089C256.79 188.104 256.023 187.86 255.392 187.395Z" fill="black"/>
<path d="M237.547 182.012C237.419 181.434 237.525 180.829 237.84 180.328C238.156 179.827 238.656 179.47 239.232 179.335L279.978 169.422C280.556 169.294 281.161 169.399 281.662 169.715C282.163 170.03 282.52 170.53 282.654 171.107C282.782 171.685 282.677 172.29 282.361 172.791C282.046 173.292 281.546 173.649 280.969 173.784L240.224 183.697C239.937 183.772 239.638 183.787 239.345 183.741C239.052 183.696 238.772 183.591 238.521 183.433C238.27 183.275 238.055 183.068 237.887 182.823C237.72 182.579 237.604 182.303 237.547 182.012Z" fill="white"/>
<path d="M236.555 182.31C236.447 181.893 236.423 181.459 236.484 181.033C236.546 180.607 236.692 180.197 236.913 179.828C237.135 179.459 237.427 179.137 237.774 178.883C238.121 178.628 238.516 178.445 238.934 178.344L279.679 168.43C280.097 168.318 280.534 168.295 280.961 168.363C281.388 168.432 281.796 168.59 282.158 168.827C282.534 169.031 282.861 169.314 283.118 169.656C283.374 169.998 283.554 170.392 283.645 170.81C283.753 171.226 283.777 171.66 283.715 172.087C283.654 172.513 283.508 172.922 283.287 173.291C283.065 173.66 282.772 173.982 282.425 174.237C282.078 174.491 281.684 174.674 281.266 174.775L240.52 184.689C240.264 184.77 239.996 184.804 239.727 184.788C238.998 184.788 238.29 184.544 237.715 184.094C237.14 183.645 236.732 183.017 236.555 182.31ZM240.025 182.805L280.77 172.792C280.928 172.757 281.077 172.689 281.209 172.594C281.34 172.499 281.451 172.379 281.534 172.24C281.617 172.101 281.672 171.946 281.694 171.786C281.716 171.625 281.705 171.462 281.662 171.305C281.556 170.983 281.347 170.704 281.067 170.512C280.754 170.382 280.409 170.347 280.076 170.413L239.331 180.327C239.033 180.426 238.637 180.624 238.538 180.922C238.407 181.235 238.373 181.58 238.439 181.913C238.544 182.235 238.753 182.514 239.033 182.706C239.347 182.837 239.692 182.871 240.025 182.805Z" fill="black"/>
<path d="M223.866 224.74H264.016L248.154 281.347H208.004L223.866 224.74Z" fill="white"/>
<path d="M207.212 281.942C207.11 281.82 207.039 281.675 207.004 281.52C206.97 281.365 206.973 281.203 207.014 281.05L222.876 224.542C222.964 224.348 223.102 224.181 223.277 224.059C223.451 223.937 223.655 223.864 223.867 223.848H264.018C264.322 223.876 264.605 224.017 264.811 224.244C264.913 224.366 264.984 224.511 265.019 224.666C265.053 224.821 265.05 224.983 265.009 225.136L249.147 281.644C249.059 281.838 248.921 282.005 248.746 282.127C248.572 282.249 248.368 282.322 248.156 282.338H208.005C207.7 282.31 207.417 282.169 207.212 281.942ZM262.63 225.83H224.561L209.294 280.356H247.363L262.63 225.83Z" fill="black"/>
<path d="M214.943 176.064C215.655 176.064 216.232 175.487 216.232 174.775C216.232 174.063 215.655 173.486 214.943 173.486C214.231 173.486 213.654 174.063 213.654 174.775C213.654 175.487 214.231 176.064 214.943 176.064Z" fill="black"/>
<path d="M209.492 176.659C210.204 176.659 210.781 176.082 210.781 175.37C210.781 174.658 210.204 174.081 209.492 174.081C208.78 174.081 208.203 174.658 208.203 175.37C208.203 176.082 208.78 176.659 209.492 176.659Z" fill="black"/>
<path d="M195.215 203.822C195.092 203.777 194.978 203.707 194.881 203.618C194.784 203.528 194.706 203.421 194.651 203.301C194.596 203.181 194.565 203.052 194.559 202.92C194.554 202.789 194.575 202.657 194.62 202.533C194.666 202.41 194.736 202.296 194.825 202.199C194.914 202.103 195.022 202.024 195.142 201.969C195.261 201.914 195.391 201.883 195.522 201.877C195.654 201.872 195.786 201.893 195.909 201.939C198.983 203.128 203.642 202.93 205.526 202.831L206.12 197.973C206.133 197.843 206.172 197.717 206.234 197.601C206.296 197.486 206.38 197.384 206.481 197.301C206.582 197.218 206.699 197.156 206.824 197.118C206.949 197.081 207.081 197.068 207.211 197.081C207.341 197.094 207.467 197.132 207.583 197.194C207.698 197.256 207.8 197.34 207.883 197.441C207.966 197.543 208.028 197.659 208.066 197.784C208.103 197.91 208.116 198.041 208.103 198.171L207.409 203.822C207.31 204.318 207.013 204.714 206.517 204.714C205.336 204.895 204.141 204.961 202.948 204.913C200.327 204.997 197.711 204.628 195.215 203.822Z" fill="black"/>
<path d="M221.588 152.073C215.144 144.637 205.032 145.034 201.265 146.62C197.497 148.206 194.523 148.008 190.954 147.215C184.213 145.728 182.924 149.297 181.14 153.659C176.084 150.883 170.83 151.775 168.351 155.84C164.782 161.788 171.028 165.06 165.278 170.314C159.528 175.568 164.088 179.335 164.584 185.085C165.08 190.835 155.959 200.451 155.959 200.451L191.45 212.05C191.45 212.05 189.963 206.499 192.144 202.831C193.576 200.627 194.363 198.066 194.415 195.438C194.468 192.81 193.784 190.22 192.441 187.96C190.459 184.49 193.036 180.525 194.92 176.559C196.803 172.594 193.135 167.241 193.135 167.241H224.859C224.859 167.241 226.743 157.723 221.588 152.073Z" fill="#F39129"/>
<path d="M180.248 153.857C180.248 153.758 178.86 147.909 173.209 146.62C173.078 146.597 172.952 146.547 172.841 146.474C172.729 146.401 172.633 146.306 172.559 146.194C172.485 146.083 172.434 145.958 172.41 145.827C172.385 145.696 172.387 145.561 172.416 145.431C172.439 145.299 172.489 145.174 172.563 145.062C172.636 144.951 172.731 144.855 172.842 144.781C172.953 144.707 173.078 144.656 173.209 144.631C173.34 144.607 173.475 144.609 173.606 144.638C180.446 146.224 182.032 153.064 182.131 153.362C182.165 153.622 182.103 153.886 181.957 154.105C181.811 154.323 181.592 154.482 181.338 154.551H181.14C180.743 154.551 180.248 154.254 180.248 153.857Z" fill="black"/>
<path d="M202.95 197.775C202.756 197.645 202.615 197.451 202.55 197.227C202.486 197.003 202.502 196.763 202.597 196.55C202.692 196.337 202.859 196.164 203.068 196.062C203.278 195.959 203.517 195.934 203.743 195.991C208.204 198.072 212.368 198.172 215.54 196.288C216.866 195.493 217.998 194.414 218.855 193.128C219.712 191.842 220.273 190.382 220.497 188.853C220.695 185.581 221.191 181.417 223.868 179.137C224.64 178.663 225.474 178.296 226.346 178.047C229.023 177.155 231.104 176.262 230.906 174.676C230.609 172.396 226.049 171.603 224.462 171.504C224.208 171.459 223.978 171.324 223.814 171.124C223.65 170.924 223.564 170.672 223.57 170.413C223.629 170.165 223.767 169.944 223.964 169.783C224.161 169.621 224.406 169.529 224.661 169.521C225.454 169.521 232.393 170.017 232.988 174.379C233.385 177.749 229.617 178.939 227.139 179.831C226.514 179.975 225.913 180.209 225.355 180.525C223.273 182.31 222.876 186.176 222.678 188.853C222.42 190.704 221.752 192.475 220.723 194.035C219.694 195.596 218.33 196.907 216.73 197.874C214.878 198.998 212.749 199.582 210.583 199.559C207.945 199.479 205.35 198.872 202.95 197.775Z" fill="black"/>
<path d="M198.289 277.084L159.13 262.908C154.876 261.346 151.408 258.17 149.478 254.069C147.548 249.968 147.312 245.272 148.82 240.998C153.281 228.507 158.932 212.843 160.419 209.671C163.096 204.02 169.738 202.038 170.035 201.938C170.266 201.922 170.494 201.987 170.682 202.122C170.869 202.256 171.004 202.452 171.063 202.675C171.121 202.898 171.1 203.135 171.003 203.344C170.906 203.554 170.739 203.723 170.531 203.822C170.432 203.822 164.385 205.706 162.105 210.563C160.915 213.042 156.949 223.848 150.605 241.791C149.276 245.566 149.488 249.711 151.196 253.33C152.903 256.949 155.968 259.749 159.725 261.123L197.893 274.903L205.328 250.615L171.622 243.972C171.49 243.949 171.365 243.899 171.253 243.826C171.142 243.753 171.046 243.658 170.972 243.547C170.898 243.435 170.847 243.311 170.822 243.179C170.798 243.048 170.8 242.913 170.829 242.783C170.852 242.651 170.902 242.526 170.975 242.414C171.048 242.303 171.143 242.207 171.254 242.133C171.366 242.059 171.491 242.008 171.622 241.983C171.753 241.959 171.888 241.961 172.018 241.99L206.815 248.929C207.097 249.009 207.342 249.185 207.509 249.425C207.645 249.666 207.681 249.951 207.608 250.218L199.578 276.489C199.54 276.617 199.476 276.735 199.391 276.837C199.306 276.939 199.201 277.023 199.083 277.084C198.983 277.183 198.884 277.183 198.686 277.183C198.547 277.187 198.41 277.153 198.289 277.084Z" fill="black"/>
<path d="M237.943 259.141C241.338 259.141 244.09 256.389 244.09 252.994C244.09 249.6 241.338 246.848 237.943 246.848C234.549 246.848 231.797 249.6 231.797 252.994C231.797 256.389 234.549 259.141 237.943 259.141Z" fill="#DA7AB1"/>
<path d="M200.57 269.748C200.57 269.748 211.773 274.804 219.208 276.589C224.661 277.877 228.824 278.373 230.212 275.895C231.501 273.615 226.941 271.434 226.941 271.434C226.941 271.434 236.26 272.623 236.26 268.658C236.26 267.567 236.061 266.278 233.385 264.692C236.557 264.891 237.647 262.809 237.846 261.322C238.044 259.835 236.26 257.951 234.079 257.753C237.846 255.968 237.449 253.192 237.449 253.192C237.449 253.192 237.053 249.524 231.798 251.111C226.544 252.697 216.333 251.507 216.333 251.507C216.333 251.507 218.811 243.08 219.803 239.115C217.721 237.231 215.342 243.08 212.368 244.568C209.393 246.055 206.717 249.921 206.717 249.921L200.57 269.748Z" fill="#EDCFC5"/>
<path d="M219.207 277.382C211.772 275.498 200.867 270.64 200.371 270.442C200.17 270.324 200.014 270.145 199.924 269.93C199.835 269.716 199.818 269.478 199.875 269.252L205.923 249.524C205.916 249.47 205.922 249.416 205.939 249.364C205.956 249.313 205.984 249.266 206.022 249.227C206.121 249.128 208.897 245.162 212.069 243.576C213.258 242.77 214.298 241.764 215.142 240.602C216.431 239.016 217.522 237.727 218.91 237.628C219.223 237.626 219.533 237.686 219.822 237.805C220.111 237.925 220.374 238.1 220.595 238.322C220.731 238.443 220.831 238.601 220.883 238.775C220.936 238.95 220.939 239.136 220.892 239.313C220.099 242.386 218.414 248.136 217.72 250.615C220.595 250.912 227.733 251.309 231.698 250.119C233.879 249.425 235.664 249.524 236.953 250.416C237.399 250.703 237.78 251.081 238.071 251.525C238.361 251.969 238.554 252.47 238.638 252.994C238.72 253.845 238.581 254.704 238.234 255.486C237.886 256.267 237.342 256.946 236.655 257.455C237.215 257.805 237.717 258.239 238.142 258.744C238.467 259.105 238.714 259.529 238.867 259.989C239.021 260.45 239.078 260.937 239.034 261.421C238.936 262.274 238.607 263.085 238.083 263.766C237.559 264.447 236.86 264.973 236.06 265.287C236.52 265.695 236.884 266.2 237.124 266.766C237.364 267.332 237.475 267.944 237.448 268.558C237.46 269.012 237.368 269.462 237.179 269.874C236.99 270.287 236.709 270.651 236.358 270.938C234.97 272.127 232.491 272.524 230.409 272.524C230.831 272.99 231.167 273.527 231.401 274.11C231.516 274.468 231.557 274.846 231.523 275.221C231.489 275.595 231.38 275.959 231.203 276.291C230.211 277.976 228.427 278.571 226.147 278.571C223.79 278.498 221.454 278.097 219.207 277.382ZM226.94 270.145C229.22 270.442 233.384 270.442 234.772 269.252C234.903 269.145 235.007 269.009 235.076 268.854C235.145 268.699 235.177 268.53 235.168 268.36C235.168 267.567 235.168 266.675 232.789 265.287C232.602 265.156 232.457 264.974 232.369 264.764C232.282 264.553 232.255 264.322 232.293 264.097C232.359 263.888 232.491 263.707 232.671 263.581C232.85 263.456 233.066 263.393 233.284 263.403C236.259 263.602 236.655 261.52 236.754 260.925C236.75 260.479 236.572 260.052 236.259 259.735C235.651 259.028 234.804 258.569 233.879 258.446C233.668 258.42 233.469 258.331 233.31 258.189C233.15 258.047 233.038 257.86 232.987 257.653C232.97 257.434 233.017 257.214 233.123 257.02C233.228 256.826 233.388 256.668 233.582 256.563C236.556 255.076 236.358 253.093 236.358 252.994C236.318 252.75 236.227 252.518 236.09 252.313C235.953 252.108 235.774 251.934 235.565 251.804C234.871 251.309 233.582 251.309 231.996 251.804C226.642 253.49 216.53 252.3 216.134 252.3C215.997 252.286 215.865 252.243 215.745 252.175C215.626 252.106 215.522 252.014 215.44 251.903C215.304 251.662 215.268 251.377 215.341 251.11C215.341 251.011 217.423 243.873 218.513 239.71C217.747 240.364 217.049 241.095 216.431 241.891C215.438 243.268 214.194 244.445 212.763 245.36C210.699 246.646 208.912 248.331 207.509 250.317L201.759 269.054C204.436 270.244 213.259 274.011 219.405 275.498C223.668 276.489 228.228 277.282 229.319 275.3C229.403 275.228 229.46 275.129 229.478 275.021C229.496 274.912 229.475 274.8 229.418 274.705C229.121 273.714 227.535 272.722 226.543 272.226C226.343 272.109 226.186 271.929 226.096 271.715C226.007 271.5 225.99 271.262 226.047 271.037C226.136 270.843 226.274 270.676 226.448 270.554C226.623 270.432 226.827 270.359 227.039 270.343C227.039 270.343 227.138 270.343 226.94 270.145Z" fill="black"/>
<path d="M221.884 259.339C221.752 259.348 221.619 259.328 221.495 259.281C221.37 259.235 221.257 259.162 221.164 259.068C221.07 258.974 220.997 258.861 220.95 258.737C220.904 258.613 220.884 258.48 220.893 258.348C220.893 258.085 220.997 257.832 221.183 257.646C221.369 257.461 221.621 257.356 221.884 257.356C226.543 257.455 233.979 256.662 234.078 256.662C234.208 256.648 234.34 256.661 234.465 256.698C234.591 256.736 234.708 256.798 234.809 256.881C234.911 256.964 234.995 257.066 235.056 257.182C235.118 257.297 235.156 257.424 235.168 257.554C235.16 257.809 235.068 258.054 234.907 258.251C234.746 258.448 234.524 258.586 234.276 258.645C234.078 258.645 227.931 259.339 223.173 259.339H221.884Z" fill="black"/>
<path d="M219.9 264.791C219.692 264.692 219.525 264.523 219.428 264.313C219.331 264.104 219.31 263.867 219.369 263.644C219.427 263.421 219.562 263.226 219.75 263.091C219.937 262.957 220.166 262.892 220.396 262.908C224.857 263.998 233.383 263.701 233.482 263.701C233.745 263.701 233.997 263.805 234.183 263.991C234.369 264.177 234.473 264.429 234.473 264.692C234.473 264.955 234.369 265.207 234.183 265.393C233.997 265.579 233.745 265.683 233.482 265.683H230.607C227.016 265.777 223.426 265.477 219.9 264.791Z" fill="black"/>
<path d="M226.939 272.425C226.642 272.425 219.108 271.632 215.935 269.748C215.818 269.683 215.715 269.595 215.631 269.491C215.548 269.386 215.486 269.265 215.449 269.136C215.413 269.007 215.402 268.873 215.417 268.739C215.432 268.606 215.474 268.477 215.539 268.36C215.604 268.243 215.691 268.14 215.796 268.056C215.901 267.973 216.022 267.911 216.15 267.874C216.279 267.838 216.414 267.827 216.547 267.842C216.68 267.857 216.809 267.899 216.927 267.964C219.702 269.55 227.038 270.343 227.138 270.343C227.268 270.355 227.395 270.393 227.51 270.455C227.626 270.517 227.728 270.601 227.811 270.702C227.894 270.804 227.956 270.92 227.994 271.046C228.031 271.171 228.044 271.303 228.03 271.433C227.993 271.674 227.875 271.894 227.694 272.057C227.513 272.22 227.281 272.315 227.038 272.326C227.012 272.326 226.987 272.336 226.968 272.355C226.95 272.373 226.939 272.399 226.939 272.425Z" fill="black"/>
<path d="M225.85 225.067L221.686 213.567C219.505 207.421 215.936 204.05 211.277 203.455L206.518 202.86C206.388 202.847 206.262 202.809 206.146 202.747C206.031 202.685 205.929 202.601 205.846 202.5C205.763 202.399 205.701 202.282 205.664 202.157C205.626 202.032 205.613 201.9 205.626 201.77C205.639 201.64 205.678 201.513 205.739 201.398C205.801 201.283 205.885 201.181 205.987 201.098C206.088 201.015 206.204 200.953 206.33 200.915C206.455 200.877 206.586 200.865 206.717 200.878L211.475 201.473C217.027 202.167 221.091 206.033 223.57 212.873L227.734 224.373C227.781 224.497 227.803 224.628 227.798 224.761C227.794 224.893 227.763 225.023 227.708 225.143C227.652 225.263 227.573 225.371 227.476 225.46C227.378 225.549 227.263 225.618 227.139 225.662C227.1 225.699 227.053 225.728 227.001 225.745C226.95 225.762 226.895 225.768 226.841 225.761C226.623 225.771 226.407 225.708 226.227 225.583C226.048 225.457 225.915 225.276 225.85 225.067Z" fill="black"/>
<path d="M255.789 224.74L263.026 203.921L238.54 198.865L231.699 224.74H255.789Z" fill="#FDF0C3"/>
<path d="M230.806 225.335C230.704 225.213 230.632 225.068 230.598 224.913C230.563 224.758 230.567 224.596 230.608 224.443L237.448 198.469C237.535 198.233 237.701 198.034 237.918 197.908C238.135 197.781 238.39 197.734 238.638 197.775L263.125 202.831C263.422 202.93 263.719 203.029 263.818 203.326C263.909 203.436 263.966 203.568 263.984 203.709C264.001 203.849 263.978 203.992 263.918 204.12L256.681 225.037C256.62 225.23 256.503 225.4 256.343 225.524C256.184 225.648 255.99 225.72 255.788 225.731H231.698C231.529 225.74 231.36 225.709 231.205 225.64C231.05 225.571 230.913 225.466 230.806 225.335ZM261.737 204.615L239.233 199.956L232.987 223.749H255.094L261.737 204.615Z" fill="black"/>
<path d="M254.401 188.853C254.203 187.465 253.112 185.779 250.832 183.797C254.401 182.012 254.797 176.56 252.914 175.667C251.03 174.775 247.66 179.435 244.388 181.12C241.117 182.805 242.207 184.887 242.703 188.853C243.198 192.818 241.811 199.559 241.811 199.559C241.811 199.559 256.384 202.633 258.565 203.029C260.746 203.426 262.629 199.46 263.224 197.577C264.041 195.56 265.002 193.606 266.099 191.728" fill="#EDCFC5"/>
<path d="M258.137 204.12L241.383 200.65C241.251 200.626 241.126 200.576 241.014 200.503C240.903 200.43 240.807 200.335 240.733 200.224C240.659 200.113 240.608 199.988 240.583 199.857C240.559 199.725 240.561 199.59 240.59 199.46C240.59 199.361 241.879 192.818 241.482 189.051C241.383 188.357 241.284 187.663 241.185 187.068C240.788 184.391 240.391 182.111 243.663 180.426C245 179.663 246.233 178.73 247.331 177.65C249.512 175.766 251.396 174.18 253.081 174.973C253.638 175.308 254.091 175.792 254.388 176.37C254.686 176.947 254.817 177.597 254.766 178.245C254.803 179.351 254.59 180.451 254.144 181.463C253.698 182.476 253.03 183.375 252.189 184.094C253.973 185.779 254.965 187.365 255.163 188.852C255.176 188.983 255.163 189.114 255.125 189.239C255.088 189.365 255.025 189.481 254.943 189.583C254.86 189.684 254.758 189.768 254.642 189.83C254.527 189.891 254.401 189.93 254.271 189.943C254.14 189.956 254.009 189.943 253.884 189.905C253.758 189.868 253.642 189.806 253.541 189.723C253.439 189.64 253.355 189.538 253.294 189.423C253.232 189.307 253.193 189.181 253.18 189.051C253.081 188.159 252.486 186.771 250.008 184.59C249.901 184.468 249.82 184.327 249.769 184.174C249.718 184.02 249.698 183.858 249.71 183.697C249.71 183.532 249.757 183.37 249.844 183.23C249.932 183.089 250.057 182.977 250.206 182.904C251.026 182.386 251.701 181.669 252.169 180.819C252.637 179.97 252.882 179.016 252.883 178.047C252.883 177.154 252.585 176.659 252.387 176.56C251.891 176.262 250.008 177.848 248.818 178.939C247.607 180.14 246.24 181.174 244.753 182.012C242.87 183.003 242.87 183.896 243.366 186.671C243.465 187.266 243.564 187.96 243.663 188.753C243.79 192.11 243.523 195.471 242.87 198.766L258.732 202.038C259.723 202.236 261.408 199.758 262.202 197.279C263.073 195.207 264.066 193.187 265.176 191.232C265.241 191.115 265.328 191.011 265.433 190.928C265.538 190.845 265.659 190.783 265.788 190.746C265.916 190.709 266.051 190.698 266.184 190.713C266.318 190.729 266.446 190.77 266.564 190.835C266.681 190.9 266.784 190.988 266.867 191.093C266.951 191.198 267.013 191.318 267.049 191.447C267.086 191.576 267.097 191.711 267.082 191.844C267.067 191.977 267.025 192.106 266.96 192.223C265.916 194.046 264.989 195.934 264.184 197.874C264.085 198.072 262.102 204.02 258.93 204.02C258.662 204.015 258.395 204.049 258.137 204.12Z" fill="black"/>
<path d="M153.381 290.963C153.098 290.945 152.832 290.824 152.631 290.623C152.43 290.423 152.31 290.156 152.291 289.873C152.688 284.52 156.851 262.214 157.05 261.222C157.102 260.959 157.257 260.728 157.48 260.579C157.703 260.431 157.976 260.377 158.239 260.429C158.502 260.482 158.733 260.637 158.882 260.86C159.031 261.083 159.085 261.356 159.032 261.619C159.032 261.916 154.67 284.817 154.373 290.071C154.348 290.317 154.233 290.544 154.05 290.709C153.866 290.874 153.628 290.965 153.381 290.963Z" fill="black"/>
<path d="M206.716 352.825L122.648 315.45C118.271 313.729 114.721 310.395 112.729 306.134C110.737 301.874 110.455 297.012 111.941 292.55C113.372 288.278 116.326 284.683 120.24 282.452C124.153 280.221 128.752 279.51 133.156 280.455L220.992 299.291L206.716 352.825Z" fill="#8E4765"/>
<path d="M220.793 300.282L136.031 282.14C135.901 282.114 135.778 282.063 135.667 281.989C135.557 281.915 135.462 281.82 135.389 281.71C135.315 281.599 135.264 281.475 135.238 281.345C135.212 281.215 135.212 281.081 135.238 280.951C135.264 280.82 135.316 280.697 135.39 280.586C135.464 280.476 135.558 280.381 135.669 280.308C135.779 280.234 135.903 280.183 136.034 280.157C136.164 280.131 136.298 280.132 136.428 280.158L221.19 298.3C221.321 298.323 221.447 298.373 221.558 298.446C221.67 298.519 221.766 298.614 221.84 298.726C221.914 298.837 221.965 298.962 221.989 299.093C222.014 299.224 222.012 299.359 221.983 299.489C221.937 299.717 221.812 299.92 221.631 300.065C221.45 300.21 221.224 300.287 220.992 300.282H220.793Z" fill="black"/>
<g clip-path="url(#clip0_1429_7787)">
<rect width="92" height="93" rx="46" transform="matrix(-1 0 0 1 529 288)" fill="white"/>
<path d="M431.401 404.842L397.289 391.506L405.856 370.639L443.741 387.976L455.924 367.423C457.494 364.783 459.598 362.499 462.101 360.717C464.605 358.934 467.453 357.691 470.465 357.067L475.809 355.969L488.935 355.734L501.197 359.107C501.197 359.107 509.607 362.637 511.1 369.148C512.594 375.66 517.86 398.723 517.86 398.723C517.86 398.723 520.139 406.568 514.952 413.314C513.694 414.883 511.179 417.315 511.179 417.315L513.537 441.242H451.129L452.072 411.589L431.401 404.842Z" fill="#E9D519"/>
<path d="M431.402 405.627C431.556 405.64 431.71 405.6 431.838 405.515C431.967 405.429 432.062 405.303 432.11 405.156C432.147 405.058 432.165 404.954 432.161 404.85C432.158 404.745 432.133 404.642 432.089 404.547C432.045 404.452 431.983 404.367 431.905 404.296C431.828 404.226 431.737 404.171 431.638 404.136L398.234 391.114L406.172 371.737L443.349 388.761C443.53 388.832 443.73 388.839 443.915 388.782C444.101 388.725 444.262 388.607 444.371 388.447L456.554 367.894C458.068 365.343 460.103 363.14 462.527 361.427C464.951 359.715 467.71 358.531 470.623 357.954L475.968 356.856C476.071 356.835 476.169 356.795 476.257 356.736C476.344 356.678 476.419 356.603 476.478 356.515C476.536 356.428 476.577 356.33 476.597 356.227C476.617 356.124 476.617 356.018 476.597 355.915C476.576 355.812 476.535 355.714 476.477 355.626C476.418 355.539 476.343 355.464 476.255 355.406C476.168 355.348 476.07 355.307 475.966 355.287C475.863 355.266 475.757 355.266 475.654 355.287L470.309 356.385C467.179 357.022 464.219 358.307 461.619 360.158C459.019 362.01 456.838 364.386 455.218 367.133L443.428 387.058L406.172 370.035C405.97 369.956 405.745 369.956 405.543 370.035C405.432 370.069 405.331 370.129 405.248 370.212C405.166 370.294 405.105 370.395 405.072 370.506L396.504 391.373C396.425 391.575 396.425 391.799 396.504 392C396.553 392.094 396.619 392.177 396.7 392.244C396.781 392.312 396.875 392.362 396.976 392.393L431.088 405.729C431.181 405.666 431.29 405.631 431.402 405.627Z" fill="#2C3B47"/>
<path d="M460.562 319.647C460.562 319.647 455.532 300.506 476.675 303.252C487.443 304.821 500.255 312.509 497.582 320.275C500.962 322.315 507.014 331.728 504.735 340.985C502.534 350.085 496.403 352.988 488.622 352.046C488.779 348.908 491.452 323.334 491.452 323.334L460.562 319.647Z" fill="#626262"/>
<path d="M475.81 352.517V356.989C475.81 356.989 480.212 359.97 488.229 357.067C488.465 354.478 488.779 346.477 488.779 346.477C489.173 347.239 489.818 347.843 490.605 348.186C491.393 348.529 492.275 348.59 493.102 348.359C496.325 347.732 497.111 344.986 497.347 342.633C497.582 340.279 495.932 335.965 490.037 339.809L491.373 323.335L462.213 319.804C462.213 319.804 454.982 318.706 454.825 322.315C454.667 325.923 456.947 327.1 461.741 328.198C461.82 330.395 459.855 353.772 473.06 352.831L475.81 352.517Z" fill="#CB8529"/>
<path d="M476.203 330.16C475.552 330.16 475.024 329.633 475.024 328.983C475.024 328.333 475.552 327.806 476.203 327.806C476.854 327.806 477.382 328.333 477.382 328.983C477.382 329.633 476.854 330.16 476.203 330.16Z" fill="#2C3B47"/>
<path d="M471.014 329.846C470.363 329.846 469.835 329.319 469.835 328.669C469.835 328.02 470.363 327.493 471.014 327.493C471.666 327.493 472.193 328.02 472.193 328.669C472.193 329.319 471.666 329.846 471.014 329.846Z" fill="#2C3B47"/>
<path d="M481.625 359.186C483.993 359.168 486.338 358.716 488.542 357.852C488.689 357.795 488.818 357.699 488.915 357.575C489.012 357.45 489.073 357.302 489.092 357.146C489.249 355.342 489.485 350.949 489.564 348.438C490.108 348.813 490.725 349.07 491.375 349.192C492.025 349.313 492.693 349.297 493.336 349.144C496.244 348.595 497.895 346.399 498.209 342.712C498.313 341.817 498.178 340.911 497.819 340.085C497.461 339.259 496.89 338.541 496.166 338.005C494.515 337.063 492.393 337.377 489.721 339.103C489.544 339.217 489.419 339.397 489.375 339.603C489.331 339.809 489.37 340.024 489.485 340.201C489.6 340.378 489.78 340.502 489.986 340.546C490.193 340.59 490.408 340.551 490.585 340.437C492.708 339.103 494.358 338.711 495.38 339.338C496.402 339.966 496.716 341.613 496.637 342.555C496.402 345.614 495.223 347.183 493.101 347.575C490.507 348.046 489.642 346.163 489.642 346.163C489.573 345.998 489.45 345.862 489.293 345.776C489.136 345.69 488.954 345.661 488.778 345.693C488.61 345.726 488.458 345.813 488.345 345.94C488.231 346.068 488.163 346.229 488.149 346.399C488.149 346.477 487.834 353.537 487.599 356.44C481.546 358.48 477.852 356.989 476.673 356.44V352.517C476.673 352.309 476.591 352.11 476.443 351.963C476.296 351.816 476.096 351.733 475.887 351.733C475.679 351.733 475.479 351.816 475.332 351.963C475.184 352.11 475.101 352.309 475.101 352.517V356.989C475.124 357.23 475.236 357.454 475.416 357.617C475.573 357.773 477.695 359.186 481.625 359.186Z" fill="#2C3B47"/>
<path d="M472.429 353.615H473.294L478.638 353.066C478.835 353.019 479.01 352.91 479.138 352.754C479.266 352.598 479.339 352.404 479.346 352.203C479.31 352.001 479.203 351.819 479.045 351.69C478.886 351.56 478.686 351.492 478.481 351.497L473.136 352.046C472.082 352.163 471.015 352.049 470.01 351.71C469.005 351.371 468.087 350.816 467.32 350.085C462.29 345.3 462.604 333.375 462.683 329.453V328.198C462.669 328.028 462.6 327.867 462.487 327.74C462.373 327.612 462.221 327.525 462.054 327.492C457.102 326.394 455.687 325.217 455.766 322.393C455.752 322.197 455.789 322.001 455.871 321.823C455.953 321.644 456.08 321.49 456.238 321.373C457.574 320.275 460.954 320.51 462.211 320.667C462.321 320.718 462.442 320.743 462.564 320.739C462.685 320.736 462.804 320.704 462.912 320.647C463.019 320.59 463.111 320.509 463.182 320.41C463.252 320.311 463.299 320.197 463.318 320.078C463.337 319.958 463.328 319.835 463.291 319.719C463.255 319.604 463.192 319.498 463.107 319.411C463.023 319.323 462.919 319.257 462.805 319.216C462.69 319.175 462.568 319.162 462.447 319.176C461.897 319.098 457.338 318.47 455.294 320.196C454.966 320.464 454.698 320.798 454.508 321.177C454.319 321.555 454.212 321.97 454.194 322.393C454.037 326.786 457.181 328.041 461.111 328.982V329.532C461.032 333.611 460.718 346.162 466.22 351.34C467.934 352.843 470.148 353.655 472.429 353.615Z" fill="#2C3B47"/>
<path d="M497.581 321.084C497.723 321.085 497.863 321.049 497.987 320.98C498.111 320.911 498.215 320.812 498.289 320.692C498.367 320.456 500.961 315.906 505.52 317.554C505.618 317.59 505.722 317.606 505.827 317.602C505.931 317.598 506.034 317.573 506.129 317.53C506.223 317.486 506.309 317.424 506.38 317.347C506.451 317.271 506.506 317.181 506.542 317.083C506.578 316.985 506.594 316.881 506.59 316.777C506.586 316.673 506.561 316.57 506.518 316.476C506.474 316.381 506.412 316.296 506.335 316.225C506.258 316.154 506.168 316.099 506.07 316.063C501.433 314.337 498.053 317.789 496.953 319.907C496.898 319.999 496.862 320.101 496.849 320.207C496.835 320.313 496.843 320.421 496.872 320.524C496.902 320.627 496.952 320.723 497.02 320.805C497.088 320.888 497.172 320.956 497.267 321.005C497.346 320.982 497.424 321.084 497.581 321.084Z" fill="#2C3B47"/>
<path d="M471.248 436.064C471.358 436.076 471.47 436.048 471.562 435.986L506.145 421.002C510.579 419.454 514.294 416.345 516.595 412.258C518.896 408.171 519.624 403.386 518.643 398.802L512.669 371.267C511.978 367.995 510.382 364.981 508.061 362.569C505.741 360.156 502.79 358.441 499.543 357.617L488.618 354.793C488.435 354.78 488.254 354.831 488.106 354.938C487.957 355.044 487.85 355.199 487.804 355.376C487.757 355.552 487.774 355.739 487.85 355.905C487.927 356.071 488.06 356.204 488.225 356.283L499.15 359.107C502.113 359.859 504.804 361.427 506.917 363.633C509.029 365.838 510.478 368.592 511.097 371.58L517.071 399.116C517.979 403.337 517.305 407.745 515.176 411.504C513.047 415.263 509.61 418.112 505.517 419.512L471.641 434.26L460.794 410.412L497.421 394.409C497.574 394.306 497.686 394.152 497.738 393.975C497.789 393.797 497.776 393.608 497.7 393.439C497.625 393.271 497.493 393.134 497.327 393.053C497.161 392.972 496.972 392.952 496.792 392.997L459.379 409.314C459.285 409.362 459.202 409.428 459.135 409.509C459.067 409.59 459.017 409.684 458.986 409.784C458.907 409.986 458.907 410.21 458.986 410.412L470.462 435.672C470.552 435.795 470.671 435.894 470.807 435.963C470.944 436.031 471.095 436.066 471.248 436.064Z" fill="#2C3B47"/>
<path d="M438.25 334.5C438.25 359.504 458.298 379.75 483 379.75C507.702 379.75 527.75 359.504 527.75 334.5C527.75 309.496 507.702 289.25 483 289.25C458.298 289.25 438.25 309.496 438.25 334.5Z" stroke="#2C3B47" stroke-width="2.5"/>
</g>
<path d="M494.285 163.779L522.293 178.194L505.59 210.648L477.582 196.233L494.285 163.779Z" fill="#DA7AB1" stroke="#2C3B47" stroke-width="2.5"/>
<path d="M477.936 195.547L494.503 163.355L509.596 163.531L493.028 195.722L477.936 195.547Z" fill="#91426F" stroke="#2C3B47" stroke-width="2.5"/>
<path d="M481.941 148.429L509.949 162.844L493.247 195.298L465.238 180.883L481.941 148.429Z" fill="#DA7AB1" stroke="#2C3B47" stroke-width="2.5"/>
<path d="M446.24 218.89L439.046 218.89L476.607 145.684L482.385 148.658L446.24 218.89Z" fill="white" stroke="#2C3B47" stroke-width="2.5"/>
<path d="M430.24 343.854C419.888 344.414 398.038 340.038 393.448 318.055" stroke="#2C3B47" stroke-width="2.5" stroke-linecap="round"/>
<defs>
<clipPath id="clip0_1429_7787">
<rect width="92" height="93" rx="46" transform="matrix(-1 0 0 1 529 288)" fill="white"/>
</clipPath>
</defs>
</svg>
