<svg width="1440" height="246" viewBox="0 0 1440 246" fill="none" xmlns="http://www.w3.org/2000/svg">
<g clip-path="url(#clip0_930_4370)">
<rect width="1440" height="246" fill="#ECD7D6"/>
<path fill-rule="evenodd" clip-rule="evenodd" d="M1014.58 197.186C1132.5 268.041 1285.53 229.885 1356.39 111.963C1427.24 -5.96012 1389.09 -158.995 1271.16 -229.85C1153.24 -300.705 1000.21 -262.549 929.352 -144.627C858.497 -26.7038 896.653 126.331 1014.58 197.186Z" fill="url(#paint0_linear_930_4370)"/>
<path opacity="0.2" fill-rule="evenodd" clip-rule="evenodd" d="M478.385 -101.99C356.128 -175.45 197.469 -135.891 124.01 -13.6348C50.5505 108.622 90.1086 267.281 212.365 340.74C334.622 414.199 493.281 374.641 566.74 252.385C640.199 130.128 600.641 -28.5312 478.385 -101.99Z" fill="url(#paint1_linear_930_4370)"/>
</g>
<defs>
<linearGradient id="paint0_linear_930_4370" x1="1316.93" y1="-214.144" x2="1026.55" y2="118.163" gradientUnits="userSpaceOnUse">
<stop stop-color="#E596B7"/>
<stop offset="1" stop-color="#ECD7D6"/>
</linearGradient>
<linearGradient id="paint1_linear_930_4370" x1="38" y1="184" x2="551" y2="119" gradientUnits="userSpaceOnUse">
<stop stop-color="#E596B7"/>
<stop offset="1" stop-color="#ECD7D6"/>
</linearGradient>
<clipPath id="clip0_930_4370">
<rect width="1440" height="246" fill="white"/>
</clipPath>
</defs>
</svg>
