<?xml version="1.0" encoding="UTF-8"?>
<svg width="100px" height="100px" viewBox="0 0 100 100" version="1.1" xmlns="http://www.w3.org/2000/svg" xmlns:xlink="http://www.w3.org/1999/xlink">
    <!-- Generator: sketchtool 57.1 (101010) - https://sketch.com -->
    <title>7253D609-C366-4161-8392-8993D43E2E18</title>
    <desc>Created with sketchtool.</desc>
    <g id="Website-2.0" stroke="none" stroke-width="1" fill="none" fill-rule="evenodd">
        <g id="Meet-the-team" transform="translate(-1120.000000, -2820.000000)">
            <g id="like-minded-people" transform="translate(140.000000, 2720.000000)">
                <g id="img_team_minds" transform="translate(980.000000, 100.000000)">
                    <g>
                        <circle id="Oval" fill="#F7F7F7" cx="50" cy="50" r="50"></circle>
                        <g id="icon_groups" transform="translate(25.000000, 25.000000)">
                            <path d="M25,49.5 C11.4690236,49.5 0.5,38.5309764 0.5,25 C0.5,11.4690236 11.4690236,0.5 25,0.5 C38.5309764,0.5 49.5,11.4690236 49.5,25 C49.5,38.5309764 38.5309764,49.5 25,49.5 Z M25,46.5 C36.8741221,46.5 46.5,36.8741221 46.5,25 C46.5,13.1258779 36.8741221,3.5 25,3.5 C13.1258779,3.5 3.5,13.1258779 3.5,25 C3.5,36.8741221 13.1258779,46.5 25,46.5 Z" id="Oval-2" fill="#252525" fill-rule="nonzero"></path>
                            <circle id="Oval-2" fill="#0680FC" cx="17" cy="24" r="4"></circle>
                            <circle id="Oval-2" fill="#0680FC" cx="33" cy="24" r="4"></circle>
                            <path d="M16.6109127,36.3890873 C21.2440777,41.0222523 28.7559223,41.0222523 33.3890873,36.3890873 C33.9748737,35.8033009 33.9748737,34.8535534 33.3890873,34.267767 C32.8033009,33.6819805 31.8535534,33.6819805 31.267767,34.267767 C27.8061748,37.7293591 22.1938252,37.7293591 18.732233,34.267767 C18.1464466,33.6819805 17.1966991,33.6819805 16.6109127,34.267767 C16.0251263,34.8535534 16.0251263,35.8033009 16.6109127,36.3890873 Z" id="Oval-2" fill="#0680FC" fill-rule="nonzero"></path>
                        </g>
                    </g>
                </g>
            </g>
        </g>
    </g>
</svg>