<svg width="32" height="32" viewBox="0 0 32 32" fill="none" xmlns="http://www.w3.org/2000/svg">
<path d="M0 16C0 7.16344 7.16344 0 16 0C24.8366 0 32 7.16344 32 16C32 24.8366 24.8366 32 16 32C7.16344 32 0 24.8366 0 16Z" fill="#2C3B47"/>
<path fill-rule="evenodd" clip-rule="evenodd" d="M17.3007 24V16.7015H19.8739L20.2594 13.857H17.3007V12.0412C17.3007 11.2178 17.5412 10.6567 18.7814 10.6567L20.3635 10.6561V8.11191C20.0896 8.07752 19.1508 8 18.0583 8C15.7774 8 14.2159 9.3255 14.2159 11.7599V13.857H11.6362V16.7015H14.2159V24" fill="white"/>
</svg>
