<svg width="32" height="32" viewBox="0 0 32 32" fill="none" xmlns="http://www.w3.org/2000/svg">
<path d="M0 16C0 7.16344 7.16344 0 16 0C24.8366 0 32 7.16344 32 16C32 24.8366 24.8366 32 16 32C7.16344 32 0 24.8366 0 16Z" fill="#2C3B47"/>
<path fill-rule="evenodd" clip-rule="evenodd" d="M23.5587 9.2465C22.9239 9.63183 22.2224 9.91208 21.4727 10.062C20.8754 9.40841 20.0219 9 19.0769 9C17.2656 9 15.7956 10.5072 15.7956 12.3659C15.7956 12.6295 15.8238 12.8858 15.8802 13.1323C13.1521 12.9918 10.7337 11.6534 9.11372 9.61432C8.83091 10.1133 8.66943 10.6921 8.66943 11.3082C8.66943 12.4757 9.24871 13.5061 10.13 14.1098C9.59261 14.0935 9.08552 13.9406 8.64208 13.6898V13.7313C8.64208 15.3627 9.77374 16.7238 11.2766 17.0318C11.0015 17.1109 10.711 17.1502 10.4116 17.1502C10.2001 17.1502 9.99375 17.1301 9.79382 17.0908C10.2116 18.4275 11.4232 19.4011 12.8599 19.4267C11.7367 20.3303 10.3206 20.8685 8.78306 20.8685C8.5182 20.8685 8.25632 20.8531 8 20.8224C9.45249 21.7759 11.1788 22.3334 13.032 22.3334C19.0705 22.3334 22.3715 17.2053 22.3715 12.7568C22.3715 12.6103 22.3689 12.4642 22.3634 12.3206C23.0046 11.8456 23.5617 11.2535 24 10.5785C23.4122 10.8459 22.7791 11.0271 22.1152 11.1082C22.7932 10.6921 23.3135 10.0321 23.5587 9.2465Z" fill="white"/>
</svg>
