<svg width="40" height="40" viewBox="0 0 40 40" fill="none" xmlns="http://www.w3.org/2000/svg">
<path d="M20 0C31.0457 0 40 8.9543 40 20C40 31.0457 31.0457 40 20 40C8.9543 40 0 31.0457 0 20C0 8.9543 8.9543 0 20 0ZM20 2C10.0589 2 2 10.0589 2 20C2 29.9411 10.0589 38 20 38C29.9411 38 38 29.9411 38 20C38 10.0589 29.9411 2 20 2ZM19.9661 12C24.918 12 28.9328 15.2617 28.9328 19.2851C28.9328 21.5715 27.6357 23.6115 25.6079 24.9469C25.5836 25.1106 25.5702 25.2785 25.5702 25.4495C25.5702 26.6736 26.6118 27.7444 27.8115 28.3327V28.8042C25.589 28.7531 23.2898 28.4082 21.3642 26.4819C20.9085 26.5397 20.4419 26.5702 19.9661 26.5702C15.0143 26.5702 11 23.3085 11 19.2851C11 15.2617 15.0143 12 19.9661 12ZM23.3499 19.0103C22.7447 19.0103 22.254 19.5009 22.254 20.1062C22.254 20.7114 22.7447 21.2021 23.3499 21.2021C23.9552 21.2021 24.4459 20.7114 24.4459 20.1062C24.4459 19.5009 23.9552 19.0103 23.3499 19.0103ZM20.0621 19.0103C19.4569 19.0103 18.9662 19.5009 18.9662 20.1062C18.9662 20.7114 19.4569 21.2021 20.0621 21.2021C20.6674 21.2021 21.1581 20.7114 21.1581 20.1062C21.1581 19.5009 20.6674 19.0103 20.0621 19.0103ZM16.7743 19.0103C16.1691 19.0103 15.6784 19.5009 15.6784 20.1062C15.6784 20.7114 16.1691 21.2021 16.7743 21.2021C17.3796 21.2021 17.8703 20.7114 17.8703 20.1062C17.8703 19.5009 17.3796 19.0103 16.7743 19.0103Z" fill="#0680FC"/>
</svg>
