<svg width="24" height="24" viewBox="0 0 24 24" fill="none" xmlns="http://www.w3.org/2000/svg">
<path fill-rule="evenodd" clip-rule="evenodd" d="M24 11.3139C24 17.0101 18.627 21.6278 12 21.6278C10.811 21.6295 9.62687 21.478 8.478 21.177C7.6035 21.6131 5.592 22.45 2.208 22.9952C1.9095 23.0423 1.68 22.7358 1.7985 22.4618C2.3295 21.23 2.8095 19.5886 2.955 18.0916C1.1145 16.2793 0 13.9071 0 11.3139C0 5.61769 5.373 1 12 1C18.627 1 24 5.61769 24 11.3139ZM9 14C9 14.5523 8.55229 15 8 15C7.44772 15 7 14.5523 7 14C7 13.4477 7.44772 13 8 13C8.55229 13 9 13.4477 9 14ZM12 15C12.5523 15 13 14.5523 13 14C13 13.4477 12.5523 13 12 13C11.4477 13 11 13.4477 11 14C11 14.5523 11.4477 15 12 15ZM16 15C16.5523 15 17 14.5523 17 14C17 13.4477 16.5523 13 16 13C15.4477 13 15 13.4477 15 14C15 14.5523 15.4477 15 16 15Z" fill="#1168A8"/>
</svg>
