<svg width="24" height="24" viewBox="0 0 24 24" fill="none" xmlns="http://www.w3.org/2000/svg">
<path fill-rule="evenodd" clip-rule="evenodd" d="M3.94009 11.5218C4.08408 11.9629 4.24376 12.3224 4.41984 12.6325C4.59591 12.9265 4.80407 13.2205 5.0279 13.5146C5.25174 13.8086 5.41213 14.0044 5.52405 14.1194C5.58 14.1765 5.63621 14.2284 5.68276 14.2714C5.71568 14.3017 5.74378 14.3277 5.76357 14.3479L11.3317 19.837C11.4443 19.9512 11.5719 20 11.7323 20C11.892 20 12.0203 19.9512 12.1322 19.837L17.6839 14.3639C19.044 12.9753 19.7319 11.6033 19.7319 10.2635C19.7319 8.92431 19.3484 7.87846 18.5964 7.12737C17.8443 6.37555 16.8042 6 15.4762 6C15.092 6 14.7241 6.0655 14.3399 6.19578C13.9564 6.32678 13.5878 6.50655 13.2678 6.71907C12.9625 6.92683 12.6968 7.12136 12.4705 7.30211C12.4479 7.32018 12.4256 7.3381 12.4038 7.3559C12.18 7.53566 11.9397 7.74818 11.7323 7.97671C11.5241 7.74818 11.2839 7.53566 11.0601 7.3559C11.0384 7.33821 11.0163 7.32039 10.9938 7.30244C10.7674 7.1216 10.5015 6.92696 10.1961 6.71907C9.87602 6.50655 9.50819 6.32678 9.12396 6.19578C8.73973 6.0655 8.3719 6 8.00407 6C6.65962 6 5.61957 6.37555 4.86751 7.12737C4.11545 7.87846 3.73193 8.92431 3.73193 10.2635C3.73193 10.6725 3.79609 11.0968 3.94009 11.5218ZM8.802 7.14253C8.50782 7.04287 8.24884 7 8.00407 7C6.8528 7 6.09362 7.31563 5.5745 7.83459L5.57416 7.83493C5.05299 8.35542 4.73193 9.12195 4.73193 10.2635C4.73193 10.5673 4.77947 10.8829 4.88721 11.201L3.94009 11.5218L4.8907 11.2115C5.01468 11.5912 5.14655 11.8854 5.2838 12.1287C5.43263 12.3761 5.61469 12.6344 5.82358 12.9088C6.0455 13.2004 6.17377 13.3529 6.23965 13.4209C6.26928 13.451 6.30213 13.4821 6.34099 13.518C6.34604 13.5227 6.35187 13.5281 6.35807 13.5338C6.37233 13.547 6.38859 13.562 6.40195 13.5745C6.41961 13.591 6.44472 13.6146 6.47037 13.6404L11.7319 18.8273L16.9755 13.658C18.2319 12.3733 18.7319 11.2409 18.7319 10.2635C18.7319 9.12194 18.4109 8.35542 17.8897 7.83493L17.8894 7.83459C17.3691 7.3145 16.6091 7 15.4762 7C15.2127 7 14.9537 7.0437 14.6621 7.14246C14.3573 7.24667 14.0688 7.38819 13.8254 7.54917C13.5094 7.76447 13.2472 7.95862 13.0355 8.13108L13.03 8.1356L13.03 8.13558C12.8302 8.29599 12.633 8.47228 12.4727 8.64883L11.7336 9.46315L10.993 8.65009C10.8314 8.47265 10.6335 8.29589 10.4339 8.13558L10.4283 8.1311L10.4283 8.13108C10.2167 7.95861 9.9545 7.76446 9.63843 7.54916C9.39463 7.3879 9.10678 7.24652 8.802 7.14253Z" fill="#8E4765"/>
</svg>
