<svg width="24" height="24" viewBox="0 0 24 24" fill="none" xmlns="http://www.w3.org/2000/svg">
<path fill-rule="evenodd" clip-rule="evenodd" d="M21 11.95C20.4477 11.95 20 11.5023 20 10.95C20 10.3977 20.4477 9.95 21 9.95H22C22.5523 9.95 23 10.3977 23 10.95C23 11.5023 22.5523 11.95 22 11.95H21ZM19.747 3.20697C19.3568 2.81684 18.7241 2.81772 18.335 3.20893L17.9511 3.59501C17.5636 3.98468 17.5644 4.61445 17.953 5.00304C18.3432 5.39317 18.976 5.39228 19.365 5.00107L19.7489 4.61499C20.1364 4.22532 20.1356 3.59556 19.747 3.20697ZM11 1.95C11 2.50229 11.4477 2.95 12 2.95C12.5523 2.95 13 2.50228 13 1.95V1C13 0.447715 12.5523 4.82833e-08 12 0C11.4477 -4.82833e-08 11 0.447716 11 1V1.95ZM3 9.95C3.55229 9.95 4 10.3977 4 10.95C4 11.5023 3.55228 11.95 3 11.95H2C1.44772 11.95 1 11.5023 1 10.95C1 10.3977 1.44772 9.95 2 9.95H3ZM5.67304 3.19696C5.28508 2.80684 4.65405 2.80596 4.265 3.195C3.87596 3.58404 3.87684 4.21508 4.26696 4.60303L4.65805 4.99195C5.04605 5.37779 5.67309 5.37691 6.06 4.99C6.44692 4.60309 6.44779 3.97604 6.06196 3.58805L5.67304 3.19696ZM5.76126 10.8921C5.76126 7.32323 8.83056 4.80016 12.0014 4.80016C15.1722 4.80016 18.2413 7.32346 18.2413 10.8921C18.2413 13.4127 17.2368 14.8482 16.3217 16.156C15.6515 17.1139 15.0292 18.0032 14.8845 19.2002H9.12454C8.97976 18.003 8.35618 17.1136 7.68455 16.1557C6.76767 14.8479 5.76126 13.4125 5.76126 10.8921ZM9.12313 21.1228H14.8831V20.1602H9.12313V21.1228ZM9.12313 22.0802H14.8831C14.8831 23.1405 14.0235 24.0002 12.9631 24.0002H11.0431C9.98275 24.0002 9.12313 23.1405 9.12313 22.0802Z" fill="#E4B722"/>
</svg>
