<svg width="24" height="24" viewBox="0 0 24 24" fill="none" xmlns="http://www.w3.org/2000/svg">
<path fill-rule="evenodd" clip-rule="evenodd" d="M12 20C16.4183 20 20 16.4183 20 12C20 7.58172 16.4183 4 12 4C7.58172 4 4 7.58172 4 12C4 16.4183 7.58172 20 12 20ZM12 19C12.5217 19 13.2633 18.5511 13.934 17.2096C14.2718 16.5341 14.5497 15.7032 14.7369 14.7628C13.9331 14.5942 13.0017 14.5 12 14.5C10.9983 14.5 10.0669 14.5942 9.26308 14.7628C9.45035 15.7032 9.72822 16.5341 10.066 17.2096C10.7367 18.5511 11.4783 19 12 19ZM12 13.5C13.034 13.5 14.0195 13.5946 14.8945 13.7742C14.963 13.2096 15 12.6155 15 12C15 11.3845 14.963 10.7904 14.8945 10.2258C14.0195 10.4054 13.034 10.5 12 10.5C10.966 10.5 9.98054 10.4054 9.10553 10.2258C9.03697 10.7904 9 11.3845 9 12C9 12.6155 9.03697 13.2096 9.10553 13.7742C9.98054 13.5946 10.966 13.5 12 13.5ZM9.26308 9.23724C9.45035 8.29677 9.72822 7.46592 10.066 6.79036C10.7367 5.44895 11.4783 5 12 5C12.5217 5 13.2633 5.44895 13.934 6.79036C14.2718 7.46592 14.5497 8.29677 14.7369 9.23724C13.9331 9.40583 13.0017 9.5 12 9.5C10.9983 9.5 10.0669 9.40583 9.26308 9.23724ZM15.8708 9.97541C15.9551 10.622 16 11.3005 16 12C16 12.6995 15.9551 13.378 15.8708 14.0246C16.0658 14.0859 16.2524 14.1524 16.4295 14.2237C17.1155 14.5001 17.7414 14.8879 18.1214 15.398C18.6811 14.3918 19 13.2331 19 12C19 10.7669 18.6811 9.6082 18.1214 8.60196C17.7414 9.11213 17.1155 9.49987 16.4295 9.77627C16.2524 9.84765 16.0658 9.91408 15.8708 9.97541ZM17.4838 7.64888C17.4006 8.03284 16.9896 8.47245 16.0558 8.84873C15.9439 8.89383 15.8267 8.93692 15.7048 8.97792C15.4033 7.50145 14.8877 6.24543 14.235 5.3644C15.5283 5.79982 16.6525 6.60269 17.4838 7.64888ZM8.29525 8.97792C8.17326 8.93692 8.05614 8.89383 7.94423 8.84873C7.01037 8.47245 6.5994 8.03284 6.51624 7.64888C7.34746 6.60269 8.47174 5.79982 9.76495 5.3644C9.11231 6.24543 8.59666 7.50145 8.29525 8.97792ZM5.87863 8.60196C6.25856 9.11213 6.88452 9.49987 7.57049 9.77627C7.74764 9.84765 7.9342 9.91408 8.1292 9.97541C8.04488 10.622 8 11.3005 8 12C8 12.6995 8.04488 13.378 8.1292 14.0246C7.9342 14.0859 7.74764 14.1524 7.57049 14.2237C6.88452 14.5001 6.25856 14.8879 5.87863 15.398C5.31886 14.3918 5 13.2331 5 12C5 10.7669 5.31886 9.6082 5.87863 8.60196ZM14.235 18.6356C14.8877 17.7546 15.4033 16.4986 15.7048 15.0221C15.8267 15.0631 15.9439 15.1062 16.0558 15.1513C16.9896 15.5276 17.4006 15.9672 17.4838 16.3511C16.6525 17.3973 15.5283 18.2002 14.235 18.6356ZM9.76495 18.6356C8.47174 18.2002 7.34746 17.3973 6.51624 16.3511C6.5994 15.9672 7.01037 15.5276 7.94423 15.1513C8.05614 15.1062 8.17326 15.0631 8.29525 15.0221C8.59666 16.4986 9.11231 17.7546 9.76495 18.6356Z" fill="#2C3B47"/>
</svg>
