<svg width="200" height="37" viewBox="0 0 200 37" fill="none" xmlns="http://www.w3.org/2000/svg">
<path d="M46.0977 18.0785C46.0977 11.2401 51.3217 6.62695 58.187 6.62695C63.579 6.62695 66.4603 9.64774 67.9337 12.5681L62.9777 14.8912C62.2403 13.1323 60.331 11.6708 58.187 11.6708C54.5377 11.6708 51.9577 14.4591 51.9577 18.0771C51.9577 21.6952 54.5377 24.4821 58.187 24.4821C60.3297 24.4821 62.2403 23.0232 62.9777 21.2605L67.9337 23.5862C66.4937 26.4391 63.579 29.526 58.187 29.526C51.323 29.5313 46.0977 24.8825 46.0977 18.0785Z" fill="#2C3B47"/>
<path d="M70.2801 29.1309H75.4374V13.0993H70.2801V29.1309ZM69.9121 8.71879C69.9121 7.09211 71.2174 5.79843 72.8588 5.79843C74.5001 5.79843 75.8068 7.09211 75.8068 8.71879C75.8068 10.3441 74.5001 11.6722 72.8588 11.6722C71.2174 11.6722 69.9121 10.3441 69.9121 8.71879Z" fill="#2C3B47"/>
<path d="M80.2617 24.8164V17.5472H77.583V13.0993H80.2617V8.71878H85.3857V13.0993H88.667V17.5472H85.3857V23.3893C85.3857 24.3169 85.9217 25.0133 86.8257 25.0133C87.395 25.0133 87.9643 24.8164 88.131 24.6142L89.1363 28.4649C88.499 29.0622 87.227 29.5273 85.3177 29.5273C82.0363 29.5313 80.2617 27.9033 80.2617 24.8164Z" fill="#2C3B47"/>
<path d="M91.2482 29.1309H96.4056V13.0993H91.2482V29.1309ZM90.8789 8.71879C90.8789 7.09211 92.1842 5.79843 93.8256 5.79843C95.4669 5.79843 96.7736 7.09211 96.7736 8.71879C96.7736 10.3441 95.4669 11.6722 93.8256 11.6722C92.1842 11.6722 90.8789 10.3441 90.8789 8.71879Z" fill="#2C3B47"/>
<path d="M99.5547 29.1309V25.3807L106.052 17.5473H99.5547V13.0993H113.049V16.7174L106.419 24.7173H113.185V29.1309H99.5547Z" fill="#2C3B47"/>
<path d="M123.869 16.6513C121.624 16.6513 120.755 18.245 120.555 19.4052H127.219C127.083 18.278 126.247 16.6513 123.869 16.6513ZM115.263 21.0992C115.263 16.4518 118.812 12.7016 123.869 12.7016C128.659 12.7016 132.14 16.1862 132.14 21.6305V22.7246H120.619C120.921 24.2191 122.327 25.5789 124.672 25.5789C125.811 25.5789 127.785 25.0807 128.692 24.2191L130.869 27.4051C129.26 28.8309 126.583 29.5273 124.104 29.5273C119.115 29.5313 115.263 26.3096 115.263 21.0992Z" fill="#2C3B47"/>
<path d="M145.641 29.1309V19.8703C145.641 17.9133 144.603 17.2156 142.995 17.2156C141.457 17.2156 140.451 18.0454 139.847 18.7762V29.1309H134.691V13.0993H139.847V15.0577C140.819 13.9292 142.727 12.7016 145.441 12.7016C149.126 12.7016 150.801 14.8264 150.801 17.7798V29.1309H145.641Z" fill="#2C3B47"/>
<path d="M179.643 18.0785C179.643 12.436 176.162 8.35274 170.802 8.35274C165.378 8.35274 161.961 12.436 161.961 18.0785C161.961 23.6536 165.377 27.8042 170.802 27.8042C176.162 27.8042 179.643 23.6536 179.643 18.0785ZM159.951 18.0785C159.951 11.6061 164.238 6.62695 170.803 6.62695C177.334 6.62695 181.657 11.6061 181.657 18.0785C181.657 24.5508 177.337 29.53 170.803 29.53C164.238 29.5313 159.951 24.5508 159.951 18.0785Z" fill="#2C3B47"/>
<path d="M183.805 26.011L185.046 24.5839C186.485 26.2462 188.83 27.8055 192.013 27.8055C196.601 27.8055 197.907 25.2816 197.907 23.3906C197.907 16.8839 184.51 20.2707 184.51 12.5364C184.51 8.91833 187.795 6.6283 191.846 6.6283C195.197 6.6283 197.674 7.78983 199.415 9.74819L198.145 11.1423C196.535 9.21698 194.259 8.35408 191.746 8.35408C188.767 8.35408 186.522 10.0468 186.522 12.4373C186.522 18.1128 199.918 14.9929 199.918 23.2572C199.918 26.1114 198.007 29.5313 191.981 29.5313C188.295 29.5313 185.514 28.0698 183.805 26.011Z" fill="#2C3B47"/>
<path d="M16.7797 14.7194C17.221 14.8 17.6757 14.8462 18.141 14.8462C18.6077 14.8462 19.0637 14.8013 19.505 14.7194C17.4943 11.8281 17.785 7.83871 20.381 5.26721C21.4943 4.16382 22.8717 3.47932 24.313 3.21636C22.9623 1.27518 20.7023 0 18.141 0C15.581 0 13.3223 1.27518 11.9717 3.21636C13.413 3.47932 14.7903 4.16382 15.9037 5.26721C18.4997 7.83871 18.7903 11.8281 16.7797 14.7194Z" fill="#D42027"/>
<path d="M19.505 21.2406C19.0637 21.16 18.609 21.1164 18.141 21.1164C17.6757 21.1164 17.221 21.16 16.7797 21.2406C18.7903 24.1332 18.4997 28.124 15.905 30.6941C14.7917 31.7989 13.413 32.4807 11.9717 32.7437C13.3223 34.6888 15.581 35.9614 18.141 35.9614C20.7023 35.9614 22.961 34.6875 24.3117 32.7437C22.8703 32.4807 21.493 31.7989 20.3797 30.6941C17.785 28.124 17.4943 24.1346 19.505 21.2406Z" fill="#E4B722"/>
<path d="M36.2857 17.9807C36.2857 15.4422 34.999 13.2037 33.0403 11.8638C32.7737 13.2909 32.0857 14.6586 30.971 15.7633C28.3763 18.3335 24.351 18.6229 21.4323 16.6289C21.3523 17.0663 21.3057 17.5182 21.3057 17.9794C21.3057 18.4419 21.351 18.8925 21.4323 19.3299C24.351 17.3372 28.3763 17.6239 30.971 20.1967C32.0843 21.3001 32.7737 22.6665 33.0403 24.0936C34.999 22.759 36.2857 20.5178 36.2857 17.9807Z" fill="#E79427"/>
<path d="M14.852 19.3312C14.9333 18.8938 14.9787 18.4432 14.9787 17.9794C14.9787 17.5182 14.9333 17.0676 14.852 16.6289C11.9333 18.6229 7.90933 18.3348 5.31333 15.7633C4.19867 14.6599 3.51067 13.2949 3.24667 11.8651C1.28533 13.2037 0 15.4449 0 17.9794C0 20.5165 1.28533 22.7576 3.24533 24.0949C3.51067 22.6678 4.2 21.3028 5.31333 20.198C7.90933 17.6252 11.9347 17.3385 14.852 19.3312Z" fill="#EF4025"/>
<path d="M19.5049 14.7194C19.7609 15.0867 20.0502 15.4369 20.3809 15.7646C20.7102 16.0897 21.0622 16.3765 21.4342 16.6302C22.0742 13.176 25.1262 10.5582 28.7969 10.5582C30.3715 10.5582 31.8329 11.0405 33.0409 11.8638C33.4715 9.54467 32.7822 7.06038 30.9715 5.26588C29.1622 3.47138 26.6555 2.78952 24.3142 3.21502C25.1435 4.41224 25.6329 5.8592 25.6329 7.42245C25.6315 11.0603 22.9902 14.0838 19.5049 14.7194Z" fill="#5C9CD0"/>
<path d="M19.5057 14.7194C22.991 14.0838 25.6323 11.0603 25.6323 7.42246C25.6323 5.85921 25.1443 4.41356 24.3137 3.21503C22.8723 3.47799 21.495 4.16249 20.3817 5.26588C17.7857 7.83871 17.495 11.8281 19.5057 14.7194Z" fill="#E3A8CC"/>
<path d="M21.4316 16.6302C24.349 18.6229 28.3756 18.3361 30.9703 15.7646C32.0836 14.6599 32.7716 13.2949 33.0383 11.8651C31.8303 11.0419 30.3703 10.5595 28.7943 10.5595C25.125 10.5582 22.0743 13.176 21.4316 16.6302Z" fill="#EED6DA"/>
<path d="M16.7801 21.2406C16.5254 20.8746 16.2334 20.5244 15.9054 20.198C15.5761 19.8716 15.2227 19.5836 14.8521 19.3312C14.2121 22.7841 11.1601 25.4031 7.48941 25.4031C5.91475 25.4031 4.45341 24.9208 3.24541 24.0962C2.81475 26.418 3.50275 28.9023 5.31341 30.6955C7.12408 32.4886 9.63075 33.1731 11.9721 32.745C11.1414 31.5504 10.6534 30.1008 10.6534 28.5402C10.6534 24.901 13.2947 21.8789 16.7801 21.2406Z" fill="#346933"/>
<path d="M16.78 21.2406C13.2947 21.8776 10.6533 24.8997 10.6533 28.5389C10.6533 30.0995 11.1413 31.5478 11.972 32.7437C13.4133 32.4807 14.7907 31.7988 15.9053 30.6941C18.5 28.124 18.7907 24.1346 16.78 21.2406Z" fill="#E9D519"/>
<path d="M14.8518 19.3312C11.9331 17.3385 7.90912 17.6252 5.31312 20.198C4.19845 21.3028 3.51045 22.6678 3.24512 24.0949C4.45178 24.9195 5.91178 25.4018 7.48912 25.4018C11.1585 25.4031 14.2105 22.7841 14.8518 19.3312Z" fill="#F39129"/>
<path d="M21.4319 19.3312C21.0626 19.5836 20.7092 19.8716 20.3799 20.198C20.0492 20.5231 19.7599 20.8746 19.5039 21.2406C22.9892 21.8749 25.6306 24.8997 25.6306 28.5376C25.6306 30.0995 25.1426 31.5478 24.3119 32.745C26.6519 33.1718 29.1586 32.4886 30.9706 30.6941C32.7812 28.901 33.4692 26.4154 33.0386 24.0949C31.8306 24.9195 30.3706 25.4018 28.7946 25.4018C25.1252 25.4031 22.0746 22.7841 21.4319 19.3312Z" fill="#5AB467"/>
<path d="M19.5057 21.2406C17.495 24.1332 17.7857 28.124 20.3817 30.6941C21.495 31.7988 22.8723 32.4807 24.3137 32.7437C25.143 31.5491 25.6323 30.0995 25.6323 28.5389C25.6323 24.901 22.991 21.8789 19.5057 21.2406Z" fill="#EDEC7F"/>
<path d="M21.4316 19.3312C22.0743 22.7841 25.125 25.4031 28.7943 25.4031C30.3716 25.4031 31.8303 24.9208 33.0383 24.0962C32.7716 22.6691 32.0836 21.3041 30.9703 20.1993C28.3756 17.6252 24.3503 17.3385 21.4316 19.3312Z" fill="#EFE08A"/>
<path d="M14.8524 16.6302C15.223 16.3778 15.575 16.0897 15.9057 15.7646C16.235 15.4369 16.5244 15.0868 16.7804 14.7194C13.295 14.0838 10.6537 11.059 10.6537 7.42247C10.6537 5.86054 11.1417 4.41357 11.9724 3.21504C9.63102 2.78954 7.12436 3.47272 5.31369 5.26457C3.50302 7.06039 2.81502 9.54336 3.24702 11.8638C4.45236 11.0419 5.91369 10.5582 7.48969 10.5582C11.159 10.5582 14.211 13.176 14.8524 16.6302Z" fill="#1168A8"/>
<path d="M16.78 14.7194C18.7907 11.8281 18.5 7.83873 15.9053 5.26723C14.7907 4.16251 13.4133 3.47933 11.972 3.21637C11.1413 4.41358 10.6533 5.86055 10.6533 7.42248C10.6533 11.0604 13.2947 14.0838 16.78 14.7194Z" fill="#DA7AB1"/>
<path d="M14.8524 16.6302C14.2111 13.176 11.1591 10.5582 7.48974 10.5582C5.91374 10.5582 4.45374 11.0405 3.24707 11.8638C3.51107 13.2936 4.2004 14.6586 5.31374 15.7633C7.90974 18.3362 11.9351 18.6229 14.8524 16.6302Z" fill="#F190B7"/>
</svg>
