<?xml version="1.0" encoding="UTF-8"?>
<svg width="100px" height="100px" viewBox="0 0 100 100" version="1.1" xmlns="http://www.w3.org/2000/svg" xmlns:xlink="http://www.w3.org/1999/xlink">
    <!-- Generator: sketchtool 57.1 (101010) - https://sketch.com -->
    <title>9590D4A4-D0D8-42D1-8837-53A62F1A2AA2</title>
    <desc>Created with sketchtool.</desc>
    <g id="Website-2.0" stroke="none" stroke-width="1" fill="none" fill-rule="evenodd">
        <g id="Meet-the-team" transform="translate(-820.000000, -2820.000000)">
            <g id="like-minded-people" transform="translate(140.000000, 2720.000000)">
                <g id="img_team_design" transform="translate(680.000000, 100.000000)">
                    <g>
                        <circle id="Oval" fill="#F7F7F7" cx="50" cy="50" r="50"></circle>
                        <g id="Group-10" transform="translate(30.000000, 30.000000)">
                            <polygon id="Page-1" fill="#252525" fill-rule="nonzero" points="3 26 0 26 0 41 14.5 41 14.5 38 3 38"></polygon>
                            <polyline id="Rectangle-8" fill="#0680FC" transform="translate(3.000000, 38.000000) rotate(-180.000000) translate(-3.000000, -38.000000) " points="0 35 6 35 6 41"></polyline>
                            <polygon id="Path-5" fill="#0680FC" fill-rule="nonzero" points="9.56066017 33.5606602 32.8120646 10.3092557 30.6907443 8.18793538 7.43933983 31.4393398"></polygon>
                            <path d="M36.5355339,14.2218254 L26.5540974,4.24038891 L4.20792707,26.5391435 L14.0375426,36.7198167 L36.5355339,14.2218254 Z M0,26.5 L26.5563492,2.38031816e-13 L40.7781746,14.2218254 L14,41 L0,26.5 Z" id="Rectangle-9" fill="#252525" fill-rule="nonzero"></path>
                        </g>
                    </g>
                </g>
            </g>
        </g>
    </g>
</svg>