<?xml version="1.0" encoding="UTF-8"?>
<svg width="100px" height="100px" viewBox="0 0 100 100" version="1.1" xmlns="http://www.w3.org/2000/svg" xmlns:xlink="http://www.w3.org/1999/xlink">
    <!-- Generator: sketchtool 57.1 (101010) - https://sketch.com -->
    <title>3828A788-1FBB-4B00-83F0-633C6A0EE9A6</title>
    <desc>Created with sketchtool.</desc>
    <g id="Website-2.0" stroke="none" stroke-width="1" fill="none" fill-rule="evenodd">
        <g id="Meet-the-team" transform="translate(-520.000000, -2820.000000)">
            <g id="like-minded-people" transform="translate(140.000000, 2720.000000)">
                <g id="img_team_frontend" transform="translate(380.000000, 100.000000)">
                    <g>
                        <circle id="Oval" fill="#F7F7F7" cx="50" cy="50" r="50"></circle>
                        <polygon id="Path-4" fill="#0680FC" fill-rule="nonzero" points="26.5 46 74.5 46 74.5 44 26.5 44"></polygon>
                        <path d="M27,66 L73,66 L73,36 L27,36 L27,66 Z M24,34.9997073 C24,33.8952994 24.9025574,33 26.0065993,33 L73.9934007,33 C75.1016149,33 76,33.8898926 76,34.9997073 L76,67.0002927 C76,68.1047006 75.0974426,69 73.9934007,69 L26.0065993,69 C24.8983851,69 24,68.1101074 24,67.0002927 L24,34.9997073 Z" id="Rectangle-5" fill="#252525" fill-rule="nonzero"></path>
                        <rect id="Rectangle-7" fill="#0680FC" x="57" y="39" width="3" height="3"></rect>
                        <rect id="Rectangle-7" fill="#0680FC" x="62" y="39" width="3" height="3"></rect>
                        <rect id="Rectangle-7" fill="#0680FC" x="67" y="39" width="3" height="3"></rect>
                    </g>
                </g>
            </g>
        </g>
    </g>
</svg>