<svg width="40" height="40" viewBox="0 0 40 40" fill="none" xmlns="http://www.w3.org/2000/svg">
<path d="M20 0C31.0457 0 40 8.9543 40 20C40 31.0457 31.0457 40 20 40C8.9543 40 0 31.0457 0 20C0 8.9543 8.9543 0 20 0ZM20 2C10.0589 2 2 10.0589 2 20C2 29.9411 10.0589 38 20 38C29.9411 38 38 29.9411 38 20C38 10.0589 29.9411 2 20 2Z" fill="#0680FC"/>
<path d="M19.1738 18.005C19.4414 18.0543 19.7171 18.0826 19.9992 18.0826C20.2821 18.0826 20.5586 18.0551 20.8262 18.005C19.6071 16.2361 19.7834 13.7955 21.3573 12.2223C22.0323 11.5473 22.8674 11.1286 23.7413 10.9677C22.9224 9.78012 21.5521 9 19.9992 9C18.4471 9 17.0776 9.78012 16.2587 10.9677C17.1326 11.1286 17.9677 11.5473 18.6427 12.2223C20.2167 13.7955 20.3929 16.2361 19.1738 18.005Z" fill="#D42027"/>
<path d="M20.8262 21.994C20.5586 21.9446 20.2829 21.918 19.9992 21.918C19.7171 21.918 19.4414 21.9446 19.1738 21.994C20.3929 23.7636 20.2167 26.205 18.6435 27.7774C17.9685 28.4532 17.1326 28.8704 16.2587 29.0312C17.0776 30.2212 18.4471 30.9997 19.9992 30.9997C21.5521 30.9997 22.9216 30.2204 23.7405 29.0312C22.8666 28.8704 22.0315 28.4532 21.3565 27.7774C19.7834 26.205 19.6071 23.7644 20.8262 21.994Z" fill="#E4B722"/>
<path d="M31 20C31 18.447 30.2199 17.0775 29.0323 16.2578C28.8707 17.1309 28.4535 17.9676 27.7777 18.6435C26.2045 20.2158 23.7639 20.3929 21.9943 19.173C21.9458 19.4405 21.9175 19.717 21.9175 19.9992C21.9175 20.2821 21.945 20.5578 21.9943 20.8254C23.7639 19.6063 26.2045 19.7817 27.7777 21.3557C28.4527 22.0307 28.8707 22.8666 29.0323 23.7397C30.2199 22.9232 31 21.5521 31 20Z" fill="#E79427"/>
<path d="M18.0048 20.8273C18.0542 20.5597 18.0816 20.2841 18.0816 20.0003C18.0816 19.7182 18.0542 19.4425 18.0048 19.1741C16.2352 20.394 13.7955 20.2178 12.2215 18.6446C11.5457 17.9696 11.1285 17.1345 10.9685 16.2598C9.7793 17.0787 9 18.4498 9 20.0003C9 21.5525 9.7793 22.9235 10.9677 23.7417C11.1285 22.8686 11.5465 22.0335 12.2215 21.3576C13.7955 19.7837 16.2361 19.6082 18.0048 20.8273Z" fill="#EF4025"/>
<path d="M20.8262 18.0037C20.9814 18.2284 21.1568 18.4427 21.3573 18.6432C21.557 18.842 21.7704 19.0175 21.9959 19.1727C22.384 17.0595 24.2344 15.458 26.46 15.458C27.4147 15.458 28.3007 15.7531 29.0331 16.2567C29.2942 14.8379 28.8763 13.3181 27.7785 12.2203C26.6815 11.1225 25.1617 10.7053 23.7421 10.9656C24.2449 11.698 24.5416 12.5833 24.5416 13.5396C24.5408 15.7652 22.9393 17.6148 20.8262 18.0037Z" fill="#5C9CD0"/>
<path d="M20.8262 18.0029C22.9394 17.6141 24.5408 15.7644 24.5408 13.5388C24.5408 12.5825 24.2449 11.6981 23.7413 10.9648C22.8674 11.1257 22.0323 11.5445 21.3573 12.2195C19.7833 13.7935 19.6071 16.2341 20.8262 18.0029Z" fill="#E3A8CC"/>
<path d="M21.9944 19.1748C23.7631 20.3939 26.2045 20.2185 27.7777 18.6453C28.4527 17.9695 28.8699 17.1344 29.0315 16.2597C28.2991 15.756 27.4139 15.4609 26.4584 15.4609C24.2336 15.4601 22.384 17.0616 21.9944 19.1748Z" fill="#EED6DA"/>
<path d="M19.1738 21.9943C19.0194 21.7704 18.8423 21.5562 18.6435 21.3565C18.4438 21.1568 18.2296 20.9806 18.0048 20.8262C17.6168 22.9386 15.7664 24.5408 13.5408 24.5408C12.5861 24.5408 11.7001 24.2458 10.9676 23.7413C10.7065 25.1617 11.1237 26.6815 12.2215 27.7786C13.3193 28.8756 14.8391 29.2943 16.2587 29.0324C15.755 28.3016 15.4592 27.4148 15.4592 26.46C15.4592 24.2336 17.0606 22.3848 19.1738 21.9943Z" fill="#346933"/>
<path d="M19.1738 21.9941C17.0606 22.3838 15.4592 24.2326 15.4592 26.459C15.4592 27.4138 15.755 28.2998 16.2587 29.0314C17.1326 28.8705 17.9677 28.4534 18.6435 27.7776C20.2166 26.2052 20.3929 23.7646 19.1738 21.9941Z" fill="#E9D519"/>
<path d="M18.0048 20.8263C16.2352 19.6072 13.7955 19.7826 12.2215 21.3566C11.5457 22.0325 11.1285 22.8676 10.9677 23.7407C11.6993 24.2451 12.5845 24.5402 13.5408 24.5402C15.7655 24.541 17.616 22.9387 18.0048 20.8263Z" fill="#F39129"/>
<path d="M21.9943 20.8262C21.7704 20.9806 21.5562 21.1568 21.3565 21.3565C21.156 21.5554 20.9806 21.7704 20.8254 21.9943C22.9386 22.3824 24.54 24.2328 24.54 26.4584C24.54 27.414 24.2441 28.3 23.7405 29.0324C25.1593 29.2935 26.6791 28.8756 27.7777 27.7777C28.8755 26.6807 29.2926 25.1601 29.0315 23.7405C28.2991 24.245 27.4139 24.54 26.4584 24.54C24.2336 24.5408 22.384 22.9386 21.9943 20.8262Z" fill="#5AB467"/>
<path d="M20.8262 21.9941C19.6071 23.7638 19.7833 26.2052 21.3573 27.7776C22.0323 28.4534 22.8674 28.8705 23.7413 29.0314C24.2441 28.3006 24.5408 27.4138 24.5408 26.459C24.5408 24.2335 22.9394 22.3846 20.8262 21.9941Z" fill="#EDEC7F"/>
<path d="M21.9944 20.8262C22.384 22.9386 24.2336 24.5409 26.4584 24.5409C27.4147 24.5409 28.2991 24.2458 29.0315 23.7414C28.8699 22.8683 28.4527 22.0332 27.7777 21.3574C26.2045 19.7826 23.764 19.6071 21.9944 20.8262Z" fill="#EFE08A"/>
<path d="M18.0048 19.1726C18.2296 19.0182 18.443 18.842 18.6435 18.6431C18.8432 18.4426 19.0186 18.2284 19.1738 18.0036C17.0606 17.6148 15.4592 15.7643 15.4592 13.5396C15.4592 12.584 15.755 11.6988 16.2587 10.9656C14.8391 10.7052 13.3193 11.1232 12.2215 12.2194C11.1237 13.318 10.7065 14.8371 10.9685 16.2566C11.6993 15.7538 12.5853 15.4579 13.5408 15.4579C15.7655 15.4579 17.616 17.0594 18.0048 19.1726Z" fill="#1168A8"/>
<path d="M19.1738 18.006C20.3929 16.2372 20.2166 13.7966 18.6435 12.2234C17.9677 11.5476 17.1326 11.1296 16.2587 10.9688C15.755 11.7012 15.4592 12.5864 15.4592 13.5419C15.4592 15.7675 17.0606 17.6172 19.1738 18.006Z" fill="#DA7AB1"/>
<path d="M18.0049 19.1756C17.616 17.0624 15.7656 15.4609 13.5408 15.4609C12.5853 15.4609 11.7001 15.756 10.9685 16.2597C11.1285 17.1344 11.5465 17.9695 12.2215 18.6453C13.7955 20.2193 16.2361 20.3947 18.0049 19.1756Z" fill="#F190B7"/>
</svg>
