<svg width="40" height="40" viewBox="0 0 40 40" fill="none" xmlns="http://www.w3.org/2000/svg">
<path d="M20 0C31.0457 0 40 8.9543 40 20C40 31.0457 31.0457 40 20 40C8.9543 40 0 31.0457 0 20C0 8.9543 8.9543 0 20 0ZM20 2C10.0589 2 2 10.0589 2 20C2 29.9411 10.0589 38 20 38C29.9411 38 38 29.9411 38 20C38 10.0589 29.9411 2 20 2ZM24.0487 21C25.2479 22.182 26 25.1442 26 27H14C14 25.2382 14.6779 22.3538 15.7726 21.1834C17 21.9197 18.3509 22.5547 20 22.5547C21.5603 22.5547 23 21.9197 24.0487 21ZM20 12C22.7614 12 25 14.2386 25 17C25 19.7614 22.7614 22 20 22C17.2386 22 15 19.7614 15 17C15 14.2386 17.2386 12 20 12Z" fill="#FFFFFF"/>
</svg>
