<svg width="40" height="40" viewBox="0 0 40 40" fill="none" xmlns="http://www.w3.org/2000/svg">
<path d="M20 38C29.9411 38 38 29.9411 38 20C38 10.0589 29.9411 2 20 2C10.0589 2 2 10.0589 2 20C2 29.9411 10.0589 38 20 38ZM20 40C8.9543 40 0 31.0457 0 20C0 8.9543 8.9543 0 20 0C31.0457 0 40 8.9543 40 20C40 31.0457 31.0457 40 20 40ZM29.2065 13.4813C27.727 10.5277 24.6731 8.5 21.1451 8.5V17.5123L29.2065 13.4813ZM19.8575 20.0872V11.0749C14.8804 11.0749 10.8457 15.11 10.8457 20.0872C10.8457 25.065 14.8804 29.1 19.8575 29.1C24.8346 29.1 28.8693 25.065 28.8693 20.0872C28.8693 18.6383 28.5268 17.2694 27.9191 16.0562L19.8575 20.0872Z" fill="#0680FC"/>
</svg>
